<svg width="20" height="20" viewBox="0 0 20 20" fill="none" xmlns="http://www.w3.org/2000/svg">
<path d="M11.25 4.583C10.7913 4.583 10.399 4.42333 10.073 4.104C9.74633 3.78467 9.583 3.396 9.583 2.938C9.583 2.47933 9.74633 2.08333 10.073 1.75C10.399 1.41667 10.7913 1.25 11.25 1.25C11.7087 1.25 12.101 1.41667 12.427 1.75C12.7537 2.08333 12.917 2.47933 12.917 2.938C12.917 3.396 12.7537 3.78467 12.427 4.104C12.101 4.42333 11.7087 4.583 11.25 4.583ZM10.771 19.167V14.146L9.125 12.562L8.292 16.167L2.5 15L2.833 13.25L6.812 14.083L8.125 7.479L6.729 8.021V10.875H4.979V6.896L8.25 5.479C8.70867 5.285 9.06267 5.153 9.312 5.083C9.56267 5.01367 9.792 4.979 10 4.979C10.3053 4.979 10.5867 5.05533 10.844 5.208C11.1007 5.36133 11.3053 5.56967 11.458 5.833L12.271 7.146C12.6317 7.72933 13.1177 8.205 13.729 8.573C14.3403 8.941 15.0417 9.125 15.833 9.125V10.875C14.903 10.875 14.0453 10.6873 13.26 10.312C12.4753 9.93733 11.8193 9.43733 11.292 8.812L10.812 11.208L12.521 12.875V19.167H10.771Z" fill="currentColor"/>
</svg>
