<svg width="20" height="20" viewBox="0 0 20 20" fill="none" xmlns="http://www.w3.org/2000/svg">
<path d="M10 13.708C11.3333 12.6247 12.3473 11.5693 13.042 10.542C13.736 9.51399 14.083 8.55566 14.083 7.66699C14.083 6.88899 13.9443 6.22933 13.667 5.68799C13.389 5.14599 13.045 4.70833 12.635 4.37499C12.2257 4.04166 11.7847 3.79866 11.312 3.64599C10.84 3.49333 10.4027 3.41699 10 3.41699C9.61133 3.41699 9.17733 3.49333 8.698 3.64599C8.21867 3.79866 7.77433 4.04166 7.365 4.37499C6.955 4.70833 6.611 5.14599 6.333 5.68799C6.05567 6.22933 5.917 6.88899 5.917 7.66699C5.917 8.55566 6.264 9.51399 6.958 10.542C7.65267 11.5693 8.66667 12.6247 10 13.708ZM10 15.917C8.028 14.4583 6.56267 13.0487 5.604 11.688C4.646 10.3267 4.167 8.98633 4.167 7.66699C4.167 6.68099 4.34067 5.81266 4.688 5.06199C5.03467 4.31266 5.48933 3.68799 6.052 3.18799C6.61467 2.68799 7.24333 2.30933 7.938 2.05199C8.632 1.79533 9.31933 1.66699 10 1.66699C10.6947 1.66699 11.3857 1.79533 12.073 2.05199C12.7603 2.30933 13.3853 2.68799 13.948 3.18799C14.5107 3.68799 14.9653 4.31266 15.312 5.06199C15.6593 5.81266 15.833 6.68099 15.833 7.66699C15.833 8.98633 15.354 10.3267 14.396 11.688C13.4373 13.0487 11.972 14.4583 10 15.917ZM10 9.24999C10.472 9.24999 10.8747 9.08333 11.208 8.74999C11.5413 8.41666 11.708 8.01399 11.708 7.54199C11.708 7.06933 11.5413 6.66633 11.208 6.33299C10.8747 5.99966 10.472 5.83299 10 5.83299C9.528 5.83299 9.12533 5.99966 8.792 6.33299C8.45867 6.66633 8.292 7.06933 8.292 7.54199C8.292 8.01399 8.45867 8.41666 8.792 8.74999C9.12533 9.08333 9.528 9.24999 10 9.24999ZM4.167 18.333V16.583H15.833V18.333H4.167Z" fill="currentColor"/>
</svg>
