<svg width="20" height="20" viewBox="0 0 20 20" fill="none" xmlns="http://www.w3.org/2000/svg">
<g id="Icon / New Release">
<g id="Vector">
<path d="M15.792 7.66603L14.708 5.31103L12.396 4.24903L14.708 3.18703L15.792 0.832031L16.875 3.18703L19.188 4.24903L16.875 5.31103L15.792 7.66603ZM15.792 19.166L14.708 16.832L12.396 15.77L14.708 14.707L15.792 12.353L16.875 14.707L19.188 15.77L16.875 16.832L15.792 19.166ZM7.62501 16.832L5.52101 12.145L0.833008 9.99903L5.52101 7.87403L7.62501 3.18703L9.75001 7.87403L14.417 9.99903L9.75001 12.145L7.62501 16.832ZM7.62501 12.561L8.43801 10.832L10.146 9.99903L8.43801 9.18703L7.62501 7.45703L6.83301 9.18703L5.10401 9.99903L6.83301 10.832L7.62501 12.561Z" fill="#1EC6CE"/>
<path d="M15.792 7.66603L14.708 5.31103L12.396 4.24903L14.708 3.18703L15.792 0.832031L16.875 3.18703L19.188 4.24903L16.875 5.31103L15.792 7.66603ZM15.792 19.166L14.708 16.832L12.396 15.77L14.708 14.707L15.792 12.353L16.875 14.707L19.188 15.77L16.875 16.832L15.792 19.166ZM7.62501 16.832L5.52101 12.145L0.833008 9.99903L5.52101 7.87403L7.62501 3.18703L9.75001 7.87403L14.417 9.99903L9.75001 12.145L7.62501 16.832ZM7.62501 12.561L8.43801 10.832L10.146 9.99903L8.43801 9.18703L7.62501 7.45703L6.83301 9.18703L5.10401 9.99903L6.83301 10.832L7.62501 12.561Z" fill="url(#paint0_linear_2873_13940)"/>
</g>
</g>
<defs>
<linearGradient id="paint0_linear_2873_13940" x1="10.0105" y1="1.20773" x2="-1.1419" y2="17.842" gradientUnits="userSpaceOnUse">
<stop stop-color="#6CCDDC"/>
<stop offset="1" stop-color="#FFF200"/>
</linearGradient>
</defs>
</svg>
