<svg width="20" height="20" viewBox="0 0 20 20" fill="none" xmlns="http://www.w3.org/2000/svg">
<path d="M9.12501 10.792H10.875V5.85399H9.12501V10.792ZM10 14.188C10.236 14.188 10.441 14.108 10.615 13.948C10.7883 13.788 10.875 13.576 10.875 13.312C10.875 13.076 10.7883 12.8713 10.615 12.698C10.441 12.5247 10.236 12.438 10 12.438C9.76401 12.438 9.55901 12.5247 9.38501 12.698C9.21167 12.8713 9.12501 13.076 9.12501 13.312C9.12501 13.576 9.21167 13.788 9.38501 13.948C9.55901 14.108 9.76401 14.188 10 14.188ZM10 18.333C8.84734 18.333 7.76401 18.1143 6.75001 17.677C5.73601 17.2397 4.85401 16.646 4.10401 15.896C3.35401 15.146 2.76034 14.264 2.32301 13.25C1.88567 12.236 1.66701 11.1527 1.66701 9.99999C1.66701 8.84733 1.88567 7.76399 2.32301 6.74999C2.76034 5.73599 3.35401 4.85399 4.10401 4.10399C4.85401 3.35399 5.73601 2.76033 6.75001 2.32299C7.76401 1.88566 8.84734 1.66699 10 1.66699C11.1527 1.66699 12.236 1.88566 13.25 2.32299C14.264 2.76033 15.146 3.35399 15.896 4.10399C16.646 4.85399 17.2397 5.73599 17.677 6.74999C18.1143 7.76399 18.333 8.84733 18.333 9.99999C18.333 11.1527 18.1143 12.236 17.677 13.25C17.2397 14.264 16.646 15.146 15.896 15.896C15.146 16.646 14.264 17.2397 13.25 17.677C12.236 18.1143 11.1527 18.333 10 18.333ZM10 16.583C11.8193 16.583 13.3713 15.9407 14.656 14.656C15.9407 13.3713 16.583 11.8193 16.583 9.99999C16.583 8.18066 15.9407 6.62866 14.656 5.34399C13.3713 4.05933 11.8193 3.41699 10 3.41699C8.18067 3.41699 6.62867 4.05933 5.34401 5.34399C4.05934 6.62866 3.41701 8.18066 3.41701 9.99999C3.41701 11.8193 4.05934 13.3713 5.34401 14.656C6.62867 15.9407 8.18067 16.583 10 16.583Z" fill="currentColor"/>
</svg>
