<svg width="20" height="20" viewBox="0 0 20 20" fill="none" xmlns="http://www.w3.org/2000/svg">
<path d="M10 18.3332C8.84727 18.3332 7.76394 18.1143 6.75005 17.6765C5.73616 17.2393 4.85422 16.6457 4.10422 15.8957C3.35422 15.1457 2.76061 14.2637 2.32338 13.2498C1.88561 12.2359 1.66672 11.1526 1.66672 9.99984C1.66672 8.84706 1.88561 7.76373 2.32338 6.74984C2.76061 5.73595 3.35422 4.854 4.10422 4.104C4.85422 3.354 5.73616 2.76011 6.75005 2.32234C7.76394 1.88511 8.84727 1.6665 10 1.6665C11.1528 1.6665 12.2362 1.88511 13.25 2.32234C14.2639 2.76011 15.1459 3.354 15.8959 4.104C16.6459 4.854 17.2395 5.73595 17.6767 6.74984C18.1145 7.76373 18.3334 8.84706 18.3334 9.99984C18.3334 11.1526 18.1145 12.2359 17.6767 13.2498C17.2395 14.2637 16.6459 15.1457 15.8959 15.8957C15.1459 16.6457 14.2639 17.2393 13.25 17.6765C12.2362 18.1143 11.1528 18.3332 10 18.3332ZM9.16672 10.8332H10.8334V5.83317H9.16672V10.8332ZM10 14.1665C10.2362 14.1665 10.4342 14.0865 10.5942 13.9265C10.7537 13.7671 10.8334 13.5693 10.8334 13.3332C10.8334 13.0971 10.7537 12.899 10.5942 12.739C10.4342 12.5796 10.2362 12.4998 10 12.4998C9.76394 12.4998 9.56616 12.5796 9.40672 12.739C9.24672 12.899 9.16672 13.0971 9.16672 13.3332C9.16672 13.5693 9.24672 13.7671 9.40672 13.9265C9.56616 14.0865 9.76394 14.1665 10 14.1665Z" fill="currentColor"/>
</svg>
