<svg width="20" height="20" viewBox="0 0 20 20" fill="none" xmlns="http://www.w3.org/2000/svg">
<path d="M6.25 14.583C4.972 14.583 3.88867 14.1387 3 13.25C2.11133 12.3613 1.667 11.278 1.667 9.99999C1.667 8.72199 2.11133 7.63866 3 6.74999C3.88867 5.86133 4.972 5.41699 6.25 5.41699H14.958C15.8887 5.41699 16.684 5.73966 17.344 6.38499C18.0033 7.03099 18.333 7.81933 18.333 8.74999C18.333 9.68066 18.0067 10.469 17.354 11.115C16.7013 11.7603 15.9097 12.083 14.979 12.083H7.125C6.54167 12.083 6.04167 11.8817 5.625 11.479C5.20833 11.0763 5 10.5833 5 9.99999C5 9.41666 5.20833 8.92366 5.625 8.52099C6.04167 8.11833 6.54167 7.91699 7.125 7.91699H15V9.24999H7.125C6.903 9.24999 6.71533 9.32299 6.562 9.46899C6.40933 9.61499 6.333 9.79199 6.333 9.99999C6.333 10.208 6.40933 10.385 6.562 10.531C6.71533 10.677 6.903 10.75 7.125 10.75H14.958C15.5273 10.75 16.01 10.5557 16.406 10.167C16.802 9.77766 17 9.30533 17 8.74999C17 8.19466 16.802 7.72233 16.406 7.33299C16.01 6.94433 15.5273 6.74999 14.958 6.74999H6.271C5.35433 6.74999 4.58 7.06599 3.948 7.69799C3.316 8.32999 3 9.09733 3 9.99999C3 10.9027 3.316 11.67 3.948 12.302C4.58 12.934 5.34733 13.25 6.25 13.25H15V14.583H6.25Z" fill="currentColor"/>
</svg>
