<svg width="20" height="20" viewBox="0 0 20 20" fill="none" xmlns="http://www.w3.org/2000/svg">
<path d="M5.25 7.708H9.417V6.438H5.25V7.708ZM10.792 14.333H14.958V13.042H10.792V14.333ZM10.792 12.292H14.958V11H10.792V12.292ZM6.688 14.958H7.979V13.312H9.625V12.021H7.979V10.375H6.688V12.021H5.042V13.312H6.688V14.958ZM11.688 9.188L12.854 8.021L14.021 9.188L14.938 8.271L13.771 7.104L14.938 5.938L14.021 5.021L12.854 6.188L11.688 5.021L10.771 5.938L11.938 7.104L10.771 8.271L11.688 9.188ZM4.25 17.5C3.764 17.5 3.35067 17.33 3.01 16.99C2.67 16.6493 2.5 16.236 2.5 15.75V4.25C2.5 3.764 2.67 3.35067 3.01 3.01C3.35067 2.67 3.764 2.5 4.25 2.5H15.75C16.236 2.5 16.6493 2.67 16.99 3.01C17.33 3.35067 17.5 3.764 17.5 4.25V15.75C17.5 16.236 17.33 16.6493 16.99 16.99C16.6493 17.33 16.236 17.5 15.75 17.5H4.25ZM4.25 15.75H15.75V4.25H4.25V15.75Z" fill="currentColor"/>
</svg>
