<svg xmlns="http://www.w3.org/2000/svg" width="15" height="14" viewBox="0 0 15 14" fill="none">
<path d="M9.8125 11.75L10.9792 10.5833L12.1458 11.75L12.75 11.1458L11.5833 9.97917L12.75 8.8125L12.1458 8.20833L10.9792 9.375L9.8125 8.20833L9.20833 8.8125L10.375 9.97917L9.20833 11.1458L9.8125 11.75ZM0 12V0L11.2917 4.5C10.7361 4.5 10.2708 4.53819 9.89583 4.61458C9.52083 4.69097 9.09028 4.84028 8.60417 5.0625L1.5 2.22917V4.5L6 6L1.5 7.5V9.77083L5.875 8.04167C5.76389 8.31944 5.67708 8.60764 5.61458 8.90625C5.55208 9.20486 5.51389 9.5 5.5 9.79167L0 12ZM11 14C9.88889 14 8.94444 13.6111 8.16667 12.8333C7.38889 12.0556 7 11.1111 7 10C7 8.88889 7.38889 7.94444 8.16667 7.16667C8.94444 6.38889 9.88889 6 11 6C12.1111 6 13.0556 6.38889 13.8333 7.16667C14.6111 7.94444 15 8.88889 15 10C15 11.1111 14.6111 12.0556 13.8333 12.8333C13.0556 13.6111 12.1111 14 11 14ZM1.5 7.5V2.22917V9.77083V7.5Z" fill="#E5243C"/>
</svg>
