<svg width="20" height="20" viewBox="0 0 20 20" fill="none" xmlns="http://www.w3.org/2000/svg">
<path d="M5.875 18.333C5.403 18.333 5.00033 18.1663 4.667 17.833C4.33367 17.4997 4.167 17.097 4.167 16.625C4.167 16.153 4.33367 15.7503 4.667 15.417C5.00033 15.0837 5.403 14.917 5.875 14.917C6.347 14.917 6.74967 15.0837 7.083 15.417C7.41633 15.7503 7.583 16.153 7.583 16.625C7.583 17.097 7.41633 17.4997 7.083 17.833C6.74967 18.1663 6.347 18.333 5.875 18.333ZM14.146 18.333C13.674 18.333 13.2713 18.1663 12.938 17.833C12.6047 17.4997 12.438 17.097 12.438 16.625C12.438 16.153 12.6047 15.7503 12.938 15.417C13.2713 15.0837 13.674 14.917 14.146 14.917C14.618 14.917 15.0207 15.0837 15.354 15.417C15.6873 15.7503 15.854 16.153 15.854 16.625C15.854 17.097 15.6873 17.4997 15.354 17.833C15.0207 18.1663 14.618 18.333 14.146 18.333ZM5.229 5.06199L7.167 9.14599H12.958L15.188 5.06199H5.229ZM4.396 3.31199H16.75C17.1113 3.31199 17.3613 3.45799 17.5 3.74999C17.6387 4.04199 17.6317 4.32666 17.479 4.60399L14.479 9.99999C14.3263 10.278 14.118 10.4967 13.854 10.656C13.59 10.816 13.2983 10.896 12.979 10.896H6.812L5.958 12.458H15.896V14.208H5.854C5.22933 14.208 4.75033 13.927 4.417 13.365C4.08367 12.8023 4.06967 12.2433 4.375 11.688L5.458 9.68799L2.5 3.41699H0.833V1.66699H3.604L4.396 3.31199Z" fill="currentColor"/>
</svg>
