<svg width="40" height="40" viewBox="0 0 40 40" fill="none" xmlns="http://www.w3.org/2000/svg">
<g id="Feature Icon">
<path id="Vector" d="M10.8333 23.5063H22.4125V22.0963H10.8333V23.5063ZM10.8333 18.3783H29.1667V16.9679H10.8333V18.3783ZM10.8333 13.25H29.1667V11.8396H10.8333V13.25ZM5 34.4617V8.43583C5 7.75306 5.23528 7.17639 5.70583 6.70583C6.17639 6.23528 6.75306 6 7.43583 6H32.5642C33.2469 6 33.8236 6.23528 34.2942 6.70583C34.7647 7.17639 35 7.75306 35 8.43583V26.8975C35 27.5803 34.7647 28.1569 34.2942 28.6275C33.8236 29.0981 33.2469 29.3333 32.5642 29.3333H10.1283L5 34.4617ZM9.51083 27.9229H32.5642C32.8206 27.9229 33.0556 27.8161 33.2692 27.6025C33.4828 27.3889 33.5896 27.1539 33.5896 26.8975V8.43583C33.5896 8.17945 33.4828 7.94444 33.2692 7.73083C33.0556 7.51722 32.8206 7.41042 32.5642 7.41042H7.43583C7.17944 7.41042 6.94444 7.51722 6.73083 7.73083C6.51722 7.94444 6.41042 8.17945 6.41042 8.43583V31.1017L9.51083 27.9229Z" fill="url(#paint0_linear_3287_198)"/>
</g>
<defs>
<linearGradient id="paint0_linear_3287_198" x1="11.5" y1="10" x2="46.1493" y2="17.8785" gradientUnits="userSpaceOnUse">
<stop stop-color="#6CCAD9"/>
<stop offset="1" stop-color="#FFFBB9"/>
</linearGradient>
</defs>
</svg>
