<svg width="20" height="20" viewBox="0 0 20 20" fill="none" xmlns="http://www.w3.org/2000/svg">
<path d="M3.417 14.875C2.931 14.875 2.51767 14.705 2.177 14.365C1.837 14.0243 1.667 13.611 1.667 13.125V4.25C1.667 3.764 1.837 3.35067 2.177 3.01C2.51767 2.67 2.931 2.5 3.417 2.5H16.583C17.069 2.5 17.4823 2.67 17.823 3.01C18.163 3.35067 18.333 3.764 18.333 4.25V13.125C18.333 13.611 18.163 14.0243 17.823 14.365C17.4823 14.705 17.069 14.875 16.583 14.875H3.417ZM3.417 13.125H16.583V4.25H3.417V13.125ZM1.708 17.5C1.472 17.5 1.26733 17.4133 1.094 17.24C0.92 17.066 0.833 16.861 0.833 16.625C0.833 16.389 0.92 16.184 1.094 16.01C1.26733 15.8367 1.472 15.75 1.708 15.75H18.292C18.528 15.75 18.7327 15.8367 18.906 16.01C19.08 16.184 19.167 16.389 19.167 16.625C19.167 16.861 19.08 17.066 18.906 17.24C18.7327 17.4133 18.528 17.5 18.292 17.5H1.708Z" fill="currentColor"/>
</svg>
