<svg width="20" height="20" viewBox="0 0 20 20" fill="none" xmlns="http://www.w3.org/2000/svg">
<path d="M2.70985 18C1.94502 18 1.46331 17.1763 1.83827 16.5097L9.12842 3.54947C9.51073 2.86982 10.4893 2.86982 10.8716 3.54947L18.1617 16.5097C18.5367 17.1763 18.055 18 17.2902 18H2.70985ZM3.646 16.5H16.354L10 4.917L3.646 16.5ZM10 15.5C10.208 15.5 10.385 15.427 10.531 15.281C10.677 15.135 10.75 14.958 10.75 14.75C10.75 14.542 10.677 14.365 10.531 14.219C10.385 14.073 10.208 14 10 14C9.792 14 9.615 14.073 9.469 14.219C9.323 14.365 9.25 14.542 9.25 14.75C9.25 14.958 9.323 15.135 9.469 15.281C9.615 15.427 9.792 15.5 10 15.5ZM9.25 13H10.75V9H9.25V13Z" fill="currentColor"/>
</svg>
