<svg width="20" height="20" viewBox="0 0 20 20" fill="none" xmlns="http://www.w3.org/2000/svg">
<path d="M1.667 16.667V14.042H3.312V5.08301C3.312 4.59701 3.48233 4.18401 3.823 3.84401C4.163 3.50334 4.576 3.33301 5.062 3.33301H17.458V5.08301H5.062V14.042H10.083V16.667H1.667ZM12.688 16.667C12.4513 16.667 12.2497 16.5837 12.083 16.417C11.9163 16.2503 11.833 16.0557 11.833 15.833V7.64601C11.833 7.41001 11.9163 7.21567 12.083 7.06301C12.2497 6.90967 12.4513 6.83301 12.688 6.83301H17.542C17.764 6.83301 17.9513 6.90967 18.104 7.06301C18.2567 7.21567 18.333 7.41001 18.333 7.64601V15.833C18.333 16.0557 18.2567 16.2503 18.104 16.417C17.9513 16.5837 17.764 16.667 17.542 16.667H12.688ZM13.583 14.042H16.583V8.58301H13.583V14.042Z" fill="currentColor"/>
</svg>
