<svg width="20" height="20" viewBox="0 0 20 20" fill="none" xmlns="http://www.w3.org/2000/svg">
<path d="M5.75 11C5.958 11 6.135 10.927 6.281 10.781C6.427 10.635 6.5 10.458 6.5 10.25C6.5 10.042 6.427 9.865 6.281 9.719C6.135 9.573 5.958 9.5 5.75 9.5C5.542 9.5 5.365 9.573 5.219 9.719C5.073 9.865 5 10.042 5 10.25C5 10.458 5.073 10.635 5.219 10.781C5.365 10.927 5.542 11 5.75 11ZM5.75 8.5C5.958 8.5 6.135 8.427 6.281 8.281C6.427 8.135 6.5 7.958 6.5 7.75C6.5 7.542 6.427 7.365 6.281 7.219C6.135 7.073 5.958 7 5.75 7C5.542 7 5.365 7.073 5.219 7.219C5.073 7.365 5 7.542 5 7.75C5 7.958 5.073 8.135 5.219 8.281C5.365 8.427 5.542 8.5 5.75 8.5ZM8 11H15V9.5H8V11ZM8 8.5H15V7H8V8.5ZM7 17V15H3.5C3.08333 15 2.72933 14.854 2.438 14.562C2.146 14.2707 2 13.9167 2 13.5V4.5C2 4.08333 2.146 3.72933 2.438 3.438C2.72933 3.146 3.08333 3 3.5 3H16.5C16.9167 3 17.2707 3.146 17.562 3.438C17.854 3.72933 18 4.08333 18 4.5V13.5C18 13.9167 17.854 14.2707 17.562 14.562C17.2707 14.854 16.9167 15 16.5 15H13V17H7ZM3.5 13.5H16.5V4.5H3.5V13.5Z" fill="#414159"/>
</svg>
