<svg width="500" height="318" viewBox="0 0 250 159" fill="none" xmlns="http://www.w3.org/2000/svg">
<path d="M132.32 15.3566C109.233 24.5905 105.74 31.677 91.5695 37.3431C75.3097 43.6981 61.1816 28.7067 40.6635 36.9115C25.7915 42.859 19.5065 58.5817 19.1066 74.1532C18.5744 94.9146 37.4328 112.24 61.2304 112.851C76.0116 113.229 89.2188 107.069 97.2339 97.3723C108.216 107.769 123.789 114.456 141.205 114.901C175.367 115.778 203.68 92.326 204.445 62.5224C204.884 45.412 196.149 29.9278 182.163 19.6754C171.788 12.071 153.665 7.01325 132.32 15.3566Z" fill="url(#paint0_linear_98_50755)" fill-opacity="0.5"/>
<path d="M97.1663 79.5717C103.1 79.5717 107.911 74.7612 107.911 68.8271C107.911 62.893 103.1 58.0825 97.1663 58.0825C91.2322 58.0825 86.4216 62.893 86.4216 68.8271C86.4216 74.7612 91.2322 79.5717 97.1663 79.5717Z" fill="url(#paint1_linear_98_50755)"/>
<path d="M138.328 84.4116C141.941 81.6277 146.575 78.6933 150.606 76.9601C153.987 75.5063 157.629 74.3799 161.01 72.9261C162.788 72.1624 164.564 71.3976 166.342 70.6339C170.422 68.8793 173.364 67.7113 177.61 66.4058C175.937 68.9571 179 69.1321 175.599 72.5357C174.755 73.3805 175.133 74.6338 175.502 75.7697C175.871 76.9067 176.677 77.8507 177.57 78.6453C178.408 79.3909 179.391 80.1088 179.698 81.1882C180.042 82.3956 179.405 83.6894 178.517 84.578C177.63 85.4665 176.506 86.0755 175.533 86.8669C174.265 87.8973 173.255 89.2445 172.621 90.7505C172.511 91.0119 172.397 91.2967 172.155 91.4428C171.99 91.5431 171.79 91.5623 171.597 91.5772C166.723 91.9644 161.842 91.1687 157.018 90.3762C151.703 89.5026 146.217 88.564 141.699 85.6296C140.939 85.1358 138.737 84.8083 138.328 84.4116Z" fill="url(#paint2_linear_98_50755)"/>
<path d="M177.713 66.4058C181.461 68.4025 185.538 71.4204 188.834 74.0902C191.673 76.091 213.985 89.4082 213.985 89.4082C213.985 89.4082 200.884 89.4082 195.825 89.4082C191.88 89.4082 182.294 90.2172 178.986 89.4164C176.205 88.7444 173.369 88.2982 170.515 88.0842C170.297 83.4092 170.325 78.6576 171.572 74.1445C171.942 72.8059 172.423 71.4843 173.17 70.3108C174.378 68.4142 176.013 66.8626 177.713 66.4058Z" fill="url(#paint3_linear_98_50755)"/>
<path d="M106.011 75.5525C106.011 75.5525 138.484 83.3461 156.465 86.4287C168.569 88.5035 173.495 85.492 190.648 84.3721C193.02 84.2178 246.524 117.789 246.524 117.789C246.524 117.789 197.545 113.494 197.366 117.789C188.869 116.557 178.92 115.649 170.35 115.117C158.858 114.401 147.366 113.685 135.873 112.969C117.088 111.8 98.1794 110.633 79.4929 112.883C78.7347 112.974 77.7283 113.425 77.9568 114.154C83.0915 109.552 87.0126 103.78 90.8806 98.0722C95.3949 91.4075 99.9092 84.7429 104.425 78.0782C105.065 77.1324 106.011 75.5525 106.011 75.5525Z" fill="url(#paint4_linear_98_50755)"/>
<path d="M0 122.839C0 122.839 39.4222 93.2671 42.6002 91.0727C45.7782 88.8784 54.3249 82.5269 56.8809 81.5493C57.7813 81.2058 63.3852 81.9185 64.1827 81.9185C70.068 81.9185 71.7297 82.7887 77.674 82.6843C79.5702 82.651 82.0097 83.0339 83.9059 83.0339C85.7325 83.0339 89.4886 81.4146 90.2498 81.0696C95.9868 78.4727 99.7111 77.5541 105.677 75.5354C106.317 75.319 106.741 75.944 107.426 76.5039C109.433 78.1383 110.329 79.3535 113.166 79.93C113.909 80.0814 115.863 80.0662 115.901 80.6534C115.926 81.0514 113.678 81.2829 112.938 81.5054C109.909 82.4134 113.655 84.3126 114.637 84.7333C117.549 85.9818 119.97 86.7914 123.216 87.9219C129.858 89.9876 136.309 91.9246 143.21 92.7933C145.143 93.0369 150.904 93.9918 152.183 94.1522C154.769 94.4776 156.606 94.6622 159.123 94.8937C165.692 95.4991 178.966 96.7355 178.737 97.1834C178.543 97.5617 166.921 97.7933 162.139 98.6271C161.263 98.78 166.627 101.162 171.812 101.875C178.133 102.743 246.672 117.556 246.672 117.556L187.501 115.891C187.501 115.891 184.795 119.877 180.994 121.036C160.352 119.587 144.126 124.007 123.451 124.854C116.727 125.13 110.006 125.528 103.278 125.532C84.7488 125.546 46.8945 122.839 46.8945 122.839H0Z" fill="url(#paint5_linear_98_50755)"/>
<path opacity="0.502" d="M183.164 56.9836C183.726 56.6347 184.296 56.2531 184.654 55.6955C185.259 54.7495 185.097 53.4267 184.392 52.5514C183.689 51.6763 182.531 51.2354 181.409 51.2502C181.179 51.2535 180.938 51.2705 180.734 51.1672C180.476 51.0342 180.348 50.7451 180.22 50.4836C179.387 48.7762 177.716 47.5008 175.85 47.1448C173.982 46.7887 171.961 47.3606 170.557 48.6427C170.001 46.8892 167.154 45.7301 165.721 45.7443C164.362 45.757 161.489 46.7162 161.223 48.0508C159.274 47.0882 156.788 48.1174 155.506 49.8722C154.223 51.627 153.902 53.902 153.857 56.0758C151.218 56.1996 148.987 58.865 149.33 61.4855C147.947 61.0941 147.182 62.7811 143.208 63.5398C141.384 63.8878 131.3 65.3036 127.28 65.8812C171.044 62.999 181.848 57.7994 183.164 56.9836Z" fill="#1EC6CE"/>
<path opacity="0.502" d="M128.867 50.7303C129.257 49.7371 127.735 48.7832 126.832 49.0861C126.893 47.889 125.611 47.0379 124.372 47.1651C123.459 47.2579 122.875 47.6171 122.558 48.7962C122.097 48.2267 121.598 47.6968 120.865 47.7021C120.133 47.7075 119.236 48.4137 119.347 49.1381C118.54 48.9177 117.619 49.2032 117.078 49.8407C116.537 50.4782 116.406 51.4348 116.756 52.1933C115.847 52.1234 114.712 52.175 114.32 52.9987C114.222 53.2061 114.188 53.4383 114.098 53.6498C113.65 54.6907 105.337 56.0522 105.337 56.0522C105.337 56.0522 127.801 53.4483 128.867 50.7303Z" fill="#1EC6CE"/>
<path opacity="0.502" d="M66.6005 59.1648C65.3115 58.8809 62.833 58.2111 62.1768 57.0662C61.68 56.1993 61.9851 55.2278 61.5229 54.342C61.0607 53.4562 59.7826 52.8802 58.9787 53.4736C58.1889 48.1134 54.6029 47.3546 51.4591 47.8667C51.1464 47.9179 50.8201 47.9935 50.5181 47.8949C50.2161 47.7964 49.9963 47.5432 49.782 47.3104C48.281 45.6905 46.224 44.5936 44.0421 44.2518C42.7879 44.0553 37.1568 44.137 37.0336 48.9948C36.93 53.0701 39.1415 54.8069 40.4998 55.2602C54.8353 60.0451 79.1998 60.9154 79.1998 60.9154C79.1998 60.9154 67.8895 59.4488 66.6005 59.1648Z" fill="#1EC6CE"/>
<path d="M107.282 84.3735C120.042 88.1175 134.582 92.6453 147.049 97.2761C158.653 101.586 187.502 109.64 196.882 113.016C209.899 117.701 250 131.7 250 131.7H168.886L90.0119 133.258C90.0119 133.258 92.2425 128.276 80.3069 126.011C82.5269 117.881 86.1952 110.15 91.0893 103.29C93.9147 99.3297 97.1351 95.669 100.348 92.0173C102.987 89.0179 104.369 85.4646 107.282 84.3735Z" fill="url(#paint6_linear_98_50755)"/>
<path d="M12.2563 133.343C31.1956 123.07 87.3837 92.633 107.284 84.3718C120.25 95.923 139.861 98.8664 140.229 102.264C140.462 104.422 137.106 105.605 130.957 106.878C95.4876 114.222 92.6637 109.908 92.408 113.057C92.0977 116.875 118.328 122.102 118.704 125.64C118.97 128.151 113.206 133.254 96.3426 133.254C79.4508 133.254 47.2593 133.343 47.2593 133.343H12.2563Z" fill="url(#paint7_linear_98_50755)"/>
<path opacity="0.25" d="M77.198 98.4537C77.198 97.4503 81.1962 96.6377 86.1266 96.6377C91.0571 96.6377 90.3488 99.7597 90.9693 100.547C92.0982 101.98 102.558 107.534 97.6279 107.534C92.6975 107.534 77.198 99.457 77.198 98.4537Z" fill="#16121A"/>
<path opacity="0.25" d="M63.8711 97.7317C63.8711 96.7284 67.1883 95.4617 72.1187 95.4617C73.6321 95.2347 76.6436 98.9121 77.264 99.699C78.393 101.132 92.6364 108.325 87.706 108.325C85.551 108.325 80.7265 106.493 75.9777 104.347C75.2667 104.025 74.0861 111.904 72.1187 110.973C71.529 110.694 72.6874 102.807 72.1187 102.529C67.5681 100.298 63.8711 98.1754 63.8711 97.7317Z" fill="#16121A"/>
<path d="M82.1745 88.9393C82.1624 88.7895 82.1685 88.8485 80.8065 88.9378C79.39 89.0301 78.3564 89.1573 78.3685 89.3086C78.3806 89.4584 79.2054 89.5689 80.6203 89.4599C81.9233 89.3585 82.1851 89.0892 82.1745 88.9393Z" fill="#05619E"/>
<path d="M79.6329 96.6687L81.2083 96.6097C81.2083 96.6097 81.7031 89.7967 81.7107 88.4983C81.128 88.5906 79.9522 88.5936 79.418 88.7329C79.3348 88.7556 79.6329 96.6687 79.6329 96.6687Z" fill="#DEA77A"/>
<path d="M78.9512 72.9679C78.8982 72.6561 79.2856 72.4579 79.5611 72.302C79.6322 72.2611 79.7124 72.2324 79.776 72.1794C79.8365 72.1295 79.8789 72.0614 79.9152 71.9918C80.1134 71.6089 80.1891 71.1549 80.0241 70.7569C80.2602 70.7584 80.4464 70.766 80.6461 70.6389C80.8459 70.5118 80.9639 70.4361 81.1077 70.2484C81.1485 70.1955 81.259 70.0744 81.3105 70.0078C81.374 70.2908 81.2742 71.1246 81.8704 71.503C82.3259 71.792 82.5696 71.3774 83.0009 71.503C83.3398 71.6029 82.0883 73.2191 81.0275 73.4915C80.4509 73.6398 80.3208 72.7832 79.7366 72.9043C79.5338 72.9452 79.0995 72.8423 78.9512 72.9679Z" fill="#DEA77A"/>
<path d="M81.3607 70.522C81.3607 70.522 80.7584 70.3464 80.4981 70.5371C80.3589 70.64 80.2045 70.7051 80.0396 70.7565C80.0895 70.9502 80.1243 71.1742 80.1031 71.3967C80.4935 71.3089 80.9324 71.1818 81.1246 71.0138C81.3047 70.8564 81.3607 70.522 81.3607 70.522Z" fill="#CC8F5E"/>
<path d="M83.5629 71.5208C83.6976 71.5738 84.1607 72.111 84.2439 72.229C84.424 72.4833 84.8689 72.4697 84.8704 72.9887C84.8719 73.5184 84.8749 75.6416 84.881 76.6464C84.8886 77.7057 85.0959 78.1446 85.3108 78.8165C85.3411 78.9103 85.7739 80.0817 85.7739 80.0817C85.7739 80.0817 85.282 80.1119 84.766 80.1422C84.3014 80.1709 83.7899 80.2118 83.4797 80.2315C83.1392 80.2527 82.8138 80.2239 82.4279 80.2481C81.8937 80.2814 80.2669 80.3208 80.2669 80.3208C80.2669 80.3208 80.4016 77.8465 80.3168 77.1413C80.167 75.9019 79.6767 75.2602 79.2696 73.6531C79.1515 73.1855 79.2317 72.7738 79.1894 72.4273C79.1667 72.2442 79.5798 72.1761 79.8598 72.0777C79.9082 72.0611 81.1068 73.3549 81.1068 73.3549L82.0708 71.5723C83.9518 71.1546 83.3919 71.4542 83.5629 71.5208Z" fill="#FBD3CA"/>
<path d="M78.9881 76.0138C78.861 75.9079 78.7354 75.8004 78.6083 75.6945C78.4463 75.5583 78.2844 75.4221 78.1104 75.3041C77.8864 75.1512 77.5641 74.9348 77.5368 74.9288C77.5111 74.9227 77.4899 74.894 77.4748 74.9151C77.393 75.0438 77.496 75.575 78.0771 76.0032C78.7066 76.4678 79.321 76.5798 79.3982 76.489C79.4587 76.4148 79.0032 76.0153 78.9881 76.0138Z" fill="#C9993E"/>
<path d="M77.554 77.6113C76.4523 78.0093 76.0498 77.1649 76.0195 77.0348C75.9166 76.5914 75.844 75.8695 75.9423 75.4246C76.2647 73.9673 76.4629 72.5024 76.7898 71.0466C76.8382 70.8286 76.8518 70.6032 76.8291 70.3883C76.8064 70.1658 77.0138 70.0644 76.9744 70.3686C76.9608 70.4806 76.9638 70.5653 77.0077 70.5744C77.0516 70.5699 77.1424 70.187 77.215 70.2127C77.2665 70.2067 77.1046 70.7288 77.1575 70.7681C77.2211 70.7878 77.3376 70.1234 77.4012 70.1492C77.5101 70.1355 77.377 70.7363 77.436 70.7439C77.4829 70.7681 77.5828 70.3141 77.6433 70.3383C77.7311 70.3701 77.5449 71.0148 77.5994 71.0299C77.6267 71.0617 77.7629 70.694 77.7629 70.694C77.7629 70.694 77.8779 70.411 77.9838 70.4836C78.0353 70.5063 77.9399 70.7454 77.8809 70.8438C77.6509 71.2266 77.265 71.8335 77.2604 72.0802C77.2483 72.7642 77.2529 75.1446 77.1 75.7091C77.2423 75.4064 77.4557 75.1371 77.7159 74.9282C78.0686 75.3353 78.3954 75.4579 78.8388 75.7621C78.8646 75.7802 79.2036 76.0799 79.193 76.1086C79.1793 76.1343 78.2017 77.3768 77.554 77.6113Z" fill="#DEA77A" stroke="#DEA77A" stroke-width="0.573396" stroke-miterlimit="10"/>
<path d="M81.7745 80.2857C81.9061 79.2445 81.6035 77.0336 81.5641 76.7748C81.3795 75.549 81.1116 73.4409 81.1101 73.3562" stroke="#EC6446" stroke-width="0.573396" stroke-miterlimit="10"/>
<path d="M82.5495 74.8686C82.4224 74.7687 82.2953 74.6673 82.1682 74.5674C82.0063 74.4388 81.8428 74.3117 81.6673 74.1997C81.4418 74.0559 81.068 73.897 81.0392 73.8985C81.012 73.9 80.9833 73.8561 80.9681 73.8788C80.8834 74.0045 81.0741 74.5235 81.6582 74.9261C82.2908 75.3634 82.9884 75.374 82.999 75.3422C83.0323 75.256 82.5662 74.8701 82.5495 74.8686Z" fill="#C9993E"/>
<path d="M77.6394 74.8335C77.544 74.9833 77.2217 75.3919 77.2217 75.3919C77.2217 75.3919 77.2323 76.0457 77.2474 76.1667C77.2474 76.1667 77.3079 77.5015 77.3064 77.6846C77.5274 77.1216 77.7483 75.6068 77.8709 75.1513C77.9254 74.9546 77.8754 74.953 77.6394 74.8335Z" fill="#CC8F5E"/>
<path d="M83.2125 74.6564C82.7872 74.2826 81.911 73.9118 81.4207 73.6304C81.2709 73.8664 80.8956 74.3719 80.7382 74.608C80.5793 74.8486 80.9501 75.4252 80.5974 76.0502C80.5732 76.0941 80.5475 76.141 80.5505 76.1909C80.5536 76.2393 80.5823 76.2832 80.6096 76.3226C80.8139 76.6116 81.3193 76.713 81.5735 76.9612C81.8913 76.7841 82.8811 75.0801 83.2125 74.6564Z" fill="#DEA77A"/>
<path d="M79.0677 72.4712C78.6409 73.2082 78.1506 74.0708 77.5635 74.7775C77.5377 74.8078 77.4727 74.9198 77.4727 74.9198L79.384 76.5027C79.384 76.5027 80.1966 75.743 80.7672 74.5581C80.8095 74.4688 79.4899 72.5393 79.4339 72.4576C79.3779 72.3744 79.0919 72.4304 79.0677 72.4712Z" fill="#F9927B"/>
<path d="M73.2632 74.4802C73.3071 74.4802 73.351 74.4045 73.3948 74.4045C73.3494 74.4045 73.3071 74.4802 73.2632 74.4802Z" fill="#F09F92"/>
<path d="M72.5029 74.478C72.5468 74.478 72.5907 74.4023 72.6346 74.4023C72.5892 74.4023 72.5453 74.478 72.5029 74.478Z" fill="#DB8476"/>
<path d="M86.4451 88.565C86.433 88.4152 85.9669 88.3865 85.1225 88.4954C83.7151 88.677 82.8767 88.8056 82.8888 88.957C82.9009 89.1083 83.5728 89.2717 84.9817 89.1007C85.976 88.9782 86.4572 88.7164 86.4451 88.565Z" fill="#05619E"/>
<path d="M83.8918 96.4417H85.3672C85.3672 96.4417 85.8424 89.5697 85.85 88.2712C85.2855 88.3772 84.0295 88.2909 83.4937 88.4301C83.412 88.4513 83.8918 96.4417 83.8918 96.4417Z" fill="#DEA77A"/>
<path d="M85.7104 80.0801C85.9646 80.4524 86.3899 88.4987 86.3899 88.4987C86.3899 88.4987 85.4108 88.5456 84.7298 88.5926C83.7385 88.6607 82.9395 88.8892 82.9395 88.8892C82.9395 88.8892 83.2255 84.0768 82.9788 82.901C82.2706 85.1634 82.1299 88.8952 82.1299 88.8952C82.1299 88.8952 80.609 88.8892 80.1398 88.9331C79.6828 88.9754 78.4268 89.2388 78.4268 89.2388L80.3169 80.351C80.3169 80.351 81.9861 80.345 82.7972 80.2542C83.8082 80.1407 84.6511 80.0635 85.7104 80.0801Z" fill="#3D5C9B" stroke="#3D5C9B" stroke-width="0.573396" stroke-miterlimit="10"/>
<path d="M81.9275 73.9646C81.9396 74.5744 81.8881 75.1919 81.7898 75.7942C81.7338 76.1407 81.7686 76.7007 81.6036 76.905C81.3933 77.1653 81.0331 75.0315 80.7698 74.5215C80.9181 74.3792 81.2056 73.9404 81.3191 73.783C81.363 73.7209 81.8927 74.0085 81.9275 73.9646Z" fill="#CC8F5E"/>
<path d="M82.9885 75.3644C82.5708 74.9861 81.4676 74.1447 80.9712 73.8783C81.3041 73.3698 81.9246 72.6813 82.2575 72.1728C82.4679 71.852 82.7721 71.4207 83.1504 71.3541C83.3063 71.3268 83.5892 71.3723 83.7376 71.4267C84.1462 71.575 84.5532 71.8035 84.7363 72.1985C84.9346 72.6268 85.0148 72.9416 84.7121 73.3123C84.1946 73.9449 83.4016 74.8605 82.9885 75.3644Z" fill="#F9927B"/>
<path opacity="0.0902" d="M82.9411 83.2795C81.3582 86.2229 80.4607 88.9606 80.4607 88.9606L81.3944 88.9394H82.1723C82.1738 88.9394 82.3358 85.8522 82.9411 83.2795Z" fill="black" fill-opacity="0.6"/>
<path d="M78.9359 68.6458C79.0479 68.9939 79.2113 69.5644 79.0146 69.923C79.0645 69.9579 79.0857 70.0199 79.1054 70.0774C79.1886 70.3074 79.3112 70.5223 79.4671 70.7085C79.635 70.9097 79.9241 70.9869 80.136 71.0278C80.3932 71.0777 81.0667 70.8356 81.2013 70.7039C81.3875 70.5254 81.4465 70.2499 81.4556 69.9927C81.4677 69.6839 81.4223 69.3722 81.3239 69.0786C81.277 68.9394 81.218 68.8047 81.1726 68.6655C81.0606 68.331 81.0197 67.9739 81.053 67.6228C80.316 67.7938 79.7349 67.8483 79.0494 68.1676C78.9889 68.1963 78.7588 68.1464 78.7271 68.2069C78.8738 68.2675 78.8648 68.6231 78.9359 68.6458Z" fill="#DEA77A"/>
<path d="M79.3971 68.8013C78.7358 68.7347 78.0063 68.5576 77.6462 67.9977C77.3995 67.6133 77.4252 67.0731 77.7067 66.7129C77.9882 66.3527 78.5315 66.1424 78.9643 66.2922C79.1262 66.3482 79.2942 66.4829 79.4637 66.5071C79.6332 66.5313 79.7391 66.4511 79.7784 66.2846C79.7921 66.2241 79.8919 65.9487 80.2097 65.9517C80.3611 65.9532 80.5048 66.0183 80.6183 66.1197C80.8529 66.33 80.6864 66.7704 80.9028 66.9989C81.039 67.1442 81.2676 67.1381 81.4658 67.1321C81.7927 67.1215 82.1301 67.1396 82.4237 67.2849C82.7158 67.4302 82.9534 67.7283 82.9368 68.0552C82.9216 68.3458 82.7113 68.5985 82.4555 68.7362C82.1998 68.8739 81.9032 68.9148 81.6126 68.939C81.8033 68.9541 81.9364 69.1614 81.9259 69.3521C81.9153 69.5428 81.7957 69.7123 81.6565 69.8439C81.4764 70.0149 81.3478 70.0286 81.1041 69.9817C80.8605 69.9347 80.5396 69.7879 80.6713 69.5761C80.697 69.5337 80.75 69.4717 80.7636 69.4248C80.806 69.284 80.6456 69.3476 80.6774 69.2447C80.694 69.1917 80.8241 68.9844 80.7818 68.8588C80.7379 68.7347 80.576 68.8225 80.3959 68.8255C80.2612 68.8285 79.7678 68.8376 79.3971 68.8013Z" fill="black"/>
<path d="M79.7732 69.5745L79.5916 69.9725L79.7565 70.036" stroke="black" stroke-width="0.286698" stroke-miterlimit="10"/>
<path d="M80.5549 70.1089L79.8694 70.3525C79.8694 70.3525 79.9814 70.5341 80.2644 70.4948C80.5549 70.4524 80.5549 70.1089 80.5549 70.1089Z" fill="white"/>
<path d="M79.4215 69.6942C79.4215 69.6942 79.7227 69.5398 79.6727 69.2492C79.6031 68.8543 79.2399 68.8739 79.2399 68.8739L77.4058 69.0495L77.7508 70.4206L79.4215 69.6942Z" fill="#504D52"/>
<path d="M78.2974 69.761C78.2974 69.761 78.535 69.5552 78.485 69.2646C78.4154 68.8696 78.0961 68.9831 78.0961 68.9831L76.156 69.307L76.501 70.6781L78.2974 69.761Z" fill="#504D52"/>
<path d="M76.3888 70.7263C76.689 70.6594 76.8615 70.2872 76.7742 69.8947C76.6868 69.5023 76.3726 69.2384 76.0724 69.3053C75.7722 69.3721 75.5996 69.7444 75.687 70.1368C75.7743 70.5292 76.0885 70.7931 76.3888 70.7263Z" fill="#333333"/>
<path d="M77.7147 70.4294C78.0149 70.3626 78.1875 69.9903 78.1001 69.5979C78.0127 69.2055 77.6985 68.9415 77.3983 69.0084C77.0981 69.0752 76.9256 69.4475 77.0129 69.8399C77.1003 70.2323 77.4145 70.4962 77.7147 70.4294Z" fill="#333333"/>
<path d="M77.6788 70.2723C77.9374 70.2147 78.0884 69.9048 78.0161 69.5801C77.9438 69.2554 77.6756 69.0389 77.417 69.0964C77.1584 69.154 77.0073 69.4639 77.0796 69.7886C77.1519 70.1133 77.4201 70.3298 77.6788 70.2723Z" fill="white"/>
<path d="M76.3528 70.5689C76.6114 70.5113 76.7625 70.2014 76.6902 69.8767C76.6179 69.552 76.3497 69.3355 76.0911 69.3931C75.8324 69.4506 75.6814 69.7605 75.7537 70.0852C75.826 70.4099 76.0942 70.6265 76.3528 70.5689Z" fill="white"/>
<path opacity="0.2118" d="M82.6448 80.6129C82.6448 81.0261 82.6721 81.418 82.6857 81.8084C82.6721 81.8039 82.1863 81.9552 82.1636 81.2258C82.1439 80.6356 82.5192 80.6084 82.6448 80.6129Z" stroke="black" stroke-width="0.573396" stroke-miterlimit="10"/>
<path d="M81.1147 73.349L82.0364 71.5799L82.5554 71.4709L81.2282 73.915L81.1147 73.349Z" fill="#EC6446"/>
<path d="M81.1339 73.3683L80.1609 72.3362L79.8703 72.0698L79.4526 72.2923L81.2278 73.9146L81.1339 73.3683Z" fill="#EC6446"/>
<path d="M79.6151 71.7565C79.5168 71.5613 79.4592 71.3283 79.4048 71.1164C79.3276 70.8107 79.2186 70.4869 79.2777 70.1766C79.2958 70.0828 79.2867 70.1055 79.3109 70.0132C79.3321 69.9345 79.3669 69.8225 79.3957 69.7711C79.4683 69.6455 79.4547 69.3821 79.373 69.3897C79.314 69.37 79.2671 69.8694 79.1944 69.8664C79.1142 69.8921 79.0461 69.5198 79.0037 69.3337C78.9614 69.1476 78.8464 68.8131 78.7722 68.8555C78.7192 68.8676 78.7722 68.969 78.7873 69.0341C78.8479 69.3034 78.9916 69.8225 78.916 69.8331C78.8524 69.8392 78.7601 69.4684 78.7192 69.2838C78.6738 69.0825 78.5482 68.7965 78.4832 68.8116C78.4302 68.8237 78.7737 69.8498 78.7041 69.8437C78.6057 69.88 78.3772 68.8903 78.294 68.91C78.2123 68.9402 78.3409 69.3473 78.3984 69.5259C78.4514 69.6909 78.5785 69.9284 78.4786 69.9542C78.4241 69.9723 78.2198 69.2369 78.1714 69.2535C78.0988 69.2807 78.1532 69.482 78.1926 69.5955C78.409 70.2084 78.5346 70.8228 78.751 71.4357C78.8403 71.6899 78.9114 72.0123 78.9856 72.2711C79.0749 72.5843 79.146 72.9278 79.2111 73.2472C79.3911 74.1324 79.6741 74.9269 79.8542 75.8137C79.9223 76.1497 79.9904 76.4857 80.0888 76.8489C80.1327 77.0441 80.3218 77.1424 80.4717 77.2529C80.6215 77.3634 80.8591 77.4073 81.0392 77.3604C81.363 77.2756 81.8427 76.9154 81.7338 76.4509C81.6475 76.0559 80.393 73.2835 79.6151 71.7565Z" fill="#DEA77A" stroke="#DEA77A" stroke-width="0.573396" stroke-miterlimit="10"/>
<path d="M80.9712 73.878L81.2073 73.5315L83.2775 75.0161L82.9885 75.3641C82.9885 75.3641 82.5057 74.9404 81.9246 74.5167C81.7566 74.3941 81.5795 74.2655 81.4449 74.1762C81.1467 73.9734 80.9712 73.878 80.9712 73.878Z" fill="#EC6446"/>
<path d="M77.4683 74.9244C77.4683 74.9244 77.5243 74.8261 77.5515 74.7913C77.5969 74.7337 77.7452 74.5476 77.7452 74.5476L79.6565 76.2138L79.3856 76.4998C79.3856 76.4998 78.2824 75.5873 78.1447 75.4768C77.8466 75.2377 77.4683 74.9244 77.4683 74.9244Z" fill="#EC6446"/>
<path d="M78.8102 97.1141C78.0278 97.6695 77.7614 97.6831 77.6025 98.4534C77.6404 98.4428 80.8032 98.1386 81.4146 98.0841C81.3768 97.5424 81.3435 97.1171 81.2951 96.4407C81.0605 96.4452 80.944 96.5406 80.5217 96.5814C80.0708 96.6268 79.7953 96.5663 79.5623 96.5996C79.3928 96.6934 78.7708 97.1368 78.8102 97.1141Z" fill="#202024"/>
<path d="M86.3315 96.4811C87.179 96.9321 87.4438 96.9124 87.6996 97.657C87.6602 97.6509 84.4837 97.7523 83.8708 97.775C83.8406 97.2333 83.8194 96.8065 83.78 96.1301C84.0146 96.1043 84.1417 96.1845 84.5639 96.1724C85.0164 96.1603 85.248 96.1104 85.4825 96.1134C85.6656 96.183 86.3739 96.4993 86.3315 96.4811Z" fill="#202024"/>
<path d="M64.1571 85.32C62.4471 84.8342 61.2167 83.3557 60.846 81.4398C60.4722 79.5164 60.4026 77.2827 60.8732 75.9707C61.1774 75.1217 62.2488 75.0128 62.3759 75.83C62.4198 76.116 62.2155 81.6714 64.2373 82.425C64.2994 79.7086 64.2283 76.0206 64.3266 73.3057C64.425 70.5908 64.3902 67.3902 65.7658 67.313C67.2519 67.313 67.0673 69.81 67.0673 70.8738C67.0673 75.2216 67.4047 77.1738 67.1626 81.3218C67.553 81.3702 68.0494 80.27 68.1251 79.8917C68.4641 78.165 68.6003 76.8953 69.7231 77.2252C70.6796 77.5067 70.0969 82.1738 67.4441 84.8266C67.2625 85.0082 67.5394 89.8342 67.8618 95.945C66.6723 96.455 65.4979 96.9998 64.3418 97.5794C64.4583 93.2316 64.4522 88.8808 64.1571 85.32Z" fill="#D4ED84"/>
<path d="M68.0461 93.6622C67.5331 92.9268 67.0413 92.1837 66.5736 91.4331C66.041 90.5811 65.534 89.711 65.3494 88.7924C65.9653 89.54 66.5388 90.3042 67.0685 91.082C67.7359 92.0627 68.3488 93.0811 69.3673 93.9059C69.1993 93.3081 69.0328 92.7089 68.8648 92.1111C68.718 91.589 68.5728 91.0669 68.4865 90.5388C68.314 89.487 68.5364 88.2506 68.4487 87.3668C68.88 88.0493 68.9057 89.0829 69.2356 89.9259C69.6457 90.9731 70.0573 92.0203 70.4674 93.069C70.5991 91.586 70.1844 90.109 69.9983 88.6289C69.8727 87.6256 69.6881 86.6768 69.9363 85.6099C70.3282 87.6059 70.755 89.6171 71.781 91.5027C72.0928 89.49 71.6024 87.4425 72.0352 85.4419C72.4469 87.5091 72.002 89.6943 73.146 91.6268L74.1766 87.1065C74.3325 88.8908 74.0994 90.7098 73.9466 92.5091C74.5428 91.4558 75.3237 90.451 76.265 89.5248C75.9926 90.4177 75.6476 91.3 75.2344 92.1671C75.0664 92.5197 74.8864 92.8708 74.6669 93.2113C74.1297 94.0466 73.3564 94.826 73.1158 95.7294C72.3909 95.6462 71.6493 95.6992 70.9184 95.7537C70.3161 95.7975 69.7123 95.8414 69.11 95.8853C68.8013 94.8835 68.4698 94.3402 68.0461 93.6622Z" fill="#537C09"/>
<path opacity="0.25" d="M174.483 94.9646C174.289 93.8606 175.635 93.7056 177.013 93.2453C178.634 92.7038 182.727 95.6074 183.561 96.3537C184.745 95.3394 185.86 95.0121 187.872 96.3537C188.126 96.5227 188.464 96.8608 188.802 97.4525C189.14 97.8752 191.93 101.51 191.93 101.51C191.93 101.51 187.865 99.0092 187.703 99.2276C187.5 99.502 189.309 103.961 189.309 103.961C189.309 103.961 186.411 100.786 186.182 100.918C185.744 101.17 187.534 105.905 187.534 105.905C187.534 105.905 184.289 102.116 183.908 101.848C183.692 101.793 185.344 102.587 183.908 103.696C182.276 104.669 181.502 102.413 181.304 103.037C180.723 104.863 181.299 107.415 179.556 106.776C176.056 105.493 179.645 102.384 178.376 101.021C174.847 97.046 174.568 95.4528 174.483 94.9646Z" fill="#16121A"/>
<path d="M174.756 94.4718C174.558 94.0103 174.345 93.5572 174.119 93.1093C174.087 93.045 174.051 92.9791 173.987 92.9453C173.864 92.8777 173.718 92.9706 173.603 93.0518C173.241 93.3104 172.804 93.5032 172.364 93.444C171.925 93.3831 171.51 92.9977 171.546 92.5548C171.576 92.1524 171.955 91.8481 172.349 91.7653C172.743 91.6825 173.15 91.7704 173.544 91.8583C173.26 90.8811 172.974 89.904 172.69 88.9286C172.577 88.5381 172.462 88.1442 172.442 87.7367C172.371 86.3319 173.622 84.9981 175.03 84.9812C175.27 84.9778 175.52 85.0133 175.72 85.1485C175.874 85.255 175.984 85.414 176.078 85.5746C176.719 86.6649 176.844 87.9683 177.032 89.2193C177.256 90.7172 177.59 92.1981 178.031 93.6452C176.929 93.7517 175.967 94.6358 174.756 94.4718Z" fill="#8ABA1A" stroke="#8ABA1A" stroke-width="0.573396" stroke-miterlimit="10"/>
<path d="M177.055 88.5398C177.161 87.2093 177.54 85.9008 178.159 84.7175C177.641 84.5687 177.026 84.731 176.592 84.4132C176.152 84.0903 176.16 83.3515 176.559 82.9779C176.957 82.6043 177.618 82.6009 178.076 82.8985C178.534 83.196 178.793 83.7387 178.84 84.283C179.707 83.9026 180.794 84.0987 181.476 84.7547C182.157 85.4106 182.392 86.4908 182.044 87.3716C181.783 88.0309 181.247 88.5398 180.693 88.981C179.525 89.9074 178.194 90.6293 176.781 91.1043C176.876 90.1559 177.001 89.2126 177.055 88.5398Z" fill="#8ABA1A" stroke="#8ABA1A" stroke-width="0.573396" stroke-miterlimit="10"/>
<path d="M172.537 87.9193C171.683 88.1898 171.12 88.1813 170.256 87.9497C169.313 87.6961 168.728 87.5795 168.314 86.8948C167.633 85.7672 168.241 84.8374 168.858 84.3894C169.279 84.0834 169.911 84.3522 170.106 84.1308C170.304 83.9059 170.185 83.4039 170.412 83.0641C170.638 82.7243 171.096 82.5079 171.468 82.6752C171.599 82.7327 171.707 82.8308 171.798 82.9406C172.079 83.2737 172.219 83.7352 172.119 84.1578C172.02 84.5822 171.661 84.9456 171.23 85.0048C172.238 85.4748 173.046 86.3555 173.424 87.4003C173.032 87.5727 172.696 87.8686 172.537 87.9193Z" fill="#8ABA1A" stroke="#8ABA1A" stroke-width="0.573396" stroke-miterlimit="10"/>
<path d="M173.586 88.7528C173.774 88.222 174.217 87.7452 174.156 87.1857C174.114 86.8036 173.837 86.4401 173.942 86.0699C174.051 85.6811 174.504 85.5289 174.832 85.294C174.903 85.2432 174.974 85.1418 174.914 85.0809C174.885 85.0522 174.839 85.0488 174.799 85.0488C174.567 85.0505 174.32 85.0556 174.116 85.1638C173.426 85.5306 172.812 86.0598 172.552 86.7952C172.292 87.5305 172.479 88.3048 172.723 89.0453C172.993 89.8719 173.101 90.5414 173.428 91.3224C173.554 91.1939 173.331 89.478 173.586 88.7528Z" fill="#D4ED84" stroke="#D4ED84" stroke-width="0.573396" stroke-miterlimit="10"/>
<path d="M168.507 84.7071C168.627 84.5871 169.209 83.9109 169.41 84.8356C169.442 84.9827 169.363 85.1331 169.248 85.2312C169.133 85.3292 168.991 85.3952 168.888 85.505C168.663 85.7451 168.676 86.1373 168.835 86.4247C168.994 86.7121 169.266 86.9166 169.538 87.1009C169.579 87.1297 169.621 87.1584 169.652 87.1973C169.767 87.3477 169.64 87.5844 169.459 87.6385C169.278 87.6926 169.084 87.6148 168.923 87.5168C168.612 87.3241 168.358 87.0401 168.201 86.7104C168.046 86.3824 167.975 86.0832 168.017 85.7231C168.063 85.3258 168.379 84.8339 168.507 84.7071Z" fill="#D4ED84" stroke="#D4ED84" stroke-width="0.573396" stroke-miterlimit="10"/>
<path d="M170.639 83.7557C170.925 83.5106 170.91 83.2283 170.911 83.2046C170.915 83.0998 171.089 82.9984 171.175 83.0575C171.205 83.0778 171.337 83.1674 171.373 83.1775C171.611 83.2485 171.674 83.0271 171.655 82.9155C171.64 82.8208 171.371 82.6011 171.285 82.6011C171.048 82.6011 170.703 82.6941 170.477 82.9848C170.252 83.2756 170.277 83.5376 170.232 83.8098C170.22 83.8622 170.445 83.9214 170.639 83.7557Z" fill="#D4ED84" stroke="#D4ED84" stroke-width="0.573396" stroke-miterlimit="10"/>
<path d="M171.196 82.9964C171.103 82.8628 171.013 82.7242 170.928 82.5839C170.908 82.5518 170.89 82.518 170.881 82.4791C170.873 82.4419 170.878 82.4013 170.881 82.3641C170.89 82.288 170.901 82.2103 170.93 82.1376C171.013 81.9263 171.248 81.791 171.473 81.8147C171.698 81.8384 171.895 82.0142 171.956 82.2323C172.017 82.4503 171.943 82.6971 171.779 82.8544C171.616 83.0133 171.373 83.0758 171.196 82.9964Z" fill="#F3A2F2" stroke="#F2A2F2" stroke-width="0.573396" stroke-miterlimit="10"/>
<path d="M179.909 85.0469C180.553 85.2397 180.992 85.0081 181.107 84.7291C181.176 84.5635 180.918 84.3454 180.815 84.3099C180.382 84.1628 180.084 84.0918 179.645 84.0918C179.205 84.0935 178.6 84.3792 178.27 84.6716C177.866 85.0317 177.665 85.7029 177.52 86.2252C177.647 86.1357 178.999 84.7765 179.909 85.0469Z" fill="#D4ED84" stroke="#D4ED84" stroke-width="0.573396" stroke-miterlimit="10"/>
<path d="M176.496 84.0059C176.624 83.8706 176.754 83.7337 176.856 83.5765C176.91 83.4936 176.954 83.4057 177.013 83.3263C177.143 83.1505 177.338 83.022 177.552 82.9746C177.603 82.9628 178.053 82.9104 178.061 82.858C178.068 82.8174 177.101 82.3931 176.506 83.0304C176.284 83.2688 176.219 83.5579 176.276 83.8774C176.298 84.0025 176.423 84.0836 176.496 84.0059Z" fill="#D4ED84" stroke="#D4ED84" stroke-width="0.573396" stroke-miterlimit="10"/>
<path d="M182.121 92.7968C181.555 91.6245 181.013 90.4405 180.497 89.2466C179.909 87.8914 179.35 86.5029 179.146 85.0413C179.826 86.2319 180.458 87.4474 181.043 88.6862C181.779 90.2477 182.455 91.8706 183.578 93.1826C183.393 92.2298 183.21 91.277 183.024 90.3242C182.862 89.4927 182.702 88.6613 182.607 87.8199C182.417 86.1454 182.662 84.175 182.565 82.7682C183.041 83.854 183.069 85.5019 183.433 86.8438C183.886 88.5117 184.34 90.1811 184.792 91.849C184.937 89.4877 184.48 87.1348 184.275 84.7786C184.136 83.1806 183.932 81.669 184.206 79.9713C184.639 83.149 185.109 86.3516 186.241 89.3547C186.585 86.1504 186.044 82.8896 186.522 79.7019C186.976 82.9943 186.485 86.4747 187.747 89.5509L188.884 82.3525C189.056 85.1943 188.799 88.091 188.63 90.9544C189.288 89.2766 190.149 87.6769 191.188 86.202C190.887 87.6237 190.506 89.0288 190.051 90.409C189.865 90.971 189.667 91.5314 189.425 92.0718C188.832 93.4021 187.979 94.6426 187.714 96.0826C186.914 95.9512 186.096 96.036 185.29 96.1208C184.625 96.1907 183.959 96.2605 183.295 96.3303C182.954 94.739 182.589 93.8743 182.121 92.7968Z" fill="#537C09"/>
<path d="M147.462 78.1281C147.507 77.1249 146.207 76.6519 145.279 76.269C145.036 76.1685 144.776 76.1062 144.556 75.9658C144.346 75.8324 144.185 75.6349 144.045 75.4287C143.271 74.3026 142.855 72.8992 143.217 71.5807C142.472 71.676 141.891 71.773 141.212 71.4508C140.535 71.1285 140.131 70.9345 139.604 70.4008C139.455 70.2501 139.062 69.914 138.872 69.7217C138.785 70.6365 139.421 73.2249 137.693 74.6508C136.371 75.7406 132.676 74.3615 131.368 74.9298C130.339 75.3768 129.634 74.8812 129.098 75.7475C132.378 76.8893 137.683 80.1396 141.127 80.5866C143 80.8291 143.078 78.0813 144.96 78.232C145.618 78.2857 146.947 77.7919 147.462 78.1281Z" fill="#F09F92"/>
<path d="M139.17 69.3856C139.827 70.1687 140.743 70.5863 141.637 71.0835C142.117 71.3503 142.627 71.4959 143.166 71.5946C143.086 72.2235 143.063 72.9443 143.218 73.6338C141.955 73.5091 141.383 73.1106 140.503 72.1958C140.222 71.903 139.86 71.1979 139.73 70.8132C139.551 70.2883 138.997 69.1794 139.17 69.3856Z" fill="#ED978A"/>
<path d="M146.618 67.605C146.862 65.0646 145.168 62.8242 142.835 62.6008C140.502 62.3774 138.414 64.2557 138.171 66.796C137.928 69.3364 139.622 71.5768 141.954 71.8002C144.287 72.0236 146.375 70.1453 146.618 67.605Z" fill="#FFA596"/>
<path d="M128.055 66.5251C125.014 65.6554 118.91 66.4784 120.752 73.0742C121.551 75.9381 125.617 77.0522 128.297 76.6433C129.177 76.347 129.637 75.4582 130.491 75.0978C131.276 74.7652 132.173 74.9973 132.998 75.2087C134.2 75.5171 135.503 75.7683 136.659 75.3144C137.741 74.8882 138.535 73.8625 138.798 72.7277C139.062 71.5946 139.169 70.6278 138.623 69.6004C138.996 69.9331 140.564 69.0477 140.947 68.7272C142.366 67.5421 143.811 66.3259 144.762 64.7406C145.801 65.917 147.524 66.5702 149.079 66.3623C149.616 66.2912 150.8 66.1266 151.365 65.6606C152.579 64.6574 153.499 63.0825 152.545 61.8351C151.129 60.9099 149.514 62.6442 148.014 62.2752C145.68 61.7017 146.874 60.0991 142.314 59.1877C139.323 58.59 136.179 60.2151 135.056 61.4886C133.308 63.4706 130.99 67.3637 128.055 66.5251Z" fill="black" stroke="black" stroke-width="0.573396" stroke-miterlimit="10"/>
<path d="M129.741 75.3403C129.336 75.5586 128.705 76.0905 128.43 76.4578C127.444 77.778 127.406 79.0272 127.602 80.6628C127.799 82.2983 128.626 84.4363 129.17 85.9904C129.755 87.6606 129.847 88.9011 130.214 92.0318C130.557 94.9598 130.23 96.4429 129.864 98.2482C129.516 99.9617 129.097 101.668 128.75 103.382C129.386 103.053 134.03 102.897 136.027 102.774C137.193 102.703 144.052 102.576 145.716 102.231C147.344 101.894 143.455 93.6275 144.784 91.8066C145.636 90.6371 147.154 89.7795 147.757 88.2618C148.365 86.7302 148.025 85.8882 147.866 84.5749C147.18 82.7661 146.842 81.1011 146.719 80.4133C146.45 78.9059 146.492 77.6273 146.492 76.5202C146.492 75.9346 145.25 75.7804 144.243 75.6834C143.725 75.6331 142.214 79.4188 140.92 79.2784C139.848 79.1624 136.746 75.4408 136.746 75.4408C130.665 74.8639 130.258 75.0614 129.741 75.3403Z" fill="#A1CAF6"/>
<path d="M148.536 87.7351C148.893 87.3505 149.25 86.9659 149.608 86.5795C150.064 86.0875 150.521 85.5954 151.026 85.1536C151.674 84.5836 152.601 83.7745 152.685 83.7451C152.767 83.7173 152.821 83.6151 152.876 83.6792C153.186 84.0552 152.824 84.9925 151.163 86.5726C149.361 88.2844 148.671 88.5806 148.396 88.3242C148.17 88.118 148.489 87.7473 148.536 87.7351Z" fill="#3D5C9B"/>
<path d="M154.241 90.3166C155.064 90.5037 155.915 90.6337 156.75 90.5193C157.015 90.4829 157.286 90.4188 157.497 90.256C157.819 90.0065 157.944 89.5768 157.987 89.1714C158.14 87.7351 157.682 86.2849 157.197 84.9231C155.61 80.4618 155.115 75.6921 153.515 71.2342C153.276 70.5689 153.145 69.862 153.133 69.1759C153.119 68.4673 152.426 68.2282 152.665 69.1707C152.753 69.5172 152.776 69.7875 152.642 69.8308C152.5 69.8325 152.065 68.6613 151.849 68.7722C151.686 68.774 152.401 70.3558 152.249 70.4996C152.057 70.5862 151.431 68.5418 151.237 68.6457C150.887 68.6457 151.542 70.484 151.362 70.5308C151.223 70.6243 150.729 69.2348 150.551 69.3353C150.288 69.4687 151.128 71.4282 150.962 71.4941C150.887 71.605 150.315 70.5013 150.315 70.5013C150.315 70.5013 149.842 69.6558 149.539 69.9244C149.388 70.0162 149.78 70.7317 150.005 71.0159C150.88 72.1299 152.046 73.7083 152.157 74.4845C152.464 76.6311 153.037 78.5335 153.105 80.538C153.167 82.3919 153.666 84.315 154.368 86.0302C153.801 85.1328 153.027 84.367 152.122 83.8108C151.173 85.2298 150.191 85.7426 148.914 86.874C148.839 86.9398 148.484 87.5064 148.531 87.593C148.579 87.6814 152.109 89.8332 154.241 90.3166Z" fill="#F7AEA3" stroke="#F7AEA3" stroke-width="0.573396" stroke-miterlimit="10"/>
<path d="M139.422 90.2491C139.662 90.2491 139.856 90.0552 139.856 89.816C139.856 89.5767 139.662 89.3828 139.422 89.3828C139.183 89.3828 138.989 89.5767 138.989 89.816C138.989 90.0552 139.183 90.2491 139.422 90.2491Z" stroke="#E4B660" stroke-width="0.573396" stroke-miterlimit="10"/>
<path d="M134.457 85.9818C134.814 85.5971 135.171 85.2125 135.529 84.8261C135.985 84.3341 136.442 83.842 136.946 83.4002C137.594 82.8302 138.691 82.1441 138.781 82.1389C138.866 82.1355 138.953 82.0852 139.006 82.1493C139.317 82.5253 138.615 83.0832 136.953 84.6615C135.151 86.3733 134.597 86.7718 134.322 86.5154C134.096 86.3109 134.408 85.9939 134.457 85.9818Z" fill="#3D5C9B"/>
<path d="M152.325 83.4885C152.682 83.9217 153.859 85.0842 153.859 85.0842C153.859 85.0842 154.079 87.146 154.081 87.5323C154.081 87.5323 154.328 89.8522 154.401 90.4274C153.486 88.7399 152.284 85.9644 151.717 84.5818C151.471 83.9823 151.629 83.9598 152.325 83.4885Z" fill="#F09F92"/>
<path d="M134.613 85.6698C135.805 84.3271 137.047 83.2425 138.481 82.1631C139.046 82.8474 140.127 83.9667 140.715 84.651C141.311 85.3475 142.12 86.6521 143.478 88.4817C143.573 88.6082 143.67 88.7468 143.681 88.9045C143.691 89.0587 143.618 89.2059 143.546 89.3411C143.014 90.3338 141.463 90.8484 140.761 91.7286C140.162 90.8727 139.093 89.9388 137.868 88.7295C136.792 87.6692 135.889 86.5621 134.613 85.6698Z" fill="#F09F92"/>
<path d="M146.914 76.6243C148.548 78.7779 150.426 81.3005 152.552 83.2981C152.642 83.383 152.924 83.6134 152.867 83.7243C152.853 83.7503 151.601 84.6183 150.513 85.7739C149.388 86.9677 148.425 88.449 148.375 88.3156C148.077 87.5273 147.041 85.3616 146.86 84.9735C145.951 83.0036 145.809 80.9176 145.811 78.7484C145.811 78.4331 145.613 77.0037 145.757 76.723C145.899 76.4406 146.822 76.503 146.914 76.6243Z" fill="#E0F0FD"/>
<path d="M144.689 68.0046C144.689 68.0046 143.679 67.6373 143.726 66.7035C143.788 65.4301 144.942 65.3538 144.942 65.3538L150.788 65.1875L150.237 69.6402L144.689 68.0046Z" fill="#504D52"/>
<path d="M148.256 67.7779C148.256 67.7779 147.424 67.2234 147.471 66.2879C147.534 65.0144 148.585 65.2483 148.585 65.2483L154.819 65.5117L154.268 69.9644L148.256 67.7779Z" fill="#504D52"/>
<path d="M156.65 67.9372C156.771 66.6675 156.081 65.5627 155.109 65.4696C154.136 65.3764 153.249 66.3302 153.128 67.5999C153.006 68.8696 153.696 69.9744 154.669 70.0675C155.641 70.1607 156.528 69.2069 156.65 67.9372Z" fill="#333333"/>
<path d="M152.358 67.5251C152.479 66.2554 151.79 65.1506 150.817 65.0575C149.845 64.9643 148.958 65.9181 148.836 67.1878C148.715 68.4575 149.404 69.5623 150.377 69.6554C151.349 69.7486 152.236 68.7948 152.358 67.5251Z" fill="#333333"/>
<path d="M152.122 67.3888C152.222 66.3372 151.625 65.4197 150.788 65.3395C149.951 65.2594 149.19 66.0468 149.09 67.0984C148.989 68.15 149.586 69.0674 150.423 69.1476C151.26 69.2278 152.021 68.4403 152.122 67.3888Z" fill="white"/>
<path d="M156.413 67.7991C156.514 66.7476 155.917 65.8301 155.079 65.7499C154.242 65.6698 153.482 66.4572 153.381 67.5088C153.28 68.5604 153.877 69.4778 154.715 69.558C155.552 69.6382 156.312 68.8507 156.413 67.7991Z" fill="white"/>
<path d="M138.425 82.0056C138.624 83.9288 139.081 86.2868 139.625 88.1406C139.939 89.2113 140.045 90.9855 140.646 91.5659C141.41 92.3057 141.318 87.6988 141.947 85.9888C141.426 85.5972 140.873 84.8678 140.488 84.3862C140.339 84.2008 138.551 82.1286 138.425 82.0056Z" fill="#ED978A"/>
<path d="M145.173 74.4151C145.409 73.7637 145.655 73.1088 145.741 72.421C145.868 71.4265 145.653 70.4199 145.348 69.467C145.254 69.1759 145.291 69.2487 145.176 68.9645C145.081 68.7272 144.925 68.3841 144.813 68.2351C144.535 67.8678 144.476 67.0327 144.735 67.0258C144.913 66.9409 145.258 68.495 145.481 68.4569C145.745 68.5037 145.814 67.3047 145.873 66.7035C145.932 66.1006 146.166 65.0004 146.415 65.1078C146.585 65.1234 146.457 65.4665 146.438 65.6779C146.355 66.5476 146.102 68.242 146.348 68.2438C146.549 68.2351 146.696 67.0344 146.753 66.435C146.815 65.7835 147.1 64.8324 147.314 64.8549C147.486 64.8705 146.805 68.2368 147.022 68.1901C147.344 68.268 147.68 65.0628 147.945 65.087C148.214 65.1512 147.971 66.4835 147.858 67.0691C147.754 67.6097 147.451 68.4049 147.772 68.4465C147.95 68.4794 148.307 66.085 148.463 66.1197C148.702 66.1786 148.612 66.8335 148.529 67.206C148.087 69.2227 147.645 71.2376 147.204 73.2543C147.02 74.0894 146.838 74.9245 146.708 75.7683C146.55 76.7905 146.471 77.8214 146.391 78.8522C146.171 81.7127 145.951 84.5731 145.729 87.4319C145.646 88.5147 145.561 89.601 145.395 90.7844C145.334 91.4168 144.776 91.7997 144.347 92.2051C143.917 92.6105 143.189 92.8427 142.6 92.7664C141.547 92.6278 140.36 91.5242 140.627 90.7029C140.776 90.2386 143.324 79.5279 145.173 74.4151Z" fill="#F7AEA3" stroke="#F7AEA3" stroke-width="0.573396" stroke-miterlimit="10"/>
<path d="M134.242 86.3942C135.41 85.0393 137.543 83.1837 139.004 82.1511C137.754 80.6819 135.535 78.7536 134.286 77.2826C133.497 76.354 132.371 75.1169 131.153 75.0546C130.653 75.0286 129.781 75.2833 129.334 75.512C128.107 76.1409 127.634 77.2619 127.548 78.6375C127.484 79.6476 128.185 80.3493 128.525 80.6213C130.549 82.243 132.746 84.9683 134.242 86.3942Z" fill="#E0F0FD"/>
<path d="M144.429 68.2732L144.719 68.9991L144.221 69.2608" stroke="black" stroke-width="0.286698" stroke-miterlimit="10"/>
<path d="M142.165 69.4583L144.373 70.1288C144.373 70.1288 144.042 70.723 143.141 70.6364C142.216 70.548 142.165 69.4583 142.165 69.4583Z" fill="white"/>
<path d="M130.079 121.899L133.148 152.068H136.807L136.656 120.505L130.079 121.899Z" fill="#F7AEA3" stroke="#F7AEA3" stroke-width="0.573396" stroke-miterlimit="10"/>
<path d="M143.684 121.899L146.835 150.106L150.4 149.924L149.914 120.505L143.684 121.899Z" fill="#F7AEA3" stroke="#F7AEA3" stroke-width="0.573396" stroke-miterlimit="10"/>
<path d="M128.955 103.169C128.363 104.321 128.25 105.653 128.224 106.949C128.089 113.439 127.788 118.122 128.053 124.609C128.053 124.609 130.444 124.961 133.049 124.817C136.04 124.651 138.261 123.715 138.261 123.715C138.03 114.928 138.348 114.78 138.668 110.981C140.874 117.871 140.461 119.152 141.79 123.303C141.79 123.303 144.122 123.76 147.106 123.457C149.98 123.164 151.957 122.307 151.957 122.307C148.078 114.223 146.051 101.907 146.051 101.907C146.051 101.907 140.79 102.542 138.204 102.575C134.967 102.614 132.285 102.701 128.955 103.169Z" fill="#6195E3" stroke="#6195E3" stroke-width="0.573396" stroke-miterlimit="10"/>
<path d="M138.54 98.6519C138.779 98.6519 138.973 98.458 138.973 98.2188C138.973 97.9796 138.779 97.7856 138.54 97.7856C138.301 97.7856 138.107 97.9796 138.107 98.2188C138.107 98.458 138.301 98.6519 138.54 98.6519Z" stroke="#6195E3" stroke-width="0.573396" stroke-miterlimit="10"/>
<path d="M139.019 94.492C139.259 94.492 139.452 94.2981 139.452 94.0589C139.452 93.8197 139.259 93.6257 139.019 93.6257C138.78 93.6257 138.586 93.8197 138.586 94.0589C138.586 94.2981 138.78 94.492 139.019 94.492Z" stroke="#6195E3" stroke-width="0.573396" stroke-miterlimit="10"/>
<path d="M140.462 83.1456C140.701 83.1456 140.895 82.9517 140.895 82.7124C140.895 82.4732 140.701 82.2793 140.462 82.2793C140.222 82.2793 140.029 82.4732 140.029 82.7124C140.029 82.9517 140.222 83.1456 140.462 83.1456Z" stroke="#6195E3" stroke-width="0.573396" stroke-miterlimit="10"/>
<path d="M131.116 102.907C130.725 107.006 130.617 121.581 130.946 124.838" stroke="black" stroke-opacity="0.3" stroke-width="0.573396" stroke-miterlimit="10"/>
<path d="M137.275 150.501L132.468 150.429L132.433 152.774L137.24 152.846L137.275 150.501Z" fill="white"/>
<path d="M129.191 153.112C126.288 154.862 125.346 154.832 124.575 157.54C124.712 157.512 135.917 157.381 138.082 157.37C138.095 155.422 138.096 153.89 138.113 151.459C137.286 151.404 136.849 151.708 135.357 151.731C133.761 151.755 132.938 151.614 132.11 151.661C131.485 151.941 129.046 153.186 129.191 153.112Z" fill="black"/>
<path d="M151.281 149.811L146.423 149.932L146.482 152.301L151.339 152.181L151.281 149.811Z" fill="white"/>
<path d="M154.91 152.561C157.851 154.319 158.801 154.288 159.588 157.022C159.449 156.995 148.126 156.894 145.937 156.89C145.918 154.922 145.913 153.373 145.889 150.917C146.725 150.858 147.168 151.166 148.675 151.183C150.289 151.203 151.12 151.059 151.956 151.104C152.587 151.383 155.056 152.634 154.91 152.561Z" fill="black"/>
<path opacity="0.2" d="M138.931 111.802C140.978 118.517 140.466 119.153 141.795 123.304C141.795 123.304 144.127 123.762 147.111 123.459C147.111 123.459 141.561 114.985 138.931 111.802Z" fill="black" stroke="black" stroke-width="0.573396" stroke-miterlimit="10"/>
<defs>
<linearGradient id="paint0_linear_98_50755" x1="19.4807" y1="59.6753" x2="199.94" y2="62.546" gradientUnits="userSpaceOnUse">
<stop stop-color="#DAFFF5"/>
<stop offset="1" stop-color="#1EC6CE"/>
</linearGradient>
<linearGradient id="paint1_linear_98_50755" x1="95.7614" y1="78.6626" x2="97.2458" y2="66.121" gradientUnits="userSpaceOnUse">
<stop stop-color="#FFF9DB"/>
<stop offset="1" stop-color="#FFE795"/>
</linearGradient>
<linearGradient id="paint2_linear_98_50755" x1="167.032" y1="73.0093" x2="148.475" y2="83.8834" gradientUnits="userSpaceOnUse">
<stop stop-color="#EFC65D"/>
<stop offset="1" stop-color="#CA9429"/>
</linearGradient>
<linearGradient id="paint3_linear_98_50755" x1="174.229" y1="73.6844" x2="187.625" y2="90.8124" gradientUnits="userSpaceOnUse">
<stop stop-color="#FED766"/>
<stop offset="1" stop-color="#FFF5CB"/>
</linearGradient>
<linearGradient id="paint4_linear_98_50755" x1="181.461" y1="92.8891" x2="94.5959" y2="72.0051" gradientUnits="userSpaceOnUse">
<stop stop-color="#FED766"/>
<stop offset="1" stop-color="#FFF9DB"/>
</linearGradient>
<linearGradient id="paint5_linear_98_50755" x1="162.996" y1="94.7046" x2="93.6851" y2="82.5979" gradientUnits="userSpaceOnUse">
<stop stop-color="#EFC65D"/>
<stop offset="1" stop-color="#CA9429"/>
</linearGradient>
<linearGradient id="paint6_linear_98_50755" x1="134.846" y1="104.39" x2="158.454" y2="129.814" gradientUnits="userSpaceOnUse">
<stop stop-color="#FDD665"/>
<stop offset="1" stop-color="#FFF9DB"/>
</linearGradient>
<linearGradient id="paint7_linear_98_50755" x1="101.401" y1="120.885" x2="90.9595" y2="96.672" gradientUnits="userSpaceOnUse">
<stop offset="0.0171405" stop-color="#CA9429"/>
<stop offset="1" stop-color="#EFC65D"/>
</linearGradient>
</defs>
</svg>
