<svg width="400" height="287" viewBox="0 0 400 287" fill="none" xmlns="http://www.w3.org/2000/svg">
<path d="M76.224 74.7898C110.834 72.1429 134.903 82.7705 171.253 70.5661C219.378 54.409 227.611 30.0096 287.285 25.4442C344.959 21.0343 395.285 64.2801 399.691 122.035C404.095 179.793 360.912 230.19 303.236 234.6C274.063 236.832 243.47 219.579 190.659 220.597C152.64 221.33 113.087 238.128 88.7878 239.547C43.3011 242.201 3.71274 208.956 0.243469 163.459C-3.22583 117.963 30.7915 78.264 76.224 74.7898Z" fill="url(#paint0_linear_2844_120954)" fill-opacity="0.5"/>
<path d="M173.355 113.409C188.24 113.409 200.307 101.196 200.307 86.1295C200.307 71.0632 188.24 58.8496 173.355 58.8496C158.469 58.8496 146.402 71.0632 146.402 86.1295C146.402 101.196 158.469 113.409 173.355 113.409Z" fill="url(#paint1_linear_2844_120954)"/>
<path opacity="0.5" d="M367.298 82.0699C368.041 81.6083 368.794 81.1035 369.268 80.3659C370.067 79.1145 369.853 77.3647 368.921 76.2068C367.992 75.0492 366.462 74.4659 364.977 74.4855C364.674 74.4899 364.355 74.5124 364.086 74.3757C363.745 74.1998 363.575 73.8174 363.407 73.4715C362.304 71.2128 360.096 69.5256 357.628 69.0548C355.159 68.5837 352.487 69.3402 350.632 71.0362C349.896 68.7166 346.132 67.1834 344.238 67.2021C342.441 67.2189 338.643 68.4878 338.291 70.2533C335.714 68.9799 332.428 70.3413 330.732 72.6626C329.036 74.9839 328.613 77.9935 328.553 80.869C325.064 81.0328 322.114 84.5587 322.567 88.0251C320.739 87.5073 319.728 89.739 314.474 90.7426C312.064 91.203 298.731 93.0758 293.417 93.8399C351.275 90.0272 365.558 83.1489 367.298 82.0699Z" fill="#1EC6CE"/>
<path opacity="0.5" d="M60.0934 112.108C62.394 112.092 66.8626 111.851 68.3972 110.137C69.5591 108.838 69.3919 107.07 70.5017 105.727C71.6114 104.384 73.9996 103.867 75.1544 105.171C78.4481 96.3153 84.8372 96.3251 90.0104 98.3418C90.5249 98.5429 91.0536 98.7905 91.6043 98.7322C92.1549 98.6739 92.6217 98.322 93.0716 98.0028C96.219 95.7855 100.124 94.6624 103.968 94.8729C106.177 94.9938 115.747 97.1808 114.192 105.512C112.888 112.501 108.487 114.659 106.007 114.939C79.8304 117.887 37.9789 110.512 37.9789 110.512C37.9789 110.512 57.7928 112.123 60.0934 112.108Z" fill="#1EC6CE"/>
<path d="M274.861 217.453C265.323 217.453 249.893 223.044 234.003 230.909C229.225 218.667 178.285 210.789 116.147 210.789C50.8545 210.789 0 220.536 0 233.864C0 247.191 11.5283 256.938 116.147 256.938C125.354 256.938 134.315 256.723 142.916 256.319C166.04 255.228 197.084 255.399 181.317 266.25C176.361 269.658 175.002 274.403 175.602 277.064C179.516 294.308 252.319 283.727 281.905 276.549C308.355 270.13 324.368 261.53 324.368 245.119C324.368 228.708 302.077 217.459 274.861 217.459V217.453Z" fill="#A1CAF6"/>
<path d="M364.208 227.299C364.435 236.182 211.626 240.075 211.4 231.192C211.173 222.309 245.605 191.541 287.804 190.468C330.003 189.396 363.981 218.416 364.208 227.299Z" fill="#FDD665"/>
<path d="M236.712 66.2388C237.514 67.4894 281.882 133.77 269.661 207.395L243.488 209.35C243.488 209.35 265.392 148.832 234.261 67.5936C233.238 64.9269 235.909 64.9882 236.712 66.2388Z" fill="#CA9429"/>
<path d="M298.94 111.327C298.94 111.327 288.821 52.7766 233.997 65.5889C233.997 65.5889 233.88 67.5813 236.502 68.2311C238.744 68.7828 241.378 68.5008 242.554 69.402C245.103 71.3514 243.632 73.3376 246.187 75.0725C248.741 76.8074 252.325 75.894 254.665 77.6227C257.005 79.3515 255.228 81.6932 258.211 83.7224C261.194 85.7515 264.092 83.6794 266.511 85.8864C268.931 88.0933 266.469 89.2212 269.887 91.8144C273.305 94.4136 275.81 92.0289 278.45 94.2358C281.09 96.4427 278.322 98.1286 281.782 100.121C285.243 102.113 287.057 100.121 289.868 102.156C292.68 104.191 292.031 107.477 294.322 108.991C296.612 110.506 298.946 111.327 298.946 111.327H298.94Z" fill="#41B658"/>
<path d="M313.579 52.0506C313.579 52.0506 265.371 17.3654 235.215 64.9488C235.215 64.9488 236.532 66.4507 238.853 65.0714C240.838 63.8944 242.523 61.8468 243.993 61.6629C247.178 61.2645 247.521 63.7166 250.553 63.1587C253.585 62.607 255.509 59.4376 258.388 59.0392C261.267 58.6407 261.634 61.5465 265.187 60.9089C268.74 60.2714 269.353 56.7526 272.624 56.63C275.895 56.5073 274.927 59.0392 279.178 58.4936C283.435 57.9541 283.558 54.4966 286.982 54.2207C290.406 53.9449 289.616 57.0897 293.475 56.0844C297.334 55.079 297.242 52.3878 300.667 51.8667C304.097 51.3456 305.935 54.1472 308.63 53.62C311.325 53.0928 313.567 52.0445 313.567 52.0445L313.579 52.0506Z" fill="#41B658"/>
<path d="M278.029 0.0061303C278.029 0.0061303 219.897 12.0767 234.519 66.4893C234.519 66.4893 236.516 66.5383 237.073 63.89C237.551 61.6341 237.184 59.0042 238.041 57.7965C239.903 55.1789 241.937 56.5827 243.579 53.9773C245.22 51.372 244.198 47.8102 245.845 45.4133C247.493 43.0225 249.888 44.7144 251.818 41.6615C253.747 38.6087 251.579 35.7826 253.704 33.2876C255.83 30.7925 257.031 33.2201 259.511 29.7136C261.992 26.2071 259.53 23.7794 261.643 21.0699C263.756 18.3603 265.539 21.0699 267.407 17.5449C269.282 14.02 267.23 12.2667 269.171 9.39163C271.113 6.51651 274.415 7.04985 275.848 4.70807C277.282 2.3663 278.029 0 278.029 0V0.0061303Z" fill="#41B658"/>
<path d="M211.197 141.297C211.197 141.297 183.938 88.515 235.375 65.5938C235.375 65.5938 236.667 67.1141 234.971 69.2106C233.519 71.0007 231.246 72.3739 230.848 73.8022C229.991 76.898 232.361 77.5969 231.375 80.5149C230.383 83.4391 226.977 84.8797 226.162 87.669C225.347 90.4583 228.165 91.2491 227.02 94.6759C225.874 98.1027 222.303 98.1947 221.709 101.419C221.108 104.644 223.755 104.049 222.597 108.181C221.439 112.313 218.003 111.933 217.237 115.286C216.465 118.639 219.687 118.314 218.131 121.986C216.576 125.658 213.929 125.174 212.912 128.491C211.902 131.807 214.401 134.039 213.488 136.632C212.576 139.225 211.21 141.291 211.21 141.291L211.197 141.297Z" fill="#41B658"/>
<path d="M167.223 103.377C167.223 103.377 183.743 46.3096 236.821 65.099C236.821 65.099 236.717 67.0913 234.04 67.4469C231.756 67.7473 229.164 67.1771 227.896 67.9373C225.146 69.5925 226.39 71.732 223.658 73.1665C220.926 74.601 217.465 73.3075 214.953 74.7665C212.442 76.2255 213.942 78.745 210.757 80.437C207.566 82.129 204.919 79.7443 202.267 81.6692C199.615 83.5941 201.942 84.9857 198.261 87.1865C194.579 89.3872 192.35 86.7451 189.483 88.6455C186.616 90.5459 189.183 92.5321 185.526 94.126C181.869 95.7198 180.282 93.5436 177.262 95.2539C174.243 96.9643 174.524 100.305 172.08 101.556C169.636 102.806 167.223 103.364 167.223 103.364V103.377Z" fill="#41B658"/>
<path d="M159.268 43.6956C159.268 43.6956 211.194 14.8832 235.586 65.6666C235.586 65.6666 234.104 67.0092 231.96 65.3663C230.128 63.9685 228.689 61.731 227.256 61.3754C224.138 60.6091 223.513 63 220.566 62.0988C217.62 61.1976 216.076 57.826 213.265 57.0903C210.453 56.3547 209.743 59.1992 206.294 58.1509C202.839 57.0965 202.643 53.5409 199.403 53.0321C196.168 52.5294 196.836 55.1532 192.671 54.1171C188.505 53.0811 188.787 49.6359 185.418 48.9616C182.049 48.2872 182.465 51.5056 178.747 50.0528C175.029 48.5999 175.439 45.9393 172.095 45.0259C168.75 44.1064 166.594 46.675 163.978 45.8412C161.363 45.0075 159.262 43.6956 159.262 43.6956H159.268Z" fill="#41B658"/>
<path opacity="0.1" d="M20.1198 229.965C8.12813 231.127 3.868 244.677 27.0794 247.387C50.2907 250.097 103.289 252.035 171.72 241.973C187.438 239.662 202.396 236.547 203.87 230.352C205.804 222.222 192.264 217.189 192.264 217.189L40.2335 229.191C40.2335 229.191 32.1116 228.804 20.1198 229.965Z" fill="black"/>
<path d="M231.62 217.486L229.629 209.498L233.604 209.32L233.065 217.486H231.62Z" fill="#292A2B"/>
<path d="M215.086 182.346C221.754 185.249 217.698 197.603 223.21 201.703C225.277 203.242 238.088 208.506 238.285 210.72C238.334 211.285 238.242 211.893 237.793 212.345C237.184 212.967 236.095 213.143 235.098 213.281C233.505 213.499 231.838 213.718 230.282 213.366C228.725 213.015 227.323 211.912 227.477 210.663C227.581 209.779 228.449 209.028 229.482 208.634C230.515 208.239 231.697 208.154 232.847 208.144C233.634 208.14 234.471 208.178 235.111 208.529C235.88 208.957 236.169 209.722 236.409 210.43C237.436 213.499 236.409 215.975 232.847 218.35" stroke="#CA9429" stroke-width="1.53139" stroke-miterlimit="10" stroke-linecap="round"/>
<path d="M234.034 209.321C234.034 208.745 232.956 208.285 231.62 208.285C230.285 208.285 229.207 208.751 229.207 209.321C229.207 209.462 229.274 209.603 229.397 209.726C229.764 210.1 230.622 210.357 231.62 210.357C232.95 210.357 234.034 209.891 234.034 209.321Z" fill="black"/>
<path opacity="0.1" fill-rule="evenodd" clip-rule="evenodd" d="M314.704 220.464C315.702 219.192 318.277 218.933 321.86 218.573C322.826 218.475 323.865 218.371 324.966 218.237C328.865 217.764 331.716 217.192 334.07 216.719C336.708 216.19 338.723 215.785 340.892 215.785C353.748 215.785 360.188 221.023 360.188 225.594C360.188 227.353 357.591 228.108 354.446 229.021C353.433 229.316 352.364 229.626 351.305 229.993C348.935 230.813 345.685 230.084 342.166 229.295C339.459 228.688 336.593 228.046 333.848 228.046C330.774 228.046 327.211 228.837 323.811 229.591C319.336 230.585 315.143 231.516 312.716 230.498C310.445 229.545 311.842 226.996 313.052 224.788C313.364 224.218 313.664 223.67 313.885 223.178C313.735 223.184 313.576 223.188 313.409 223.192C312.397 223.216 311.087 223.247 309.648 223.755C308.547 224.143 307.355 224.734 306.066 225.373C303.021 226.882 299.436 228.659 295.253 228.659C292.163 228.659 289.552 227.485 287.044 226.356C285.584 225.7 284.16 225.059 282.695 224.674C278.206 223.493 274.426 221.769 274.426 219.77C274.426 216.215 284.089 215.785 295.253 215.785C304.503 215.785 312.302 217.764 314.704 220.464Z" fill="#202024"/>
<path d="M348.299 197.474L348.74 217.281L351.453 219.402L354.02 217.771C354.02 217.771 353.702 217.134 354.29 213.682C354.878 210.231 355.68 204.364 355.754 202.164C355.827 199.963 354.143 195.193 354.143 195.193L348.299 197.468V197.474Z" fill="#8C715D"/>
<path d="M328.213 194.391C328.213 194.391 327.478 198.204 327.11 200.699C326.743 203.194 324.396 217.06 324.396 217.06L326.522 219.629L329.015 218.293C329.015 218.293 328.96 217.79 330.063 215.442C331.165 213.094 333.217 207.883 334.093 205.027C334.969 202.17 334.093 194.391 334.093 194.391H328.207H328.213Z" fill="#8C715D"/>
<path d="M336.27 197.426C336.601 193.025 342.622 185.668 344.38 182.806C345.073 181.684 346.028 195.238 347.786 198.432C347.786 198.432 351.327 198.812 353.949 198.812C356.57 198.812 359.033 198.138 359.033 198.138C357.826 192.197 357.471 187.514 358.782 184.62C363.4 174.444 359.664 163.82 359.664 163.82L336.135 163.207C336.135 163.207 325.789 189.181 325.244 195.348C325.244 195.348 327.504 196.274 330.096 196.844C333.091 197.506 336.405 197.69 336.27 197.42V197.426Z" fill="#6195E3"/>
<path d="M354.014 124.151L353.082 116.764L346.173 118.836L344.084 130.502C344.084 130.502 348.519 134.02 351.233 131.93C353.946 129.84 354.02 124.151 354.02 124.151H354.014Z" fill="#9A7761"/>
<path d="M352.934 120.263L354.018 120.171L354.349 119.693L355.231 120.116C355.231 120.116 354.753 118.504 354.643 118.393C354.533 118.283 355.415 118.173 355.415 118.173L353.767 114.973L352.615 116.763L352.946 120.269L352.934 120.263Z" fill="#292A2B"/>
<path d="M318.785 147.189C318.228 146.931 316.261 146.196 315.312 145.65C314.822 145.368 314.167 146.03 314.638 146.428C314.945 146.686 316.329 147.765 316.219 148.231C316.114 148.648 311.79 148.74 311.049 148.776C310.307 148.813 310.369 149.665 311.153 149.708C311.937 149.751 313.033 149.8 313.033 149.917C313.033 150.033 312.519 150.456 310.693 150.517C309.909 150.542 309.94 151.382 310.681 151.382C311.422 151.382 312.917 151.271 312.917 151.547C312.917 151.731 311.918 151.94 311.3 152.019C310.681 152.099 310.773 152.681 311.392 152.657C312.176 152.632 314.265 152.51 314.283 152.62C314.314 152.847 312.923 153.215 312.635 153.215C312.219 153.215 312.09 153.717 312.684 153.699C313.977 153.65 318.154 153.252 318.969 152.626C319.906 151.903 320.556 151.541 320.556 149.972C320.556 148.402 319.349 147.44 318.791 147.183L318.785 147.189Z" fill="#9A7761" stroke="#9A7761" stroke-width="1.53139" stroke-miterlimit="10"/>
<path d="M333.607 136.988C333.607 136.988 331.671 143.603 329.099 145.43C326.936 146.968 319.365 148.194 319.365 148.194L319.641 151.499C319.641 151.499 325.062 153.558 330.489 153.166C337.638 152.651 338.581 142.377 338.581 142.377L340.976 137.411L333.607 136.988Z" fill="#9A7761" stroke="#9A7761" stroke-width="1.53139" stroke-miterlimit="10"/>
<path d="M344.812 126.418C344.812 126.418 337.228 127.012 332.83 136.772C333.982 139.831 338.018 142.448 338.576 142.381C336.456 149.351 335.905 156.554 336.126 163.212C336.512 163.984 352.07 166.522 357.786 163.549C363.501 160.576 357.835 125.093 357.835 125.093L353.963 123.775C353.963 123.775 352.585 132.744 347.672 132.082C344.083 131.598 344.812 126.424 344.812 126.424V126.418Z" fill="#F9927B"/>
<path d="M338.596 191.473C338.596 191.473 342.547 176.344 343.245 176.344C343.943 176.344 344.378 182.799 344.378 182.799L338.596 191.473Z" fill="#3D5C9B"/>
<path d="M344.595 112.705C344.595 112.705 342.138 115.789 341.477 116.077C340.815 116.365 340.779 117.579 341.477 117.8C342.175 118.02 342.102 119.118 341.477 120.662C340.852 122.207 341.005 124.402 342.782 125.358C344.558 126.315 347.474 126.407 348.772 125.928C351.596 124.88 351.541 118.259 351.688 117.818C351.835 117.377 353.103 118.247 353.685 116.96C354.267 115.672 353.593 114.538 352.056 114.318C350.518 114.097 345.146 111.816 345.146 111.816L344.595 112.705Z" fill="#9A7761" stroke="#9A7761" stroke-width="1.53139" stroke-miterlimit="10"/>
<path d="M345.251 114.967C345.519 114.967 345.735 114.75 345.735 114.482C345.735 114.215 345.519 113.998 345.251 113.998C344.984 113.998 344.768 114.215 344.768 114.482C344.768 114.75 344.984 114.967 345.251 114.967Z" fill="black"/>
<path d="M346.127 112.833C346.127 112.833 346.642 113.79 346.856 114.115C347.199 114.648 347.805 114.47 347.511 113.753C347.321 113.287 346.593 112.705 346.593 112.705L346.127 112.447V112.833Z" fill="#292A2B"/>
<path opacity="0.5" d="M358.328 131.236C358.328 131.236 360.331 129.655 363.958 140.058C362.389 142.823 357.305 143.479 356.546 143.049C355.786 142.62 357.354 131.347 357.354 131.347L358.328 131.236Z" fill="#292A2B" stroke="#292A2B" stroke-width="1.53139" stroke-miterlimit="10"/>
<path d="M358.869 141.457C358.869 141.457 359.39 149.745 359.359 152.994C359.304 157.978 354.018 167.18 354.018 167.18L358.446 169.08C358.446 169.08 365.252 156.948 365.472 153.969C365.693 150.989 364.498 138.588 364.498 138.588L358.869 141.457Z" fill="#9A7761" stroke="#9A7761" stroke-width="1.53139" stroke-miterlimit="10"/>
<path d="M357.847 125.088C357.847 125.088 362.827 128.129 366.453 138.532C364.885 141.297 357.143 142.376 357.143 142.376L357.234 125.113L357.847 125.082V125.088Z" fill="#F9927B"/>
<path d="M366.172 137.74C366.27 137.998 366.362 138.261 366.453 138.531C364.885 141.296 357.143 142.375 357.143 142.375V141.578L366.172 137.74Z" fill="#EC6446"/>
<path d="M359.029 169.33L358.539 169.784L352.996 167.479L352.959 166.725L359.029 169.33Z" fill="#3D5C9B"/>
<path d="M339.056 141.308C338.927 141.578 338.866 141.762 338.449 142.405C335.558 140.94 333.494 138.574 332.826 136.772L333.157 136.061C333.157 136.061 336.949 140.235 339.05 141.308H339.056Z" fill="#EC6446"/>
<path d="M341.815 118.933C341.815 119.239 341.815 119.546 341.486 120.667C340.867 122.212 341.014 124.407 342.791 125.363C344.567 126.319 347.483 126.411 348.781 125.933C351.605 124.885 351.679 118.282 351.697 117.823C351.74 116.615 351.795 114.322 351.795 114.322L350.981 114.426C350.981 114.426 350.57 116.56 350.294 117.375C349.804 118.828 348.837 121.403 347.593 120.318C344.714 117.804 341.815 118.013 341.823 118.227L341.815 118.933Z" fill="#292A2B" stroke="#292A2B" stroke-width="1.53139" stroke-miterlimit="10"/>
<path d="M342.502 119.625C342.502 119.625 342.594 120.6 343.494 120.833C344.395 121.066 345.111 120.299 345.35 120.06L342.508 119.625H342.502Z" fill="white" stroke="#221F20" stroke-width="1.53139" stroke-miterlimit="10"/>
<path d="M351.117 114.316C350.547 114.641 340.085 111.27 340.636 110.393C341.188 109.516 345.659 110.651 345.659 110.651L351.123 112.189C351.123 112.189 351.693 113.992 351.123 114.316H351.117Z" fill="#3D5C9B"/>
<path d="M354.017 115.678C354.495 113.661 355.481 109.223 352.076 108.156C348.67 107.09 345.662 110.651 345.662 110.651C345.662 110.651 350.538 112.889 351.126 114.317C352.082 114.17 353.411 114.697 354.024 115.672L354.017 115.678Z" fill="#6195E3"/>
<path d="M323.86 216.014C323.082 216.425 323.168 218.258 321.618 219.404C320.069 220.55 316.191 222.138 315.419 222.549C314.647 222.96 315.419 223.407 315.419 223.407H329.043C329.043 223.407 328.877 221.936 329.288 220.385C329.698 218.834 329.943 217.773 330.065 217.73C330.188 217.687 328.883 217.528 327.946 218.264C327.009 218.999 326.274 218.956 326.194 218.019C326.114 217.081 325.055 215.732 323.866 216.02L323.86 216.014Z" fill="#292A2B"/>
<path d="M347.69 215.976C346.912 216.387 347.402 218.263 345.853 219.403C344.303 220.544 340.425 222.137 339.654 222.548C338.882 222.959 339.654 223.406 339.654 223.406L354.606 223.247C354.606 223.247 354.851 221.941 354.71 220.341C354.569 218.741 354.937 216.731 354.545 216.424C354.153 216.117 353.118 217.527 352.18 218.263C351.243 218.999 350.3 218.95 350.428 218.018C350.735 215.793 348.879 215.694 347.696 215.976H347.69Z" fill="#292A2B"/>
<path d="M281.47 217.327C281.47 217.327 281.495 214.556 280.643 212.803C279.792 211.05 279.461 209.762 279.461 209.762L284.024 209.131C284.024 209.131 284.41 213.563 285.507 214.691C286.603 215.819 287.596 217.027 287.596 217.027L285.672 218.345L281.464 217.327H281.47Z" fill="white"/>
<path d="M286.801 216.199C286.801 216.199 292.405 218.406 292.767 218.737C293.128 219.068 293.508 219.313 292.767 219.399C292.026 219.485 282.598 219.479 281.961 219.399C281.324 219.32 280.914 217.474 281.134 216.843C281.355 216.211 286.415 217.45 286.605 217.45C286.794 217.45 286.794 216.205 286.794 216.205L286.801 216.199Z" fill="#F99BD9"/>
<path d="M300.593 217.278C300.593 217.278 300.618 214.507 299.766 212.754C298.915 211.001 298.584 209.713 298.584 209.713L303.148 209.082C303.148 209.082 303.533 213.514 304.63 214.642C305.726 215.77 306.719 216.978 306.719 216.978L304.795 218.296L300.587 217.278H300.593Z" fill="white"/>
<path d="M305.931 216.15C305.931 216.15 311.536 218.357 311.898 218.688C312.259 219.019 312.639 219.265 311.898 219.35C311.157 219.436 301.729 219.43 301.092 219.35C300.455 219.271 300.045 217.426 300.265 216.794C300.486 216.163 305.545 217.401 305.735 217.401C305.925 217.401 305.925 216.157 305.925 216.157L305.931 216.15Z" fill="#F99BD9"/>
<path d="M286.209 156.98C286.209 156.98 285.4 160.573 284.744 161.456C284.089 162.338 282.398 165.857 283.789 173.416C285.179 180.974 283.348 187.798 282.031 190.434C280.714 193.07 276.53 200.959 278.803 211.632C282.76 211.926 286.901 211.632 288.04 211.632C289.78 196.999 294.27 190.942 294.27 190.942C294.27 190.942 291.997 204.588 298.227 211.926C303.728 212.147 306.803 211.706 306.803 211.706C306.803 211.706 304.898 193.284 305.559 186.541C306.221 179.797 299.403 156.98 299.403 156.98H286.209Z" fill="#ABFAF0"/>
<path d="M287.169 171.797C287.2 172.6 289.485 181.759 289.258 190.249C289.043 198.451 285.705 198.537 286.434 211.448C286.434 211.448 287.671 211.632 288.045 211.632C289.105 202.73 291.181 197.005 292.645 193.884C293.589 191.874 294.281 190.942 294.281 190.942C294.281 190.942 292.817 178.344 287.169 171.797Z" fill="#1EC6CE"/>
<path d="M315.017 128.295C315.403 128.185 317.253 127.786 318.49 129.08C319.727 130.373 318.71 131.152 318.508 131.029C318.49 131.268 318.165 131.569 317.883 131.471C317.834 131.734 317.547 132.102 317.106 131.857C317.148 132.145 317.087 134.315 316.285 134.505C315.482 134.695 316.45 131.311 315.513 130.986C314.576 130.662 314.937 133.144 314.986 133.512C315.041 133.935 314.514 134.585 314.251 133.972C314.079 133.567 313.608 132.593 313.449 131.839C313.357 131.403 313.246 130.545 313.645 129.724C314.012 128.97 314.619 128.412 315.004 128.307L315.017 128.295Z" fill="#F1DBCB" stroke="#F1DBCB" stroke-width="1.53139" stroke-miterlimit="10"/>
<path d="M315.51 136.223C316.183 136.223 316.729 135.677 316.729 135.003C316.729 134.329 316.183 133.783 315.51 133.783C314.837 133.783 314.291 134.329 314.291 135.003C314.291 135.677 314.837 136.223 315.51 136.223Z" stroke="#202024" stroke-width="1.53139" stroke-miterlimit="10"/>
<path d="M316.96 137.088C316.96 136.285 316.311 135.635 315.508 135.635C314.706 135.635 314.057 136.285 314.057 137.088C314.057 137.848 314.639 138.461 315.38 138.528V140.208H314.761V140.582H315.398V140.919H314.761V141.422H316.023V138.436C316.568 138.228 316.96 137.701 316.96 137.082V137.088ZM315.092 136.413C315.092 136.211 315.251 136.052 315.453 136.052C315.655 136.052 315.815 136.211 315.815 136.413C315.815 136.616 315.655 136.775 315.453 136.775C315.251 136.775 315.092 136.616 315.092 136.413Z" fill="#F9AA00"/>
<path d="M285.718 129.572L285.025 126.556L289.589 126.004L291.304 129.265C291.304 129.265 294.924 133.091 293.387 134.133C291.849 135.175 285.718 129.566 285.718 129.566V129.572Z" fill="#E1C5B6"/>
<path d="M293.142 122.668C293.197 123.103 293.234 123.33 293.301 123.845C293.889 128.069 291.108 127.094 287.512 126.867C286.783 126.818 285.626 126.677 284.878 126.481C282.183 125.77 280.443 121.258 280.443 117.776C280.443 113.405 282.385 114.067 285.993 114.067C289.16 114.067 291.543 116.997 292.799 120.577C293.074 121.362 294.391 121.552 294.391 122.006C294.391 122.459 293.105 122.392 293.142 122.668Z" fill="#F1DBCB" stroke="#F1DBCB" stroke-width="1.53139" stroke-miterlimit="10"/>
<path d="M294.028 118.506C294.028 118.506 295.387 115.153 292.196 112.192C289.887 110.046 285.801 112.566 284.992 113.154C284.533 111.493 281.035 108.655 278.585 111.309C276.257 113.841 278.971 116.955 279.767 116.955C279.584 117.298 279.173 124.52 282.965 125.562C282.616 123.931 283.026 121.847 282.953 121.626C282.646 121.639 280.992 121.001 281.593 119.567C282.193 118.132 283.381 118.96 283.804 119.346C284.135 118.941 284.833 118.39 284.815 117.274C285.562 117.672 286.879 118.481 289.029 118.224C290.977 117.991 291.436 117.262 291.755 117.108C293.06 116.924 294.028 118.5 294.028 118.5V118.506Z" fill="black" stroke="black" stroke-width="1.53139" stroke-miterlimit="10"/>
<path d="M293.549 124.293C293.549 124.293 292.447 124.373 291.068 123.711C291.123 125.274 292.557 125.63 293.427 125.936C293.427 125.936 293.531 125.654 293.58 125.219C293.629 124.784 293.549 124.287 293.549 124.287V124.293Z" fill="black"/>
<path d="M293.568 124.495C293.568 124.495 292.502 124.569 291.369 124.029C291.633 125.163 292.766 125.488 293.482 125.746C293.482 125.746 293.538 125.58 293.574 125.225C293.611 124.869 293.562 124.495 293.562 124.495H293.568Z" fill="white"/>
<path d="M291.372 120.578C291.602 120.578 291.788 120.391 291.788 120.161C291.788 119.931 291.602 119.744 291.372 119.744C291.142 119.744 290.955 119.931 290.955 120.161C290.955 120.391 291.142 120.578 291.372 120.578Z" fill="black"/>
<path d="M291.553 118.732C290.187 118.119 289.623 119.633 289.623 119.633C289.623 119.633 290.138 119.222 290.591 118.996C291.044 118.769 291.553 118.732 291.553 118.732Z" fill="black"/>
<path d="M285.695 129.253C284.378 129.879 280.929 134.243 280.782 138.498C280.635 142.752 286.209 156.987 286.209 156.987C286.209 156.987 293.873 159.371 299.404 156.987C300.647 152.99 299.404 144.371 299.404 144.371C299.404 144.371 306.001 146.277 306.736 145.836C307.471 145.394 312.96 136.236 313.333 132.337C312.984 130.124 313.725 129.633 314.467 128.561C309.548 130.541 305.082 137.217 303.618 137.658C302.154 138.099 292.948 130.259 291.049 129.112C292.078 130.614 292.219 133.22 292.219 133.22C292.219 133.22 287.49 131.387 285.695 129.259V129.253Z" fill="#A72CAB"/>
<path d="M290.174 153.093C290.174 153.093 291.105 156.446 291.981 156.666C292.863 156.887 302.333 152.688 302.48 151.934C302.627 151.18 296.067 136.51 295.087 136.412C294.107 136.308 285.99 140.74 285.99 140.74L290.174 153.093Z" fill="#F9F9F9" stroke="#202024" stroke-width="3.06279" stroke-miterlimit="10"/>
<path d="M291.824 137.552L288.979 138.957L289.361 139.732L292.206 138.327L291.824 137.552Z" fill="#DFE24F"/>
<path d="M288.557 135.781C291.381 141.501 293.47 147.153 293.911 147.3C294.352 147.447 296.808 140.55 296.955 140.183C297.102 139.815 299.449 140.808 299.449 141.543C299.449 142.279 298.566 154.527 295.712 155.226C292.857 155.925 283.871 149.396 281.929 143.56C279.988 137.73 285.74 130.061 288.563 135.781H288.557Z" fill="#DD63CA"/>
<path d="M299.145 141.034C299.145 141.034 299.182 139.115 298.098 138.748C297.014 138.38 296.744 138.49 296.744 138.49L297.112 140.102L299.145 141.034Z" fill="#F1DBCB"/>
<path d="M38.9354 234.085L36.041 202.973L208.702 190.271C208.702 190.271 205.415 208.317 186.343 225.099L38.9354 234.085Z" fill="#A1F1CF"/>
<path d="M33.2375 204.07L32.7168 197.756L131.761 190.148L126.53 168.508L175.179 166.473L192.466 183.527L215.296 182.356L212.833 190.693L33.2375 204.07Z" fill="#4DC89B"/>
<path d="M130.807 172.069L135.487 189.332L158.537 187.867L151.683 170.818L130.807 172.069Z" fill="white"/>
<path d="M154.17 170.642L161.196 187.905L189.686 185.796L174.397 169.637L154.17 170.642Z" fill="white"/>
<path d="M26.8412 230.307L27.417 234.077L21.8672 235.781L22.1122 239.043C22.1122 239.043 31.0739 238.877 33.2791 237.308C35.4843 235.738 36.5073 229.547 36.5073 229.547L26.835 230.295L26.8412 230.307Z" fill="#656A81"/>
<path d="M22.0514 234.06C22.2781 234.783 22.6272 236.052 22.5599 236.769C22.5047 237.327 21.935 237.125 21.935 237.125C20.9304 237.021 18.3148 234.697 18.4128 233.686C18.5108 232.674 19.4113 231.945 20.4159 232.049C21.4205 232.153 21.7452 233.091 22.0514 234.054V234.06Z" fill="#656A81"/>
<path d="M20.2935 239.773C20.7039 239.136 21.4574 238.057 22.0577 237.658C22.5232 237.345 22.7315 237.916 22.7315 237.916C23.295 238.755 23.1725 242.256 22.3333 242.82C21.4941 243.384 20.3548 243.157 19.7912 242.317C19.2277 241.477 19.7422 240.625 20.2935 239.773Z" fill="#656A81"/>
<path d="M17.6953 205.848C16.948 207.215 17.0215 209.281 17.0215 209.281L18.5468 226.685C18.5468 226.685 18.8531 229.541 20.7765 230.761C22.7979 232.043 25.5667 231.889 25.5667 231.889L39.6616 230.878L36.9725 203.457L21.3829 204.101C21.3829 204.101 18.6509 204.101 17.6953 205.854V205.848Z" fill="#414159"/>
<defs>
<linearGradient id="paint0_linear_2844_120954" x1="339.969" y1="171.036" x2="44.1041" y2="168.588" gradientUnits="userSpaceOnUse">
<stop stop-color="#1EC6CE"/>
<stop offset="1" stop-color="#DAFFF5"/>
</linearGradient>
<linearGradient id="paint1_linear_2844_120954" x1="169.831" y1="111.101" x2="173.644" y2="79.2697" gradientUnits="userSpaceOnUse">
<stop stop-color="#FFF9DB"/>
<stop offset="1" stop-color="#FFE795"/>
</linearGradient>
</defs>
</svg>
