<svg width="500" height="340" viewBox="0 0 1000 680" fill="none" xmlns="http://www.w3.org/2000/svg">
<g id="State=Empty (Positive or Neutral) 2">
<path id="Vector" d="M809.434 123.616C722.909 117.027 662.738 143.484 571.864 113.101C451.552 72.8782 430.97 12.136 281.785 0.770307C137.601 -10.2081 11.7875 97.452 0.772499 241.234C-10.2366 385.021 97.7187 510.484 241.908 521.462C314.841 527.019 391.323 484.067 523.35 486.602C618.395 488.427 717.277 530.246 778.025 533.778C891.741 540.385 990.711 457.622 999.384 344.358C1008.06 231.094 923.014 132.265 809.434 123.616Z" fill="url(#paint0_linear_8267_132316)"/>
<path id="Vector_2" d="M42.0885 463.384C42.0885 463.384 213.027 335.234 255.893 335.234C298.758 335.234 429.997 437.249 429.997 437.249C429.997 437.249 641.7 269.023 716.975 269.023C792.25 269.023 988.031 463.378 988.031 463.378H42.0885V463.384Z" fill="#3D5C9B"/>
<path id="Vector_3" opacity="0.4" d="M715.837 269.023C715.837 269.023 681.674 307.092 692.66 329.208C703.851 351.751 739.656 369.319 735.949 394.345C729.912 435.09 704.416 463.384 704.416 463.384H988.023C988.023 463.384 795.407 269.029 715.837 269.029V269.023Z" fill="black"/>
<path id="Vector_4" opacity="0.4" d="M255.893 335.228C255.675 338.25 243.583 357.332 248.249 370.616C254.804 389.299 277.811 400.547 271.662 422.586C263.73 450.997 249.379 457.898 249.379 457.898L42.0885 463.378C128.614 398.376 227.302 335.228 255.893 335.228Z" fill="black"/>
<path id="Vector_5" d="M988.041 463.384C1012.8 481.814 1007.21 549.944 892.331 561.192C834.543 566.848 873.448 640.277 801.904 670.401C723.728 703.319 583.934 641.01 507.047 641.01C400.503 641.01 194.231 722.23 122.71 648.931C81.9273 607.13 144.558 556.68 88.7352 538.783C43.2336 524.196 16.4669 487.641 42.098 463.378H988.041V463.384Z" fill="url(#paint1_linear_8267_132316)"/>
<path id="Vector_6" d="M191.964 394.603L374.588 463.384L72.7991 463.272L191.964 394.603Z" fill="#6195E3"/>
<path id="Vector_7" d="M763.719 357.948L449.209 463.384L655.819 473.846L899.575 481.538L961.286 463.077L763.719 357.948Z" fill="#6195E3"/>
<path id="Vector_8" opacity="0.2" d="M191.978 394.603C191.978 394.603 195.502 402.53 195.502 424.358C195.502 446.186 163.34 462.163 163.34 462.163L73.4017 462.357L191.978 394.603Z" fill="#191952"/>
<path id="Vector_9" d="M68.677 463.384C80.457 446.937 101.081 433.523 124.511 432.25C147.942 430.977 171.166 436.703 192.572 444.525C206.135 449.483 219.657 455.392 234.479 456.296C241.428 456.724 249.165 460.514 255.203 463.343C255.203 463.349 68.677 463.384 68.677 463.384Z" fill="#A1CAF6"/>
<path id="Vector_10" opacity="0.2" d="M764.129 356.923C764.129 356.923 751.645 371.689 762.42 390.594C773.195 409.5 744.216 430.142 762.049 448.986C779.882 467.829 843.631 467.692 843.631 467.692L961.286 463.077L764.129 356.923Z" fill="#191952"/>
<path id="Vector_11" d="M623.421 464.615C652.179 452.529 681.479 439.447 712.475 436.517C724.549 435.379 736.74 435.671 748.753 434.051C768.038 431.447 786.489 423.968 805.85 422.051C834.083 419.253 861.986 428.403 888.918 437.444C896.129 439.865 903.436 442.332 909.752 446.601C916.072 450.875 921.386 456.043 922.716 463.625L623.421 464.609V464.615Z" fill="#A1CAF6"/>
<path id="Vector_12" d="M961.286 463.076C984.487 479.045 978.691 539.623 871.025 549.366C816.862 554.27 853.326 617.887 786.271 643.99C713 672.512 581.974 618.523 509.912 618.523C410.054 618.523 216.721 688.899 149.689 625.39C111.461 589.169 170.165 545.457 117.848 529.95C75.1969 517.315 50.1146 485.639 74.1354 464.615L952.029 463.076H961.286Z" fill="url(#paint2_linear_8267_132316)"/>
<path id="Vector_13" d="M924.659 464.615C945.887 478.227 941.092 528.55 842.578 536.857C793.02 541.035 826.386 595.271 765.035 617.523C697.995 641.841 578.111 595.816 512.175 595.816C420.811 595.816 243.916 655.813 182.584 601.672C147.61 570.795 201.323 533.533 153.447 520.312C114.423 509.538 91.4739 482.537 113.455 464.615H924.659Z" fill="url(#paint3_linear_8267_132316)"/>
<g id="Group">
<path id="Vector_14" d="M830.27 428.29C830.27 428.29 802.709 456.924 800.721 477.273C800.721 477.273 809.529 473.154 826.328 475.031C826.328 475.031 825.293 465.133 826.258 453.433C827.228 437.783 830.27 428.295 830.27 428.295V428.29Z" fill="#FFF2D4"/>
<path id="Vector_15" d="M832.813 427.421L861.721 483.921L830.13 483.792L832.813 427.421Z" fill="#FFF2D4"/>
<path id="Vector_16" d="M829.045 485.517L832.14 425.097C832.14 425.097 832.122 424.587 832.605 424.616C833.005 424.64 832.922 425.097 832.922 425.097L830.133 485.47L829.045 485.511V485.517Z" fill="#B07B4F"/>
<path id="Vector_17" d="M796.068 488.896C796.068 488.896 799.652 496.296 806.101 501.189C810.061 504.193 855.256 502.985 857.681 501.629C860.852 499.857 862.941 492.634 862.941 492.634L796.068 488.896Z" fill="#CA9429"/>
<path id="Vector_18" d="M815.817 490.005C818.094 488.18 820.124 485.957 821.365 485.845C821.813 485.804 836.505 485.247 847.397 486.449C848.615 486.584 849.409 486.866 849.662 490.786C849.674 490.95 816.258 490.005 815.811 490.005H815.817Z" fill="#EFC65D"/>
<path id="Vector_19" d="M861.624 492.564C861.836 492.153 861.601 491.373 860.912 491.261C858.8 490.921 820.53 489.959 815.811 490.006C829.744 491.173 853.287 492.341 861.624 492.564Z" fill="#EFC65D"/>
<path id="Vector_20" d="M857.875 483.909C857.875 483.909 858.487 489.126 860.658 491.291" stroke="black" stroke-width="0.771381" stroke-miterlimit="10" stroke-linecap="round"/>
<path id="Vector_21" d="M832.121 425.643C826.866 428.289 822.635 479.021 829.149 483.604" stroke="black" stroke-width="0.771381" stroke-miterlimit="10" stroke-linecap="round"/>
</g>
<g id="Group_2">
<path id="Vector_22" d="M241.666 463.239C242.343 471.43 241.619 478.36 241.619 478.36C253.381 477.045 259.548 479.932 259.548 479.932C258.159 465.691 238.865 445.647 238.865 445.647C238.865 445.647 240.99 452.29 241.672 463.245L241.666 463.239Z" fill="#FFF2D4"/>
<path id="Vector_23" d="M238.945 484.492L216.833 484.586L237.068 445.031L238.945 484.492Z" fill="#FFF2D4"/>
<path id="Vector_24" d="M238.943 485.671L236.989 443.412C236.989 443.412 236.936 443.095 237.213 443.078C237.554 443.054 237.536 443.412 237.536 443.412L239.702 485.706L238.937 485.677L238.943 485.671Z" fill="#B07B4F"/>
<path id="Vector_25" d="M215.995 490.688C215.995 490.688 217.454 495.746 219.672 496.984C221.373 497.934 253.006 498.779 255.777 496.679C260.29 493.252 262.803 488.071 262.803 488.071L215.989 490.688H215.995Z" fill="#CA9429"/>
<path id="Vector_26" d="M225.27 489.385C225.452 486.639 226.005 486.445 226.858 486.351C234.484 485.512 244.77 485.9 245.081 485.929C245.946 486.005 247.37 487.566 248.965 488.839C248.653 488.839 225.264 489.502 225.27 489.385Z" fill="#EFC65D"/>
<path id="Vector_27" d="M248.972 488.845C245.665 488.81 218.881 489.485 217.404 489.725C216.921 489.802 216.763 490.347 216.91 490.641C222.747 490.482 239.222 489.667 248.978 488.851L248.972 488.845Z" fill="#EFC65D"/>
<path id="Vector_28" d="M217.58 489.743C219.104 488.223 219.528 484.574 219.528 484.574" stroke="black" stroke-width="0.771381" stroke-miterlimit="10" stroke-linecap="round"/>
<path id="Vector_29" d="M239.641 484.363C244.201 481.153 241.241 445.642 237.564 443.788" stroke="black" stroke-width="0.771381" stroke-miterlimit="10" stroke-linecap="round"/>
</g>
<path id="Vector_30" d="M310.982 263.94C352.929 263.94 386.934 230.03 386.934 188.2C386.934 146.37 352.929 112.46 310.982 112.46C269.035 112.46 235.03 146.37 235.03 188.2C235.03 230.03 269.035 263.94 310.982 263.94Z" fill="url(#paint4_linear_8267_132316)"/>
<path id="Vector_31" opacity="0.65" d="M810.274 247.244C804.21 245.912 792.55 242.77 789.463 237.399C787.126 233.332 788.562 228.775 786.387 224.619C784.213 220.464 778.201 217.762 774.419 220.546C770.704 195.4 753.834 191.841 739.045 194.243C737.574 194.483 736.039 194.838 734.619 194.376C733.198 193.913 732.164 192.726 731.156 191.633C724.094 184.034 714.418 178.888 704.154 177.285C698.254 176.363 671.764 176.746 671.185 199.535C670.698 218.653 681.101 226.8 687.49 228.927C754.927 251.373 869.543 255.456 869.543 255.456C869.543 255.456 816.337 248.576 810.274 247.244Z" fill="#1EC6CE"/>
<path id="Vector_32" opacity="0.65" d="M47.9836 268.58C45.6711 267.149 43.3292 265.584 41.8563 263.297C39.3678 259.418 40.0346 253.993 42.9329 250.403C45.8251 246.814 50.5844 245.005 55.2023 245.066C56.1449 245.08 57.1385 245.15 57.9759 244.726C59.0364 244.181 59.5648 242.995 60.0886 241.922C63.5178 234.92 70.3873 229.689 78.0633 228.229C85.7454 226.769 94.0564 229.114 99.8293 234.372C102.118 227.181 113.827 222.427 119.718 222.485C125.307 222.537 137.123 226.471 138.219 231.945C146.235 227.997 156.456 232.218 161.733 239.415C167.009 246.612 168.326 255.942 168.512 264.857C179.364 265.365 188.541 276.296 187.132 287.043C192.82 285.438 195.966 292.357 212.308 295.469C219.808 296.896 261.283 302.702 277.814 305.071C97.8266 293.251 53.3969 271.926 47.9836 268.58Z" fill="#1EC6CE"/>
<path id="Vector_33" opacity="0.65" d="M432.646 143.925C429.879 138.099 438.678 131.723 444.265 133.176C443.399 125.986 450.798 120.328 458.337 120.584C463.892 120.767 467.572 122.691 469.974 129.667C472.529 126.044 475.323 122.645 479.754 122.375C484.184 122.105 489.898 125.992 489.524 130.404C494.309 128.743 499.995 130.083 503.529 133.703C507.062 137.322 508.248 143.034 506.447 147.75C511.914 146.954 518.794 146.797 521.502 151.6C522.186 152.809 522.483 154.195 523.116 155.432C526.252 161.522 577.06 166.3 577.06 166.3C577.06 166.3 440.21 159.868 432.646 143.925Z" fill="#1EC6CE"/>
<g id="Group_3">
<path id="Vector_34" d="M637.188 451.047C637.94 451.747 641.041 454.467 643.587 455.026C644.914 455.315 650.609 455.217 651.98 455.751C652.963 455.996 653.047 456.977 653.047 457.486C653.047 457.918 651.98 458.692 651.243 458.447C650.828 458.309 651.169 458.27 650.997 458.447C650.791 458.658 650.801 458.633 650.506 458.692C649.464 458.903 648.723 459.285 647.691 459.03C644.879 458.334 642.127 457.393 639.474 456.227C638.589 455.84 637.714 455.423 636.918 454.879C635.719 454.056 634.746 452.968 633.778 451.885C632.716 450.694 631.655 449.513 630.662 448.263C629.89 447.298 628.868 444.73 628.927 444.534C629.026 444.21 630.79 445.377 631.325 445.44C631.655 445.499 636.043 449.988 637.183 451.052L637.188 451.047Z" fill="#F7AEA3"/>
<path id="Vector_35" d="M497.039 141.17C497.039 141.17 640.295 344.775 651.746 462.123C651.746 462.123 616.671 399.92 519.768 410.735C519.768 410.735 525.744 353.632 520.171 286.154C514.564 195.911 497.039 141.17 497.039 141.17Z" fill="#FFF2D4"/>
<path id="Vector_36" d="M482.259 136.146L315.531 462.031L497.735 461.257L482.259 136.146Z" fill="#FFF2D4"/>
<path id="Vector_37" d="M504.026 474.38L486.167 122.768C486.167 122.768 486.285 119.822 483.484 120.008C481.184 120.16 481.641 122.768 481.641 122.768L497.736 474.13L504.026 474.38Z" fill="#B07B4F"/>
<path id="Vector_38" d="M580.296 497.1C567.16 486.569 555.439 473.739 548.299 473.101C545.723 472.871 460.969 469.666 398.147 476.576C391.13 477.35 386.554 478.987 385.07 501.589C385.011 502.555 577.721 497.1 580.296 497.1Z" fill="#EFC65D"/>
<path id="Vector_39" d="M316.086 511.862C314.872 509.486 316.214 504.977 320.18 504.34C332.368 502.379 553.075 496.812 580.296 497.096C499.931 503.815 364.159 510.559 316.081 511.857L316.086 511.862Z" fill="#EFC65D"/>
<path id="Vector_40" d="M544.861 493.621L544.345 477.792L472.289 478.826L471.793 494.704L544.861 493.621Z" fill="white"/>
<path id="Vector_41" d="M467.532 494.763L467.916 478.889L458.475 479.021L457.969 494.944L467.532 494.763Z" fill="white"/>
<path id="Vector_42" d="M575.572 493.195C575.572 493.195 571.001 488.495 565.934 484.04C554.99 474.42 550.749 473.156 548.758 473.156L549.486 493.567L575.572 493.195Z" fill="white"/>
<path id="Vector_43" d="M337.769 461.933C337.769 461.933 334.236 492.019 321.704 504.516" stroke="black" stroke-width="1.54276" stroke-miterlimit="10" stroke-linecap="round"/>
<path id="Vector_44" d="M486.303 125.89C516.615 141.165 541.01 433.754 503.439 460.194" stroke="black" stroke-width="1.54276" stroke-miterlimit="10" stroke-linecap="round"/>
<path id="Vector_45" d="M628 439.683C628.28 440.8 629.115 442.981 629.882 443.848C628.403 443.902 626.653 442.883 625.184 443.049C625.071 440.712 624.83 438.384 624.471 436.076C625.518 436.909 626.599 437.693 627.715 438.423C627.705 438.987 627.96 439.521 628 439.683Z" fill="#F09F92"/>
<path id="Vector_46" d="M630.545 430.483C630.747 430.885 630.698 432.36 630.899 432.762C631.327 433.615 632.216 434.291 632.482 434.811C632.659 435.164 631.578 434.899 631.558 435.178C631.479 436.35 632.585 436.957 632.747 438.295C632.821 438.908 631.636 440.623 629.764 440.452C628.978 440.383 625.783 438.29 624.422 437.247C623.361 436.433 622.751 435.071 622.859 433.742C622.884 433.439 622.943 433.13 623.071 432.851C623.189 432.606 623.346 432.385 623.518 432.174C624.162 431.39 624.958 430.714 625.877 430.283C626.796 429.846 627.843 429.66 628.85 429.827C629.022 429.851 630.314 430.018 630.55 430.488L630.545 430.483Z" fill="#F7AEA3"/>
<path id="Vector_47" d="M628.03 436.506C628.3 436.977 629.141 437.055 629.627 436.742C630.188 436.384 630.876 436.036 631.313 435.531C631.411 435.414 631.745 435.482 631.819 435.614C632.605 437.036 632.91 437.207 633.092 438.104C633.416 439.667 631.878 440.991 630.807 440.991C629.45 440.991 627.809 440.706 627.077 438.663C626.969 438.364 626.806 436.898 626.6 435.722C626.585 435.624 627.445 435.595 627.47 435.497C627.514 435.311 627.745 436.016 628.03 436.506Z" fill="black"/>
<path id="Union" fill-rule="evenodd" clip-rule="evenodd" d="M624.662 443.263C625.084 442.902 625.634 442.677 626.188 442.623C629.781 442.26 631.501 445.059 631.643 445.902C631.667 446.048 631.723 446.263 631.792 446.524C631.954 447.135 632.182 448.002 632.213 448.857C632.242 449.72 632.585 450.236 632.938 450.767C633.254 451.243 633.579 451.731 633.693 452.493C634.356 456.963 635.226 461.687 635.811 464.015C635.997 464.745 636.558 467.44 636.248 467.94C635.88 468.519 627.274 468.381 625.903 468.18V468.176C625.866 468.17 625.829 468.164 625.791 468.159C625.095 468.051 624.39 467.888 623.774 467.543C623.497 467.388 623.299 467.403 623.147 467.415C622.944 467.43 622.826 467.439 622.716 467.024C622.688 466.92 622.648 466.817 622.606 466.705C622.474 466.359 622.307 465.92 622.307 465.066C622.307 464.85 622.318 464.602 622.344 464.319C622.358 464.17 622.371 463.997 622.384 463.801C622.439 462.936 622.482 461.645 622.532 460.124C622.69 455.343 622.923 448.278 623.844 444.953C624.071 444.059 624.34 443.454 624.659 443.265C624.66 443.264 624.661 443.264 624.662 443.263Z" fill="#007494"/>
<path id="Vector_48" d="M630.244 431.327C630.617 431.199 632.44 430.685 632.553 428.847C632.662 427.161 630.573 426.269 629.226 426.7C627.108 427.382 624.081 429.381 622.656 431.087C622.376 431.425 621.172 432.988 622.454 435.463C622.926 436.374 623.639 437.355 624.567 437.786C624.509 436.904 624.253 434.963 624.282 434.806C624.391 434.267 624.784 433.919 625.3 433.919C625.85 433.919 626.204 434.365 626.381 434.889C626.573 434.713 627.349 434.243 627.349 434.243C627.349 434.243 626.7 433.204 626.548 432.714C626.44 432.361 627.251 431.63 627.669 431.493C628.288 431.302 629.738 431.503 630.244 431.332V431.327Z" fill="black"/>
<path id="Vector_49" d="M639.624 479.829C641.723 484.49 641.457 489.988 641.959 495.07C639.207 495.036 636.297 495.159 633.56 495.315C633.693 492.61 633.702 489.018 633.373 486.269C632.857 481.878 631.447 479.368 629.309 477.06C628.994 476.717 628.636 476.389 628.488 475.948C628.37 475.6 628.41 475.232 628.439 474.865C628.591 473.184 628.832 471.331 630.095 470.209C630.715 469.655 631.577 468.134 631.577 468.134C631.577 468.134 632.56 468.134 633.051 468.134C634.28 468.135 635.99 467.733 636.246 467.889C636.619 468.105 637.55 475.232 639.624 479.829Z" fill="#EC6446"/>
<path id="Vector_50" d="M627.564 486.288C623.795 492.169 622.242 493.291 619.662 497.319C617.736 497.104 615.794 497.045 613.858 497.138C613.607 497.148 613.268 497.256 613.293 497.506C613.357 496.579 618.984 488.219 620.37 484.553C621.859 480.618 622.434 475.467 622.198 471.615C622.075 469.699 622.591 467.023 622.743 467.023C623.471 467.028 624.149 467.734 624.842 467.954C626.768 468.562 630.086 467.864 632.086 468.134C632.592 468.198 630.828 481.201 627.569 486.288H627.564Z" fill="#B64129"/>
<path id="Vector_51" d="M694.244 490.73C694.244 490.73 673.559 533.401 636.371 561.634C613.529 578.973 352.872 571.979 338.875 564.158C320.599 553.95 308.553 512.288 308.553 512.288L694.244 490.73Z" fill="#CA9429"/>
<path id="Vector_52" opacity="0.2" d="M658.616 541.539C658.616 541.539 639.018 561.336 630.825 564.615C581.478 578.462 351.606 570.769 339.264 564.615C330.007 560 323.836 547.692 323.836 547.692L658.616 541.539Z" fill="#414159"/>
<path id="Shirt " opacity="0.1" d="M625.929 468.176C625.197 468.068 624.45 467.906 623.801 467.543C623.152 467.181 622.934 467.749 622.743 467.024C622.605 466.519 622.212 466.044 622.371 464.319C622.685 460.908 622.745 444.412 624.686 443.265C626.971 441.922 628.519 457.198 629.34 461.398C630.2 465.838 627.295 468.377 625.929 468.176Z" fill="#202024"/>
<path id="Arm" d="M638.243 454.571C634.626 452.414 632.871 448.17 629.834 445.255C629.264 444.706 628.552 444.176 627.76 444.26C626.93 444.353 626.325 445.127 626.06 445.916C625.706 446.95 625.76 448.117 626.203 449.121C626.773 450.4 627.903 451.327 628.881 452.336C630.345 453.855 631.54 455.673 633.265 456.894C635.471 458.452 638.277 458.844 640.843 459.722C643.688 460.697 646.303 462.294 649.182 463.157C649.836 463.353 650.544 463.51 651.202 463.304C651.856 463.098 652.401 462.412 652.215 461.755C652.008 461.035 651.129 460.78 650.386 460.648C649.988 460.579 649.585 460.501 649.187 460.432C649.104 460.417 649.015 460.403 648.942 460.359C648.686 460.197 648.77 459.78 648.996 459.584C649.222 459.383 649.274 459.099 649.53 458.937L649.284 458.692C649.146 458.467 648.996 458.202 648.996 458.202C644.877 458.222 641.388 456.448 638.243 454.571Z" fill="#ED978A"/>
</g>
</g>
<defs>
<linearGradient id="paint0_linear_8267_132316" x1="499.996" y1="0" x2="499.996" y2="534.148" gradientUnits="userSpaceOnUse">
<stop stop-color="#1EC6CE"/>
<stop offset="1" stop-color="#DAFFF5"/>
</linearGradient>
<linearGradient id="paint1_linear_8267_132316" x1="15.4276" y1="532.307" x2="1174.04" y2="527.666" gradientUnits="userSpaceOnUse">
<stop stop-color="#CCF3FE"/>
<stop offset="0.630679" stop-color="#8DD9FD"/>
<stop offset="1" stop-color="#67C9FC"/>
</linearGradient>
<linearGradient id="paint2_linear_8267_132316" x1="897.981" y1="495.363" x2="166.972" y2="495.363" gradientUnits="userSpaceOnUse">
<stop stop-color="#67C9FC"/>
<stop offset="1" stop-color="#CCF3FE"/>
</linearGradient>
<linearGradient id="paint3_linear_8267_132316" x1="71.9046" y1="795.178" x2="987.996" y2="481.49" gradientUnits="userSpaceOnUse">
<stop stop-color="#CCF3FE"/>
<stop offset="1" stop-color="#67C9FC"/>
</linearGradient>
<linearGradient id="paint4_linear_8267_132316" x1="310.982" y1="112.46" x2="310.982" y2="263.94" gradientUnits="userSpaceOnUse">
<stop stop-color="#FFE795"/>
<stop offset="1" stop-color="#FFF9DB"/>
</linearGradient>
</defs>
</svg>
