<svg width="20" height="20" viewBox="0 0 20 20" fill="none" xmlns="http://www.w3.org/2000/svg">
<path d="M7.167 12.062C7.27767 11.7427 7.361 11.4093 7.417 11.062C7.47233 10.7153 7.5 10.3613 7.5 10C7.5 9.63867 7.47233 9.28467 7.417 8.938C7.361 8.59067 7.27767 8.25733 7.167 7.938L5.75 8.5C5.83333 8.736 5.896 8.979 5.938 9.229C5.97933 9.479 6 9.736 6 10C6 10.264 5.97933 10.521 5.938 10.771C5.896 11.021 5.83333 11.264 5.75 11.5L7.167 12.062ZM9.896 13.167C10.0907 12.681 10.24 12.1773 10.344 11.656C10.448 11.1353 10.5 10.5833 10.5 10C10.5 9.41667 10.448 8.86467 10.344 8.344C10.24 7.82267 10.0907 7.319 9.896 6.833L8.5 7.396C8.65267 7.78467 8.77433 8.19767 8.865 8.635C8.955 9.073 9 9.528 9 10C9 10.472 8.955 10.927 8.865 11.365C8.77433 11.8023 8.65267 12.2153 8.5 12.604L9.896 13.167ZM12.646 14.25C12.9233 13.6247 13.135 12.958 13.281 12.25C13.427 11.542 13.5 10.792 13.5 10C13.5 9.208 13.427 8.458 13.281 7.75C13.135 7.042 12.9233 6.37533 12.646 5.75L11.25 6.292C11.486 6.81933 11.67 7.399 11.802 8.031C11.934 8.663 12 9.31933 12 10C12 10.6807 11.934 11.337 11.802 11.969C11.67 12.601 11.486 13.1807 11.25 13.708L12.646 14.25ZM10 18C8.90267 18 7.868 17.7917 6.896 17.375C5.924 16.9583 5.07333 16.3853 4.344 15.656C3.61467 14.9267 3.04167 14.076 2.625 13.104C2.20833 12.132 2 11.0973 2 10C2 8.88867 2.20833 7.85033 2.625 6.885C3.04167 5.92033 3.61467 5.07333 4.344 4.344C5.07333 3.61467 5.924 3.04167 6.896 2.625C7.868 2.20833 8.90267 2 10 2C11.1113 2 12.1497 2.20833 13.115 2.625C14.0797 3.04167 14.9267 3.61467 15.656 4.344C16.3853 5.07333 16.9583 5.92033 17.375 6.885C17.7917 7.85033 18 8.88867 18 10C18 11.0973 17.7917 12.132 17.375 13.104C16.9583 14.076 16.3853 14.9267 15.656 15.656C14.9267 16.3853 14.0797 16.9583 13.115 17.375C12.1497 17.7917 11.1113 18 10 18ZM10 16.5C11.8053 16.5 13.34 15.868 14.604 14.604C15.868 13.34 16.5 11.8053 16.5 10C16.5 8.19467 15.868 6.66 14.604 5.396C13.34 4.132 11.8053 3.5 10 3.5C8.19467 3.5 6.66 4.132 5.396 5.396C4.132 6.66 3.5 8.19467 3.5 10C3.5 11.8053 4.132 13.34 5.396 14.604C6.66 15.868 8.19467 16.5 10 16.5Z" fill="currentColor"/>
</svg>
