<svg width="20" height="20" viewBox="0 0 20 20" fill="none" xmlns="http://www.w3.org/2000/svg">
<g id="extension">
<mask id="mask0_3751_25358" style="mask-type:alpha" maskUnits="userSpaceOnUse" x="0" y="0" width="20" height="20">
<rect id="Bounding box" width="20" height="20" fill="currentColor"/>
</mask>
<g mask="url(#mask0_3751_25358)">
<path id="extension_2" d="M7.29167 17.5H4.25C3.76389 17.5 3.35069 17.3299 3.01042 16.9896C2.67014 16.6493 2.5 16.2361 2.5 15.75V12.7292C3.19444 12.7292 3.79514 12.5139 4.30208 12.0833C4.80903 11.6528 5.0625 11.1042 5.0625 10.4375C5.0625 9.77083 4.80903 9.22222 4.30208 8.79167C3.79514 8.36111 3.19444 8.14583 2.5 8.14583V5.08333C2.5 4.59722 2.67014 4.18403 3.01042 3.84375C3.35069 3.50347 3.76389 3.33333 4.25 3.33333H7.5C7.5 2.72222 7.69444 2.22222 8.08333 1.83333C8.47222 1.44444 8.97222 1.25 9.58333 1.25C10.1944 1.25 10.6944 1.44444 11.0833 1.83333C11.4722 2.22222 11.6667 2.72222 11.6667 3.33333H14.9167C15.4028 3.33333 15.816 3.50347 16.1562 3.84375C16.4965 4.18403 16.6667 4.59722 16.6667 5.08333V8.35417C17.2778 8.35417 17.7778 8.54861 18.1667 8.9375C18.5556 9.32639 18.75 9.82639 18.75 10.4375C18.75 11.0486 18.5556 11.5486 18.1667 11.9375C17.7778 12.3264 17.2778 12.5208 16.6667 12.5208V15.75C16.6667 16.2361 16.4965 16.6493 16.1562 16.9896C15.816 17.3299 15.4028 17.5 14.9167 17.5H11.875C11.875 16.7917 11.6493 16.1875 11.1979 15.6875C10.7465 15.1875 10.2083 14.9375 9.58333 14.9375C8.95833 14.9375 8.42014 15.1875 7.96875 15.6875C7.51736 16.1875 7.29167 16.7917 7.29167 17.5ZM4.25 15.75H5.91667C6.26389 14.8333 6.80208 14.1771 7.53125 13.7812C8.26042 13.3854 8.94444 13.1875 9.58333 13.1875C10.2222 13.1875 10.9062 13.3854 11.6354 13.7812C12.3646 14.1771 12.9028 14.8333 13.25 15.75H14.9167V10.7708H16.6667C16.7639 10.7708 16.8438 10.7396 16.9062 10.6771C16.9688 10.6146 17 10.5347 17 10.4375C17 10.3403 16.9688 10.2604 16.9062 10.1979C16.8438 10.1354 16.7639 10.1042 16.6667 10.1042H14.9167V5.08333H9.91667V3.33333C9.91667 3.23611 9.88542 3.15625 9.82292 3.09375C9.76042 3.03125 9.68056 3 9.58333 3C9.48611 3 9.40625 3.03125 9.34375 3.09375C9.28125 3.15625 9.25 3.23611 9.25 3.33333V5.08333H4.25V6.75C5.01389 7.06944 5.63194 7.55903 6.10417 8.21875C6.57639 8.87847 6.8125 9.61806 6.8125 10.4375C6.8125 11.2569 6.57292 11.9896 6.09375 12.6354C5.61458 13.2812 5 13.7778 4.25 14.125V15.75Z" fill="currentColor"/>
</g>
</g>
</svg>
