<svg width="20" height="20" viewBox="0 0 20 20" fill="none" xmlns="http://www.w3.org/2000/svg">
<path d="M12.208 13.521L9.062 10.333V5.833H10.812V9.646L13.438 12.292L12.208 13.521ZM10.021 17.5C8.07633 17.5 6.39233 16.8647 4.969 15.594C3.545 14.3233 2.736 12.7293 2.542 10.812H4.292C4.472 12.2427 5.10733 13.4233 6.198 14.354C7.288 15.2847 8.56233 15.75 10.021 15.75C11.6183 15.75 12.9723 15.191 14.083 14.073C15.1943 12.955 15.75 11.5973 15.75 10C15.75 8.40267 15.1943 7.045 14.083 5.927C12.9723 4.809 11.6183 4.25 10.021 4.25C9.06233 4.25 8.15933 4.47233 7.312 4.917C6.46533 5.361 5.778 5.979 5.25 6.771H7.438V8.521H2.5V3.396H4.25V5.188C4.94467 4.29867 5.79867 3.62833 6.812 3.177C7.826 2.72567 8.89567 2.5 10.021 2.5C11.0483 2.5 12.017 2.69433 12.927 3.083C13.837 3.47233 14.632 4.00733 15.312 4.688C15.9927 5.368 16.5277 6.163 16.917 7.073C17.3057 7.983 17.5 8.95167 17.5 9.979C17.5 11.021 17.3057 11.9967 16.917 12.906C16.5277 13.816 15.9927 14.6113 15.312 15.292C14.632 15.972 13.8407 16.51 12.938 16.906C12.0347 17.302 11.0623 17.5 10.021 17.5Z" fill="currentColor"/>
</svg>
