<svg width="18" height="18" viewBox="0 0 18 18" fill="none" xmlns="http://www.w3.org/2000/svg">
<path d="M8.12499 9.79199H9.87499V4.85399H8.12499V9.79199ZM8.99999 13.188C9.23599 13.188 9.44099 13.108 9.61499 12.948C9.78833 12.788 9.87499 12.576 9.87499 12.312C9.87499 12.076 9.78833 11.8713 9.61499 11.698C9.44099 11.5247 9.23599 11.438 8.99999 11.438C8.76399 11.438 8.55899 11.5247 8.38499 11.698C8.21166 11.8713 8.12499 12.076 8.12499 12.312C8.12499 12.576 8.21166 12.788 8.38499 12.948C8.55899 13.108 8.76399 13.188 8.99999 13.188ZM8.99999 17.333C7.84733 17.333 6.76399 17.1143 5.74999 16.677C4.73599 16.2397 3.85399 15.646 3.10399 14.896C2.35399 14.146 1.76033 13.264 1.32299 12.25C0.885659 11.236 0.666992 10.1527 0.666992 8.99999C0.666992 7.84733 0.885659 6.76399 1.32299 5.74999C1.76033 4.73599 2.35399 3.85399 3.10399 3.10399C3.85399 2.35399 4.73599 1.76033 5.74999 1.32299C6.76399 0.885659 7.84733 0.666992 8.99999 0.666992C10.1527 0.666992 11.236 0.885659 12.25 1.32299C13.264 1.76033 14.146 2.35399 14.896 3.10399C15.646 3.85399 16.2397 4.73599 16.677 5.74999C17.1143 6.76399 17.333 7.84733 17.333 8.99999C17.333 10.1527 17.1143 11.236 16.677 12.25C16.2397 13.264 15.646 14.146 14.896 14.896C14.146 15.646 13.264 16.2397 12.25 16.677C11.236 17.1143 10.1527 17.333 8.99999 17.333ZM8.99999 15.583C10.8193 15.583 12.3713 14.9407 13.656 13.656C14.9407 12.3713 15.583 10.8193 15.583 8.99999C15.583 7.18066 14.9407 5.62866 13.656 4.34399C12.3713 3.05933 10.8193 2.41699 8.99999 2.41699C7.18066 2.41699 5.62866 3.05933 4.34399 4.34399C3.05933 5.62866 2.41699 7.18066 2.41699 8.99999C2.41699 10.8193 3.05933 12.3713 4.34399 13.656C5.62866 14.9407 7.18066 15.583 8.99999 15.583Z" fill="#EC8D21"/>
</svg>
