<svg width="14" height="4" viewBox="0 0 14 4" fill="none" xmlns="http://www.w3.org/2000/svg">
<path d="M1.95801 3.625C1.51401 3.625 1.13201 3.46533 0.812008 3.146C0.492675 2.82667 0.333008 2.44467 0.333008 2C0.333008 1.55533 0.492675 1.17333 0.812008 0.854C1.13201 0.534667 1.51401 0.375 1.95801 0.375C2.40267 0.375 2.78467 0.534667 3.10401 0.854C3.42334 1.17333 3.58301 1.55533 3.58301 2C3.58301 2.44467 3.42334 2.82667 3.10401 3.146C2.78467 3.46533 2.40267 3.625 1.95801 3.625ZM7.00001 3.625C6.55534 3.625 6.17334 3.46533 5.85401 3.146C5.53467 2.82667 5.37501 2.44467 5.37501 2C5.37501 1.55533 5.53467 1.17333 5.85401 0.854C6.17334 0.534667 6.55534 0.375 7.00001 0.375C7.44467 0.375 7.82667 0.534667 8.14601 0.854C8.46534 1.17333 8.62501 1.55533 8.62501 2C8.62501 2.44467 8.46534 2.82667 8.14601 3.146C7.82667 3.46533 7.44467 3.625 7.00001 3.625ZM12.042 3.625C11.5973 3.625 11.2153 3.46533 10.896 3.146C10.5767 2.82667 10.417 2.44467 10.417 2C10.417 1.55533 10.5767 1.17333 10.896 0.854C11.2153 0.534667 11.5973 0.375 12.042 0.375C12.486 0.375 12.868 0.534667 13.188 0.854C13.5073 1.17333 13.667 1.55533 13.667 2C13.667 2.44467 13.5073 2.82667 13.188 3.146C12.868 3.46533 12.486 3.625 12.042 3.625Z" fill="#656A81"/>
</svg>
