<svg width="20" height="20" viewBox="0 0 20 20" fill="none" xmlns="http://www.w3.org/2000/svg">
<g id="Icon / No Dates">
<path id="Vector" d="M8.312 15.5L7.25 14.438L8.938 12.75L7.25 11.062L8.312 10L10 11.688L11.688 10L12.75 11.062L11.062 12.75L12.75 14.438L11.688 15.5L10 13.812L8.312 15.5ZM4.5 18C4.08333 18 3.72933 17.8507 3.438 17.552C3.146 17.2533 3 16.9027 3 16.5V5.5C3 5.09733 3.146 4.74667 3.438 4.448C3.72933 4.14933 4.08333 4 4.5 4H6V2H7.5V4H12.5V2H14V4H15.5C15.9167 4 16.2707 4.14933 16.562 4.448C16.854 4.74667 17 5.09733 17 5.5V16.5C17 16.9027 16.854 17.2533 16.562 17.552C16.2707 17.8507 15.9167 18 15.5 18H4.5ZM4.5 16.5H15.5V9H4.5V16.5ZM4.5 7.5H15.5V5.5H4.5V7.5Z" fill="#656A81"/>
</g>
</svg>
