<svg width="16" height="17" viewBox="0 0 16 17" xmlns="http://www.w3.org/2000/svg">
<path d="M8 0.75C3.71875 0.75 0.25 4.25 0.25 8.5C0.25 12.7812 3.71875 16.25 8 16.25C12.25 16.25 15.75 12.7812 15.75 8.5C15.75 4.25 12.25 0.75 8 0.75ZM8 4.1875C8.71875 4.1875 9.3125 4.78125 9.3125 5.5C9.3125 6.25 8.71875 6.8125 8 6.8125C7.25 6.8125 6.6875 6.25 6.6875 5.5C6.6875 4.78125 7.25 4.1875 8 4.1875ZM9.75 12.125C9.75 12.3438 9.5625 12.5 9.375 12.5H6.625C6.40625 12.5 6.25 12.3438 6.25 12.125V11.375C6.25 11.1875 6.40625 11 6.625 11H7V9H6.625C6.40625 9 6.25 8.84375 6.25 8.625V7.875C6.25 7.6875 6.40625 7.5 6.625 7.5H8.625C8.8125 7.5 9 7.6875 9 7.875V11H9.375C9.5625 11 9.75 11.1875 9.75 11.375V12.125Z" fill="currentColor"/>
</svg>
