<svg width="16" height="16" viewBox="0 0 16 16" fill="none" xmlns="http://www.w3.org/2000/svg">
<g clip-path="url(#clip0_2523_15837)">
<path d="M7.99997 2.49775C8.68971 2.49775 9.24885 1.93861 9.24885 1.24888C9.24885 0.559141 8.68971 0 7.99997 0C7.31024 0 6.7511 0.559141 6.7511 1.24888C6.7511 1.93861 7.31024 2.49775 7.99997 2.49775Z" fill="currentColor"/>
<path opacity="0.6" d="M7.99997 16C8.68971 16 9.24885 15.4409 9.24885 14.7511C9.24885 14.0614 8.68971 13.5023 7.99997 13.5023C7.31024 13.5023 6.7511 14.0614 6.7511 14.7511C6.7511 15.4409 7.31024 16 7.99997 16Z" fill="currentColor"/>
<path opacity="0.3" d="M11.3756 3.39796C12.0653 3.39796 12.6245 2.83882 12.6245 2.14908C12.6245 1.45935 12.0653 0.900208 11.3756 0.900208C10.6858 0.900208 10.1267 1.45935 10.1267 2.14908C10.1267 2.83882 10.6858 3.39796 11.3756 3.39796Z" fill="currentColor"/>
<path opacity="0.7" d="M4.62448 15.0999C5.31422 15.0999 5.87336 14.5408 5.87336 13.851C5.87336 13.1613 5.31422 12.6022 4.62448 12.6022C3.93475 12.6022 3.37561 13.1613 3.37561 13.851C3.37561 14.5408 3.93475 15.0999 4.62448 15.0999Z" fill="currentColor"/>
<path opacity="0.95" d="M4.62448 3.39796C5.31422 3.39796 5.87336 2.83882 5.87336 2.14908C5.87336 1.45935 5.31422 0.900208 4.62448 0.900208C3.93475 0.900208 3.37561 1.45935 3.37561 2.14908C3.37561 2.83882 3.93475 3.39796 4.62448 3.39796Z" fill="currentColor"/>
<path opacity="0.5" d="M11.3756 15.0999C12.0653 15.0999 12.6245 14.5408 12.6245 13.851C12.6245 13.1613 12.0653 12.6022 11.3756 12.6022C10.6858 12.6022 10.1267 13.1613 10.1267 13.851C10.1267 14.5408 10.6858 15.0999 11.3756 15.0999Z" fill="currentColor"/>
<path opacity="0.85" d="M1.24887 9.24891C1.93861 9.24891 2.49775 8.68977 2.49775 8.00003C2.49775 7.3103 1.93861 6.75116 1.24887 6.75116C0.55914 6.75116 0 7.3103 0 8.00003C0 8.68977 0.55914 9.24891 1.24887 9.24891Z" fill="currentColor"/>
<path opacity="0.3" d="M14.7511 9.24891C15.4409 9.24891 16 8.68977 16 8.00003C16 7.3103 15.4409 6.75116 14.7511 6.75116C14.0614 6.75116 13.5023 7.3103 13.5023 8.00003C13.5023 8.68977 14.0614 9.24891 14.7511 9.24891Z" fill="currentColor"/>
<path opacity="0.9" d="M2.14908 5.87336C2.83882 5.87336 3.39796 5.31422 3.39796 4.62448C3.39796 3.93475 2.83882 3.37561 2.14908 3.37561C1.45935 3.37561 0.900208 3.93475 0.900208 4.62448C0.900208 5.31422 1.45935 5.87336 2.14908 5.87336Z" fill="currentColor"/>
<path opacity="0.4" d="M13.851 12.6245C14.5408 12.6245 15.0999 12.0653 15.0999 11.3756C15.0999 10.6858 14.5408 10.1267 13.851 10.1267C13.1613 10.1267 12.6022 10.6858 12.6022 11.3756C12.6022 12.0653 13.1613 12.6245 13.851 12.6245Z" fill="currentColor"/>
<path opacity="0.8" d="M2.14908 12.6245C2.83882 12.6245 3.39796 12.0653 3.39796 11.3756C3.39796 10.6858 2.83882 10.1267 2.14908 10.1267C1.45935 10.1267 0.900208 10.6858 0.900208 11.3756C0.900208 12.0653 1.45935 12.6245 2.14908 12.6245Z" fill="currentColor"/>
<path opacity="0.3" d="M13.851 5.87336C14.5408 5.87336 15.0999 5.31422 15.0999 4.62448C15.0999 3.93475 14.5408 3.37561 13.851 3.37561C13.1613 3.37561 12.6022 3.93475 12.6022 4.62448C12.6022 5.31422 13.1613 5.87336 13.851 5.87336Z" fill="currentColor"/>
</g>
<defs>
<clipPath id="clip0_2523_15837">
<rect width="16" height="16" fill="currentColor"/>
</clipPath>
</defs>
</svg>
