<svg width="20" height="20" viewBox="0 0 20 20" fill="none" xmlns="http://www.w3.org/2000/svg">
<path d="M15.8333 2.5H4.16667C3.25 2.5 2.5 3.25 2.5 4.16667V15.8333C2.5 16.75 3.25 17.5 4.16667 17.5H15.8333C16.75 17.5 17.5 16.75 17.5 15.8333V4.16667C17.5 3.25 16.75 2.5 15.8333 2.5ZM15.8333 15.8333H4.16667V12.0167L4.99167 12.8417L8.325 9.50833L11.6583 12.8417L14.9917 9.51667L15.8333 10.3583V15.8333ZM15.8333 7.99167L14.9917 7.15L11.6583 10.4917L8.325 7.15833L4.99167 10.4917L4.16667 9.65833V4.16667H15.8333V7.99167Z" fill="currentColor"/>
</svg>
