<svg width="32" height="32" viewBox="0 0 32 32" fill="none" xmlns="http://www.w3.org/2000/svg">
<g id="Feature Icon">
<path id="Vector" d="M16.001 21.7123C16.1617 21.7123 16.2957 21.6583 16.403 21.5503C16.5103 21.4423 16.564 21.308 16.564 21.1473C16.564 20.9866 16.51 20.8526 16.402 20.7453C16.294 20.638 16.1597 20.5843 15.999 20.5843C15.8383 20.5843 15.7043 20.6383 15.597 20.7463C15.4897 20.8543 15.436 20.9886 15.436 21.1493C15.436 21.31 15.49 21.444 15.598 21.5513C15.706 21.6586 15.8403 21.7123 16.001 21.7123ZM16.001 16.5653C16.1617 16.5653 16.2957 16.5113 16.403 16.4033C16.5103 16.2953 16.564 16.161 16.564 16.0003C16.564 15.8396 16.51 15.7056 16.402 15.5983C16.294 15.491 16.1597 15.4373 15.999 15.4373C15.8383 15.4373 15.7043 15.4913 15.597 15.5993C15.4897 15.7073 15.436 15.8416 15.436 16.0023C15.436 16.163 15.49 16.297 15.598 16.4043C15.706 16.5116 15.8403 16.5653 16.001 16.5653ZM16.001 11.4183C16.1617 11.4183 16.2957 11.3643 16.403 11.2563C16.5103 11.1483 16.564 11.014 16.564 10.8533C16.564 10.6926 16.51 10.5586 16.402 10.4513C16.294 10.344 16.1597 10.2903 15.999 10.2903C15.8383 10.2903 15.7043 10.3443 15.597 10.4523C15.4897 10.5603 15.436 10.6946 15.436 10.8553C15.436 11.016 15.49 11.15 15.598 11.2573C15.706 11.3646 15.8403 11.4183 16.001 11.4183ZM26.0513 25.3346H5.94867C5.42156 25.3346 4.965 25.1416 4.579 24.7556C4.193 24.3696 4 23.9131 4 23.386V20.02C4.80978 19.668 5.46744 19.1351 5.973 18.4213C6.47878 17.7077 6.73167 16.9011 6.73167 16.0013C6.73167 15.1015 6.47878 14.2911 5.973 13.57C5.46744 12.8491 4.80978 12.32 4 11.9826V8.61664C4 8.08953 4.193 7.63297 4.579 7.24697C4.965 6.86097 5.42156 6.66797 5.94867 6.66797H26.0513C26.5784 6.66797 27.035 6.86097 27.421 7.24697C27.807 7.63297 28 8.08953 28 8.61664V11.9826C27.1902 12.32 26.5326 12.8491 26.027 13.57C25.5212 14.2911 25.2683 15.1015 25.2683 16.0013C25.2683 16.9011 25.5212 17.7077 26.027 18.4213C26.5326 19.1351 27.1902 19.668 28 20.02V23.386C28 23.9131 27.807 24.3696 27.421 24.7556C27.035 25.1416 26.5784 25.3346 26.0513 25.3346ZM26.0513 24.2063C26.2907 24.2063 26.4872 24.1294 26.641 23.9756C26.7948 23.8219 26.8717 23.6253 26.8717 23.386V20.7363C26.0461 20.2223 25.3844 19.5499 24.8867 18.719C24.3891 17.8879 24.1403 16.982 24.1403 16.0013C24.1403 15.0206 24.3891 14.1147 24.8867 13.2836C25.3844 12.4527 26.0461 11.7803 26.8717 11.2663V8.61664C26.8717 8.3773 26.7948 8.18075 26.641 8.02697C26.4872 7.87319 26.2907 7.7963 26.0513 7.7963H5.94867C5.70933 7.7963 5.51278 7.87319 5.359 8.02697C5.20522 8.18075 5.12833 8.3773 5.12833 8.61664V11.2663C5.96878 11.7803 6.63411 12.4527 7.12433 13.2836C7.61456 14.1147 7.85967 15.0206 7.85967 16.0013C7.85967 16.982 7.61456 17.8879 7.12433 18.719C6.63411 19.5499 5.96878 20.2223 5.12833 20.7363V23.386C5.12833 23.6253 5.20522 23.8219 5.359 23.9756C5.51278 24.1294 5.70933 24.2063 5.94867 24.2063H26.0513Z" fill="url(#paint0_linear_3287_13929)"/>
</g>
<defs>
<linearGradient id="paint0_linear_3287_13929" x1="12.8" y1="10.8012" x2="28" y2="25.3346" gradientUnits="userSpaceOnUse">
<stop stop-color="#6195E3"/>
<stop offset="1" stop-color="#A1CAF6"/>
</linearGradient>
</defs>
</svg>
