<svg width="20" height="20" viewBox="0 0 20 20" fill="none" xmlns="http://www.w3.org/2000/svg">
<path d="M9.12501 14.167H10.875V9.16699H9.12501V14.167ZM10 7.47899C10.236 7.47899 10.441 7.39233 10.615 7.21899C10.7883 7.04499 10.875 6.83999 10.875 6.60399C10.875 6.36799 10.7883 6.16333 10.615 5.98999C10.441 5.81599 10.236 5.72899 10 5.72899C9.76401 5.72899 9.55901 5.81599 9.38501 5.98999C9.21167 6.16333 9.12501 6.36799 9.12501 6.60399C9.12501 6.83999 9.21167 7.04499 9.38501 7.21899C9.55901 7.39233 9.76401 7.47899 10 7.47899ZM10 18.333C8.84734 18.333 7.76401 18.1143 6.75001 17.677C5.73601 17.2397 4.85401 16.646 4.10401 15.896C3.35401 15.146 2.76034 14.264 2.32301 13.25C1.88567 12.236 1.66701 11.1527 1.66701 9.99999C1.66701 8.84733 1.88567 7.76399 2.32301 6.74999C2.76034 5.73599 3.35401 4.85399 4.10401 4.10399C4.85401 3.35399 5.73601 2.76033 6.75001 2.32299C7.76401 1.88566 8.84734 1.66699 10 1.66699C11.1527 1.66699 12.236 1.88566 13.25 2.32299C14.264 2.76033 15.146 3.35399 15.896 4.10399C16.646 4.85399 17.2397 5.73599 17.677 6.74999C18.1143 7.76399 18.333 8.84733 18.333 9.99999C18.333 11.1527 18.1143 12.236 17.677 13.25C17.2397 14.264 16.646 15.146 15.896 15.896C15.146 16.646 14.264 17.2397 13.25 17.677C12.236 18.1143 11.1527 18.333 10 18.333ZM10 16.583C11.8193 16.583 13.3713 15.9407 14.656 14.656C15.9407 13.3713 16.583 11.8193 16.583 9.99999C16.583 8.18066 15.9407 6.62866 14.656 5.34399C13.3713 4.05933 11.8193 3.41699 10 3.41699C8.18067 3.41699 6.62867 4.05933 5.34401 5.34399C4.05934 6.62866 3.41701 8.18066 3.41701 9.99999C3.41701 11.8193 4.05934 13.3713 5.34401 14.656C6.62867 15.9407 8.18067 16.583 10 16.583Z" fill="currentColor"/>
</svg>
