<svg width="20" height="20" viewBox="0 0 20 20" fill="none" xmlns="http://www.w3.org/2000/svg">
<path d="M3.417 16.667C2.931 16.667 2.51767 16.4967 2.177 16.156C1.837 15.816 1.667 15.403 1.667 14.917V5.08301C1.667 4.59701 1.837 4.18401 2.177 3.84401C2.51767 3.50334 2.931 3.33301 3.417 3.33301H16.583C17.069 3.33301 17.4823 3.50334 17.823 3.84401C18.163 4.18401 18.333 4.59701 18.333 5.08301V14.917C18.333 15.403 18.163 15.816 17.823 16.156C17.4823 16.4967 17.069 16.667 16.583 16.667H3.417ZM10 10.938L3.417 6.83301V14.917H16.583V6.83301L10 10.938ZM10 9.20801L16.625 5.08301H3.396L10 9.20801ZM3.417 14.917C3.431 14.917 3.438 14.917 3.438 14.917H3.417Z" fill="currentColor"/>
</svg>
