<svg width="40" height="40" viewBox="0 0 40 40" fill="none" xmlns="http://www.w3.org/2000/svg">
<g id="Feature Icon">
<path id="Vector" d="M8.14068 18.7905L12.5961 20.6805C13.1444 19.5835 13.7455 18.5105 14.3994 17.4613C15.0533 16.4121 15.7726 15.4033 16.5573 14.4346L13.7028 13.8909C13.5319 13.8481 13.3664 13.8534 13.2061 13.9067C13.0458 13.9603 12.9015 14.0512 12.7732 14.1792L8.14068 18.7905ZM13.7069 21.563L18.6753 26.5276C20.1125 25.8481 21.5055 25.0501 22.8544 24.1334C24.2036 23.2167 25.4486 22.1878 26.5894 21.0467C28.4741 19.1623 29.8871 17.2045 30.8282 15.1734C31.7696 13.1426 32.3304 10.6499 32.5107 7.69548C29.5418 7.87548 27.0503 8.43257 25.0361 9.36673C23.0219 10.3009 21.0725 11.7103 19.1878 13.5951C18.0469 14.7359 17.0182 15.9862 16.1015 17.3459C15.1848 18.7056 14.3866 20.1113 13.7069 21.563ZM22.989 17.1922C22.5268 16.7441 22.2957 16.1934 22.2957 15.5401C22.2957 14.8865 22.5268 14.3285 22.989 13.8663C23.4512 13.4041 24.015 13.173 24.6803 13.173C25.3455 13.173 25.9093 13.4041 26.3715 13.8663C26.8337 14.3285 27.0648 14.8865 27.0648 15.5401C27.0648 16.1934 26.8337 16.7441 26.3715 17.1922C25.9093 17.6544 25.3455 17.8855 24.6803 17.8855C24.015 17.8855 23.4512 17.6544 22.989 17.1922ZM21.394 32.0759L26.0265 27.4646C26.1548 27.3363 26.2421 27.1885 26.2882 27.0213C26.3346 26.8538 26.3435 26.6917 26.3148 26.5351L25.7498 23.6805C24.7812 24.451 23.776 25.1627 22.734 25.8155C21.6918 26.4683 20.6151 27.076 19.504 27.6388L21.394 32.0759ZM33.8994 6.33548C34 9.51854 33.5229 12.3869 32.4682 14.9405C31.4137 17.4944 29.7911 19.8596 27.6003 22.0363C27.4892 22.1474 27.3851 22.2549 27.2882 22.3588C27.1915 22.4627 27.0876 22.5631 26.9765 22.6601L27.6836 26.2359C27.7547 26.649 27.7315 27.0446 27.614 27.423C27.4965 27.801 27.2961 28.1319 27.0128 28.4155L20.9015 34.5221L18.1323 27.9851L12.1994 22.0734L5.68359 19.2509L11.7657 13.1717C12.0635 12.8884 12.4021 12.6826 12.7815 12.5542C13.1607 12.4262 13.5568 12.4048 13.9698 12.4901L17.5886 13.208C17.6997 13.1113 17.7983 13.012 17.8844 12.9101C17.9705 12.8081 18.0691 12.7088 18.1803 12.6121C20.3714 10.421 22.7397 8.80201 25.2853 7.75506C27.8308 6.70812 30.7022 6.23493 33.8994 6.33548ZM8.43484 26.8992C9.08651 26.2334 9.87512 25.9078 10.8007 25.9226C11.7262 25.937 12.5219 26.2701 13.1878 26.9217C13.8394 27.5734 14.1637 28.362 14.1607 29.2876C14.1573 30.2134 13.8298 31.0092 13.1782 31.6751C12.5935 32.2456 11.6948 32.7306 10.4823 33.1301C9.26957 33.5298 7.81457 33.8087 6.11734 33.9667C6.2754 32.2695 6.55498 30.8099 6.95609 29.588C7.35693 28.366 7.84984 27.4698 8.43484 26.8992ZM9.42068 27.9422C9.06901 28.3124 8.74859 28.8827 8.45943 29.653C8.16998 30.4233 7.96484 31.2931 7.84401 32.2626C8.81318 32.1273 9.6829 31.9138 10.4532 31.6222C11.2237 31.3305 11.7941 31.0016 12.1644 30.6355C12.5561 30.2666 12.7541 29.8153 12.7586 29.2817C12.7628 28.7484 12.5711 28.2859 12.1836 27.8942C11.7919 27.5067 11.3293 27.3199 10.7957 27.3338C10.2623 27.3477 9.80401 27.5505 9.42068 27.9422Z" fill="url(#paint0_linear_3287_13767)"/>
</g>
<defs>
<linearGradient id="paint0_linear_3287_13767" x1="12.9998" y1="10.501" x2="33.9126" y2="34.5222" gradientUnits="userSpaceOnUse">
<stop stop-color="#107E64"/>
<stop offset="1" stop-color="#A1F1CF"/>
</linearGradient>
</defs>
</svg>
