<svg width="20" height="20" viewBox="0 0 20 20" fill="none" xmlns="http://www.w3.org/2000/svg">
<path d="M4.958 11.625C4.514 11.625 4.132 11.4653 3.812 11.146C3.49267 10.8267 3.333 10.4447 3.333 10C3.333 9.55533 3.49267 9.17333 3.812 8.854C4.132 8.53467 4.514 8.375 4.958 8.375C5.40267 8.375 5.78467 8.53467 6.104 8.854C6.42333 9.17333 6.583 9.55533 6.583 10C6.583 10.4447 6.42333 10.8267 6.104 11.146C5.78467 11.4653 5.40267 11.625 4.958 11.625ZM10 11.625C9.55533 11.625 9.17333 11.4653 8.854 11.146C8.53467 10.8267 8.375 10.4447 8.375 10C8.375 9.55533 8.53467 9.17333 8.854 8.854C9.17333 8.53467 9.55533 8.375 10 8.375C10.4447 8.375 10.8267 8.53467 11.146 8.854C11.4653 9.17333 11.625 9.55533 11.625 10C11.625 10.4447 11.4653 10.8267 11.146 11.146C10.8267 11.4653 10.4447 11.625 10 11.625ZM15.042 11.625C14.5973 11.625 14.2153 11.4653 13.896 11.146C13.5767 10.8267 13.417 10.4447 13.417 10C13.417 9.55533 13.5767 9.17333 13.896 8.854C14.2153 8.53467 14.5973 8.375 15.042 8.375C15.486 8.375 15.868 8.53467 16.188 8.854C16.5073 9.17333 16.667 9.55533 16.667 10C16.667 10.4447 16.5073 10.8267 16.188 11.146C15.868 11.4653 15.486 11.625 15.042 11.625Z" fill="currentColor"/>
</svg>
