<svg width="20" height="20" viewBox="0 0 20 20" fill="none" xmlns="http://www.w3.org/2000/svg">
<path d="M3.33299 15.833V14.083H4.97899V8.35399C4.97899 7.21533 5.32633 6.19799 6.02099 5.30199C6.71499 4.40599 7.61066 3.81933 8.70799 3.54199V2.95799C8.70799 2.59733 8.83299 2.29199 9.08299 2.04199C9.33299 1.79199 9.63866 1.66699 9.99999 1.66699C10.3613 1.66699 10.667 1.79199 10.917 2.04199C11.167 2.29199 11.292 2.59733 11.292 2.95799V3.54199C12.3893 3.81933 13.2817 4.40599 13.969 5.30199C14.6563 6.19799 15 7.21533 15 8.35399V14.083H16.667V15.833H3.33299ZM9.99999 18.333C9.52799 18.333 9.13199 18.1733 8.81199 17.854C8.49266 17.5347 8.33299 17.139 8.33299 16.667H11.667C11.667 17.139 11.5073 17.5347 11.188 17.854C10.868 18.1733 10.472 18.333 9.99999 18.333ZM6.72899 14.083H13.25V8.35399C13.25 7.45133 12.934 6.68399 12.302 6.05199C11.67 5.41999 10.9027 5.10399 9.99999 5.10399C9.08333 5.10399 8.30899 5.41999 7.67699 6.05199C7.04499 6.68399 6.72899 7.45133 6.72899 8.35399V14.083Z" fill="currentColor"/>
</svg>
