<svg width="20" height="20" viewBox="0 0 20 20" fill="none" xmlns="http://www.w3.org/2000/svg">
<path d="M9.229 15.812H10.75V14.75C11.5833 14.5973 12.2083 14.2953 12.625 13.844C13.0417 13.3927 13.25 12.8127 13.25 12.104C13.25 11.396 13.052 10.8127 12.656 10.354C12.26 9.89599 11.6387 9.52099 10.792 9.22899C9.93067 8.93766 9.354 8.68066 9.062 8.45799C8.77067 8.23599 8.625 7.96533 8.625 7.64599C8.625 7.29866 8.75 7.03133 9 6.84399C9.25 6.65599 9.59733 6.56199 10.042 6.56199C10.4307 6.56199 10.757 6.65599 11.021 6.84399C11.285 7.03133 11.4723 7.31266 11.583 7.68799L12.979 7.14599C12.8403 6.64599 12.5627 6.21533 12.146 5.85399C11.7293 5.49266 11.278 5.28433 10.792 5.22899V4.18799H9.271V5.22899C8.60433 5.38166 8.06967 5.67699 7.667 6.11499C7.26367 6.55233 7.062 7.06266 7.062 7.64599C7.062 8.27066 7.253 8.79833 7.635 9.22899C8.017 9.65966 8.618 10.0207 9.438 10.312C10.354 10.632 10.965 10.917 11.271 11.167C11.5763 11.417 11.729 11.7293 11.729 12.104C11.729 12.4933 11.5833 12.8023 11.292 13.031C11 13.2603 10.611 13.375 10.125 13.375C9.653 13.375 9.25033 13.2293 8.917 12.938C8.58367 12.646 8.34067 12.2293 8.188 11.688L6.75 12.229C6.94467 12.9237 7.24667 13.4723 7.656 13.875C8.066 14.2777 8.59033 14.5553 9.229 14.708V15.812ZM10 18.333C8.84733 18.333 7.764 18.1143 6.75 17.677C5.736 17.2397 4.854 16.646 4.104 15.896C3.354 15.146 2.76033 14.264 2.323 13.25C1.88567 12.236 1.667 11.1527 1.667 9.99999C1.667 8.84733 1.88567 7.76399 2.323 6.74999C2.76033 5.73599 3.354 4.85399 4.104 4.10399C4.854 3.35399 5.736 2.76033 6.75 2.32299C7.764 1.88566 8.84733 1.66699 10 1.66699C11.1527 1.66699 12.236 1.88566 13.25 2.32299C14.264 2.76033 15.146 3.35399 15.896 4.10399C16.646 4.85399 17.2397 5.73599 17.677 6.74999C18.1143 7.76399 18.333 8.84733 18.333 9.99999C18.333 11.1527 18.1143 12.236 17.677 13.25C17.2397 14.264 16.646 15.146 15.896 15.896C15.146 16.646 14.264 17.2397 13.25 17.677C12.236 18.1143 11.1527 18.333 10 18.333ZM10 16.583C11.8193 16.583 13.3713 15.9407 14.656 14.656C15.9407 13.3713 16.583 11.8193 16.583 9.99999C16.583 8.18066 15.9407 6.62866 14.656 5.34399C13.3713 4.05933 11.8193 3.41699 10 3.41699C8.18067 3.41699 6.62867 4.05933 5.344 5.34399C4.05933 6.62866 3.417 8.18066 3.417 9.99999C3.417 11.8193 4.05933 13.3713 5.344 14.656C6.62867 15.9407 8.18067 16.583 10 16.583Z" fill="currentColor"/>
</svg>
