<svg width="20" height="20" viewBox="0 0 20 20" fill="none" xmlns="http://www.w3.org/2000/svg">
<path d="M6.292 9.25001C5.472 9.25001 4.774 8.96167 4.198 8.38501C3.62133 7.80901 3.333 7.11134 3.333 6.29201C3.333 5.47201 3.62133 4.77401 4.198 4.19801C4.774 3.62134 5.472 3.33301 6.292 3.33301C7.11133 3.33301 7.809 3.62134 8.385 4.19801C8.96167 4.77401 9.25 5.47201 9.25 6.29201C9.25 7.11134 8.96167 7.80901 8.385 8.38501C7.809 8.96167 7.11133 9.25001 6.292 9.25001ZM6.292 7.50001C6.62533 7.50001 6.91 7.38201 7.146 7.14601C7.382 6.91001 7.5 6.62534 7.5 6.29201C7.5 5.95867 7.382 5.67401 7.146 5.43801C6.91 5.20134 6.62533 5.08301 6.292 5.08301C5.95867 5.08301 5.674 5.20134 5.438 5.43801C5.20133 5.67401 5.083 5.95867 5.083 6.29201C5.083 6.62534 5.20133 6.91001 5.438 7.14601C5.674 7.38201 5.95867 7.50001 6.292 7.50001ZM13.708 16.667C12.8887 16.667 12.191 16.3787 11.615 15.802C11.0383 15.226 10.75 14.528 10.75 13.708C10.75 12.8887 11.0383 12.191 11.615 11.615C12.191 11.0383 12.8887 10.75 13.708 10.75C14.528 10.75 15.226 11.0383 15.802 11.615C16.3787 12.191 16.667 12.8887 16.667 13.708C16.667 14.528 16.3787 15.226 15.802 15.802C15.226 16.3787 14.528 16.667 13.708 16.667ZM13.708 14.917C14.0413 14.917 14.326 14.7987 14.562 14.562C14.7987 14.326 14.917 14.0413 14.917 13.708C14.917 13.3747 14.7987 13.09 14.562 12.854C14.326 12.618 14.0413 12.5 13.708 12.5C13.3747 12.5 13.09 12.618 12.854 12.854C12.618 13.09 12.5 13.3747 12.5 13.708C12.5 14.0413 12.618 14.326 12.854 14.562C13.09 14.7987 13.3747 14.917 13.708 14.917ZM4.562 16.667L3.333 15.438L15.438 3.33301L16.667 4.56201L4.562 16.667Z" fill="currentColor"/>
</svg>
