<svg width="20" height="20" viewBox="0 0 20 20" fill="none" xmlns="http://www.w3.org/2000/svg">
<path d="M3.417 16.667C2.931 16.667 2.51767 16.4967 2.177 16.156C1.837 15.816 1.667 15.403 1.667 14.917V11.562C2.111 11.59 2.49633 11.4477 2.823 11.135C3.149 10.823 3.312 10.4447 3.312 10C3.312 9.55534 3.149 9.18034 2.823 8.87501C2.49633 8.56967 2.111 8.43067 1.667 8.45801V5.08301C1.667 4.59701 1.837 4.18401 2.177 3.84401C2.51767 3.50334 2.931 3.33301 3.417 3.33301H16.583C17.069 3.33301 17.4823 3.50334 17.823 3.84401C18.163 4.18401 18.333 4.59701 18.333 5.08301V8.45801C17.889 8.43067 17.5037 8.56967 17.177 8.87501C16.851 9.18034 16.688 9.55534 16.688 10C16.688 10.4447 16.851 10.823 17.177 11.135C17.5037 11.4477 17.889 11.59 18.333 11.562V14.917C18.333 15.403 18.163 15.816 17.823 16.156C17.4823 16.4967 17.069 16.667 16.583 16.667H3.417ZM3.417 14.917H16.583V12.833C16.083 12.5277 15.6837 12.1283 15.385 11.635C15.087 11.1423 14.938 10.5973 14.938 10C14.938 9.40267 15.087 8.85767 15.385 8.36501C15.6837 7.87167 16.083 7.47234 16.583 7.16701V5.08301H3.417V7.16701C3.917 7.47234 4.31633 7.87167 4.615 8.36501C4.913 8.85767 5.062 9.40267 5.062 10C5.062 10.5973 4.913 11.1423 4.615 11.635C4.31633 12.1283 3.917 12.5277 3.417 12.833V14.917ZM10.021 14.167C10.257 14.167 10.4617 14.08 10.635 13.906C10.809 13.7327 10.896 13.528 10.896 13.292C10.896 13.056 10.809 12.851 10.635 12.677C10.4617 12.5037 10.257 12.417 10.021 12.417C9.785 12.417 9.58 12.5037 9.406 12.677C9.23267 12.851 9.146 13.056 9.146 13.292C9.146 13.528 9.23267 13.7327 9.406 13.906C9.58 14.08 9.785 14.167 10.021 14.167ZM10.021 10.875C10.257 10.875 10.4617 10.7883 10.635 10.615C10.809 10.441 10.896 10.236 10.896 10C10.896 9.76401 10.809 9.55901 10.635 9.38501C10.4617 9.21167 10.257 9.12501 10.021 9.12501C9.785 9.12501 9.58 9.21167 9.406 9.38501C9.23267 9.55901 9.146 9.76401 9.146 10C9.146 10.236 9.23267 10.441 9.406 10.615C9.58 10.7883 9.785 10.875 10.021 10.875ZM10.021 7.58301C10.257 7.58301 10.4617 7.49634 10.635 7.32301C10.809 7.14901 10.896 6.94401 10.896 6.70801C10.896 6.47201 10.809 6.26734 10.635 6.09401C10.4617 5.92001 10.257 5.83301 10.021 5.83301C9.785 5.83301 9.58 5.92001 9.406 6.09401C9.23267 6.26734 9.146 6.47201 9.146 6.70801C9.146 6.94401 9.23267 7.14901 9.406 7.32301C9.58 7.49634 9.785 7.58301 10.021 7.58301Z" fill="currentColor"/>
</svg>
