<svg width="20" height="20" viewBox="0 0 20 20" fill="none" xmlns="http://www.w3.org/2000/svg">
<mask id="path-1-inside-1_5289_88370" fill="white">
<path d="M5.083 18.333C4.361 18.333 3.75333 18.0867 3.26 17.594C2.76733 17.1007 2.521 16.493 2.521 15.771V13.083H4.979V1.66699L6.229 2.91699L7.479 1.66699L8.729 2.91699L9.979 1.66699L11.229 2.91699L12.479 1.66699L13.729 2.91699L14.979 1.66699L16.229 2.91699L17.479 1.66699V15.771C17.479 16.493 17.2327 17.1007 16.74 17.594C16.2467 18.0867 15.639 18.333 14.917 18.333H5.083ZM14.917 16.583C15.153 16.583 15.3473 16.5067 15.5 16.354C15.6527 16.2013 15.729 16.007 15.729 15.771V4.22899H6.729V13.083H14.104V15.771C14.104 16.007 14.1803 16.2013 14.333 16.354C14.4857 16.5067 14.6803 16.583 14.917 16.583ZM7.479 7.58299V5.83299H12.5V7.58299H7.479ZM7.479 10.104V8.35399H12.5V10.104H7.479ZM14.146 7.58299C13.91 7.58299 13.705 7.49633 13.531 7.32299C13.3577 7.14899 13.271 6.94399 13.271 6.70799C13.271 6.47199 13.3577 6.26733 13.531 6.09399C13.705 5.91999 13.91 5.83299 14.146 5.83299C14.382 5.83299 14.5867 5.91999 14.76 6.09399C14.934 6.26733 15.021 6.47199 15.021 6.70799C15.021 6.94399 14.934 7.14899 14.76 7.32299C14.5867 7.49633 14.382 7.58299 14.146 7.58299ZM14.146 10.104C13.91 10.104 13.705 10.0173 13.531 9.84399C13.3577 9.66999 13.271 9.46499 13.271 9.22899C13.271 8.99299 13.3577 8.78833 13.531 8.61499C13.705 8.44099 13.91 8.35399 14.146 8.35399C14.382 8.35399 14.5867 8.44099 14.76 8.61499C14.934 8.78833 15.021 8.99299 15.021 9.22899C15.021 9.46499 14.934 9.66999 14.76 9.84399C14.5867 10.0173 14.382 10.104 14.146 10.104ZM5.083 16.583H12.354V14.833H4.271V15.771C4.271 16.007 4.34733 16.2013 4.5 16.354C4.65267 16.5067 4.847 16.583 5.083 16.583ZM4.271 16.583C4.271 16.583 4.271 16.5067 4.271 16.354C4.271 16.2013 4.271 16.007 4.271 15.771V14.833V16.583Z"/>
</mask>
<path d="M5.083 18.333C4.361 18.333 3.75333 18.0867 3.26 17.594C2.76733 17.1007 2.521 16.493 2.521 15.771V13.083H4.979V1.66699L6.229 2.91699L7.479 1.66699L8.729 2.91699L9.979 1.66699L11.229 2.91699L12.479 1.66699L13.729 2.91699L14.979 1.66699L16.229 2.91699L17.479 1.66699V15.771C17.479 16.493 17.2327 17.1007 16.74 17.594C16.2467 18.0867 15.639 18.333 14.917 18.333H5.083ZM14.917 16.583C15.153 16.583 15.3473 16.5067 15.5 16.354C15.6527 16.2013 15.729 16.007 15.729 15.771V4.22899H6.729V13.083H14.104V15.771C14.104 16.007 14.1803 16.2013 14.333 16.354C14.4857 16.5067 14.6803 16.583 14.917 16.583ZM7.479 7.58299V5.83299H12.5V7.58299H7.479ZM7.479 10.104V8.35399H12.5V10.104H7.479ZM14.146 7.58299C13.91 7.58299 13.705 7.49633 13.531 7.32299C13.3577 7.14899 13.271 6.94399 13.271 6.70799C13.271 6.47199 13.3577 6.26733 13.531 6.09399C13.705 5.91999 13.91 5.83299 14.146 5.83299C14.382 5.83299 14.5867 5.91999 14.76 6.09399C14.934 6.26733 15.021 6.47199 15.021 6.70799C15.021 6.94399 14.934 7.14899 14.76 7.32299C14.5867 7.49633 14.382 7.58299 14.146 7.58299ZM14.146 10.104C13.91 10.104 13.705 10.0173 13.531 9.84399C13.3577 9.66999 13.271 9.46499 13.271 9.22899C13.271 8.99299 13.3577 8.78833 13.531 8.61499C13.705 8.44099 13.91 8.35399 14.146 8.35399C14.382 8.35399 14.5867 8.44099 14.76 8.61499C14.934 8.78833 15.021 8.99299 15.021 9.22899C15.021 9.46499 14.934 9.66999 14.76 9.84399C14.5867 10.0173 14.382 10.104 14.146 10.104ZM5.083 16.583H12.354V14.833H4.271V15.771C4.271 16.007 4.34733 16.2013 4.5 16.354C4.65267 16.5067 4.847 16.583 5.083 16.583ZM4.271 16.583C4.271 16.583 4.271 16.5067 4.271 16.354C4.271 16.2013 4.271 16.007 4.271 15.771V14.833V16.583Z" fill="currentColor"/>
<path d="M3.771 14.833V15.771H4.771V14.833H3.771ZM3.26 17.594L2.55241 18.3006L2.55337 18.3016L3.26 17.594ZM2.521 13.083V12.083H1.521V13.083H2.521ZM4.979 13.083V14.083H5.979V13.083H4.979ZM4.979 1.66699L5.68611 0.959885L3.979 -0.747221V1.66699H4.979ZM6.229 2.91699L5.52189 3.6241L6.229 4.33121L6.93611 3.6241L6.229 2.91699ZM7.479 1.66699L8.18611 0.959885L7.479 0.252779L6.77189 0.959885L7.479 1.66699ZM8.729 2.91699L8.02189 3.6241L8.729 4.33121L9.43611 3.6241L8.729 2.91699ZM9.979 1.66699L10.6861 0.959885L9.979 0.252779L9.27189 0.959885L9.979 1.66699ZM11.229 2.91699L10.5219 3.6241L11.229 4.33121L11.9361 3.6241L11.229 2.91699ZM12.479 1.66699L13.1861 0.959885L12.479 0.252779L11.7719 0.959885L12.479 1.66699ZM13.729 2.91699L13.0219 3.6241L13.729 4.33121L14.4361 3.6241L13.729 2.91699ZM14.979 1.66699L15.6861 0.959885L14.979 0.252779L14.2719 0.959885L14.979 1.66699ZM16.229 2.91699L15.5219 3.6241L16.229 4.33121L16.9361 3.6241L16.229 2.91699ZM17.479 1.66699H18.479V-0.747221L16.7719 0.959885L17.479 1.66699ZM16.74 17.594L17.4466 18.3016L17.4476 18.3006L16.74 17.594ZM15.729 4.22899H16.729V3.22899H15.729V4.22899ZM6.729 4.22899V3.22899H5.729V4.22899H6.729ZM6.729 13.083H5.729V14.083H6.729V13.083ZM14.104 13.083H15.104V12.083H14.104V13.083ZM7.479 7.58299H6.479V8.58299H7.479V7.58299ZM7.479 5.83299V4.83299H6.479V5.83299H7.479ZM12.5 5.83299H13.5V4.83299H12.5V5.83299ZM12.5 7.58299V8.58299H13.5V7.58299H12.5ZM7.479 10.104H6.479V11.104H7.479V10.104ZM7.479 8.35399V7.35399H6.479V8.35399H7.479ZM12.5 8.35399H13.5V7.35399H12.5V8.35399ZM12.5 10.104V11.104H13.5V10.104H12.5ZM13.531 7.32299L12.8225 8.02875L12.8253 8.03146L13.531 7.32299ZM14.76 6.09399L14.0515 6.79975L14.0543 6.80245L14.76 6.09399ZM13.531 9.84399L12.8225 10.5497L12.8253 10.5525L13.531 9.84399ZM14.76 8.61499L14.0515 9.32075L14.0543 9.32345L14.76 8.61499ZM12.354 16.583V17.583H13.354V16.583H12.354ZM12.354 14.833H13.354V13.833H12.354V14.833ZM4.271 14.833V13.833H3.271V14.833H4.271ZM5.083 17.333C4.61546 17.333 4.26515 17.1845 3.96663 16.8864L2.55337 18.3016C3.24152 18.9888 4.10654 19.333 5.083 19.333V17.333ZM3.96758 16.8874C3.66947 16.5888 3.521 16.2385 3.521 15.771H1.521C1.521 16.7475 1.8652 17.6125 2.55242 18.3006L3.96758 16.8874ZM3.521 15.771V13.083H1.521V15.771H3.521ZM2.521 14.083H4.979V12.083H2.521V14.083ZM5.979 13.083V1.66699H3.979V13.083H5.979ZM4.27189 2.3741L5.52189 3.6241L6.93611 2.20989L5.68611 0.959885L4.27189 2.3741ZM6.93611 3.6241L8.18611 2.3741L6.77189 0.959885L5.52189 2.20989L6.93611 3.6241ZM6.77189 2.3741L8.02189 3.6241L9.43611 2.20989L8.18611 0.959885L6.77189 2.3741ZM9.43611 3.6241L10.6861 2.3741L9.27189 0.959885L8.02189 2.20989L9.43611 3.6241ZM9.27189 2.3741L10.5219 3.6241L11.9361 2.20989L10.6861 0.959885L9.27189 2.3741ZM11.9361 3.6241L13.1861 2.3741L11.7719 0.959885L10.5219 2.20989L11.9361 3.6241ZM11.7719 2.3741L13.0219 3.6241L14.4361 2.20989L13.1861 0.959885L11.7719 2.3741ZM14.4361 3.6241L15.6861 2.3741L14.2719 0.959885L13.0219 2.20989L14.4361 3.6241ZM14.2719 2.3741L15.5219 3.6241L16.9361 2.20989L15.6861 0.959885L14.2719 2.3741ZM16.9361 3.6241L18.1861 2.3741L16.7719 0.959885L15.5219 2.20989L16.9361 3.6241ZM16.479 1.66699V15.771H18.479V1.66699H16.479ZM16.479 15.771C16.479 16.2385 16.3305 16.5888 16.0324 16.8874L17.4476 18.3006C18.1348 17.6125 18.479 16.7475 18.479 15.771H16.479ZM16.0334 16.8864C15.7349 17.1845 15.3845 17.333 14.917 17.333V19.333C15.8935 19.333 16.7585 18.9888 17.4466 18.3016L16.0334 16.8864ZM14.917 17.333H5.083V19.333H14.917V17.333ZM14.917 17.583C15.391 17.583 15.8485 17.4197 16.2071 17.0611L14.7929 15.6469C14.8104 15.6294 14.8389 15.6088 14.8741 15.595C14.9076 15.5818 14.9261 15.583 14.917 15.583V17.583ZM16.2071 17.0611C16.5657 16.7025 16.729 16.245 16.729 15.771H14.729C14.729 15.7801 14.7278 15.7616 14.741 15.7281C14.7548 15.6929 14.7754 15.6644 14.7929 15.6469L16.2071 17.0611ZM16.729 15.771V4.22899H14.729V15.771H16.729ZM15.729 3.22899H6.729V5.22899H15.729V3.22899ZM5.729 4.22899V13.083H7.729V4.22899H5.729ZM6.729 14.083H14.104V12.083H6.729V14.083ZM13.104 13.083V15.771H15.104V13.083H13.104ZM13.104 15.771C13.104 16.245 13.2673 16.7025 13.6259 17.0611L15.0401 15.6469C15.0576 15.6644 15.0782 15.6929 15.092 15.7281C15.1052 15.7616 15.104 15.7801 15.104 15.771H13.104ZM13.6259 17.0611C13.985 17.4202 14.4432 17.583 14.917 17.583V15.583C14.9072 15.583 14.9253 15.5817 14.9586 15.5948C14.9936 15.6085 15.0223 15.6291 15.0401 15.6469L13.6259 17.0611ZM8.479 7.58299V5.83299H6.479V7.58299H8.479ZM7.479 6.83299H12.5V4.83299H7.479V6.83299ZM11.5 5.83299V7.58299H13.5V5.83299H11.5ZM12.5 6.58299H7.479V8.58299H12.5V6.58299ZM8.479 10.104V8.35399H6.479V10.104H8.479ZM7.479 9.35399H12.5V7.35399H7.479V9.35399ZM11.5 8.35399V10.104H13.5V8.35399H11.5ZM12.5 9.10399H7.479V11.104H12.5V9.10399ZM14.146 6.58299C14.1536 6.58299 14.1766 6.58507 14.2046 6.59692C14.2319 6.60845 14.2423 6.62008 14.2367 6.61453L12.8253 8.03146C13.1782 8.38303 13.6337 8.58299 14.146 8.58299V6.58299ZM14.2395 6.61724C14.2339 6.61167 14.2455 6.62208 14.2571 6.64935C14.2689 6.67739 14.271 6.70042 14.271 6.70799H12.271C12.271 7.22031 12.471 7.67582 12.8225 8.02874L14.2395 6.61724ZM14.271 6.70799C14.271 6.71556 14.2689 6.73889 14.2568 6.76743C14.2451 6.79522 14.233 6.80616 14.2381 6.8011L12.8239 5.38689C12.4711 5.73966 12.271 6.19554 12.271 6.70799H14.271ZM14.2381 6.8011C14.2439 6.79535 14.2334 6.80709 14.2059 6.81878C14.1776 6.83081 14.1541 6.83299 14.146 6.83299V4.83299C13.6324 4.83299 13.1765 5.03427 12.8239 5.38689L14.2381 6.8011ZM14.146 6.83299C14.1379 6.83299 14.1141 6.83081 14.0853 6.81855C14.0572 6.80662 14.0463 6.79449 14.0515 6.79974L15.4685 5.38824C15.116 5.03443 14.6597 4.83299 14.146 4.83299V6.83299ZM14.0543 6.80245C14.0595 6.80769 14.0474 6.79675 14.0354 6.7687C14.0232 6.73985 14.021 6.71607 14.021 6.70799H16.021C16.021 6.19428 15.8196 5.73799 15.4657 5.38553L14.0543 6.80245ZM14.021 6.70799C14.021 6.6999 14.0232 6.67643 14.0352 6.64808C14.0469 6.62055 14.0586 6.61014 14.0529 6.61589L15.4671 8.0301C15.8197 7.67749 16.021 7.22157 16.021 6.70799H14.021ZM14.0529 6.61589C14.0478 6.62094 14.0588 6.60892 14.0866 6.59715C14.1151 6.58506 14.1384 6.58299 14.146 6.58299V8.58299C14.6585 8.58299 15.1143 8.38287 15.4671 8.0301L14.0529 6.61589ZM14.146 9.10399C14.1536 9.10399 14.1766 9.10607 14.2046 9.11792C14.2319 9.12945 14.2423 9.14108 14.2367 9.13553L12.8253 10.5525C13.1782 10.904 13.6337 11.104 14.146 11.104V9.10399ZM14.2395 9.13824C14.2339 9.13267 14.2455 9.14308 14.2571 9.17035C14.2689 9.19839 14.271 9.22142 14.271 9.22899H12.271C12.271 9.74131 12.471 10.1968 12.8225 10.5497L14.2395 9.13824ZM14.271 9.22899C14.271 9.23656 14.2689 9.25989 14.2568 9.28843C14.2451 9.31622 14.233 9.32716 14.2381 9.3221L12.8239 7.90789C12.4711 8.26066 12.271 8.71654 12.271 9.22899H14.271ZM14.2381 9.3221C14.2439 9.31635 14.2334 9.32809 14.2059 9.33978C14.1776 9.35181 14.1541 9.35399 14.146 9.35399V7.35399C13.6324 7.35399 13.1765 7.55527 12.8239 7.90789L14.2381 9.3221ZM14.146 9.35399C14.1379 9.35399 14.1141 9.35181 14.0853 9.33955C14.0572 9.32762 14.0463 9.31549 14.0515 9.32074L15.4685 7.90924C15.116 7.55543 14.6597 7.35399 14.146 7.35399V9.35399ZM14.0543 9.32345C14.0595 9.32869 14.0474 9.31775 14.0354 9.2897C14.0232 9.26085 14.021 9.23707 14.021 9.22899H16.021C16.021 8.71528 15.8196 8.25899 15.4657 7.90653L14.0543 9.32345ZM14.021 9.22899C14.021 9.2209 14.0232 9.19743 14.0352 9.16908C14.0469 9.14155 14.0586 9.13114 14.0529 9.13689L15.4671 10.5511C15.8197 10.1985 16.021 9.74257 16.021 9.22899H14.021ZM14.0529 9.13689C14.0478 9.14194 14.0588 9.12992 14.0866 9.11815C14.1151 9.10606 14.1384 9.10399 14.146 9.10399V11.104C14.6585 11.104 15.1143 10.9039 15.4671 10.5511L14.0529 9.13689ZM5.083 17.583H12.354V15.583H5.083V17.583ZM13.354 16.583V14.833H11.354V16.583H13.354ZM12.354 13.833H4.271V15.833H12.354V13.833ZM3.271 15.771C3.271 16.245 3.43431 16.7025 3.79289 17.0611L5.20711 15.6469C5.22462 15.6644 5.24518 15.6929 5.25902 15.7281C5.27217 15.7616 5.271 15.7801 5.271 15.771H3.271ZM3.79289 17.0611C4.15147 17.4197 4.60895 17.583 5.083 17.583V15.583C5.07393 15.583 5.09237 15.5818 5.12585 15.595C5.16108 15.6088 5.18959 15.6294 5.20711 15.6469L3.79289 17.0611ZM4.271 16.583C5.271 16.583 5.271 16.583 5.271 16.583C5.271 16.583 5.271 16.583 5.271 16.583C5.271 16.583 5.271 16.583 5.271 16.583C5.271 16.583 5.271 16.583 5.271 16.583C5.271 16.583 5.271 16.583 5.271 16.583C5.271 16.583 5.271 16.583 5.271 16.583C5.271 16.583 5.271 16.583 5.271 16.5829C5.271 16.5829 5.271 16.5829 5.271 16.5829C5.271 16.5829 5.271 16.5829 5.271 16.5829C5.271 16.5829 5.271 16.5829 5.271 16.5829C5.271 16.5829 5.271 16.5829 5.271 16.5829C5.271 16.5829 5.271 16.5829 5.271 16.5829C5.271 16.5829 5.271 16.5829 5.271 16.5828C5.271 16.5828 5.271 16.5828 5.271 16.5828C5.271 16.5828 5.271 16.5828 5.271 16.5828C5.271 16.5828 5.271 16.5828 5.271 16.5828C5.271 16.5828 5.271 16.5828 5.271 16.5827C5.271 16.5827 5.271 16.5827 5.271 16.5827C5.271 16.5827 5.271 16.5827 5.271 16.5827C5.271 16.5827 5.271 16.5827 5.271 16.5826C5.271 16.5826 5.271 16.5826 5.271 16.5826C5.271 16.5826 5.271 16.5826 5.271 16.5826C5.271 16.5826 5.271 16.5825 5.271 16.5825C5.271 16.5825 5.271 16.5825 5.271 16.5825C5.271 16.5825 5.271 16.5825 5.271 16.5824C5.271 16.5824 5.271 16.5824 5.271 16.5824C5.271 16.5824 5.271 16.5824 5.271 16.5824C5.271 16.5823 5.271 16.5823 5.271 16.5823C5.271 16.5823 5.271 16.5823 5.271 16.5823C5.271 16.5822 5.271 16.5822 5.271 16.5822C5.271 16.5822 5.271 16.5822 5.271 16.5822C5.271 16.5821 5.271 16.5821 5.271 16.5821C5.271 16.5821 5.271 16.5821 5.271 16.582C5.271 16.582 5.271 16.582 5.271 16.582C5.271 16.582 5.271 16.5819 5.271 16.5819C5.271 16.5819 5.271 16.5819 5.271 16.5819C5.271 16.5818 5.271 16.5818 5.271 16.5818C5.271 16.5818 5.271 16.5818 5.271 16.5817C5.271 16.5817 5.271 16.5817 5.271 16.5817C5.271 16.5816 5.271 16.5816 5.271 16.5816C5.271 16.5816 5.271 16.5815 5.271 16.5815C5.271 16.5815 5.271 16.5815 5.271 16.5815C5.271 16.5814 5.271 16.5814 5.271 16.5814C5.271 16.5814 5.271 16.5813 5.271 16.5813C5.271 16.5813 5.271 16.5813 5.271 16.5812C5.271 16.5812 5.271 16.5812 5.271 16.5811C5.271 16.5811 5.271 16.5811 5.271 16.5811C5.271 16.581 5.271 16.581 5.271 16.581C5.271 16.581 5.271 16.5809 5.271 16.5809C5.271 16.5809 5.271 16.5808 5.271 16.5808C5.271 16.5808 5.271 16.5808 5.271 16.5807C5.271 16.5807 5.271 16.5807 5.271 16.5806C5.271 16.5806 5.271 16.5806 5.271 16.5805C5.271 16.5805 5.271 16.5805 5.271 16.5804C5.271 16.5804 5.271 16.5804 5.271 16.5803C5.271 16.5803 5.271 16.5803 5.271 16.5803C5.271 16.5802 5.271 16.5802 5.271 16.5802C5.271 16.5801 5.271 16.5801 5.271 16.5801C5.271 16.58 5.271 16.58 5.271 16.58C5.271 16.5799 5.271 16.5799 5.271 16.5798C5.271 16.5798 5.271 16.5798 5.271 16.5797C5.271 16.5797 5.271 16.5797 5.271 16.5796C5.271 16.5796 5.271 16.5796 5.271 16.5795C5.271 16.5795 5.271 16.5795 5.271 16.5794C5.271 16.5794 5.271 16.5793 5.271 16.5793C5.271 16.5793 5.271 16.5792 5.271 16.5792C5.271 16.5791 5.271 16.5791 5.271 16.5791C5.271 16.579 5.271 16.579 5.271 16.579C5.271 16.5789 5.271 16.5789 5.271 16.5788C5.271 16.5788 5.271 16.5788 5.271 16.5787C5.271 16.5787 5.271 16.5786 5.271 16.5786C5.271 16.5785 5.271 16.5785 5.271 16.5785C5.271 16.5784 5.271 16.5784 5.271 16.5783C5.271 16.5783 5.271 16.5783 5.271 16.5782C5.271 16.5782 5.271 16.5781 5.271 16.5781C5.271 16.578 5.271 16.578 5.271 16.5779C5.271 16.5779 5.271 16.5779 5.271 16.5778C5.271 16.5778 5.271 16.5777 5.271 16.5777C5.271 16.5776 5.271 16.5776 5.271 16.5775C5.271 16.5775 5.271 16.5774 5.271 16.5774C5.271 16.5774 5.271 16.5773 5.271 16.5773C5.271 16.5772 5.271 16.5772 5.271 16.5771C5.271 16.5771 5.271 16.577 5.271 16.577C5.271 16.5769 5.271 16.5769 5.271 16.5768C5.271 16.5768 5.271 16.5767 5.271 16.5767C5.271 16.5766 5.271 16.5766 5.271 16.5765C5.271 16.5765 5.271 16.5764 5.271 16.5764C5.271 16.5763 5.271 16.5763 5.271 16.5762C5.271 16.5762 5.271 16.5761 5.271 16.5761C5.271 16.576 5.271 16.576 5.271 16.5759C5.271 16.5759 5.271 16.5758 5.271 16.5758C5.271 16.5757 5.271 16.5757 5.271 16.5756C5.271 16.5755 5.271 16.5755 5.271 16.5754C5.271 16.5754 5.271 16.5753 5.271 16.5753C5.271 16.5752 5.271 16.5752 5.271 16.5751C5.271 16.5751 5.271 16.575 5.271 16.5749C5.271 16.5749 5.271 16.5748 5.271 16.5748C5.271 16.5747 5.271 16.5747 5.271 16.5746C5.271 16.5745 5.271 16.5745 5.271 16.5744C5.271 16.5744 5.271 16.5743 5.271 16.5743C5.271 16.5742 5.271 16.5741 5.271 16.5741C5.271 16.574 5.271 16.574 5.271 16.5739C5.271 16.5738 5.271 16.5738 5.271 16.5737C5.271 16.5737 5.271 16.5736 5.271 16.5735C5.271 16.5735 5.271 16.5734 5.271 16.5734C5.271 16.5733 5.271 16.5732 5.271 16.5732C5.271 16.5731 5.271 16.5731 5.271 16.573C5.271 16.5729 5.271 16.5729 5.271 16.5728C5.271 16.5727 5.271 16.5727 5.271 16.5726C5.271 16.5725 5.271 16.5725 5.271 16.5724C5.271 16.5724 5.271 16.5723 5.271 16.5722C5.271 16.5722 5.271 16.5721 5.271 16.572C5.271 16.572 5.271 16.5719 5.271 16.5718C5.271 16.5718 5.271 16.5717 5.271 16.5716C5.271 16.5716 5.271 16.5715 5.271 16.5714C5.271 16.5714 5.271 16.5713 5.271 16.5712C5.271 16.5712 5.271 16.5711 5.271 16.571C5.271 16.571 5.271 16.5709 5.271 16.5708C5.271 16.5708 5.271 16.5707 5.271 16.5706C5.271 16.5706 5.271 16.5705 5.271 16.5704C5.271 16.5703 5.271 16.5703 5.271 16.5702C5.271 16.5701 5.271 16.5701 5.271 16.57C5.271 16.5699 5.271 16.5698 5.271 16.5698C5.271 16.5697 5.271 16.5696 5.271 16.5696C5.271 16.5695 5.271 16.5694 5.271 16.5693C5.271 16.5693 5.271 16.5692 5.271 16.5691C5.271 16.5691 5.271 16.569 5.271 16.5689C5.271 16.5688 5.271 16.5688 5.271 16.5687C5.271 16.5686 5.271 16.5685 5.271 16.5685C5.271 16.5684 5.271 16.5683 5.271 16.5682C5.271 16.5682 5.271 16.5681 5.271 16.568C5.271 16.5679 5.271 16.5678 5.271 16.5678C5.271 16.5677 5.271 16.5676 5.271 16.5675C5.271 16.5675 5.271 16.5674 5.271 16.5673C5.271 16.5672 5.271 16.5672 5.271 16.5671C5.271 16.567 5.271 16.5669 5.271 16.5668C5.271 16.5668 5.271 16.5667 5.271 16.5666C5.271 16.5665 5.271 16.5664 5.271 16.5664C5.271 16.5663 5.271 16.5662 5.271 16.5661C5.271 16.566 5.271 16.566 5.271 16.5659C5.271 16.5658 5.271 16.5657 5.271 16.5656C5.271 16.5655 5.271 16.5655 5.271 16.5654C5.271 16.5653 5.271 16.5652 5.271 16.5651C5.271 16.565 5.271 16.565 5.271 16.5649C5.271 16.5648 5.271 16.5647 5.271 16.5646C5.271 16.5645 5.271 16.5645 5.271 16.5644C5.271 16.5643 5.271 16.5642 5.271 16.5641C5.271 16.564 5.271 16.5639 5.271 16.5639C5.271 16.5638 5.271 16.5637 5.271 16.5636C5.271 16.5635 5.271 16.5634 5.271 16.5633C5.271 16.5632 5.271 16.5632 5.271 16.5631C5.271 16.563 5.271 16.5629 5.271 16.5628C5.271 16.5627 5.271 16.5626 5.271 16.5625C5.271 16.5625 5.271 16.5624 5.271 16.5623C5.271 16.5622 5.271 16.5621 5.271 16.562C5.271 16.5619 5.271 16.5618 5.271 16.5617C5.271 16.5616 5.271 16.5616 5.271 16.5615C5.271 16.5614 5.271 16.5613 5.271 16.5612C5.271 16.5611 5.271 16.561 5.271 16.5609C5.271 16.5608 5.271 16.5607 5.271 16.5606C5.271 16.5605 5.271 16.5604 5.271 16.5603C5.271 16.5603 5.271 16.5602 5.271 16.5601C5.271 16.56 5.271 16.5599 5.271 16.5598C5.271 16.5597 5.271 16.5596 5.271 16.5595C5.271 16.5594 5.271 16.5593 5.271 16.5592C5.271 16.5591 5.271 16.559 5.271 16.5589C5.271 16.5588 5.271 16.5587 5.271 16.5586C5.271 16.5585 5.271 16.5584 5.271 16.5583C5.271 16.5582 5.271 16.5581 5.271 16.558C5.271 16.5579 5.271 16.5578 5.271 16.5577C5.271 16.5576 5.271 16.5575 5.271 16.5574C5.271 16.5573 5.271 16.5572 5.271 16.5571C5.271 16.557 5.271 16.5569 5.271 16.5568C5.271 16.5567 5.271 16.5566 5.271 16.5565C5.271 16.5564 5.271 16.5563 5.271 16.5562C5.271 16.5561 5.271 16.556 5.271 16.5559C5.271 16.5558 5.271 16.5557 5.271 16.5556C5.271 16.5555 5.271 16.5554 5.271 16.5553C5.271 16.5552 5.271 16.5551 5.271 16.555C5.271 16.5549 5.271 16.5548 5.271 16.5547C5.271 16.5546 5.271 16.5545 5.271 16.5544C5.271 16.5543 5.271 16.5542 5.271 16.5541C5.271 16.554 5.271 16.5538 5.271 16.5537C5.271 16.5536 5.271 16.5535 5.271 16.5534C5.271 16.5533 5.271 16.5532 5.271 16.5531C5.271 16.553 5.271 16.5529 5.271 16.5528C5.271 16.5527 5.271 16.5526 5.271 16.5524C5.271 16.5523 5.271 16.5522 5.271 16.5521C5.271 16.552 5.271 16.5519 5.271 16.5518C5.271 16.5517 5.271 16.5516 5.271 16.5515C5.271 16.5513 5.271 16.5512 5.271 16.5511C5.271 16.551 5.271 16.5509 5.271 16.5508C5.271 16.5507 5.271 16.5506 5.271 16.5505C5.271 16.5503 5.271 16.5502 5.271 16.5501C5.271 16.55 5.271 16.5499 5.271 16.5498C5.271 16.5497 5.271 16.5495 5.271 16.5494C5.271 16.5493 5.271 16.5492 5.271 16.5491C5.271 16.549 5.271 16.5489 5.271 16.5487C5.271 16.5486 5.271 16.5485 5.271 16.5484C5.271 16.5483 5.271 16.5482 5.271 16.548C5.271 16.5479 5.271 16.5478 5.271 16.5477C5.271 16.5476 5.271 16.5475 5.271 16.5473C5.271 16.5472 5.271 16.5471 5.271 16.547C5.271 16.5469 5.271 16.5468 5.271 16.5466C5.271 16.5465 5.271 16.5464 5.271 16.5463C5.271 16.5462 5.271 16.546 5.271 16.5459C5.271 16.5458 5.271 16.5457 5.271 16.5456C5.271 16.5454 5.271 16.5453 5.271 16.5452C5.271 16.5451 5.271 16.545 5.271 16.5448C5.271 16.5447 5.271 16.5446 5.271 16.5445C5.271 16.5443 5.271 16.5442 5.271 16.5441C5.271 16.544 5.271 16.5439 5.271 16.5437C5.271 16.5436 5.271 16.5435 5.271 16.5434C5.271 16.5432 5.271 16.5431 5.271 16.543C5.271 16.5429 5.271 16.5427 5.271 16.5426C5.271 16.5425 5.271 16.5424 5.271 16.5422C5.271 16.5421 5.271 16.542 5.271 16.5419C5.271 16.5417 5.271 16.5416 5.271 16.5415C5.271 16.5414 5.271 16.5412 5.271 16.5411C5.271 16.541 5.271 16.5408 5.271 16.5407C5.271 16.5406 5.271 16.5405 5.271 16.5403C5.271 16.5402 5.271 16.5401 5.271 16.5399C5.271 16.5398 5.271 16.5397 5.271 16.5396C5.271 16.5394 5.271 16.5393 5.271 16.5392C5.271 16.539 5.271 16.5389 5.271 16.5388C5.271 16.5386 5.271 16.5385 5.271 16.5384C5.271 16.5382 5.271 16.5381 5.271 16.538C5.271 16.5378 5.271 16.5377 5.271 16.5376C5.271 16.5374 5.271 16.5373 5.271 16.5372C5.271 16.537 5.271 16.5369 5.271 16.5368C5.271 16.5366 5.271 16.5365 5.271 16.5364C5.271 16.5362 5.271 16.5361 5.271 16.536C5.271 16.5358 5.271 16.5357 5.271 16.5356C5.271 16.5354 5.271 16.5353 5.271 16.5352C5.271 16.535 5.271 16.5349 5.271 16.5347C5.271 16.5346 5.271 16.5345 5.271 16.5343C5.271 16.5342 5.271 16.5341 5.271 16.5339C5.271 16.5338 5.271 16.5336 5.271 16.5335C5.271 16.5334 5.271 16.5332 5.271 16.5331C5.271 16.533 5.271 16.5328 5.271 16.5327C5.271 16.5325 5.271 16.5324 5.271 16.5323C5.271 16.5321 5.271 16.532 5.271 16.5318C5.271 16.5317 5.271 16.5316 5.271 16.5314C5.271 16.5313 5.271 16.5311 5.271 16.531C5.271 16.5308 5.271 16.5307 5.271 16.5306C5.271 16.5304 5.271 16.5303 5.271 16.5301C5.271 16.53 5.271 16.5298 5.271 16.5297C5.271 16.5296 5.271 16.5294 5.271 16.5293C5.271 16.5291 5.271 16.529 5.271 16.5288C5.271 16.5287 5.271 16.5285 5.271 16.5284C5.271 16.5282 5.271 16.5281 5.271 16.528C5.271 16.5278 5.271 16.5277 5.271 16.5275C5.271 16.5274 5.271 16.5272 5.271 16.5271C5.271 16.5269 5.271 16.5268 5.271 16.5266C5.271 16.5265 5.271 16.5263 5.271 16.5262C5.271 16.526 5.271 16.5259 5.271 16.5257C5.271 16.5256 5.271 16.5254 5.271 16.5253C5.271 16.5251 5.271 16.525 5.271 16.5248C5.271 16.5247 5.271 16.5245 5.271 16.5244C5.271 16.5242 5.271 16.5241 5.271 16.5239C5.271 16.5238 5.271 16.5236 5.271 16.5235C5.271 16.5233 5.271 16.5232 5.271 16.523C5.271 16.5229 5.271 16.5227 5.271 16.5226C5.271 16.5224 5.271 16.5223 5.271 16.5221C5.271 16.522 5.271 16.5218 5.271 16.5216C5.271 16.5215 5.271 16.5213 5.271 16.5212C5.271 16.521 5.271 16.5209 5.271 16.5207C5.271 16.5206 5.271 16.5204 5.271 16.5202C5.271 16.5201 5.271 16.5199 5.271 16.5198C5.271 16.5196 5.271 16.5195 5.271 16.5193C5.271 16.5192 5.271 16.519 5.271 16.5188C5.271 16.5187 5.271 16.5185 5.271 16.5184C5.271 16.5182 5.271 16.518 5.271 16.5179C5.271 16.5177 5.271 16.5176 5.271 16.5174C5.271 16.5172 5.271 16.5171 5.271 16.5169C5.271 16.5168 5.271 16.5166 5.271 16.5164C5.271 16.5163 5.271 16.5161 5.271 16.516C5.271 16.5158 5.271 16.5156 5.271 16.5155C5.271 16.5153 5.271 16.5152 5.271 16.515C5.271 16.5148 5.271 16.5147 5.271 16.5145C5.271 16.5143 5.271 16.5142 5.271 16.514C5.271 16.5139 5.271 16.5137 5.271 16.5135C5.271 16.5134 5.271 16.5132 5.271 16.513C5.271 16.5129 5.271 16.5127 5.271 16.5125C5.271 16.5124 5.271 16.5122 5.271 16.512C5.271 16.5119 5.271 16.5117 5.271 16.5115C5.271 16.5114 5.271 16.5112 5.271 16.511C5.271 16.5109 5.271 16.5107 5.271 16.5105C5.271 16.5104 5.271 16.5102 5.271 16.51C5.271 16.5099 5.271 16.5097 5.271 16.5095C5.271 16.5094 5.271 16.5092 5.271 16.509C5.271 16.5088 5.271 16.5087 5.271 16.5085C5.271 16.5083 5.271 16.5082 5.271 16.508C5.271 16.5078 5.271 16.5077 5.271 16.5075C5.271 16.5073 5.271 16.5071 5.271 16.507C5.271 16.5068 5.271 16.5066 5.271 16.5065C5.271 16.5063 5.271 16.5061 5.271 16.5059C5.271 16.5058 5.271 16.5056 5.271 16.5054C5.271 16.5052 5.271 16.5051 5.271 16.5049C5.271 16.5047 5.271 16.5045 5.271 16.5044C5.271 16.5042 5.271 16.504 5.271 16.5038C5.271 16.5037 5.271 16.5035 5.271 16.5033C5.271 16.5031 5.271 16.503 5.271 16.5028C5.271 16.5026 5.271 16.5024 5.271 16.5023C5.271 16.5021 5.271 16.5019 5.271 16.5017C5.271 16.5016 5.271 16.5014 5.271 16.5012C5.271 16.501 5.271 16.5008 5.271 16.5007C5.271 16.5005 5.271 16.5003 5.271 16.5001C5.271 16.4999 5.271 16.4998 5.271 16.4996C5.271 16.4994 5.271 16.4992 5.271 16.499C5.271 16.4989 5.271 16.4987 5.271 16.4985C5.271 16.4983 5.271 16.4981 5.271 16.498C5.271 16.4978 5.271 16.4976 5.271 16.4974C5.271 16.4972 5.271 16.497 5.271 16.4969C5.271 16.4967 5.271 16.4965 5.271 16.4963C5.271 16.4961 5.271 16.4959 5.271 16.4958C5.271 16.4956 5.271 16.4954 5.271 16.4952C5.271 16.495 5.271 16.4948 5.271 16.4947C5.271 16.4945 5.271 16.4943 5.271 16.4941C5.271 16.4939 5.271 16.4937 5.271 16.4935C5.271 16.4934 5.271 16.4932 5.271 16.493C5.271 16.4928 5.271 16.4926 5.271 16.4924C5.271 16.4922 5.271 16.492 5.271 16.4919C5.271 16.4917 5.271 16.4915 5.271 16.4913C5.271 16.4911 5.271 16.4909 5.271 16.4907C5.271 16.4905 5.271 16.4903 5.271 16.4902C5.271 16.49 5.271 16.4898 5.271 16.4896C5.271 16.4894 5.271 16.4892 5.271 16.489C5.271 16.4888 5.271 16.4886 5.271 16.4884C5.271 16.4882 5.271 16.4881 5.271 16.4879C5.271 16.4877 5.271 16.4875 5.271 16.4873C5.271 16.4871 5.271 16.4869 5.271 16.4867C5.271 16.4865 5.271 16.4863 5.271 16.4861C5.271 16.4859 5.271 16.4857 5.271 16.4855C5.271 16.4853 5.271 16.4852 5.271 16.485C5.271 16.4848 5.271 16.4846 5.271 16.4844C5.271 16.4842 5.271 16.484 5.271 16.4838C5.271 16.4836 5.271 16.4834 5.271 16.4832C5.271 16.483 5.271 16.4828 5.271 16.4826C5.271 16.4824 5.271 16.4822 5.271 16.482C5.271 16.4818 5.271 16.4816 5.271 16.4814C5.271 16.4812 5.271 16.481 5.271 16.4808C5.271 16.4806 5.271 16.4804 5.271 16.4802C5.271 16.48 5.271 16.4798 5.271 16.4796C5.271 16.4794 5.271 16.4792 5.271 16.479C5.271 16.4788 5.271 16.4786 5.271 16.4784C5.271 16.4782 5.271 16.478 5.271 16.4778C5.271 16.4776 5.271 16.4774 5.271 16.4772C5.271 16.477 5.271 16.4768 5.271 16.4766C5.271 16.4764 5.271 16.4762 5.271 16.476C5.271 16.4758 5.271 16.4756 5.271 16.4754C5.271 16.4752 5.271 16.475 5.271 16.4748C5.271 16.4745 5.271 16.4743 5.271 16.4741C5.271 16.4739 5.271 16.4737 5.271 16.4735C5.271 16.4733 5.271 16.4731 5.271 16.4729C5.271 16.4727 5.271 16.4725 5.271 16.4723C5.271 16.4721 5.271 16.4719 5.271 16.4717C5.271 16.4714 5.271 16.4712 5.271 16.471C5.271 16.4708 5.271 16.4706 5.271 16.4704C5.271 16.4702 5.271 16.47 5.271 16.4698C5.271 16.4696 5.271 16.4694 5.271 16.4691C5.271 16.4689 5.271 16.4687 5.271 16.4685C5.271 16.4683 5.271 16.4681 5.271 16.4679C5.271 16.4677 5.271 16.4675 5.271 16.4672C5.271 16.467 5.271 16.4668 5.271 16.4666C5.271 16.4664 5.271 16.4662 5.271 16.466C5.271 16.4658 5.271 16.4655 5.271 16.4653C5.271 16.4651 5.271 16.4649 5.271 16.4647C5.271 16.4645 5.271 16.4643 5.271 16.464C5.271 16.4638 5.271 16.4636 5.271 16.4634C5.271 16.4632 5.271 16.463 5.271 16.4628C5.271 16.4625 5.271 16.4623 5.271 16.4621C5.271 16.4619 5.271 16.4617 5.271 16.4615C5.271 16.4612 5.271 16.461 5.271 16.4608C5.271 16.4606 5.271 16.4604 5.271 16.4601C5.271 16.4599 5.271 16.4597 5.271 16.4595C5.271 16.4593 5.271 16.4591 5.271 16.4588C5.271 16.4586 5.271 16.4584 5.271 16.4582C5.271 16.458 5.271 16.4577 5.271 16.4575C5.271 16.4573 5.271 16.4571 5.271 16.4569C5.271 16.4566 5.271 16.4564 5.271 16.4562C5.271 16.456 5.271 16.4557 5.271 16.4555C5.271 16.4553 5.271 16.4551 5.271 16.4549C5.271 16.4546 5.271 16.4544 5.271 16.4542C5.271 16.454 5.271 16.4537 5.271 16.4535C5.271 16.4533 5.271 16.4531 5.271 16.4528C5.271 16.4526 5.271 16.4524 5.271 16.4522C5.271 16.4519 5.271 16.4517 5.271 16.4515C5.271 16.4513 5.271 16.451 5.271 16.4508C5.271 16.4506 5.271 16.4503 5.271 16.4501C5.271 16.4499 5.271 16.4497 5.271 16.4494C5.271 16.4492 5.271 16.449 5.271 16.4488C5.271 16.4485 5.271 16.4483 5.271 16.4481C5.271 16.4478 5.271 16.4476 5.271 16.4474C5.271 16.4472 5.271 16.4469 5.271 16.4467C5.271 16.4465 5.271 16.4462 5.271 16.446C5.271 16.4458 5.271 16.4455 5.271 16.4453C5.271 16.4451 5.271 16.4448 5.271 16.4446C5.271 16.4444 5.271 16.4442 5.271 16.4439C5.271 16.4437 5.271 16.4435 5.271 16.4432C5.271 16.443 5.271 16.4428 5.271 16.4425C5.271 16.4423 5.271 16.4421 5.271 16.4418C5.271 16.4416 5.271 16.4414 5.271 16.4411C5.271 16.4409 5.271 16.4406 5.271 16.4404C5.271 16.4402 5.271 16.4399 5.271 16.4397C5.271 16.4395 5.271 16.4392 5.271 16.439C5.271 16.4388 5.271 16.4385 5.271 16.4383C5.271 16.4381 5.271 16.4378 5.271 16.4376C5.271 16.4373 5.271 16.4371 5.271 16.4369C5.271 16.4366 5.271 16.4364 5.271 16.4361C5.271 16.4359 5.271 16.4357 5.271 16.4354C5.271 16.4352 5.271 16.4349 5.271 16.4347C5.271 16.4345 5.271 16.4342 5.271 16.434C5.271 16.4337 5.271 16.4335 5.271 16.4333C5.271 16.433 5.271 16.4328 5.271 16.4325C5.271 16.4323 5.271 16.4321 5.271 16.4318C5.271 16.4316 5.271 16.4313 5.271 16.4311C5.271 16.4308 5.271 16.4306 5.271 16.4304C5.271 16.4301 5.271 16.4299 5.271 16.4296C5.271 16.4294 5.271 16.4291 5.271 16.4289C5.271 16.4287 5.271 16.4284 5.271 16.4282C5.271 16.4279 5.271 16.4277 5.271 16.4274C5.271 16.4272 5.271 16.4269 5.271 16.4267C5.271 16.4264 5.271 16.4262 5.271 16.4259C5.271 16.4257 5.271 16.4255 5.271 16.4252C5.271 16.425 5.271 16.4247 5.271 16.4245C5.271 16.4242 5.271 16.424 5.271 16.4237C5.271 16.4235 5.271 16.4232 5.271 16.423C5.271 16.4227 5.271 16.4225 5.271 16.4222C5.271 16.422 5.271 16.4217 5.271 16.4215C5.271 16.4212 5.271 16.421 5.271 16.4207C5.271 16.4205 5.271 16.4202 5.271 16.42C5.271 16.4197 5.271 16.4195 5.271 16.4192C5.271 16.419 5.271 16.4187 5.271 16.4185C5.271 16.4182 5.271 16.4179 5.271 16.4177C5.271 16.4174 5.271 16.4172 5.271 16.4169C5.271 16.4167 5.271 16.4164 5.271 16.4162C5.271 16.4159 5.271 16.4157 5.271 16.4154C5.271 16.4151 5.271 16.4149 5.271 16.4146C5.271 16.4144 5.271 16.4141 5.271 16.4139C5.271 16.4136 5.271 16.4134 5.271 16.4131C5.271 16.4128 5.271 16.4126 5.271 16.4123C5.271 16.4121 5.271 16.4118 5.271 16.4116C5.271 16.4113 5.271 16.411 5.271 16.4108C5.271 16.4105 5.271 16.4103 5.271 16.41C5.271 16.4097 5.271 16.4095 5.271 16.4092C5.271 16.409 5.271 16.4087 5.271 16.4084C5.271 16.4082 5.271 16.4079 5.271 16.4077C5.271 16.4074 5.271 16.4071 5.271 16.4069C5.271 16.4066 5.271 16.4064 5.271 16.4061C5.271 16.4058 5.271 16.4056 5.271 16.4053C5.271 16.405 5.271 16.4048 5.271 16.4045C5.271 16.4043 5.271 16.404 5.271 16.4037C5.271 16.4035 5.271 16.4032 5.271 16.4029C5.271 16.4027 5.271 16.4024 5.271 16.4021C5.271 16.4019 5.271 16.4016 5.271 16.4013C5.271 16.4011 5.271 16.4008 5.271 16.4005C5.271 16.4003 5.271 16.4 5.271 16.3997C5.271 16.3995 5.271 16.3992 5.271 16.3989C5.271 16.3987 5.271 16.3984 5.271 16.3981C5.271 16.3979 5.271 16.3976 5.271 16.3973C5.271 16.3971 5.271 16.3968 5.271 16.3965C5.271 16.3963 5.271 16.396 5.271 16.3957C5.271 16.3955 5.271 16.3952 5.271 16.3949C5.271 16.3946 5.271 16.3944 5.271 16.3941C5.271 16.3938 5.271 16.3936 5.271 16.3933C5.271 16.393 5.271 16.3927 5.271 16.3925C5.271 16.3922 5.271 16.3919 5.271 16.3917C5.271 16.3914 5.271 16.3911 5.271 16.3908C5.271 16.3906 5.271 16.3903 5.271 16.39C5.271 16.3897 5.271 16.3895 5.271 16.3892C5.271 16.3889 5.271 16.3887 5.271 16.3884C5.271 16.3881 5.271 16.3878 5.271 16.3876C5.271 16.3873 5.271 16.387 5.271 16.3867C5.271 16.3864 5.271 16.3862 5.271 16.3859C5.271 16.3856 5.271 16.3853 5.271 16.3851C5.271 16.3848 5.271 16.3845 5.271 16.3842C5.271 16.384 5.271 16.3837 5.271 16.3834C5.271 16.3831 5.271 16.3828 5.271 16.3826C5.271 16.3823 5.271 16.382 5.271 16.3817C5.271 16.3814 5.271 16.3812 5.271 16.3809C5.271 16.3806 5.271 16.3803 5.271 16.38C5.271 16.3798 5.271 16.3795 5.271 16.3792C5.271 16.3789 5.271 16.3786 5.271 16.3784C5.271 16.3781 5.271 16.3778 5.271 16.3775C5.271 16.3772 5.271 16.3769 5.271 16.3767C5.271 16.3764 5.271 16.3761 5.271 16.3758C5.271 16.3755 5.271 16.3752 5.271 16.375C5.271 16.3747 5.271 16.3744 5.271 16.3741C5.271 16.3738 5.271 16.3735 5.271 16.3732C5.271 16.373 5.271 16.3727 5.271 16.3724C5.271 16.3721 5.271 16.3718 5.271 16.3715C5.271 16.3712 5.271 16.371 5.271 16.3707C5.271 16.3704 5.271 16.3701 5.271 16.3698C5.271 16.3695 5.271 16.3692 5.271 16.3689C5.271 16.3687 5.271 16.3684 5.271 16.3681C5.271 16.3678 5.271 16.3675 5.271 16.3672C5.271 16.3669 5.271 16.3666 5.271 16.3663C5.271 16.3661 5.271 16.3658 5.271 16.3655C5.271 16.3652 5.271 16.3649 5.271 16.3646C5.271 16.3643 5.271 16.364 5.271 16.3637C5.271 16.3634 5.271 16.3631 5.271 16.3629C5.271 16.3626 5.271 16.3623 5.271 16.362C5.271 16.3617 5.271 16.3614 5.271 16.3611C5.271 16.3608 5.271 16.3605 5.271 16.3602C5.271 16.3599 5.271 16.3596 5.271 16.3593C5.271 16.359 5.271 16.3587 5.271 16.3584C5.271 16.3581 5.271 16.3579 5.271 16.3576C5.271 16.3573 5.271 16.357 5.271 16.3567C5.271 16.3564 5.271 16.3561 5.271 16.3558C5.271 16.3555 5.271 16.3552 5.271 16.3549C5.271 16.3546 5.271 16.3543 5.271 16.354H3.271C3.271 16.3543 3.271 16.3546 3.271 16.3549C3.271 16.3552 3.271 16.3555 3.271 16.3558C3.271 16.3561 3.271 16.3564 3.271 16.3567C3.271 16.357 3.271 16.3573 3.271 16.3576C3.271 16.3579 3.271 16.3581 3.271 16.3584C3.271 16.3587 3.271 16.359 3.271 16.3593C3.271 16.3596 3.271 16.3599 3.271 16.3602C3.271 16.3605 3.271 16.3608 3.271 16.3611C3.271 16.3614 3.271 16.3617 3.271 16.362C3.271 16.3623 3.271 16.3626 3.271 16.3629C3.271 16.3631 3.271 16.3634 3.271 16.3637C3.271 16.364 3.271 16.3643 3.271 16.3646C3.271 16.3649 3.271 16.3652 3.271 16.3655C3.271 16.3658 3.271 16.3661 3.271 16.3663C3.271 16.3666 3.271 16.3669 3.271 16.3672C3.271 16.3675 3.271 16.3678 3.271 16.3681C3.271 16.3684 3.271 16.3687 3.271 16.3689C3.271 16.3692 3.271 16.3695 3.271 16.3698C3.271 16.3701 3.271 16.3704 3.271 16.3707C3.271 16.371 3.271 16.3712 3.271 16.3715C3.271 16.3718 3.271 16.3721 3.271 16.3724C3.271 16.3727 3.271 16.373 3.271 16.3732C3.271 16.3735 3.271 16.3738 3.271 16.3741C3.271 16.3744 3.271 16.3747 3.271 16.375C3.271 16.3752 3.271 16.3755 3.271 16.3758C3.271 16.3761 3.271 16.3764 3.271 16.3767C3.271 16.3769 3.271 16.3772 3.271 16.3775C3.271 16.3778 3.271 16.3781 3.271 16.3784C3.271 16.3786 3.271 16.3789 3.271 16.3792C3.271 16.3795 3.271 16.3798 3.271 16.38C3.271 16.3803 3.271 16.3806 3.271 16.3809C3.271 16.3812 3.271 16.3814 3.271 16.3817C3.271 16.382 3.271 16.3823 3.271 16.3826C3.271 16.3828 3.271 16.3831 3.271 16.3834C3.271 16.3837 3.271 16.384 3.271 16.3842C3.271 16.3845 3.271 16.3848 3.271 16.3851C3.271 16.3853 3.271 16.3856 3.271 16.3859C3.271 16.3862 3.271 16.3864 3.271 16.3867C3.271 16.387 3.271 16.3873 3.271 16.3876C3.271 16.3878 3.271 16.3881 3.271 16.3884C3.271 16.3887 3.271 16.3889 3.271 16.3892C3.271 16.3895 3.271 16.3897 3.271 16.39C3.271 16.3903 3.271 16.3906 3.271 16.3908C3.271 16.3911 3.271 16.3914 3.271 16.3917C3.271 16.3919 3.271 16.3922 3.271 16.3925C3.271 16.3927 3.271 16.393 3.271 16.3933C3.271 16.3936 3.271 16.3938 3.271 16.3941C3.271 16.3944 3.271 16.3946 3.271 16.3949C3.271 16.3952 3.271 16.3955 3.271 16.3957C3.271 16.396 3.271 16.3963 3.271 16.3965C3.271 16.3968 3.271 16.3971 3.271 16.3973C3.271 16.3976 3.271 16.3979 3.271 16.3981C3.271 16.3984 3.271 16.3987 3.271 16.3989C3.271 16.3992 3.271 16.3995 3.271 16.3997C3.271 16.4 3.271 16.4003 3.271 16.4005C3.271 16.4008 3.271 16.4011 3.271 16.4013C3.271 16.4016 3.271 16.4019 3.271 16.4021C3.271 16.4024 3.271 16.4027 3.271 16.4029C3.271 16.4032 3.271 16.4035 3.271 16.4037C3.271 16.404 3.271 16.4043 3.271 16.4045C3.271 16.4048 3.271 16.405 3.271 16.4053C3.271 16.4056 3.271 16.4058 3.271 16.4061C3.271 16.4064 3.271 16.4066 3.271 16.4069C3.271 16.4071 3.271 16.4074 3.271 16.4077C3.271 16.4079 3.271 16.4082 3.271 16.4084C3.271 16.4087 3.271 16.409 3.271 16.4092C3.271 16.4095 3.271 16.4097 3.271 16.41C3.271 16.4103 3.271 16.4105 3.271 16.4108C3.271 16.411 3.271 16.4113 3.271 16.4116C3.271 16.4118 3.271 16.4121 3.271 16.4123C3.271 16.4126 3.271 16.4128 3.271 16.4131C3.271 16.4134 3.271 16.4136 3.271 16.4139C3.271 16.4141 3.271 16.4144 3.271 16.4146C3.271 16.4149 3.271 16.4151 3.271 16.4154C3.271 16.4157 3.271 16.4159 3.271 16.4162C3.271 16.4164 3.271 16.4167 3.271 16.4169C3.271 16.4172 3.271 16.4174 3.271 16.4177C3.271 16.4179 3.271 16.4182 3.271 16.4185C3.271 16.4187 3.271 16.419 3.271 16.4192C3.271 16.4195 3.271 16.4197 3.271 16.42C3.271 16.4202 3.271 16.4205 3.271 16.4207C3.271 16.421 3.271 16.4212 3.271 16.4215C3.271 16.4217 3.271 16.422 3.271 16.4222C3.271 16.4225 3.271 16.4227 3.271 16.423C3.271 16.4232 3.271 16.4235 3.271 16.4237C3.271 16.424 3.271 16.4242 3.271 16.4245C3.271 16.4247 3.271 16.425 3.271 16.4252C3.271 16.4255 3.271 16.4257 3.271 16.4259C3.271 16.4262 3.271 16.4264 3.271 16.4267C3.271 16.4269 3.271 16.4272 3.271 16.4274C3.271 16.4277 3.271 16.4279 3.271 16.4282C3.271 16.4284 3.271 16.4287 3.271 16.4289C3.271 16.4291 3.271 16.4294 3.271 16.4296C3.271 16.4299 3.271 16.4301 3.271 16.4304C3.271 16.4306 3.271 16.4308 3.271 16.4311C3.271 16.4313 3.271 16.4316 3.271 16.4318C3.271 16.4321 3.271 16.4323 3.271 16.4325C3.271 16.4328 3.271 16.433 3.271 16.4333C3.271 16.4335 3.271 16.4337 3.271 16.434C3.271 16.4342 3.271 16.4345 3.271 16.4347C3.271 16.4349 3.271 16.4352 3.271 16.4354C3.271 16.4357 3.271 16.4359 3.271 16.4361C3.271 16.4364 3.271 16.4366 3.271 16.4369C3.271 16.4371 3.271 16.4373 3.271 16.4376C3.271 16.4378 3.271 16.4381 3.271 16.4383C3.271 16.4385 3.271 16.4388 3.271 16.439C3.271 16.4392 3.271 16.4395 3.271 16.4397C3.271 16.4399 3.271 16.4402 3.271 16.4404C3.271 16.4406 3.271 16.4409 3.271 16.4411C3.271 16.4414 3.271 16.4416 3.271 16.4418C3.271 16.4421 3.271 16.4423 3.271 16.4425C3.271 16.4428 3.271 16.443 3.271 16.4432C3.271 16.4435 3.271 16.4437 3.271 16.4439C3.271 16.4442 3.271 16.4444 3.271 16.4446C3.271 16.4448 3.271 16.4451 3.271 16.4453C3.271 16.4455 3.271 16.4458 3.271 16.446C3.271 16.4462 3.271 16.4465 3.271 16.4467C3.271 16.4469 3.271 16.4472 3.271 16.4474C3.271 16.4476 3.271 16.4478 3.271 16.4481C3.271 16.4483 3.271 16.4485 3.271 16.4488C3.271 16.449 3.271 16.4492 3.271 16.4494C3.271 16.4497 3.271 16.4499 3.271 16.4501C3.271 16.4503 3.271 16.4506 3.271 16.4508C3.271 16.451 3.271 16.4513 3.271 16.4515C3.271 16.4517 3.271 16.4519 3.271 16.4522C3.271 16.4524 3.271 16.4526 3.271 16.4528C3.271 16.4531 3.271 16.4533 3.271 16.4535C3.271 16.4537 3.271 16.454 3.271 16.4542C3.271 16.4544 3.271 16.4546 3.271 16.4549C3.271 16.4551 3.271 16.4553 3.271 16.4555C3.271 16.4557 3.271 16.456 3.271 16.4562C3.271 16.4564 3.271 16.4566 3.271 16.4569C3.271 16.4571 3.271 16.4573 3.271 16.4575C3.271 16.4577 3.271 16.458 3.271 16.4582C3.271 16.4584 3.271 16.4586 3.271 16.4588C3.271 16.4591 3.271 16.4593 3.271 16.4595C3.271 16.4597 3.271 16.4599 3.271 16.4601C3.271 16.4604 3.271 16.4606 3.271 16.4608C3.271 16.461 3.271 16.4612 3.271 16.4615C3.271 16.4617 3.271 16.4619 3.271 16.4621C3.271 16.4623 3.271 16.4625 3.271 16.4628C3.271 16.463 3.271 16.4632 3.271 16.4634C3.271 16.4636 3.271 16.4638 3.271 16.464C3.271 16.4643 3.271 16.4645 3.271 16.4647C3.271 16.4649 3.271 16.4651 3.271 16.4653C3.271 16.4655 3.271 16.4658 3.271 16.466C3.271 16.4662 3.271 16.4664 3.271 16.4666C3.271 16.4668 3.271 16.467 3.271 16.4672C3.271 16.4675 3.271 16.4677 3.271 16.4679C3.271 16.4681 3.271 16.4683 3.271 16.4685C3.271 16.4687 3.271 16.4689 3.271 16.4691C3.271 16.4694 3.271 16.4696 3.271 16.4698C3.271 16.47 3.271 16.4702 3.271 16.4704C3.271 16.4706 3.271 16.4708 3.271 16.471C3.271 16.4712 3.271 16.4714 3.271 16.4717C3.271 16.4719 3.271 16.4721 3.271 16.4723C3.271 16.4725 3.271 16.4727 3.271 16.4729C3.271 16.4731 3.271 16.4733 3.271 16.4735C3.271 16.4737 3.271 16.4739 3.271 16.4741C3.271 16.4743 3.271 16.4745 3.271 16.4748C3.271 16.475 3.271 16.4752 3.271 16.4754C3.271 16.4756 3.271 16.4758 3.271 16.476C3.271 16.4762 3.271 16.4764 3.271 16.4766C3.271 16.4768 3.271 16.477 3.271 16.4772C3.271 16.4774 3.271 16.4776 3.271 16.4778C3.271 16.478 3.271 16.4782 3.271 16.4784C3.271 16.4786 3.271 16.4788 3.271 16.479C3.271 16.4792 3.271 16.4794 3.271 16.4796C3.271 16.4798 3.271 16.48 3.271 16.4802C3.271 16.4804 3.271 16.4806 3.271 16.4808C3.271 16.481 3.271 16.4812 3.271 16.4814C3.271 16.4816 3.271 16.4818 3.271 16.482C3.271 16.4822 3.271 16.4824 3.271 16.4826C3.271 16.4828 3.271 16.483 3.271 16.4832C3.271 16.4834 3.271 16.4836 3.271 16.4838C3.271 16.484 3.271 16.4842 3.271 16.4844C3.271 16.4846 3.271 16.4848 3.271 16.485C3.271 16.4852 3.271 16.4853 3.271 16.4855C3.271 16.4857 3.271 16.4859 3.271 16.4861C3.271 16.4863 3.271 16.4865 3.271 16.4867C3.271 16.4869 3.271 16.4871 3.271 16.4873C3.271 16.4875 3.271 16.4877 3.271 16.4879C3.271 16.4881 3.271 16.4882 3.271 16.4884C3.271 16.4886 3.271 16.4888 3.271 16.489C3.271 16.4892 3.271 16.4894 3.271 16.4896C3.271 16.4898 3.271 16.49 3.271 16.4902C3.271 16.4903 3.271 16.4905 3.271 16.4907C3.271 16.4909 3.271 16.4911 3.271 16.4913C3.271 16.4915 3.271 16.4917 3.271 16.4919C3.271 16.492 3.271 16.4922 3.271 16.4924C3.271 16.4926 3.271 16.4928 3.271 16.493C3.271 16.4932 3.271 16.4934 3.271 16.4935C3.271 16.4937 3.271 16.4939 3.271 16.4941C3.271 16.4943 3.271 16.4945 3.271 16.4947C3.271 16.4948 3.271 16.495 3.271 16.4952C3.271 16.4954 3.271 16.4956 3.271 16.4958C3.271 16.4959 3.271 16.4961 3.271 16.4963C3.271 16.4965 3.271 16.4967 3.271 16.4969C3.271 16.497 3.271 16.4972 3.271 16.4974C3.271 16.4976 3.271 16.4978 3.271 16.498C3.271 16.4981 3.271 16.4983 3.271 16.4985C3.271 16.4987 3.271 16.4989 3.271 16.499C3.271 16.4992 3.271 16.4994 3.271 16.4996C3.271 16.4998 3.271 16.4999 3.271 16.5001C3.271 16.5003 3.271 16.5005 3.271 16.5007C3.271 16.5008 3.271 16.501 3.271 16.5012C3.271 16.5014 3.271 16.5016 3.271 16.5017C3.271 16.5019 3.271 16.5021 3.271 16.5023C3.271 16.5024 3.271 16.5026 3.271 16.5028C3.271 16.503 3.271 16.5031 3.271 16.5033C3.271 16.5035 3.271 16.5037 3.271 16.5038C3.271 16.504 3.271 16.5042 3.271 16.5044C3.271 16.5045 3.271 16.5047 3.271 16.5049C3.271 16.5051 3.271 16.5052 3.271 16.5054C3.271 16.5056 3.271 16.5058 3.271 16.5059C3.271 16.5061 3.271 16.5063 3.271 16.5065C3.271 16.5066 3.271 16.5068 3.271 16.507C3.271 16.5071 3.271 16.5073 3.271 16.5075C3.271 16.5077 3.271 16.5078 3.271 16.508C3.271 16.5082 3.271 16.5083 3.271 16.5085C3.271 16.5087 3.271 16.5088 3.271 16.509C3.271 16.5092 3.271 16.5094 3.271 16.5095C3.271 16.5097 3.271 16.5099 3.271 16.51C3.271 16.5102 3.271 16.5104 3.271 16.5105C3.271 16.5107 3.271 16.5109 3.271 16.511C3.271 16.5112 3.271 16.5114 3.271 16.5115C3.271 16.5117 3.271 16.5119 3.271 16.512C3.271 16.5122 3.271 16.5124 3.271 16.5125C3.271 16.5127 3.271 16.5129 3.271 16.513C3.271 16.5132 3.271 16.5134 3.271 16.5135C3.271 16.5137 3.271 16.5139 3.271 16.514C3.271 16.5142 3.271 16.5143 3.271 16.5145C3.271 16.5147 3.271 16.5148 3.271 16.515C3.271 16.5152 3.271 16.5153 3.271 16.5155C3.271 16.5156 3.271 16.5158 3.271 16.516C3.271 16.5161 3.271 16.5163 3.271 16.5164C3.271 16.5166 3.271 16.5168 3.271 16.5169C3.271 16.5171 3.271 16.5172 3.271 16.5174C3.271 16.5176 3.271 16.5177 3.271 16.5179C3.271 16.518 3.271 16.5182 3.271 16.5184C3.271 16.5185 3.271 16.5187 3.271 16.5188C3.271 16.519 3.271 16.5192 3.271 16.5193C3.271 16.5195 3.271 16.5196 3.271 16.5198C3.271 16.5199 3.271 16.5201 3.271 16.5202C3.271 16.5204 3.271 16.5206 3.271 16.5207C3.271 16.5209 3.271 16.521 3.271 16.5212C3.271 16.5213 3.271 16.5215 3.271 16.5216C3.271 16.5218 3.271 16.522 3.271 16.5221C3.271 16.5223 3.271 16.5224 3.271 16.5226C3.271 16.5227 3.271 16.5229 3.271 16.523C3.271 16.5232 3.271 16.5233 3.271 16.5235C3.271 16.5236 3.271 16.5238 3.271 16.5239C3.271 16.5241 3.271 16.5242 3.271 16.5244C3.271 16.5245 3.271 16.5247 3.271 16.5248C3.271 16.525 3.271 16.5251 3.271 16.5253C3.271 16.5254 3.271 16.5256 3.271 16.5257C3.271 16.5259 3.271 16.526 3.271 16.5262C3.271 16.5263 3.271 16.5265 3.271 16.5266C3.271 16.5268 3.271 16.5269 3.271 16.5271C3.271 16.5272 3.271 16.5274 3.271 16.5275C3.271 16.5277 3.271 16.5278 3.271 16.528C3.271 16.5281 3.271 16.5282 3.271 16.5284C3.271 16.5285 3.271 16.5287 3.271 16.5288C3.271 16.529 3.271 16.5291 3.271 16.5293C3.271 16.5294 3.271 16.5296 3.271 16.5297C3.271 16.5298 3.271 16.53 3.271 16.5301C3.271 16.5303 3.271 16.5304 3.271 16.5306C3.271 16.5307 3.271 16.5308 3.271 16.531C3.271 16.5311 3.271 16.5313 3.271 16.5314C3.271 16.5316 3.271 16.5317 3.271 16.5318C3.271 16.532 3.271 16.5321 3.271 16.5323C3.271 16.5324 3.271 16.5325 3.271 16.5327C3.271 16.5328 3.271 16.533 3.271 16.5331C3.271 16.5332 3.271 16.5334 3.271 16.5335C3.271 16.5336 3.271 16.5338 3.271 16.5339C3.271 16.5341 3.271 16.5342 3.271 16.5343C3.271 16.5345 3.271 16.5346 3.271 16.5347C3.271 16.5349 3.271 16.535 3.271 16.5352C3.271 16.5353 3.271 16.5354 3.271 16.5356C3.271 16.5357 3.271 16.5358 3.271 16.536C3.271 16.5361 3.271 16.5362 3.271 16.5364C3.271 16.5365 3.271 16.5366 3.271 16.5368C3.271 16.5369 3.271 16.537 3.271 16.5372C3.271 16.5373 3.271 16.5374 3.271 16.5376C3.271 16.5377 3.271 16.5378 3.271 16.538C3.271 16.5381 3.271 16.5382 3.271 16.5384C3.271 16.5385 3.271 16.5386 3.271 16.5388C3.271 16.5389 3.271 16.539 3.271 16.5392C3.271 16.5393 3.271 16.5394 3.271 16.5396C3.271 16.5397 3.271 16.5398 3.271 16.5399C3.271 16.5401 3.271 16.5402 3.271 16.5403C3.271 16.5405 3.271 16.5406 3.271 16.5407C3.271 16.5408 3.271 16.541 3.271 16.5411C3.271 16.5412 3.271 16.5414 3.271 16.5415C3.271 16.5416 3.271 16.5417 3.271 16.5419C3.271 16.542 3.271 16.5421 3.271 16.5422C3.271 16.5424 3.271 16.5425 3.271 16.5426C3.271 16.5427 3.271 16.5429 3.271 16.543C3.271 16.5431 3.271 16.5432 3.271 16.5434C3.271 16.5435 3.271 16.5436 3.271 16.5437C3.271 16.5439 3.271 16.544 3.271 16.5441C3.271 16.5442 3.271 16.5443 3.271 16.5445C3.271 16.5446 3.271 16.5447 3.271 16.5448C3.271 16.545 3.271 16.5451 3.271 16.5452C3.271 16.5453 3.271 16.5454 3.271 16.5456C3.271 16.5457 3.271 16.5458 3.271 16.5459C3.271 16.546 3.271 16.5462 3.271 16.5463C3.271 16.5464 3.271 16.5465 3.271 16.5466C3.271 16.5468 3.271 16.5469 3.271 16.547C3.271 16.5471 3.271 16.5472 3.271 16.5473C3.271 16.5475 3.271 16.5476 3.271 16.5477C3.271 16.5478 3.271 16.5479 3.271 16.548C3.271 16.5482 3.271 16.5483 3.271 16.5484C3.271 16.5485 3.271 16.5486 3.271 16.5487C3.271 16.5489 3.271 16.549 3.271 16.5491C3.271 16.5492 3.271 16.5493 3.271 16.5494C3.271 16.5495 3.271 16.5497 3.271 16.5498C3.271 16.5499 3.271 16.55 3.271 16.5501C3.271 16.5502 3.271 16.5503 3.271 16.5505C3.271 16.5506 3.271 16.5507 3.271 16.5508C3.271 16.5509 3.271 16.551 3.271 16.5511C3.271 16.5512 3.271 16.5513 3.271 16.5515C3.271 16.5516 3.271 16.5517 3.271 16.5518C3.271 16.5519 3.271 16.552 3.271 16.5521C3.271 16.5522 3.271 16.5523 3.271 16.5524C3.271 16.5526 3.271 16.5527 3.271 16.5528C3.271 16.5529 3.271 16.553 3.271 16.5531C3.271 16.5532 3.271 16.5533 3.271 16.5534C3.271 16.5535 3.271 16.5536 3.271 16.5537C3.271 16.5538 3.271 16.554 3.271 16.5541C3.271 16.5542 3.271 16.5543 3.271 16.5544C3.271 16.5545 3.271 16.5546 3.271 16.5547C3.271 16.5548 3.271 16.5549 3.271 16.555C3.271 16.5551 3.271 16.5552 3.271 16.5553C3.271 16.5554 3.271 16.5555 3.271 16.5556C3.271 16.5557 3.271 16.5558 3.271 16.5559C3.271 16.556 3.271 16.5561 3.271 16.5562C3.271 16.5563 3.271 16.5564 3.271 16.5565C3.271 16.5566 3.271 16.5567 3.271 16.5568C3.271 16.5569 3.271 16.557 3.271 16.5571C3.271 16.5572 3.271 16.5573 3.271 16.5574C3.271 16.5575 3.271 16.5576 3.271 16.5577C3.271 16.5578 3.271 16.5579 3.271 16.558C3.271 16.5581 3.271 16.5582 3.271 16.5583C3.271 16.5584 3.271 16.5585 3.271 16.5586C3.271 16.5587 3.271 16.5588 3.271 16.5589C3.271 16.559 3.271 16.5591 3.271 16.5592C3.271 16.5593 3.271 16.5594 3.271 16.5595C3.271 16.5596 3.271 16.5597 3.271 16.5598C3.271 16.5599 3.271 16.56 3.271 16.5601C3.271 16.5602 3.271 16.5603 3.271 16.5603C3.271 16.5604 3.271 16.5605 3.271 16.5606C3.271 16.5607 3.271 16.5608 3.271 16.5609C3.271 16.561 3.271 16.5611 3.271 16.5612C3.271 16.5613 3.271 16.5614 3.271 16.5615C3.271 16.5616 3.271 16.5616 3.271 16.5617C3.271 16.5618 3.271 16.5619 3.271 16.562C3.271 16.5621 3.271 16.5622 3.271 16.5623C3.271 16.5624 3.271 16.5625 3.271 16.5625C3.271 16.5626 3.271 16.5627 3.271 16.5628C3.271 16.5629 3.271 16.563 3.271 16.5631C3.271 16.5632 3.271 16.5632 3.271 16.5633C3.271 16.5634 3.271 16.5635 3.271 16.5636C3.271 16.5637 3.271 16.5638 3.271 16.5639C3.271 16.5639 3.271 16.564 3.271 16.5641C3.271 16.5642 3.271 16.5643 3.271 16.5644C3.271 16.5645 3.271 16.5645 3.271 16.5646C3.271 16.5647 3.271 16.5648 3.271 16.5649C3.271 16.565 3.271 16.565 3.271 16.5651C3.271 16.5652 3.271 16.5653 3.271 16.5654C3.271 16.5655 3.271 16.5655 3.271 16.5656C3.271 16.5657 3.271 16.5658 3.271 16.5659C3.271 16.566 3.271 16.566 3.271 16.5661C3.271 16.5662 3.271 16.5663 3.271 16.5664C3.271 16.5664 3.271 16.5665 3.271 16.5666C3.271 16.5667 3.271 16.5668 3.271 16.5668C3.271 16.5669 3.271 16.567 3.271 16.5671C3.271 16.5672 3.271 16.5672 3.271 16.5673C3.271 16.5674 3.271 16.5675 3.271 16.5675C3.271 16.5676 3.271 16.5677 3.271 16.5678C3.271 16.5678 3.271 16.5679 3.271 16.568C3.271 16.5681 3.271 16.5682 3.271 16.5682C3.271 16.5683 3.271 16.5684 3.271 16.5685C3.271 16.5685 3.271 16.5686 3.271 16.5687C3.271 16.5688 3.271 16.5688 3.271 16.5689C3.271 16.569 3.271 16.5691 3.271 16.5691C3.271 16.5692 3.271 16.5693 3.271 16.5693C3.271 16.5694 3.271 16.5695 3.271 16.5696C3.271 16.5696 3.271 16.5697 3.271 16.5698C3.271 16.5698 3.271 16.5699 3.271 16.57C3.271 16.5701 3.271 16.5701 3.271 16.5702C3.271 16.5703 3.271 16.5703 3.271 16.5704C3.271 16.5705 3.271 16.5706 3.271 16.5706C3.271 16.5707 3.271 16.5708 3.271 16.5708C3.271 16.5709 3.271 16.571 3.271 16.571C3.271 16.5711 3.271 16.5712 3.271 16.5712C3.271 16.5713 3.271 16.5714 3.271 16.5714C3.271 16.5715 3.271 16.5716 3.271 16.5716C3.271 16.5717 3.271 16.5718 3.271 16.5718C3.271 16.5719 3.271 16.572 3.271 16.572C3.271 16.5721 3.271 16.5722 3.271 16.5722C3.271 16.5723 3.271 16.5724 3.271 16.5724C3.271 16.5725 3.271 16.5725 3.271 16.5726C3.271 16.5727 3.271 16.5727 3.271 16.5728C3.271 16.5729 3.271 16.5729 3.271 16.573C3.271 16.5731 3.271 16.5731 3.271 16.5732C3.271 16.5732 3.271 16.5733 3.271 16.5734C3.271 16.5734 3.271 16.5735 3.271 16.5735C3.271 16.5736 3.271 16.5737 3.271 16.5737C3.271 16.5738 3.271 16.5738 3.271 16.5739C3.271 16.574 3.271 16.574 3.271 16.5741C3.271 16.5741 3.271 16.5742 3.271 16.5743C3.271 16.5743 3.271 16.5744 3.271 16.5744C3.271 16.5745 3.271 16.5745 3.271 16.5746C3.271 16.5747 3.271 16.5747 3.271 16.5748C3.271 16.5748 3.271 16.5749 3.271 16.5749C3.271 16.575 3.271 16.5751 3.271 16.5751C3.271 16.5752 3.271 16.5752 3.271 16.5753C3.271 16.5753 3.271 16.5754 3.271 16.5754C3.271 16.5755 3.271 16.5755 3.271 16.5756C3.271 16.5757 3.271 16.5757 3.271 16.5758C3.271 16.5758 3.271 16.5759 3.271 16.5759C3.271 16.576 3.271 16.576 3.271 16.5761C3.271 16.5761 3.271 16.5762 3.271 16.5762C3.271 16.5763 3.271 16.5763 3.271 16.5764C3.271 16.5764 3.271 16.5765 3.271 16.5765C3.271 16.5766 3.271 16.5766 3.271 16.5767C3.271 16.5767 3.271 16.5768 3.271 16.5768C3.271 16.5769 3.271 16.5769 3.271 16.577C3.271 16.577 3.271 16.5771 3.271 16.5771C3.271 16.5772 3.271 16.5772 3.271 16.5773C3.271 16.5773 3.271 16.5774 3.271 16.5774C3.271 16.5774 3.271 16.5775 3.271 16.5775C3.271 16.5776 3.271 16.5776 3.271 16.5777C3.271 16.5777 3.271 16.5778 3.271 16.5778C3.271 16.5779 3.271 16.5779 3.271 16.5779C3.271 16.578 3.271 16.578 3.271 16.5781C3.271 16.5781 3.271 16.5782 3.271 16.5782C3.271 16.5783 3.271 16.5783 3.271 16.5783C3.271 16.5784 3.271 16.5784 3.271 16.5785C3.271 16.5785 3.271 16.5785 3.271 16.5786C3.271 16.5786 3.271 16.5787 3.271 16.5787C3.271 16.5788 3.271 16.5788 3.271 16.5788C3.271 16.5789 3.271 16.5789 3.271 16.579C3.271 16.579 3.271 16.579 3.271 16.5791C3.271 16.5791 3.271 16.5791 3.271 16.5792C3.271 16.5792 3.271 16.5793 3.271 16.5793C3.271 16.5793 3.271 16.5794 3.271 16.5794C3.271 16.5795 3.271 16.5795 3.271 16.5795C3.271 16.5796 3.271 16.5796 3.271 16.5796C3.271 16.5797 3.271 16.5797 3.271 16.5797C3.271 16.5798 3.271 16.5798 3.271 16.5798C3.271 16.5799 3.271 16.5799 3.271 16.58C3.271 16.58 3.271 16.58 3.271 16.5801C3.271 16.5801 3.271 16.5801 3.271 16.5802C3.271 16.5802 3.271 16.5802 3.271 16.5803C3.271 16.5803 3.271 16.5803 3.271 16.5803C3.271 16.5804 3.271 16.5804 3.271 16.5804C3.271 16.5805 3.271 16.5805 3.271 16.5805C3.271 16.5806 3.271 16.5806 3.271 16.5806C3.271 16.5807 3.271 16.5807 3.271 16.5807C3.271 16.5808 3.271 16.5808 3.271 16.5808C3.271 16.5808 3.271 16.5809 3.271 16.5809C3.271 16.5809 3.271 16.581 3.271 16.581C3.271 16.581 3.271 16.581 3.271 16.5811C3.271 16.5811 3.271 16.5811 3.271 16.5811C3.271 16.5812 3.271 16.5812 3.271 16.5812C3.271 16.5813 3.271 16.5813 3.271 16.5813C3.271 16.5813 3.271 16.5814 3.271 16.5814C3.271 16.5814 3.271 16.5814 3.271 16.5815C3.271 16.5815 3.271 16.5815 3.271 16.5815C3.271 16.5815 3.271 16.5816 3.271 16.5816C3.271 16.5816 3.271 16.5816 3.271 16.5817C3.271 16.5817 3.271 16.5817 3.271 16.5817C3.271 16.5818 3.271 16.5818 3.271 16.5818C3.271 16.5818 3.271 16.5818 3.271 16.5819C3.271 16.5819 3.271 16.5819 3.271 16.5819C3.271 16.5819 3.271 16.582 3.271 16.582C3.271 16.582 3.271 16.582 3.271 16.582C3.271 16.5821 3.271 16.5821 3.271 16.5821C3.271 16.5821 3.271 16.5821 3.271 16.5822C3.271 16.5822 3.271 16.5822 3.271 16.5822C3.271 16.5822 3.271 16.5822 3.271 16.5823C3.271 16.5823 3.271 16.5823 3.271 16.5823C3.271 16.5823 3.271 16.5823 3.271 16.5824C3.271 16.5824 3.271 16.5824 3.271 16.5824C3.271 16.5824 3.271 16.5824 3.271 16.5824C3.271 16.5825 3.271 16.5825 3.271 16.5825C3.271 16.5825 3.271 16.5825 3.271 16.5825C3.271 16.5825 3.271 16.5826 3.271 16.5826C3.271 16.5826 3.271 16.5826 3.271 16.5826C3.271 16.5826 3.271 16.5826 3.271 16.5826C3.271 16.5827 3.271 16.5827 3.271 16.5827C3.271 16.5827 3.271 16.5827 3.271 16.5827C3.271 16.5827 3.271 16.5827 3.271 16.5827C3.271 16.5828 3.271 16.5828 3.271 16.5828C3.271 16.5828 3.271 16.5828 3.271 16.5828C3.271 16.5828 3.271 16.5828 3.271 16.5828C3.271 16.5828 3.271 16.5828 3.271 16.5828C3.271 16.5829 3.271 16.5829 3.271 16.5829C3.271 16.5829 3.271 16.5829 3.271 16.5829C3.271 16.5829 3.271 16.5829 3.271 16.5829C3.271 16.5829 3.271 16.5829 3.271 16.5829C3.271 16.5829 3.271 16.5829 3.271 16.5829C3.271 16.5829 3.271 16.5829 3.271 16.5829C3.271 16.583 3.271 16.583 3.271 16.583C3.271 16.583 3.271 16.583 3.271 16.583C3.271 16.583 3.271 16.583 3.271 16.583C3.271 16.583 3.271 16.583 3.271 16.583C3.271 16.583 3.271 16.583 3.271 16.583C3.271 16.583 3.271 16.583 3.271 16.583C3.271 16.583 3.271 16.583 4.271 16.583ZM5.271 16.354C5.271 16.3537 5.271 16.3534 5.271 16.3531C5.271 16.3528 5.271 16.3525 5.271 16.3522C5.271 16.3519 5.271 16.3516 5.271 16.3513C5.271 16.351 5.271 16.3507 5.271 16.3504C5.271 16.3501 5.271 16.3498 5.271 16.3495C5.271 16.3492 5.271 16.3489 5.271 16.3486C5.271 16.3483 5.271 16.348 5.271 16.3477C5.271 16.3474 5.271 16.3471 5.271 16.3468C5.271 16.3465 5.271 16.3462 5.271 16.3459C5.271 16.3456 5.271 16.3453 5.271 16.345C5.271 16.3447 5.271 16.3444 5.271 16.3441C5.271 16.3438 5.271 16.3435 5.271 16.3432C5.271 16.3429 5.271 16.3426 5.271 16.3423C5.271 16.342 5.271 16.3417 5.271 16.3414C5.271 16.3411 5.271 16.3408 5.271 16.3405C5.271 16.3402 5.271 16.3399 5.271 16.3396C5.271 16.3393 5.271 16.339 5.271 16.3386C5.271 16.3383 5.271 16.338 5.271 16.3377C5.271 16.3374 5.271 16.3371 5.271 16.3368C5.271 16.3365 5.271 16.3362 5.271 16.3359C5.271 16.3356 5.271 16.3353 5.271 16.335C5.271 16.3347 5.271 16.3344 5.271 16.3341C5.271 16.3338 5.271 16.3335 5.271 16.3332C5.271 16.3329 5.271 16.3326 5.271 16.3322C5.271 16.3319 5.271 16.3316 5.271 16.3313C5.271 16.331 5.271 16.3307 5.271 16.3304C5.271 16.3301 5.271 16.3298 5.271 16.3295C5.271 16.3292 5.271 16.3289 5.271 16.3286C5.271 16.3283 5.271 16.328 5.271 16.3277C5.271 16.3273 5.271 16.327 5.271 16.3267C5.271 16.3264 5.271 16.3261 5.271 16.3258C5.271 16.3255 5.271 16.3252 5.271 16.3249C5.271 16.3246 5.271 16.3243 5.271 16.324C5.271 16.3236 5.271 16.3233 5.271 16.323C5.271 16.3227 5.271 16.3224 5.271 16.3221C5.271 16.3218 5.271 16.3215 5.271 16.3212C5.271 16.3209 5.271 16.3206 5.271 16.3202C5.271 16.3199 5.271 16.3196 5.271 16.3193C5.271 16.319 5.271 16.3187 5.271 16.3184C5.271 16.3181 5.271 16.3178 5.271 16.3174C5.271 16.3171 5.271 16.3168 5.271 16.3165C5.271 16.3162 5.271 16.3159 5.271 16.3156C5.271 16.3153 5.271 16.315 5.271 16.3146C5.271 16.3143 5.271 16.314 5.271 16.3137C5.271 16.3134 5.271 16.3131 5.271 16.3128C5.271 16.3125 5.271 16.3121 5.271 16.3118C5.271 16.3115 5.271 16.3112 5.271 16.3109C5.271 16.3106 5.271 16.3103 5.271 16.31C5.271 16.3096 5.271 16.3093 5.271 16.309C5.271 16.3087 5.271 16.3084 5.271 16.3081C5.271 16.3078 5.271 16.3074 5.271 16.3071C5.271 16.3068 5.271 16.3065 5.271 16.3062C5.271 16.3059 5.271 16.3056 5.271 16.3052C5.271 16.3049 5.271 16.3046 5.271 16.3043C5.271 16.304 5.271 16.3037 5.271 16.3034C5.271 16.303 5.271 16.3027 5.271 16.3024C5.271 16.3021 5.271 16.3018 5.271 16.3015C5.271 16.3011 5.271 16.3008 5.271 16.3005C5.271 16.3002 5.271 16.2999 5.271 16.2996C5.271 16.2992 5.271 16.2989 5.271 16.2986C5.271 16.2983 5.271 16.298 5.271 16.2977C5.271 16.2973 5.271 16.297 5.271 16.2967C5.271 16.2964 5.271 16.2961 5.271 16.2957C5.271 16.2954 5.271 16.2951 5.271 16.2948C5.271 16.2945 5.271 16.2942 5.271 16.2938C5.271 16.2935 5.271 16.2932 5.271 16.2929C5.271 16.2926 5.271 16.2922 5.271 16.2919C5.271 16.2916 5.271 16.2913 5.271 16.291C5.271 16.2906 5.271 16.2903 5.271 16.29C5.271 16.2897 5.271 16.2894 5.271 16.289C5.271 16.2887 5.271 16.2884 5.271 16.2881C5.271 16.2878 5.271 16.2874 5.271 16.2871C5.271 16.2868 5.271 16.2865 5.271 16.2862C5.271 16.2858 5.271 16.2855 5.271 16.2852C5.271 16.2849 5.271 16.2845 5.271 16.2842C5.271 16.2839 5.271 16.2836 5.271 16.2833C5.271 16.2829 5.271 16.2826 5.271 16.2823C5.271 16.282 5.271 16.2816 5.271 16.2813C5.271 16.281 5.271 16.2807 5.271 16.2803C5.271 16.28 5.271 16.2797 5.271 16.2794C5.271 16.2791 5.271 16.2787 5.271 16.2784C5.271 16.2781 5.271 16.2778 5.271 16.2774C5.271 16.2771 5.271 16.2768 5.271 16.2765C5.271 16.2761 5.271 16.2758 5.271 16.2755C5.271 16.2752 5.271 16.2748 5.271 16.2745C5.271 16.2742 5.271 16.2739 5.271 16.2735C5.271 16.2732 5.271 16.2729 5.271 16.2726C5.271 16.2722 5.271 16.2719 5.271 16.2716C5.271 16.2713 5.271 16.2709 5.271 16.2706C5.271 16.2703 5.271 16.2699 5.271 16.2696C5.271 16.2693 5.271 16.269 5.271 16.2686C5.271 16.2683 5.271 16.268 5.271 16.2677C5.271 16.2673 5.271 16.267 5.271 16.2667C5.271 16.2663 5.271 16.266 5.271 16.2657C5.271 16.2654 5.271 16.265 5.271 16.2647C5.271 16.2644 5.271 16.2641 5.271 16.2637C5.271 16.2634 5.271 16.2631 5.271 16.2627C5.271 16.2624 5.271 16.2621 5.271 16.2617C5.271 16.2614 5.271 16.2611 5.271 16.2608C5.271 16.2604 5.271 16.2601 5.271 16.2598C5.271 16.2594 5.271 16.2591 5.271 16.2588C5.271 16.2585 5.271 16.2581 5.271 16.2578C5.271 16.2575 5.271 16.2571 5.271 16.2568C5.271 16.2565 5.271 16.2561 5.271 16.2558C5.271 16.2555 5.271 16.2551 5.271 16.2548C5.271 16.2545 5.271 16.2541 5.271 16.2538C5.271 16.2535 5.271 16.2532 5.271 16.2528C5.271 16.2525 5.271 16.2522 5.271 16.2518C5.271 16.2515 5.271 16.2512 5.271 16.2508C5.271 16.2505 5.271 16.2502 5.271 16.2498C5.271 16.2495 5.271 16.2492 5.271 16.2488C5.271 16.2485 5.271 16.2482 5.271 16.2478C5.271 16.2475 5.271 16.2472 5.271 16.2468C5.271 16.2465 5.271 16.2462 5.271 16.2458C5.271 16.2455 5.271 16.2451 5.271 16.2448C5.271 16.2445 5.271 16.2441 5.271 16.2438C5.271 16.2435 5.271 16.2431 5.271 16.2428C5.271 16.2425 5.271 16.2421 5.271 16.2418C5.271 16.2415 5.271 16.2411 5.271 16.2408C5.271 16.2405 5.271 16.2401 5.271 16.2398C5.271 16.2394 5.271 16.2391 5.271 16.2388C5.271 16.2384 5.271 16.2381 5.271 16.2378C5.271 16.2374 5.271 16.2371 5.271 16.2368C5.271 16.2364 5.271 16.2361 5.271 16.2357C5.271 16.2354 5.271 16.2351 5.271 16.2347C5.271 16.2344 5.271 16.234 5.271 16.2337C5.271 16.2334 5.271 16.233 5.271 16.2327C5.271 16.2324 5.271 16.232 5.271 16.2317C5.271 16.2313 5.271 16.231 5.271 16.2307C5.271 16.2303 5.271 16.23 5.271 16.2296C5.271 16.2293 5.271 16.229 5.271 16.2286C5.271 16.2283 5.271 16.2279 5.271 16.2276C5.271 16.2273 5.271 16.2269 5.271 16.2266C5.271 16.2262 5.271 16.2259 5.271 16.2256C5.271 16.2252 5.271 16.2249 5.271 16.2245C5.271 16.2242 5.271 16.2239 5.271 16.2235C5.271 16.2232 5.271 16.2228 5.271 16.2225C5.271 16.2221 5.271 16.2218 5.271 16.2215C5.271 16.2211 5.271 16.2208 5.271 16.2204C5.271 16.2201 5.271 16.2198 5.271 16.2194C5.271 16.2191 5.271 16.2187 5.271 16.2184C5.271 16.218 5.271 16.2177 5.271 16.2174C5.271 16.217 5.271 16.2167 5.271 16.2163C5.271 16.216 5.271 16.2156 5.271 16.2153C5.271 16.2149 5.271 16.2146 5.271 16.2143C5.271 16.2139 5.271 16.2136 5.271 16.2132C5.271 16.2129 5.271 16.2125 5.271 16.2122C5.271 16.2118 5.271 16.2115 5.271 16.2112C5.271 16.2108 5.271 16.2105 5.271 16.2101C5.271 16.2098 5.271 16.2094 5.271 16.2091C5.271 16.2087 5.271 16.2084 5.271 16.208C5.271 16.2077 5.271 16.2074 5.271 16.207C5.271 16.2067 5.271 16.2063 5.271 16.206C5.271 16.2056 5.271 16.2053 5.271 16.2049C5.271 16.2046 5.271 16.2042 5.271 16.2039C5.271 16.2035 5.271 16.2032 5.271 16.2028C5.271 16.2025 5.271 16.2021 5.271 16.2018C5.271 16.2014 5.271 16.2011 5.271 16.2008C5.271 16.2004 5.271 16.2001 5.271 16.1997C5.271 16.1994 5.271 16.199 5.271 16.1987C5.271 16.1983 5.271 16.198 5.271 16.1976C5.271 16.1973 5.271 16.1969 5.271 16.1966C5.271 16.1962 5.271 16.1959 5.271 16.1955C5.271 16.1952 5.271 16.1948 5.271 16.1945C5.271 16.1941 5.271 16.1938 5.271 16.1934C5.271 16.1931 5.271 16.1927 5.271 16.1924C5.271 16.192 5.271 16.1917 5.271 16.1913C5.271 16.191 5.271 16.1906 5.271 16.1903C5.271 16.1899 5.271 16.1895 5.271 16.1892C5.271 16.1888 5.271 16.1885 5.271 16.1881C5.271 16.1878 5.271 16.1874 5.271 16.1871C5.271 16.1867 5.271 16.1864 5.271 16.186C5.271 16.1857 5.271 16.1853 5.271 16.185C5.271 16.1846 5.271 16.1843 5.271 16.1839C5.271 16.1836 5.271 16.1832 5.271 16.1828C5.271 16.1825 5.271 16.1821 5.271 16.1818C5.271 16.1814 5.271 16.1811 5.271 16.1807C5.271 16.1804 5.271 16.18 5.271 16.1797C5.271 16.1793 5.271 16.1789 5.271 16.1786C5.271 16.1782 5.271 16.1779 5.271 16.1775C5.271 16.1772 5.271 16.1768 5.271 16.1765C5.271 16.1761 5.271 16.1757 5.271 16.1754C5.271 16.175 5.271 16.1747 5.271 16.1743C5.271 16.174 5.271 16.1736 5.271 16.1733C5.271 16.1729 5.271 16.1725 5.271 16.1722C5.271 16.1718 5.271 16.1715 5.271 16.1711C5.271 16.1708 5.271 16.1704 5.271 16.17C5.271 16.1697 5.271 16.1693 5.271 16.169C5.271 16.1686 5.271 16.1683 5.271 16.1679C5.271 16.1675 5.271 16.1672 5.271 16.1668C5.271 16.1665 5.271 16.1661 5.271 16.1657C5.271 16.1654 5.271 16.165 5.271 16.1647C5.271 16.1643 5.271 16.1639 5.271 16.1636C5.271 16.1632 5.271 16.1629 5.271 16.1625C5.271 16.1621 5.271 16.1618 5.271 16.1614C5.271 16.1611 5.271 16.1607 5.271 16.1603C5.271 16.16 5.271 16.1596 5.271 16.1593C5.271 16.1589 5.271 16.1585 5.271 16.1582C5.271 16.1578 5.271 16.1575 5.271 16.1571C5.271 16.1567 5.271 16.1564 5.271 16.156C5.271 16.1557 5.271 16.1553 5.271 16.1549C5.271 16.1546 5.271 16.1542 5.271 16.1538C5.271 16.1535 5.271 16.1531 5.271 16.1528C5.271 16.1524 5.271 16.152 5.271 16.1517C5.271 16.1513 5.271 16.1509 5.271 16.1506C5.271 16.1502 5.271 16.1498 5.271 16.1495C5.271 16.1491 5.271 16.1488 5.271 16.1484C5.271 16.148 5.271 16.1477 5.271 16.1473C5.271 16.1469 5.271 16.1466 5.271 16.1462C5.271 16.1458 5.271 16.1455 5.271 16.1451C5.271 16.1447 5.271 16.1444 5.271 16.144C5.271 16.1437 5.271 16.1433 5.271 16.1429C5.271 16.1426 5.271 16.1422 5.271 16.1418C5.271 16.1415 5.271 16.1411 5.271 16.1407C5.271 16.1404 5.271 16.14 5.271 16.1396C5.271 16.1393 5.271 16.1389 5.271 16.1385C5.271 16.1382 5.271 16.1378 5.271 16.1374C5.271 16.1371 5.271 16.1367 5.271 16.1363C5.271 16.136 5.271 16.1356 5.271 16.1352C5.271 16.1349 5.271 16.1345 5.271 16.1341C5.271 16.1337 5.271 16.1334 5.271 16.133C5.271 16.1326 5.271 16.1323 5.271 16.1319C5.271 16.1315 5.271 16.1312 5.271 16.1308C5.271 16.1304 5.271 16.1301 5.271 16.1297C5.271 16.1293 5.271 16.129 5.271 16.1286C5.271 16.1282 5.271 16.1278 5.271 16.1275C5.271 16.1271 5.271 16.1267 5.271 16.1264C5.271 16.126 5.271 16.1256 5.271 16.1253C5.271 16.1249 5.271 16.1245 5.271 16.1241C5.271 16.1238 5.271 16.1234 5.271 16.123C5.271 16.1227 5.271 16.1223 5.271 16.1219C5.271 16.1215 5.271 16.1212 5.271 16.1208C5.271 16.1204 5.271 16.1201 5.271 16.1197C5.271 16.1193 5.271 16.1189 5.271 16.1186C5.271 16.1182 5.271 16.1178 5.271 16.1174C5.271 16.1171 5.271 16.1167 5.271 16.1163C5.271 16.116 5.271 16.1156 5.271 16.1152C5.271 16.1148 5.271 16.1145 5.271 16.1141C5.271 16.1137 5.271 16.1133 5.271 16.113C5.271 16.1126 5.271 16.1122 5.271 16.1118C5.271 16.1115 5.271 16.1111 5.271 16.1107C5.271 16.1103 5.271 16.11 5.271 16.1096C5.271 16.1092 5.271 16.1088 5.271 16.1085C5.271 16.1081 5.271 16.1077 5.271 16.1073C5.271 16.107 5.271 16.1066 5.271 16.1062C5.271 16.1058 5.271 16.1055 5.271 16.1051C5.271 16.1047 5.271 16.1043 5.271 16.104C5.271 16.1036 5.271 16.1032 5.271 16.1028C5.271 16.1024 5.271 16.1021 5.271 16.1017C5.271 16.1013 5.271 16.1009 5.271 16.1006C5.271 16.1002 5.271 16.0998 5.271 16.0994C5.271 16.099 5.271 16.0987 5.271 16.0983C5.271 16.0979 5.271 16.0975 5.271 16.0972C5.271 16.0968 5.271 16.0964 5.271 16.096C5.271 16.0956 5.271 16.0953 5.271 16.0949C5.271 16.0945 5.271 16.0941 5.271 16.0937C5.271 16.0934 5.271 16.093 5.271 16.0926C5.271 16.0922 5.271 16.0918 5.271 16.0915C5.271 16.0911 5.271 16.0907 5.271 16.0903C5.271 16.0899 5.271 16.0896 5.271 16.0892C5.271 16.0888 5.271 16.0884 5.271 16.088C5.271 16.0877 5.271 16.0873 5.271 16.0869C5.271 16.0865 5.271 16.0861 5.271 16.0857C5.271 16.0854 5.271 16.085 5.271 16.0846C5.271 16.0842 5.271 16.0838 5.271 16.0835C5.271 16.0831 5.271 16.0827 5.271 16.0823C5.271 16.0819 5.271 16.0815 5.271 16.0812C5.271 16.0808 5.271 16.0804 5.271 16.08C5.271 16.0796 5.271 16.0792 5.271 16.0789C5.271 16.0785 5.271 16.0781 5.271 16.0777C5.271 16.0773 5.271 16.0769 5.271 16.0766C5.271 16.0762 5.271 16.0758 5.271 16.0754C5.271 16.075 5.271 16.0746 5.271 16.0742C5.271 16.0739 5.271 16.0735 5.271 16.0731C5.271 16.0727 5.271 16.0723 5.271 16.0719C5.271 16.0715 5.271 16.0712 5.271 16.0708C5.271 16.0704 5.271 16.07 5.271 16.0696C5.271 16.0692 5.271 16.0688 5.271 16.0685C5.271 16.0681 5.271 16.0677 5.271 16.0673C5.271 16.0669 5.271 16.0665 5.271 16.0661C5.271 16.0658 5.271 16.0654 5.271 16.065C5.271 16.0646 5.271 16.0642 5.271 16.0638C5.271 16.0634 5.271 16.063 5.271 16.0627C5.271 16.0623 5.271 16.0619 5.271 16.0615C5.271 16.0611 5.271 16.0607 5.271 16.0603C5.271 16.0599 5.271 16.0595 5.271 16.0592C5.271 16.0588 5.271 16.0584 5.271 16.058C5.271 16.0576 5.271 16.0572 5.271 16.0568C5.271 16.0564 5.271 16.056 5.271 16.0556C5.271 16.0553 5.271 16.0549 5.271 16.0545C5.271 16.0541 5.271 16.0537 5.271 16.0533C5.271 16.0529 5.271 16.0525 5.271 16.0521C5.271 16.0517 5.271 16.0513 5.271 16.051C5.271 16.0506 5.271 16.0502 5.271 16.0498C5.271 16.0494 5.271 16.049 5.271 16.0486C5.271 16.0482 5.271 16.0478 5.271 16.0474C5.271 16.047 5.271 16.0466 5.271 16.0463C5.271 16.0459 5.271 16.0455 5.271 16.0451C5.271 16.0447 5.271 16.0443 5.271 16.0439C5.271 16.0435 5.271 16.0431 5.271 16.0427C5.271 16.0423 5.271 16.0419 5.271 16.0415C5.271 16.0411 5.271 16.0407 5.271 16.0404C5.271 16.04 5.271 16.0396 5.271 16.0392C5.271 16.0388 5.271 16.0384 5.271 16.038C5.271 16.0376 5.271 16.0372 5.271 16.0368C5.271 16.0364 5.271 16.036 5.271 16.0356C5.271 16.0352 5.271 16.0348 5.271 16.0344C5.271 16.034 5.271 16.0336 5.271 16.0332C5.271 16.0328 5.271 16.0324 5.271 16.0321C5.271 16.0317 5.271 16.0313 5.271 16.0309C5.271 16.0305 5.271 16.0301 5.271 16.0297C5.271 16.0293 5.271 16.0289 5.271 16.0285C5.271 16.0281 5.271 16.0277 5.271 16.0273C5.271 16.0269 5.271 16.0265 5.271 16.0261C5.271 16.0257 5.271 16.0253 5.271 16.0249C5.271 16.0245 5.271 16.0241 5.271 16.0237C5.271 16.0233 5.271 16.0229 5.271 16.0225C5.271 16.0221 5.271 16.0217 5.271 16.0213C5.271 16.0209 5.271 16.0205 5.271 16.0201C5.271 16.0197 5.271 16.0193 5.271 16.0189C5.271 16.0185 5.271 16.0181 5.271 16.0177C5.271 16.0173 5.271 16.0169 5.271 16.0165C5.271 16.0161 5.271 16.0157 5.271 16.0153C5.271 16.0149 5.271 16.0145 5.271 16.0141C5.271 16.0137 5.271 16.0133 5.271 16.0129C5.271 16.0125 5.271 16.0121 5.271 16.0117C5.271 16.0113 5.271 16.0109 5.271 16.0105C5.271 16.0101 5.271 16.0097 5.271 16.0093C5.271 16.0089 5.271 16.0085 5.271 16.0081C5.271 16.0077 5.271 16.0073 5.271 16.0069C5.271 16.0065 5.271 16.0061 5.271 16.0057C5.271 16.0053 5.271 16.0049 5.271 16.0044C5.271 16.004 5.271 16.0036 5.271 16.0032C5.271 16.0028 5.271 16.0024 5.271 16.002C5.271 16.0016 5.271 16.0012 5.271 16.0008C5.271 16.0004 5.271 16 5.271 15.9996C5.271 15.9992 5.271 15.9988 5.271 15.9984C5.271 15.998 5.271 15.9976 5.271 15.9972C5.271 15.9968 5.271 15.9964 5.271 15.9959C5.271 15.9955 5.271 15.9951 5.271 15.9947C5.271 15.9943 5.271 15.9939 5.271 15.9935C5.271 15.9931 5.271 15.9927 5.271 15.9923C5.271 15.9919 5.271 15.9915 5.271 15.9911C5.271 15.9907 5.271 15.9903 5.271 15.9898C5.271 15.9894 5.271 15.989 5.271 15.9886C5.271 15.9882 5.271 15.9878 5.271 15.9874C5.271 15.987 5.271 15.9866 5.271 15.9862C5.271 15.9858 5.271 15.9854 5.271 15.9849C5.271 15.9845 5.271 15.9841 5.271 15.9837C5.271 15.9833 5.271 15.9829 5.271 15.9825C5.271 15.9821 5.271 15.9817 5.271 15.9813C5.271 15.9809 5.271 15.9804 5.271 15.98C5.271 15.9796 5.271 15.9792 5.271 15.9788C5.271 15.9784 5.271 15.978 5.271 15.9776C5.271 15.9772 5.271 15.9768 5.271 15.9763C5.271 15.9759 5.271 15.9755 5.271 15.9751C5.271 15.9747 5.271 15.9743 5.271 15.9739C5.271 15.9735 5.271 15.973 5.271 15.9726C5.271 15.9722 5.271 15.9718 5.271 15.9714C5.271 15.971 5.271 15.9706 5.271 15.9702C5.271 15.9698 5.271 15.9693 5.271 15.9689C5.271 15.9685 5.271 15.9681 5.271 15.9677C5.271 15.9673 5.271 15.9669 5.271 15.9664C5.271 15.966 5.271 15.9656 5.271 15.9652C5.271 15.9648 5.271 15.9644 5.271 15.964C5.271 15.9635 5.271 15.9631 5.271 15.9627C5.271 15.9623 5.271 15.9619 5.271 15.9615C5.271 15.9611 5.271 15.9606 5.271 15.9602C5.271 15.9598 5.271 15.9594 5.271 15.959C5.271 15.9586 5.271 15.9582 5.271 15.9577C5.271 15.9573 5.271 15.9569 5.271 15.9565C5.271 15.9561 5.271 15.9557 5.271 15.9552C5.271 15.9548 5.271 15.9544 5.271 15.954C5.271 15.9536 5.271 15.9532 5.271 15.9527C5.271 15.9523 5.271 15.9519 5.271 15.9515C5.271 15.9511 5.271 15.9507 5.271 15.9502C5.271 15.9498 5.271 15.9494 5.271 15.949C5.271 15.9486 5.271 15.9481 5.271 15.9477C5.271 15.9473 5.271 15.9469 5.271 15.9465C5.271 15.9461 5.271 15.9456 5.271 15.9452C5.271 15.9448 5.271 15.9444 5.271 15.944C5.271 15.9435 5.271 15.9431 5.271 15.9427C5.271 15.9423 5.271 15.9419 5.271 15.9414C5.271 15.941 5.271 15.9406 5.271 15.9402C5.271 15.9398 5.271 15.9393 5.271 15.9389C5.271 15.9385 5.271 15.9381 5.271 15.9377C5.271 15.9372 5.271 15.9368 5.271 15.9364C5.271 15.936 5.271 15.9356 5.271 15.9351C5.271 15.9347 5.271 15.9343 5.271 15.9339C5.271 15.9334 5.271 15.933 5.271 15.9326C5.271 15.9322 5.271 15.9318 5.271 15.9313C5.271 15.9309 5.271 15.9305 5.271 15.9301C5.271 15.9296 5.271 15.9292 5.271 15.9288C5.271 15.9284 5.271 15.9279 5.271 15.9275C5.271 15.9271 5.271 15.9267 5.271 15.9263C5.271 15.9258 5.271 15.9254 5.271 15.925C5.271 15.9246 5.271 15.9241 5.271 15.9237C5.271 15.9233 5.271 15.9229 5.271 15.9224C5.271 15.922 5.271 15.9216 5.271 15.9212C5.271 15.9207 5.271 15.9203 5.271 15.9199C5.271 15.9195 5.271 15.919 5.271 15.9186C5.271 15.9182 5.271 15.9178 5.271 15.9173C5.271 15.9169 5.271 15.9165 5.271 15.9161C5.271 15.9156 5.271 15.9152 5.271 15.9148C5.271 15.9143 5.271 15.9139 5.271 15.9135C5.271 15.9131 5.271 15.9126 5.271 15.9122C5.271 15.9118 5.271 15.9114 5.271 15.9109C5.271 15.9105 5.271 15.9101 5.271 15.9096C5.271 15.9092 5.271 15.9088 5.271 15.9084C5.271 15.9079 5.271 15.9075 5.271 15.9071C5.271 15.9066 5.271 15.9062 5.271 15.9058C5.271 15.9054 5.271 15.9049 5.271 15.9045C5.271 15.9041 5.271 15.9036 5.271 15.9032C5.271 15.9028 5.271 15.9024 5.271 15.9019C5.271 15.9015 5.271 15.9011 5.271 15.9006C5.271 15.9002 5.271 15.8998 5.271 15.8993C5.271 15.8989 5.271 15.8985 5.271 15.8981C5.271 15.8976 5.271 15.8972 5.271 15.8968C5.271 15.8963 5.271 15.8959 5.271 15.8955C5.271 15.895 5.271 15.8946 5.271 15.8942C5.271 15.8937 5.271 15.8933 5.271 15.8929C5.271 15.8924 5.271 15.892 5.271 15.8916C5.271 15.8912 5.271 15.8907 5.271 15.8903C5.271 15.8899 5.271 15.8894 5.271 15.889C5.271 15.8886 5.271 15.8881 5.271 15.8877C5.271 15.8873 5.271 15.8868 5.271 15.8864C5.271 15.886 5.271 15.8855 5.271 15.8851C5.271 15.8847 5.271 15.8842 5.271 15.8838C5.271 15.8833 5.271 15.8829 5.271 15.8825C5.271 15.882 5.271 15.8816 5.271 15.8812C5.271 15.8807 5.271 15.8803 5.271 15.8799C5.271 15.8794 5.271 15.879 5.271 15.8786C5.271 15.8781 5.271 15.8777 5.271 15.8773C5.271 15.8768 5.271 15.8764 5.271 15.876C5.271 15.8755 5.271 15.8751 5.271 15.8746C5.271 15.8742 5.271 15.8738 5.271 15.8733C5.271 15.8729 5.271 15.8725 5.271 15.872C5.271 15.8716 5.271 15.8711 5.271 15.8707C5.271 15.8703 5.271 15.8698 5.271 15.8694C5.271 15.869 5.271 15.8685 5.271 15.8681C5.271 15.8676 5.271 15.8672 5.271 15.8668C5.271 15.8663 5.271 15.8659 5.271 15.8655C5.271 15.865 5.271 15.8646 5.271 15.8641C5.271 15.8637 5.271 15.8633 5.271 15.8628C5.271 15.8624 5.271 15.8619 5.271 15.8615C5.271 15.8611 5.271 15.8606 5.271 15.8602C5.271 15.8597 5.271 15.8593 5.271 15.8589C5.271 15.8584 5.271 15.858 5.271 15.8575C5.271 15.8571 5.271 15.8567 5.271 15.8562C5.271 15.8558 5.271 15.8553 5.271 15.8549C5.271 15.8545 5.271 15.854 5.271 15.8536C5.271 15.8531 5.271 15.8527 5.271 15.8522C5.271 15.8518 5.271 15.8514 5.271 15.8509C5.271 15.8505 5.271 15.85 5.271 15.8496C5.271 15.8491 5.271 15.8487 5.271 15.8483C5.271 15.8478 5.271 15.8474 5.271 15.8469C5.271 15.8465 5.271 15.846 5.271 15.8456C5.271 15.8452 5.271 15.8447 5.271 15.8443C5.271 15.8438 5.271 15.8434 5.271 15.8429C5.271 15.8425 5.271 15.8421 5.271 15.8416C5.271 15.8412 5.271 15.8407 5.271 15.8403C5.271 15.8398 5.271 15.8394 5.271 15.8389C5.271 15.8385 5.271 15.8381 5.271 15.8376C5.271 15.8372 5.271 15.8367 5.271 15.8363C5.271 15.8358 5.271 15.8354 5.271 15.8349C5.271 15.8345 5.271 15.834 5.271 15.8336C5.271 15.8331 5.271 15.8327 5.271 15.8323C5.271 15.8318 5.271 15.8314 5.271 15.8309C5.271 15.8305 5.271 15.83 5.271 15.8296C5.271 15.8291 5.271 15.8287 5.271 15.8282C5.271 15.8278 5.271 15.8273 5.271 15.8269C5.271 15.8264 5.271 15.826 5.271 15.8255C5.271 15.8251 5.271 15.8246 5.271 15.8242C5.271 15.8237 5.271 15.8233 5.271 15.8229C5.271 15.8224 5.271 15.822 5.271 15.8215C5.271 15.8211 5.271 15.8206 5.271 15.8202C5.271 15.8197 5.271 15.8193 5.271 15.8188C5.271 15.8184 5.271 15.8179 5.271 15.8175C5.271 15.817 5.271 15.8166 5.271 15.8161C5.271 15.8157 5.271 15.8152 5.271 15.8148C5.271 15.8143 5.271 15.8139 5.271 15.8134C5.271 15.813 5.271 15.8125 5.271 15.812C5.271 15.8116 5.271 15.8111 5.271 15.8107C5.271 15.8102 5.271 15.8098 5.271 15.8093C5.271 15.8089 5.271 15.8084 5.271 15.808C5.271 15.8075 5.271 15.8071 5.271 15.8066C5.271 15.8062 5.271 15.8057 5.271 15.8053C5.271 15.8048 5.271 15.8044 5.271 15.8039C5.271 15.8035 5.271 15.803 5.271 15.8025C5.271 15.8021 5.271 15.8016 5.271 15.8012C5.271 15.8007 5.271 15.8003 5.271 15.7998C5.271 15.7994 5.271 15.7989 5.271 15.7985C5.271 15.798 5.271 15.7975 5.271 15.7971C5.271 15.7966 5.271 15.7962 5.271 15.7957C5.271 15.7953 5.271 15.7948 5.271 15.7944C5.271 15.7939 5.271 15.7935 5.271 15.793C5.271 15.7925 5.271 15.7921 5.271 15.7916C5.271 15.7912 5.271 15.7907 5.271 15.7903C5.271 15.7898 5.271 15.7893 5.271 15.7889C5.271 15.7884 5.271 15.788 5.271 15.7875C5.271 15.7871 5.271 15.7866 5.271 15.7861C5.271 15.7857 5.271 15.7852 5.271 15.7848C5.271 15.7843 5.271 15.7839 5.271 15.7834C5.271 15.7829 5.271 15.7825 5.271 15.782C5.271 15.7816 5.271 15.7811 5.271 15.7806C5.271 15.7802 5.271 15.7797 5.271 15.7793C5.271 15.7788 5.271 15.7784 5.271 15.7779C5.271 15.7774 5.271 15.777 5.271 15.7765C5.271 15.7761 5.271 15.7756 5.271 15.7751C5.271 15.7747 5.271 15.7742 5.271 15.7738C5.271 15.7733 5.271 15.7728 5.271 15.7724C5.271 15.7719 5.271 15.7715 5.271 15.771H3.271C3.271 15.7715 3.271 15.7719 3.271 15.7724C3.271 15.7728 3.271 15.7733 3.271 15.7738C3.271 15.7742 3.271 15.7747 3.271 15.7751C3.271 15.7756 3.271 15.7761 3.271 15.7765C3.271 15.777 3.271 15.7774 3.271 15.7779C3.271 15.7784 3.271 15.7788 3.271 15.7793C3.271 15.7797 3.271 15.7802 3.271 15.7806C3.271 15.7811 3.271 15.7816 3.271 15.782C3.271 15.7825 3.271 15.7829 3.271 15.7834C3.271 15.7839 3.271 15.7843 3.271 15.7848C3.271 15.7852 3.271 15.7857 3.271 15.7861C3.271 15.7866 3.271 15.7871 3.271 15.7875C3.271 15.788 3.271 15.7884 3.271 15.7889C3.271 15.7893 3.271 15.7898 3.271 15.7903C3.271 15.7907 3.271 15.7912 3.271 15.7916C3.271 15.7921 3.271 15.7925 3.271 15.793C3.271 15.7935 3.271 15.7939 3.271 15.7944C3.271 15.7948 3.271 15.7953 3.271 15.7957C3.271 15.7962 3.271 15.7966 3.271 15.7971C3.271 15.7975 3.271 15.798 3.271 15.7985C3.271 15.7989 3.271 15.7994 3.271 15.7998C3.271 15.8003 3.271 15.8007 3.271 15.8012C3.271 15.8016 3.271 15.8021 3.271 15.8025C3.271 15.803 3.271 15.8035 3.271 15.8039C3.271 15.8044 3.271 15.8048 3.271 15.8053C3.271 15.8057 3.271 15.8062 3.271 15.8066C3.271 15.8071 3.271 15.8075 3.271 15.808C3.271 15.8084 3.271 15.8089 3.271 15.8093C3.271 15.8098 3.271 15.8102 3.271 15.8107C3.271 15.8111 3.271 15.8116 3.271 15.812C3.271 15.8125 3.271 15.813 3.271 15.8134C3.271 15.8139 3.271 15.8143 3.271 15.8148C3.271 15.8152 3.271 15.8157 3.271 15.8161C3.271 15.8166 3.271 15.817 3.271 15.8175C3.271 15.8179 3.271 15.8184 3.271 15.8188C3.271 15.8193 3.271 15.8197 3.271 15.8202C3.271 15.8206 3.271 15.8211 3.271 15.8215C3.271 15.822 3.271 15.8224 3.271 15.8229C3.271 15.8233 3.271 15.8237 3.271 15.8242C3.271 15.8246 3.271 15.8251 3.271 15.8255C3.271 15.826 3.271 15.8264 3.271 15.8269C3.271 15.8273 3.271 15.8278 3.271 15.8282C3.271 15.8287 3.271 15.8291 3.271 15.8296C3.271 15.83 3.271 15.8305 3.271 15.8309C3.271 15.8314 3.271 15.8318 3.271 15.8323C3.271 15.8327 3.271 15.8331 3.271 15.8336C3.271 15.834 3.271 15.8345 3.271 15.8349C3.271 15.8354 3.271 15.8358 3.271 15.8363C3.271 15.8367 3.271 15.8372 3.271 15.8376C3.271 15.8381 3.271 15.8385 3.271 15.8389C3.271 15.8394 3.271 15.8398 3.271 15.8403C3.271 15.8407 3.271 15.8412 3.271 15.8416C3.271 15.8421 3.271 15.8425 3.271 15.8429C3.271 15.8434 3.271 15.8438 3.271 15.8443C3.271 15.8447 3.271 15.8452 3.271 15.8456C3.271 15.846 3.271 15.8465 3.271 15.8469C3.271 15.8474 3.271 15.8478 3.271 15.8483C3.271 15.8487 3.271 15.8491 3.271 15.8496C3.271 15.85 3.271 15.8505 3.271 15.8509C3.271 15.8514 3.271 15.8518 3.271 15.8522C3.271 15.8527 3.271 15.8531 3.271 15.8536C3.271 15.854 3.271 15.8545 3.271 15.8549C3.271 15.8553 3.271 15.8558 3.271 15.8562C3.271 15.8567 3.271 15.8571 3.271 15.8575C3.271 15.858 3.271 15.8584 3.271 15.8589C3.271 15.8593 3.271 15.8597 3.271 15.8602C3.271 15.8606 3.271 15.8611 3.271 15.8615C3.271 15.8619 3.271 15.8624 3.271 15.8628C3.271 15.8633 3.271 15.8637 3.271 15.8641C3.271 15.8646 3.271 15.865 3.271 15.8655C3.271 15.8659 3.271 15.8663 3.271 15.8668C3.271 15.8672 3.271 15.8676 3.271 15.8681C3.271 15.8685 3.271 15.869 3.271 15.8694C3.271 15.8698 3.271 15.8703 3.271 15.8707C3.271 15.8711 3.271 15.8716 3.271 15.872C3.271 15.8725 3.271 15.8729 3.271 15.8733C3.271 15.8738 3.271 15.8742 3.271 15.8746C3.271 15.8751 3.271 15.8755 3.271 15.876C3.271 15.8764 3.271 15.8768 3.271 15.8773C3.271 15.8777 3.271 15.8781 3.271 15.8786C3.271 15.879 3.271 15.8794 3.271 15.8799C3.271 15.8803 3.271 15.8807 3.271 15.8812C3.271 15.8816 3.271 15.882 3.271 15.8825C3.271 15.8829 3.271 15.8833 3.271 15.8838C3.271 15.8842 3.271 15.8847 3.271 15.8851C3.271 15.8855 3.271 15.886 3.271 15.8864C3.271 15.8868 3.271 15.8873 3.271 15.8877C3.271 15.8881 3.271 15.8886 3.271 15.889C3.271 15.8894 3.271 15.8899 3.271 15.8903C3.271 15.8907 3.271 15.8912 3.271 15.8916C3.271 15.892 3.271 15.8924 3.271 15.8929C3.271 15.8933 3.271 15.8937 3.271 15.8942C3.271 15.8946 3.271 15.895 3.271 15.8955C3.271 15.8959 3.271 15.8963 3.271 15.8968C3.271 15.8972 3.271 15.8976 3.271 15.8981C3.271 15.8985 3.271 15.8989 3.271 15.8993C3.271 15.8998 3.271 15.9002 3.271 15.9006C3.271 15.9011 3.271 15.9015 3.271 15.9019C3.271 15.9024 3.271 15.9028 3.271 15.9032C3.271 15.9036 3.271 15.9041 3.271 15.9045C3.271 15.9049 3.271 15.9054 3.271 15.9058C3.271 15.9062 3.271 15.9066 3.271 15.9071C3.271 15.9075 3.271 15.9079 3.271 15.9084C3.271 15.9088 3.271 15.9092 3.271 15.9096C3.271 15.9101 3.271 15.9105 3.271 15.9109C3.271 15.9114 3.271 15.9118 3.271 15.9122C3.271 15.9126 3.271 15.9131 3.271 15.9135C3.271 15.9139 3.271 15.9143 3.271 15.9148C3.271 15.9152 3.271 15.9156 3.271 15.9161C3.271 15.9165 3.271 15.9169 3.271 15.9173C3.271 15.9178 3.271 15.9182 3.271 15.9186C3.271 15.919 3.271 15.9195 3.271 15.9199C3.271 15.9203 3.271 15.9207 3.271 15.9212C3.271 15.9216 3.271 15.922 3.271 15.9224C3.271 15.9229 3.271 15.9233 3.271 15.9237C3.271 15.9241 3.271 15.9246 3.271 15.925C3.271 15.9254 3.271 15.9258 3.271 15.9263C3.271 15.9267 3.271 15.9271 3.271 15.9275C3.271 15.9279 3.271 15.9284 3.271 15.9288C3.271 15.9292 3.271 15.9296 3.271 15.9301C3.271 15.9305 3.271 15.9309 3.271 15.9313C3.271 15.9318 3.271 15.9322 3.271 15.9326C3.271 15.933 3.271 15.9334 3.271 15.9339C3.271 15.9343 3.271 15.9347 3.271 15.9351C3.271 15.9356 3.271 15.936 3.271 15.9364C3.271 15.9368 3.271 15.9372 3.271 15.9377C3.271 15.9381 3.271 15.9385 3.271 15.9389C3.271 15.9393 3.271 15.9398 3.271 15.9402C3.271 15.9406 3.271 15.941 3.271 15.9414C3.271 15.9419 3.271 15.9423 3.271 15.9427C3.271 15.9431 3.271 15.9435 3.271 15.944C3.271 15.9444 3.271 15.9448 3.271 15.9452C3.271 15.9456 3.271 15.9461 3.271 15.9465C3.271 15.9469 3.271 15.9473 3.271 15.9477C3.271 15.9481 3.271 15.9486 3.271 15.949C3.271 15.9494 3.271 15.9498 3.271 15.9502C3.271 15.9507 3.271 15.9511 3.271 15.9515C3.271 15.9519 3.271 15.9523 3.271 15.9527C3.271 15.9532 3.271 15.9536 3.271 15.954C3.271 15.9544 3.271 15.9548 3.271 15.9552C3.271 15.9557 3.271 15.9561 3.271 15.9565C3.271 15.9569 3.271 15.9573 3.271 15.9577C3.271 15.9582 3.271 15.9586 3.271 15.959C3.271 15.9594 3.271 15.9598 3.271 15.9602C3.271 15.9606 3.271 15.9611 3.271 15.9615C3.271 15.9619 3.271 15.9623 3.271 15.9627C3.271 15.9631 3.271 15.9635 3.271 15.964C3.271 15.9644 3.271 15.9648 3.271 15.9652C3.271 15.9656 3.271 15.966 3.271 15.9664C3.271 15.9669 3.271 15.9673 3.271 15.9677C3.271 15.9681 3.271 15.9685 3.271 15.9689C3.271 15.9693 3.271 15.9698 3.271 15.9702C3.271 15.9706 3.271 15.971 3.271 15.9714C3.271 15.9718 3.271 15.9722 3.271 15.9726C3.271 15.973 3.271 15.9735 3.271 15.9739C3.271 15.9743 3.271 15.9747 3.271 15.9751C3.271 15.9755 3.271 15.9759 3.271 15.9763C3.271 15.9768 3.271 15.9772 3.271 15.9776C3.271 15.978 3.271 15.9784 3.271 15.9788C3.271 15.9792 3.271 15.9796 3.271 15.98C3.271 15.9804 3.271 15.9809 3.271 15.9813C3.271 15.9817 3.271 15.9821 3.271 15.9825C3.271 15.9829 3.271 15.9833 3.271 15.9837C3.271 15.9841 3.271 15.9845 3.271 15.9849C3.271 15.9854 3.271 15.9858 3.271 15.9862C3.271 15.9866 3.271 15.987 3.271 15.9874C3.271 15.9878 3.271 15.9882 3.271 15.9886C3.271 15.989 3.271 15.9894 3.271 15.9898C3.271 15.9903 3.271 15.9907 3.271 15.9911C3.271 15.9915 3.271 15.9919 3.271 15.9923C3.271 15.9927 3.271 15.9931 3.271 15.9935C3.271 15.9939 3.271 15.9943 3.271 15.9947C3.271 15.9951 3.271 15.9955 3.271 15.9959C3.271 15.9964 3.271 15.9968 3.271 15.9972C3.271 15.9976 3.271 15.998 3.271 15.9984C3.271 15.9988 3.271 15.9992 3.271 15.9996C3.271 16 3.271 16.0004 3.271 16.0008C3.271 16.0012 3.271 16.0016 3.271 16.002C3.271 16.0024 3.271 16.0028 3.271 16.0032C3.271 16.0036 3.271 16.004 3.271 16.0044C3.271 16.0049 3.271 16.0053 3.271 16.0057C3.271 16.0061 3.271 16.0065 3.271 16.0069C3.271 16.0073 3.271 16.0077 3.271 16.0081C3.271 16.0085 3.271 16.0089 3.271 16.0093C3.271 16.0097 3.271 16.0101 3.271 16.0105C3.271 16.0109 3.271 16.0113 3.271 16.0117C3.271 16.0121 3.271 16.0125 3.271 16.0129C3.271 16.0133 3.271 16.0137 3.271 16.0141C3.271 16.0145 3.271 16.0149 3.271 16.0153C3.271 16.0157 3.271 16.0161 3.271 16.0165C3.271 16.0169 3.271 16.0173 3.271 16.0177C3.271 16.0181 3.271 16.0185 3.271 16.0189C3.271 16.0193 3.271 16.0197 3.271 16.0201C3.271 16.0205 3.271 16.0209 3.271 16.0213C3.271 16.0217 3.271 16.0221 3.271 16.0225C3.271 16.0229 3.271 16.0233 3.271 16.0237C3.271 16.0241 3.271 16.0245 3.271 16.0249C3.271 16.0253 3.271 16.0257 3.271 16.0261C3.271 16.0265 3.271 16.0269 3.271 16.0273C3.271 16.0277 3.271 16.0281 3.271 16.0285C3.271 16.0289 3.271 16.0293 3.271 16.0297C3.271 16.0301 3.271 16.0305 3.271 16.0309C3.271 16.0313 3.271 16.0317 3.271 16.0321C3.271 16.0324 3.271 16.0328 3.271 16.0332C3.271 16.0336 3.271 16.034 3.271 16.0344C3.271 16.0348 3.271 16.0352 3.271 16.0356C3.271 16.036 3.271 16.0364 3.271 16.0368C3.271 16.0372 3.271 16.0376 3.271 16.038C3.271 16.0384 3.271 16.0388 3.271 16.0392C3.271 16.0396 3.271 16.04 3.271 16.0404C3.271 16.0407 3.271 16.0411 3.271 16.0415C3.271 16.0419 3.271 16.0423 3.271 16.0427C3.271 16.0431 3.271 16.0435 3.271 16.0439C3.271 16.0443 3.271 16.0447 3.271 16.0451C3.271 16.0455 3.271 16.0459 3.271 16.0463C3.271 16.0466 3.271 16.047 3.271 16.0474C3.271 16.0478 3.271 16.0482 3.271 16.0486C3.271 16.049 3.271 16.0494 3.271 16.0498C3.271 16.0502 3.271 16.0506 3.271 16.051C3.271 16.0513 3.271 16.0517 3.271 16.0521C3.271 16.0525 3.271 16.0529 3.271 16.0533C3.271 16.0537 3.271 16.0541 3.271 16.0545C3.271 16.0549 3.271 16.0553 3.271 16.0556C3.271 16.056 3.271 16.0564 3.271 16.0568C3.271 16.0572 3.271 16.0576 3.271 16.058C3.271 16.0584 3.271 16.0588 3.271 16.0592C3.271 16.0595 3.271 16.0599 3.271 16.0603C3.271 16.0607 3.271 16.0611 3.271 16.0615C3.271 16.0619 3.271 16.0623 3.271 16.0627C3.271 16.063 3.271 16.0634 3.271 16.0638C3.271 16.0642 3.271 16.0646 3.271 16.065C3.271 16.0654 3.271 16.0658 3.271 16.0661C3.271 16.0665 3.271 16.0669 3.271 16.0673C3.271 16.0677 3.271 16.0681 3.271 16.0685C3.271 16.0688 3.271 16.0692 3.271 16.0696C3.271 16.07 3.271 16.0704 3.271 16.0708C3.271 16.0712 3.271 16.0715 3.271 16.0719C3.271 16.0723 3.271 16.0727 3.271 16.0731C3.271 16.0735 3.271 16.0739 3.271 16.0742C3.271 16.0746 3.271 16.075 3.271 16.0754C3.271 16.0758 3.271 16.0762 3.271 16.0766C3.271 16.0769 3.271 16.0773 3.271 16.0777C3.271 16.0781 3.271 16.0785 3.271 16.0789C3.271 16.0792 3.271 16.0796 3.271 16.08C3.271 16.0804 3.271 16.0808 3.271 16.0812C3.271 16.0815 3.271 16.0819 3.271 16.0823C3.271 16.0827 3.271 16.0831 3.271 16.0835C3.271 16.0838 3.271 16.0842 3.271 16.0846C3.271 16.085 3.271 16.0854 3.271 16.0857C3.271 16.0861 3.271 16.0865 3.271 16.0869C3.271 16.0873 3.271 16.0877 3.271 16.088C3.271 16.0884 3.271 16.0888 3.271 16.0892C3.271 16.0896 3.271 16.0899 3.271 16.0903C3.271 16.0907 3.271 16.0911 3.271 16.0915C3.271 16.0918 3.271 16.0922 3.271 16.0926C3.271 16.093 3.271 16.0934 3.271 16.0937C3.271 16.0941 3.271 16.0945 3.271 16.0949C3.271 16.0953 3.271 16.0956 3.271 16.096C3.271 16.0964 3.271 16.0968 3.271 16.0972C3.271 16.0975 3.271 16.0979 3.271 16.0983C3.271 16.0987 3.271 16.099 3.271 16.0994C3.271 16.0998 3.271 16.1002 3.271 16.1006C3.271 16.1009 3.271 16.1013 3.271 16.1017C3.271 16.1021 3.271 16.1024 3.271 16.1028C3.271 16.1032 3.271 16.1036 3.271 16.104C3.271 16.1043 3.271 16.1047 3.271 16.1051C3.271 16.1055 3.271 16.1058 3.271 16.1062C3.271 16.1066 3.271 16.107 3.271 16.1073C3.271 16.1077 3.271 16.1081 3.271 16.1085C3.271 16.1088 3.271 16.1092 3.271 16.1096C3.271 16.11 3.271 16.1103 3.271 16.1107C3.271 16.1111 3.271 16.1115 3.271 16.1118C3.271 16.1122 3.271 16.1126 3.271 16.113C3.271 16.1133 3.271 16.1137 3.271 16.1141C3.271 16.1145 3.271 16.1148 3.271 16.1152C3.271 16.1156 3.271 16.116 3.271 16.1163C3.271 16.1167 3.271 16.1171 3.271 16.1174C3.271 16.1178 3.271 16.1182 3.271 16.1186C3.271 16.1189 3.271 16.1193 3.271 16.1197C3.271 16.1201 3.271 16.1204 3.271 16.1208C3.271 16.1212 3.271 16.1215 3.271 16.1219C3.271 16.1223 3.271 16.1227 3.271 16.123C3.271 16.1234 3.271 16.1238 3.271 16.1241C3.271 16.1245 3.271 16.1249 3.271 16.1253C3.271 16.1256 3.271 16.126 3.271 16.1264C3.271 16.1267 3.271 16.1271 3.271 16.1275C3.271 16.1278 3.271 16.1282 3.271 16.1286C3.271 16.129 3.271 16.1293 3.271 16.1297C3.271 16.1301 3.271 16.1304 3.271 16.1308C3.271 16.1312 3.271 16.1315 3.271 16.1319C3.271 16.1323 3.271 16.1326 3.271 16.133C3.271 16.1334 3.271 16.1337 3.271 16.1341C3.271 16.1345 3.271 16.1349 3.271 16.1352C3.271 16.1356 3.271 16.136 3.271 16.1363C3.271 16.1367 3.271 16.1371 3.271 16.1374C3.271 16.1378 3.271 16.1382 3.271 16.1385C3.271 16.1389 3.271 16.1393 3.271 16.1396C3.271 16.14 3.271 16.1404 3.271 16.1407C3.271 16.1411 3.271 16.1415 3.271 16.1418C3.271 16.1422 3.271 16.1426 3.271 16.1429C3.271 16.1433 3.271 16.1437 3.271 16.144C3.271 16.1444 3.271 16.1447 3.271 16.1451C3.271 16.1455 3.271 16.1458 3.271 16.1462C3.271 16.1466 3.271 16.1469 3.271 16.1473C3.271 16.1477 3.271 16.148 3.271 16.1484C3.271 16.1488 3.271 16.1491 3.271 16.1495C3.271 16.1498 3.271 16.1502 3.271 16.1506C3.271 16.1509 3.271 16.1513 3.271 16.1517C3.271 16.152 3.271 16.1524 3.271 16.1528C3.271 16.1531 3.271 16.1535 3.271 16.1538C3.271 16.1542 3.271 16.1546 3.271 16.1549C3.271 16.1553 3.271 16.1557 3.271 16.156C3.271 16.1564 3.271 16.1567 3.271 16.1571C3.271 16.1575 3.271 16.1578 3.271 16.1582C3.271 16.1585 3.271 16.1589 3.271 16.1593C3.271 16.1596 3.271 16.16 3.271 16.1603C3.271 16.1607 3.271 16.1611 3.271 16.1614C3.271 16.1618 3.271 16.1621 3.271 16.1625C3.271 16.1629 3.271 16.1632 3.271 16.1636C3.271 16.1639 3.271 16.1643 3.271 16.1647C3.271 16.165 3.271 16.1654 3.271 16.1657C3.271 16.1661 3.271 16.1665 3.271 16.1668C3.271 16.1672 3.271 16.1675 3.271 16.1679C3.271 16.1683 3.271 16.1686 3.271 16.169C3.271 16.1693 3.271 16.1697 3.271 16.17C3.271 16.1704 3.271 16.1708 3.271 16.1711C3.271 16.1715 3.271 16.1718 3.271 16.1722C3.271 16.1725 3.271 16.1729 3.271 16.1733C3.271 16.1736 3.271 16.174 3.271 16.1743C3.271 16.1747 3.271 16.175 3.271 16.1754C3.271 16.1757 3.271 16.1761 3.271 16.1765C3.271 16.1768 3.271 16.1772 3.271 16.1775C3.271 16.1779 3.271 16.1782 3.271 16.1786C3.271 16.1789 3.271 16.1793 3.271 16.1797C3.271 16.18 3.271 16.1804 3.271 16.1807C3.271 16.1811 3.271 16.1814 3.271 16.1818C3.271 16.1821 3.271 16.1825 3.271 16.1828C3.271 16.1832 3.271 16.1836 3.271 16.1839C3.271 16.1843 3.271 16.1846 3.271 16.185C3.271 16.1853 3.271 16.1857 3.271 16.186C3.271 16.1864 3.271 16.1867 3.271 16.1871C3.271 16.1874 3.271 16.1878 3.271 16.1881C3.271 16.1885 3.271 16.1888 3.271 16.1892C3.271 16.1895 3.271 16.1899 3.271 16.1903C3.271 16.1906 3.271 16.191 3.271 16.1913C3.271 16.1917 3.271 16.192 3.271 16.1924C3.271 16.1927 3.271 16.1931 3.271 16.1934C3.271 16.1938 3.271 16.1941 3.271 16.1945C3.271 16.1948 3.271 16.1952 3.271 16.1955C3.271 16.1959 3.271 16.1962 3.271 16.1966C3.271 16.1969 3.271 16.1973 3.271 16.1976C3.271 16.198 3.271 16.1983 3.271 16.1987C3.271 16.199 3.271 16.1994 3.271 16.1997C3.271 16.2001 3.271 16.2004 3.271 16.2008C3.271 16.2011 3.271 16.2014 3.271 16.2018C3.271 16.2021 3.271 16.2025 3.271 16.2028C3.271 16.2032 3.271 16.2035 3.271 16.2039C3.271 16.2042 3.271 16.2046 3.271 16.2049C3.271 16.2053 3.271 16.2056 3.271 16.206C3.271 16.2063 3.271 16.2067 3.271 16.207C3.271 16.2074 3.271 16.2077 3.271 16.208C3.271 16.2084 3.271 16.2087 3.271 16.2091C3.271 16.2094 3.271 16.2098 3.271 16.2101C3.271 16.2105 3.271 16.2108 3.271 16.2112C3.271 16.2115 3.271 16.2118 3.271 16.2122C3.271 16.2125 3.271 16.2129 3.271 16.2132C3.271 16.2136 3.271 16.2139 3.271 16.2143C3.271 16.2146 3.271 16.2149 3.271 16.2153C3.271 16.2156 3.271 16.216 3.271 16.2163C3.271 16.2167 3.271 16.217 3.271 16.2174C3.271 16.2177 3.271 16.218 3.271 16.2184C3.271 16.2187 3.271 16.2191 3.271 16.2194C3.271 16.2198 3.271 16.2201 3.271 16.2204C3.271 16.2208 3.271 16.2211 3.271 16.2215C3.271 16.2218 3.271 16.2221 3.271 16.2225C3.271 16.2228 3.271 16.2232 3.271 16.2235C3.271 16.2239 3.271 16.2242 3.271 16.2245C3.271 16.2249 3.271 16.2252 3.271 16.2256C3.271 16.2259 3.271 16.2262 3.271 16.2266C3.271 16.2269 3.271 16.2273 3.271 16.2276C3.271 16.2279 3.271 16.2283 3.271 16.2286C3.271 16.229 3.271 16.2293 3.271 16.2296C3.271 16.23 3.271 16.2303 3.271 16.2307C3.271 16.231 3.271 16.2313 3.271 16.2317C3.271 16.232 3.271 16.2324 3.271 16.2327C3.271 16.233 3.271 16.2334 3.271 16.2337C3.271 16.234 3.271 16.2344 3.271 16.2347C3.271 16.2351 3.271 16.2354 3.271 16.2357C3.271 16.2361 3.271 16.2364 3.271 16.2368C3.271 16.2371 3.271 16.2374 3.271 16.2378C3.271 16.2381 3.271 16.2384 3.271 16.2388C3.271 16.2391 3.271 16.2394 3.271 16.2398C3.271 16.2401 3.271 16.2405 3.271 16.2408C3.271 16.2411 3.271 16.2415 3.271 16.2418C3.271 16.2421 3.271 16.2425 3.271 16.2428C3.271 16.2431 3.271 16.2435 3.271 16.2438C3.271 16.2441 3.271 16.2445 3.271 16.2448C3.271 16.2451 3.271 16.2455 3.271 16.2458C3.271 16.2462 3.271 16.2465 3.271 16.2468C3.271 16.2472 3.271 16.2475 3.271 16.2478C3.271 16.2482 3.271 16.2485 3.271 16.2488C3.271 16.2492 3.271 16.2495 3.271 16.2498C3.271 16.2502 3.271 16.2505 3.271 16.2508C3.271 16.2512 3.271 16.2515 3.271 16.2518C3.271 16.2522 3.271 16.2525 3.271 16.2528C3.271 16.2532 3.271 16.2535 3.271 16.2538C3.271 16.2541 3.271 16.2545 3.271 16.2548C3.271 16.2551 3.271 16.2555 3.271 16.2558C3.271 16.2561 3.271 16.2565 3.271 16.2568C3.271 16.2571 3.271 16.2575 3.271 16.2578C3.271 16.2581 3.271 16.2585 3.271 16.2588C3.271 16.2591 3.271 16.2594 3.271 16.2598C3.271 16.2601 3.271 16.2604 3.271 16.2608C3.271 16.2611 3.271 16.2614 3.271 16.2617C3.271 16.2621 3.271 16.2624 3.271 16.2627C3.271 16.2631 3.271 16.2634 3.271 16.2637C3.271 16.2641 3.271 16.2644 3.271 16.2647C3.271 16.265 3.271 16.2654 3.271 16.2657C3.271 16.266 3.271 16.2663 3.271 16.2667C3.271 16.267 3.271 16.2673 3.271 16.2677C3.271 16.268 3.271 16.2683 3.271 16.2686C3.271 16.269 3.271 16.2693 3.271 16.2696C3.271 16.2699 3.271 16.2703 3.271 16.2706C3.271 16.2709 3.271 16.2713 3.271 16.2716C3.271 16.2719 3.271 16.2722 3.271 16.2726C3.271 16.2729 3.271 16.2732 3.271 16.2735C3.271 16.2739 3.271 16.2742 3.271 16.2745C3.271 16.2748 3.271 16.2752 3.271 16.2755C3.271 16.2758 3.271 16.2761 3.271 16.2765C3.271 16.2768 3.271 16.2771 3.271 16.2774C3.271 16.2778 3.271 16.2781 3.271 16.2784C3.271 16.2787 3.271 16.2791 3.271 16.2794C3.271 16.2797 3.271 16.28 3.271 16.2803C3.271 16.2807 3.271 16.281 3.271 16.2813C3.271 16.2816 3.271 16.282 3.271 16.2823C3.271 16.2826 3.271 16.2829 3.271 16.2833C3.271 16.2836 3.271 16.2839 3.271 16.2842C3.271 16.2845 3.271 16.2849 3.271 16.2852C3.271 16.2855 3.271 16.2858 3.271 16.2862C3.271 16.2865 3.271 16.2868 3.271 16.2871C3.271 16.2874 3.271 16.2878 3.271 16.2881C3.271 16.2884 3.271 16.2887 3.271 16.289C3.271 16.2894 3.271 16.2897 3.271 16.29C3.271 16.2903 3.271 16.2906 3.271 16.291C3.271 16.2913 3.271 16.2916 3.271 16.2919C3.271 16.2922 3.271 16.2926 3.271 16.2929C3.271 16.2932 3.271 16.2935 3.271 16.2938C3.271 16.2942 3.271 16.2945 3.271 16.2948C3.271 16.2951 3.271 16.2954 3.271 16.2957C3.271 16.2961 3.271 16.2964 3.271 16.2967C3.271 16.297 3.271 16.2973 3.271 16.2977C3.271 16.298 3.271 16.2983 3.271 16.2986C3.271 16.2989 3.271 16.2992 3.271 16.2996C3.271 16.2999 3.271 16.3002 3.271 16.3005C3.271 16.3008 3.271 16.3011 3.271 16.3015C3.271 16.3018 3.271 16.3021 3.271 16.3024C3.271 16.3027 3.271 16.303 3.271 16.3034C3.271 16.3037 3.271 16.304 3.271 16.3043C3.271 16.3046 3.271 16.3049 3.271 16.3052C3.271 16.3056 3.271 16.3059 3.271 16.3062C3.271 16.3065 3.271 16.3068 3.271 16.3071C3.271 16.3074 3.271 16.3078 3.271 16.3081C3.271 16.3084 3.271 16.3087 3.271 16.309C3.271 16.3093 3.271 16.3096 3.271 16.31C3.271 16.3103 3.271 16.3106 3.271 16.3109C3.271 16.3112 3.271 16.3115 3.271 16.3118C3.271 16.3121 3.271 16.3125 3.271 16.3128C3.271 16.3131 3.271 16.3134 3.271 16.3137C3.271 16.314 3.271 16.3143 3.271 16.3146C3.271 16.315 3.271 16.3153 3.271 16.3156C3.271 16.3159 3.271 16.3162 3.271 16.3165C3.271 16.3168 3.271 16.3171 3.271 16.3174C3.271 16.3178 3.271 16.3181 3.271 16.3184C3.271 16.3187 3.271 16.319 3.271 16.3193C3.271 16.3196 3.271 16.3199 3.271 16.3202C3.271 16.3206 3.271 16.3209 3.271 16.3212C3.271 16.3215 3.271 16.3218 3.271 16.3221C3.271 16.3224 3.271 16.3227 3.271 16.323C3.271 16.3233 3.271 16.3236 3.271 16.324C3.271 16.3243 3.271 16.3246 3.271 16.3249C3.271 16.3252 3.271 16.3255 3.271 16.3258C3.271 16.3261 3.271 16.3264 3.271 16.3267C3.271 16.327 3.271 16.3273 3.271 16.3277C3.271 16.328 3.271 16.3283 3.271 16.3286C3.271 16.3289 3.271 16.3292 3.271 16.3295C3.271 16.3298 3.271 16.3301 3.271 16.3304C3.271 16.3307 3.271 16.331 3.271 16.3313C3.271 16.3316 3.271 16.3319 3.271 16.3322C3.271 16.3326 3.271 16.3329 3.271 16.3332C3.271 16.3335 3.271 16.3338 3.271 16.3341C3.271 16.3344 3.271 16.3347 3.271 16.335C3.271 16.3353 3.271 16.3356 3.271 16.3359C3.271 16.3362 3.271 16.3365 3.271 16.3368C3.271 16.3371 3.271 16.3374 3.271 16.3377C3.271 16.338 3.271 16.3383 3.271 16.3386C3.271 16.339 3.271 16.3393 3.271 16.3396C3.271 16.3399 3.271 16.3402 3.271 16.3405C3.271 16.3408 3.271 16.3411 3.271 16.3414C3.271 16.3417 3.271 16.342 3.271 16.3423C3.271 16.3426 3.271 16.3429 3.271 16.3432C3.271 16.3435 3.271 16.3438 3.271 16.3441C3.271 16.3444 3.271 16.3447 3.271 16.345C3.271 16.3453 3.271 16.3456 3.271 16.3459C3.271 16.3462 3.271 16.3465 3.271 16.3468C3.271 16.3471 3.271 16.3474 3.271 16.3477C3.271 16.348 3.271 16.3483 3.271 16.3486C3.271 16.3489 3.271 16.3492 3.271 16.3495C3.271 16.3498 3.271 16.3501 3.271 16.3504C3.271 16.3507 3.271 16.351 3.271 16.3513C3.271 16.3516 3.271 16.3519 3.271 16.3522C3.271 16.3525 3.271 16.3528 3.271 16.3531C3.271 16.3534 3.271 16.3537 3.271 16.354H5.271ZM3.271 14.833V16.583H5.271V14.833H3.271Z" fill="currentColor" mask="url(#path-1-inside-1_5289_88370)"/>
</svg>
