<svg width="20" height="20" viewBox="0 0 20 20" fill="none" xmlns="http://www.w3.org/2000/svg">
<path fill-rule="evenodd" clip-rule="evenodd" d="M4.906 5.11501C5.39933 5.59367 5.99333 5.83301 6.688 5.83301C7.20133 5.83301 7.67 5.68734 8.094 5.39601C8.51733 5.10401 8.82633 4.71501 9.021 4.22901H13.271V5.85401H15.021V4.22901H15.833V2.47901H9.021C8.82633 1.99301 8.52067 1.59734 8.104 1.29201C7.68733 0.986008 7.21533 0.833008 6.688 0.833008C5.97933 0.833008 5.382 1.07634 4.896 1.56301C4.41 2.04901 4.167 2.64601 4.167 3.35401C4.167 4.04867 4.41333 4.63567 4.906 5.11501ZM7.219 3.87501C7.073 4.01367 6.896 4.08301 6.688 4.08301C6.47933 4.08301 6.302 4.01367 6.156 3.87501C6.01067 3.73634 5.938 3.56267 5.938 3.35401C5.938 3.14601 6.01067 2.96567 6.156 2.81301C6.302 2.65967 6.47933 2.58301 6.688 2.58301C6.896 2.58301 7.073 2.65967 7.219 2.81301C7.365 2.96567 7.438 3.14601 7.438 3.35401C7.438 3.56267 7.365 3.73634 7.219 3.87501Z" fill="currentColor"/>
<path fill-rule="evenodd" clip-rule="evenodd" d="M6 16.812L11.5 18.5L18 16.5V16C18 15.1667 17.7083 14.4583 17.125 13.875C16.5417 13.2917 15.8333 13 15 13H14C14 12.5 13.8783 12.0833 13.635 11.75C13.3923 11.4167 13.0417 11.1667 12.583 11L7 9H1V18H6V16.812ZM4.5 16.5H2.5V10.5H4.5V16.5ZM16.396 15.438L11.5 16.938L6 15.25V10.5H6.75L12.083 12.417C12.2083 12.4583 12.309 12.5277 12.385 12.625C12.4617 12.7223 12.5 12.8473 12.5 13C11.5693 13 10.8783 12.9793 10.427 12.938C9.97567 12.896 9.59033 12.8127 9.271 12.688L8.271 12.292L7.75 13.708L8.833 14.146C9.15233 14.2707 9.54833 14.361 10.021 14.417C10.493 14.4723 11.097 14.5 11.833 14.5H15C15.292 14.5 15.5627 14.5833 15.812 14.75C16.0627 14.9167 16.2573 15.146 16.396 15.438Z" fill="currentColor"/>
</svg>
