<svg width="20" height="20" viewBox="0 0 20 20" fill="none" xmlns="http://www.w3.org/2000/svg">
<path d="M14.958 5.08299C14.486 5.08299 14.0833 4.91633 13.75 4.58299C13.4167 4.24966 13.25 3.84699 13.25 3.37499C13.25 2.90299 13.4167 2.50033 13.75 2.16699C14.0833 1.83366 14.486 1.66699 14.958 1.66699C15.4307 1.66699 15.8337 1.83366 16.167 2.16699C16.5003 2.50033 16.667 2.90299 16.667 3.37499C16.667 3.84699 16.5003 4.24966 16.167 4.58299C15.8337 4.91633 15.4307 5.08299 14.958 5.08299ZM14.25 8.45799V7.93799C14.25 7.60466 14.177 7.27133 14.031 6.93799C13.885 6.60466 13.6873 6.31966 13.438 6.08299C13.7153 5.99966 13.9687 5.94433 14.198 5.91699C14.4273 5.88899 14.6807 5.87499 14.958 5.87499C15.3747 5.87499 15.7777 5.91666 16.167 5.99999C16.5557 6.08333 16.9307 6.20133 17.292 6.35399C17.6113 6.49266 17.8647 6.70799 18.052 6.99999C18.2393 7.29199 18.333 7.60466 18.333 7.93799V8.45799H14.25ZM5.042 5.08299C4.56933 5.08299 4.16633 4.91633 3.833 4.58299C3.49967 4.24966 3.333 3.84699 3.333 3.37499C3.333 2.90299 3.49967 2.50033 3.833 2.16699C4.16633 1.83366 4.56933 1.66699 5.042 1.66699C5.514 1.66699 5.91667 1.83366 6.25 2.16699C6.58333 2.50033 6.75 2.90299 6.75 3.37499C6.75 3.84699 6.58333 4.24966 6.25 4.58299C5.91667 4.91633 5.514 5.08299 5.042 5.08299ZM1.667 8.45799V7.93799C1.667 7.60466 1.76067 7.29199 1.948 6.99999C2.13533 6.70799 2.38867 6.49266 2.708 6.35399C3.06933 6.20133 3.44433 6.08333 3.833 5.99999C4.22233 5.91666 4.62533 5.87499 5.042 5.87499C5.31933 5.87499 5.57267 5.88899 5.802 5.91699C6.03133 5.94433 6.28467 5.99966 6.562 6.08299C6.31267 6.31966 6.115 6.60466 5.969 6.93799C5.823 7.27133 5.75 7.60466 5.75 7.93799V8.45799H1.667ZM10 5.08299C9.528 5.08299 9.12533 4.91633 8.792 4.58299C8.45867 4.24966 8.292 3.84699 8.292 3.37499C8.292 2.90299 8.45867 2.50033 8.792 2.16699C9.12533 1.83366 9.528 1.66699 10 1.66699C10.472 1.66699 10.8747 1.83366 11.208 2.16699C11.5413 2.50033 11.708 2.90299 11.708 3.37499C11.708 3.84699 11.5413 4.24966 11.208 4.58299C10.8747 4.91633 10.472 5.08299 10 5.08299ZM6.625 8.45799V7.93799C6.625 7.60466 6.71867 7.29199 6.906 6.99999C7.094 6.70799 7.34767 6.49266 7.667 6.35399C8.02767 6.20133 8.40267 6.08333 8.792 5.99999C9.18067 5.91666 9.58333 5.87499 10 5.87499C10.4167 5.87499 10.8193 5.91666 11.208 5.99999C11.5973 6.08333 11.9723 6.20133 12.333 6.35399C12.6523 6.49266 12.906 6.70799 13.094 6.99999C13.2813 7.29199 13.375 7.60466 13.375 7.93799V8.45799H6.625ZM14.167 14.958C13.6943 14.958 13.2913 14.7913 12.958 14.458C12.6247 14.1247 12.458 13.722 12.458 13.25C12.458 12.778 12.6247 12.3753 12.958 12.042C13.2913 11.7087 13.6943 11.542 14.167 11.542C14.639 11.542 15.0417 11.7087 15.375 12.042C15.7083 12.3753 15.875 12.778 15.875 13.25C15.875 13.722 15.7083 14.1247 15.375 14.458C15.0417 14.7913 14.639 14.958 14.167 14.958ZM10.792 18.333V17.812C10.792 17.4787 10.8857 17.1663 11.073 16.875C11.2603 16.5837 11.5137 16.3683 11.833 16.229C12.1803 16.0763 12.5553 15.9583 12.958 15.875C13.3607 15.7917 13.7637 15.75 14.167 15.75C14.5697 15.75 14.9723 15.7917 15.375 15.875C15.7777 15.9583 16.1527 16.0763 16.5 16.229C16.8193 16.3683 17.0727 16.5837 17.26 16.875C17.448 17.1663 17.542 17.4787 17.542 17.812V18.333H10.792ZM5.833 14.958C5.361 14.958 4.95833 14.7913 4.625 14.458C4.29167 14.1247 4.125 13.722 4.125 13.25C4.125 12.778 4.29167 12.3753 4.625 12.042C4.95833 11.7087 5.361 11.542 5.833 11.542C6.30567 11.542 6.70867 11.7087 7.042 12.042C7.37533 12.3753 7.542 12.778 7.542 13.25C7.542 13.722 7.37533 14.1247 7.042 14.458C6.70867 14.7913 6.30567 14.958 5.833 14.958ZM2.458 18.333V17.812C2.458 17.4787 2.552 17.1663 2.74 16.875C2.92733 16.5837 3.18067 16.3683 3.5 16.229C3.86133 16.0763 4.23633 15.9583 4.625 15.875C5.01367 15.7917 5.41633 15.75 5.833 15.75C6.24967 15.75 6.65267 15.7917 7.042 15.875C7.43067 15.9583 7.80567 16.0763 8.167 16.229C8.48633 16.3683 8.73967 16.5837 8.927 16.875C9.11433 17.1663 9.208 17.4787 9.208 17.812V18.333H2.458ZM10 13.396L7.438 10.833L8.375 9.89599L9.333 10.854V9.12499H10.667V10.854L11.625 9.89599L12.562 10.833L10 13.396Z" fill="currentColor"/>
</svg>
