<svg width="20" height="20" viewBox="0 0 20 20" fill="none" xmlns="http://www.w3.org/2000/svg">
<path d="M16.292 17.5L11.125 12.333C10.667 12.6803 10.1703 12.941 9.635 13.115C9.10033 13.2883 8.54133 13.375 7.958 13.375C6.44467 13.375 5.15667 12.8507 4.094 11.802C3.03133 10.7533 2.5 9.472 2.5 7.958C2.5 6.44467 3.03133 5.15667 4.094 4.094C5.15667 3.03133 6.44467 2.5 7.958 2.5C9.472 2.5 10.7533 3.03133 11.802 4.094C12.8507 5.15667 13.375 6.44467 13.375 7.958C13.375 8.54133 13.2917 9.10033 13.125 9.635C12.9583 10.1703 12.6943 10.66 12.333 11.104L17.5 16.292L16.292 17.5ZM7.958 11.625C8.972 11.625 9.83667 11.2673 10.552 10.552C11.2673 9.83667 11.625 8.972 11.625 7.958C11.625 6.93067 11.2707 6.05567 10.562 5.333C9.854 4.611 8.986 4.25 7.958 4.25C6.93067 4.25 6.05567 4.611 5.333 5.333C4.611 6.05567 4.25 6.93067 4.25 7.958C4.25 8.986 4.611 9.854 5.333 10.562C6.05567 11.2707 6.93067 11.625 7.958 11.625Z" fill="currentColor"/>
</svg>
