<svg width="20" height="20" viewBox="0 0 20 20" fill="none" xmlns="http://www.w3.org/2000/svg">
<path d="M12.417 16.729H6.75C6.264 16.729 5.85067 16.559 5.51 16.219C5.17 15.8783 5 15.465 5 14.979V5.89599H6.75V14.979H12.417V16.729ZM9.688 4.99999C9.22933 4.99999 8.83667 4.83666 8.51 4.50999C8.184 4.18399 8.021 3.79166 8.021 3.33299C8.021 2.87499 8.184 2.48266 8.51 2.15599C8.83667 1.82999 9.22933 1.66699 9.688 1.66699C10.146 1.66699 10.5383 1.82999 10.865 2.15599C11.191 2.48266 11.354 2.87499 11.354 3.33299C11.354 3.79166 11.191 4.18399 10.865 4.50999C10.5383 4.83666 10.146 4.99999 9.688 4.99999ZM13.25 18.333V14.146H9.271C8.79833 14.146 8.399 13.9827 8.073 13.656C7.74633 13.33 7.583 12.9307 7.583 12.458V7.93799C7.583 7.35399 7.788 6.85733 8.198 6.44799C8.60733 6.03799 9.104 5.83299 9.688 5.83299C10.2707 5.83299 10.767 6.03799 11.177 6.44799C11.587 6.85733 11.792 7.35399 11.792 7.93799V11.583H13.312C13.7847 11.583 14.184 11.7463 14.51 12.073C14.8367 12.399 15 12.7983 15 13.271V18.333H13.25Z" fill="currentColor"/>
</svg>
