<svg width="20" height="20" viewBox="0 0 20 20" fill="none" xmlns="http://www.w3.org/2000/svg">
<path d="M9.99999 4.49775C10.6897 4.49775 11.2489 3.93861 11.2489 3.24888C11.2489 2.55914 10.6897 2 9.99999 2C9.31025 2 8.75111 2.55914 8.75111 3.24888C8.75111 3.93861 9.31025 4.49775 9.99999 4.49775Z" fill="currentColor"/>
<path opacity="0.6" d="M9.99999 18C10.6897 18 11.2489 17.4408 11.2489 16.7511C11.2489 16.0614 10.6897 15.5022 9.99999 15.5022C9.31025 15.5022 8.75111 16.0614 8.75111 16.7511C8.75111 17.4408 9.31025 18 9.99999 18Z" fill="currentColor"/>
<path opacity="0.3" d="M13.3756 5.39793C14.0653 5.39793 14.6245 4.83879 14.6245 4.14905C14.6245 3.45932 14.0653 2.90018 13.3756 2.90018C12.6859 2.90018 12.1267 3.45932 12.1267 4.14905C12.1267 4.83879 12.6859 5.39793 13.3756 5.39793Z" fill="currentColor"/>
<path opacity="0.7" d="M6.6245 17.0999C7.31423 17.0999 7.87337 16.5408 7.87337 15.851C7.87337 15.1613 7.31423 14.6022 6.6245 14.6022C5.93477 14.6022 5.37563 15.1613 5.37563 15.851C5.37563 16.5408 5.93477 17.0999 6.6245 17.0999Z" fill="currentColor"/>
<path opacity="0.95" d="M6.6245 5.39793C7.31423 5.39793 7.87337 4.83879 7.87337 4.14905C7.87337 3.45932 7.31423 2.90018 6.6245 2.90018C5.93477 2.90018 5.37563 3.45932 5.37563 4.14905C5.37563 4.83879 5.93477 5.39793 6.6245 5.39793Z" fill="currentColor"/>
<path opacity="0.5" d="M13.3756 17.0999C14.0653 17.0999 14.6245 16.5408 14.6245 15.851C14.6245 15.1613 14.0653 14.6022 13.3756 14.6022C12.6859 14.6022 12.1267 15.1613 12.1267 15.851C12.1267 16.5408 12.6859 17.0999 13.3756 17.0999Z" fill="currentColor"/>
<path opacity="0.85" d="M3.24887 11.2489C3.93861 11.2489 4.49775 10.6898 4.49775 10.0001C4.49775 9.31033 3.93861 8.75119 3.24887 8.75119C2.55914 8.75119 2 9.31033 2 10.0001C2 10.6898 2.55914 11.2489 3.24887 11.2489Z" fill="currentColor"/>
<path opacity="0.3" d="M16.7511 11.2489C17.4409 11.2489 18 10.6898 18 10.0001C18 9.31033 17.4409 8.75119 16.7511 8.75119C16.0614 8.75119 15.5023 9.31033 15.5023 10.0001C15.5023 10.6898 16.0614 11.2489 16.7511 11.2489Z" fill="currentColor"/>
<path opacity="0.9" d="M4.14907 7.87336C4.8388 7.87336 5.39794 7.31422 5.39794 6.62448C5.39794 5.93475 4.8388 5.37561 4.14907 5.37561C3.45933 5.37561 2.90019 5.93475 2.90019 6.62448C2.90019 7.31422 3.45933 7.87336 4.14907 7.87336Z" fill="currentColor"/>
<path opacity="0.4" d="M15.8511 14.6245C16.5408 14.6245 17.1 14.0653 17.1 13.3756C17.1 12.6859 16.5408 12.1267 15.8511 12.1267C15.1613 12.1267 14.6022 12.6859 14.6022 13.3756C14.6022 14.0653 15.1613 14.6245 15.8511 14.6245Z" fill="currentColor"/>
<path opacity="0.8" d="M4.14907 14.6245C4.8388 14.6245 5.39794 14.0653 5.39794 13.3756C5.39794 12.6859 4.8388 12.1267 4.14907 12.1267C3.45933 12.1267 2.90019 12.6859 2.90019 13.3756C2.90019 14.0653 3.45933 14.6245 4.14907 14.6245Z" fill="currentColor"/>
<path opacity="0.3" d="M15.8511 7.87336C16.5408 7.87336 17.1 7.31422 17.1 6.62448C17.1 5.93475 16.5408 5.37561 15.8511 5.37561C15.1613 5.37561 14.6022 5.93475 14.6022 6.62448C14.6022 7.31422 15.1613 7.87336 15.8511 7.87336Z" fill="currentColor"/>
</svg>
