<svg width="20" height="20" viewBox="0 0 20 20" fill="none" xmlns="http://www.w3.org/2000/svg">
<path d="M9.125 18.333V14.167C9.125 13.5557 9.045 13.052 8.885 12.656C8.72567 12.26 8.44467 11.8817 8.042 11.521L9.271 10.292C9.43767 10.4447 9.566 10.5697 9.656 10.667C9.74667 10.7637 9.86133 10.8887 10 11.042C10.1947 10.8193 10.389 10.611 10.583 10.417C10.7777 10.2223 10.9793 10.0417 11.188 9.87499C12.0073 9.22233 12.5663 8.48266 12.865 7.65599C13.163 6.82999 13.2983 5.94466 13.271 4.99999L12.021 6.24999L10.792 5.02099L14.146 1.66699L17.5 5.02099L16.271 6.24999L15.021 4.99999C15.0483 6.33333 14.8363 7.51399 14.385 8.54199C13.9337 9.56933 13.2567 10.4443 12.354 11.167C11.896 11.5417 11.535 11.927 11.271 12.323C11.007 12.719 10.875 13.3337 10.875 14.167V18.333H9.125ZM5.083 6.60399C5.04167 6.33999 5.014 6.08666 5 5.84399C4.986 5.60066 4.979 5.31933 4.979 4.99999L3.729 6.24999L2.5 5.02099L5.854 1.66699L9.208 5.02099L8 6.22899L6.729 4.95799C6.729 5.23599 6.73267 5.47233 6.74 5.66699C6.74667 5.86099 6.757 6.03466 6.771 6.18799L5.083 6.60399ZM6.75 10.333C6.5 10.083 6.264 9.77066 6.042 9.39599C5.81933 9.02066 5.64567 8.65266 5.521 8.29199L7.229 7.87499C7.31233 8.06966 7.42333 8.27466 7.562 8.48999C7.70133 8.70466 7.84733 8.90233 8 9.08299L6.75 10.333Z" fill="currentColor"/>
</svg>
