<svg width="20" height="20" viewBox="0 0 20 20" fill="none" xmlns="http://www.w3.org/2000/svg">
<path d="M11.667 10.667C11.0143 10.667 10.462 10.4413 10.01 9.99001C9.55867 9.53801 9.333 8.98567 9.333 8.33301C9.333 7.68034 9.55867 7.12834 10.01 6.67701C10.462 6.22567 11.0143 6.00001 11.667 6.00001C12.3197 6.00001 12.8717 6.22567 13.323 6.67701C13.7743 7.12834 14 7.68034 14 8.33301C14 8.98567 13.7743 9.53801 13.323 9.99001C12.8717 10.4413 12.3197 10.667 11.667 10.667ZM6.083 13.167C5.625 13.167 5.219 12.9897 4.865 12.635C4.51033 12.281 4.333 11.875 4.333 11.417V5.08301C4.333 4.62501 4.51033 4.21901 4.865 3.86501C5.219 3.51034 5.625 3.33301 6.083 3.33301H17.417C17.875 3.33301 18.281 3.51034 18.635 3.86501C18.9897 4.21901 19.167 4.62501 19.167 5.08301V11.417C19.167 11.875 18.9897 12.281 18.635 12.635C18.281 12.9897 17.875 13.167 17.417 13.167H6.083ZM7.75 11.417H15.75C15.75 10.9583 15.9133 10.566 16.24 10.24C16.566 9.91334 16.9583 9.75001 17.417 9.75001V6.75001C16.9583 6.75001 16.566 6.58667 16.24 6.26001C15.9133 5.93401 15.75 5.54167 15.75 5.08301H7.75C7.75 5.54167 7.58667 5.93401 7.26 6.26001C6.934 6.58667 6.54167 6.75001 6.083 6.75001V9.75001C6.54167 9.75001 6.934 9.91334 7.26 10.24C7.58667 10.566 7.75 10.9583 7.75 11.417ZM16.667 16.667H2.583C2.097 16.667 1.684 16.4967 1.344 16.156C1.00333 15.816 0.833 15.403 0.833 14.917V5.83301H2.583V14.917H16.667V16.667Z" fill="currentColor"/>
</svg>
