<svg width="20" height="20" viewBox="0 0 20 20" fill="none" xmlns="http://www.w3.org/2000/svg">
<path d="M8 14.6152C7.44467 14.6152 6.97233 14.4209 6.583 14.0322C6.19433 13.6429 6 13.1706 6 12.6152C6 12.0599 6.19433 11.5876 6.583 11.1982C6.97233 10.8096 7.44467 10.6152 8 10.6152C8.55533 10.6152 9.02767 10.8096 9.417 11.1982C9.80567 11.5876 10 12.0599 10 12.6152C10 13.1706 9.80567 13.6429 9.417 14.0322C9.02767 14.4209 8.55533 14.6152 8 14.6152ZM4.5 18.1152C4.08333 18.1152 3.72933 17.9659 3.438 17.6672C3.146 17.3686 3 17.0179 3 16.6152V5.61523C3 5.21257 3.146 4.8619 3.438 4.56323C3.72933 4.26457 4.08333 4.11523 4.5 4.11523H6V2.11523H7.5V4.11523H12.5V2.11523H14V4.11523H15.5C15.9167 4.11523 16.2707 4.26457 16.562 4.56323C16.854 4.8619 17 5.21257 17 5.61523V16.6152C17 17.0179 16.854 17.3686 16.562 17.6672C16.2707 17.9659 15.9167 18.1152 15.5 18.1152H4.5ZM4.5 16.6152H15.5V9.11523H4.5V16.6152ZM4.5 7.61523H15.5V5.61523H4.5V7.61523Z" fill="#656A81"/>
</svg>
