<svg width="20" height="20" viewBox="0 0 20 20" fill="none" xmlns="http://www.w3.org/2000/svg">
<path d="M10.875 11.542H12.625V9.12499H15.042V7.37499H12.625V4.95799H10.875V7.37499H8.458V9.12499H10.875V11.542ZM6.917 14.833C6.431 14.833 6.01767 14.663 5.677 14.323C5.337 13.9823 5.167 13.569 5.167 13.083V3.41699C5.167 2.93099 5.337 2.51766 5.677 2.17699C6.01767 1.83699 6.431 1.66699 6.917 1.66699H16.583C17.069 1.66699 17.4823 1.83699 17.823 2.17699C18.163 2.51766 18.333 2.93099 18.333 3.41699V13.083C18.333 13.569 18.163 13.9823 17.823 14.323C17.4823 14.663 17.069 14.833 16.583 14.833H6.917ZM6.917 13.083H16.583V3.41699H6.917V13.083ZM3.417 18.333C2.931 18.333 2.51767 18.163 2.177 17.823C1.837 17.4823 1.667 17.069 1.667 16.583V5.16699H3.417V16.583H14.833V18.333H3.417Z" fill="currentColor"/>
</svg>
