<svg width="20" height="20" viewBox="0 0 20 20" fill="none" xmlns="http://www.w3.org/2000/svg">
<path d="M12.6875 9.82508C13.4958 9.26675 14.0625 8.35008 14.0625 7.50008C14.0625 5.61675 12.6041 4.16675 10.7291 4.16675H5.52081V15.8334H11.3875C13.1291 15.8334 14.4791 14.4167 14.4791 12.6751C14.4791 11.4084 13.7625 10.3251 12.6875 9.82508ZM8.02081 6.25008H10.5208C11.2125 6.25008 11.7708 6.80841 11.7708 7.50008C11.7708 8.19175 11.2125 8.75008 10.5208 8.75008H8.02081V6.25008ZM10.9375 13.7501H8.02081V11.2501H10.9375C11.6291 11.2501 12.1875 11.8084 12.1875 12.5001C12.1875 13.1917 11.6291 13.7501 10.9375 13.7501Z" fill="currentColor"/>
</svg>
