<svg width="20" height="20" viewBox="0 0 20 20" fill="none" xmlns="http://www.w3.org/2000/svg">
<path d="M3.57766 16.5217C3.07554 16.5217 2.63206 16.3293 2.24724 15.9445C1.86241 15.5597 1.67 15.1162 1.67 14.6141V5.40886C1.67 4.90594 1.86241 4.46206 2.24724 4.07724C2.63206 3.69241 3.07554 3.5 3.57766 3.5H16.4323C16.9345 3.5 17.3779 3.69241 17.7628 4.07724C18.1476 4.46206 18.34 4.90594 18.34 5.40886V14.6141C18.34 15.1162 18.1476 15.5597 17.7628 15.9445C17.3779 16.3293 16.9345 16.5217 16.4323 16.5217H3.57766ZM5.08402 14.9154H14.926C14.926 14.4132 15.1015 13.9862 15.4526 13.6344C15.8045 13.2833 16.2315 13.1077 16.7336 13.1077V6.91522C16.2315 6.91522 15.8045 6.73526 15.4526 6.37534C15.1015 6.01542 14.926 5.59284 14.926 5.10759H5.08402C5.08402 5.60891 4.90848 6.03551 4.55739 6.38739C4.20551 6.73928 3.7785 6.91522 3.27638 6.91522V13.1077C3.7785 13.1077 4.20551 13.2833 4.55739 13.6344C4.90848 13.9862 5.08402 14.4132 5.08402 14.9154Z" fill="currentColor"/>
<path d="M8.375 13.325H9.146C9.146 13.5617 9.23267 13.7597 9.406 13.919C9.58 14.079 9.785 14.159 10.021 14.159C10.257 14.159 10.462 14.079 10.636 13.919C10.8093 13.7597 10.896 13.5617 10.896 13.325H11.729C11.9517 13.325 12.1427 13.2453 12.302 13.086C12.462 12.926 12.542 12.728 12.542 12.492V9.971C12.542 9.735 12.462 9.53366 12.302 9.367C12.1427 9.20033 11.9517 9.117 11.729 9.117H9.25V8.409H11.667C11.903 8.409 12.1077 8.322 12.281 8.148C12.455 7.97466 12.542 7.77 12.542 7.534C12.542 7.298 12.455 7.093 12.281 6.919C12.1077 6.74566 11.903 6.659 11.667 6.659H10.896C10.896 6.42233 10.8093 6.22766 10.636 6.075C10.462 5.92233 10.257 5.846 10.021 5.846C9.785 5.846 9.58 5.92233 9.406 6.075C9.23267 6.22766 9.146 6.42233 9.146 6.659H8.354C8.118 6.659 7.91667 6.74233 7.75 6.909C7.58333 7.07566 7.5 7.277 7.5 7.513V10.034C7.5 10.27 7.58333 10.4677 7.75 10.627C7.91667 10.787 8.118 10.867 8.354 10.867H10.792V11.575H8.375C8.139 11.575 7.93433 11.662 7.761 11.836C7.587 12.0093 7.5 12.214 7.5 12.45C7.5 12.686 7.587 12.891 7.761 13.065C7.93433 13.2383 8.139 13.325 8.375 13.325Z" fill="currentColor"/>
</svg>
