<svg width="20" height="20" viewBox="0 0 20 20" fill="none" xmlns="http://www.w3.org/2000/svg">
<path d="M7.5 11.6667C7.5 9.58335 8.22916 7.81252 9.6875 6.35419C11.1458 4.89585 12.9167 4.16669 15 4.16669V5.83335C13.375 5.83335 11.9967 6.39919 10.865 7.53085C9.73278 8.66308 9.16666 10.0417 9.16666 11.6667H7.5ZM10.8333 11.6667C10.8333 10.5139 11.2397 9.53113 12.0525 8.71835C12.8647 7.90613 13.8472 7.50002 15 7.50002V9.16669C14.3056 9.16669 13.7153 9.40974 13.2292 9.89585C12.7431 10.382 12.5 10.9722 12.5 11.6667H10.8333ZM4.16666 5.00002C3.70833 5.00002 3.31583 4.83669 2.98916 4.51002C2.66305 4.18391 2.5 3.79169 2.5 3.33335C2.5 2.87502 2.66305 2.48252 2.98916 2.15585C3.31583 1.82974 3.70833 1.66669 4.16666 1.66669C4.625 1.66669 5.01722 1.82974 5.34333 2.15585C5.67 2.48252 5.83333 2.87502 5.83333 3.33335C5.83333 3.79169 5.67 4.18391 5.34333 4.51002C5.01722 4.83669 4.625 5.00002 4.16666 5.00002ZM1.66666 9.16669V7.08335C1.66666 6.73613 1.78833 6.44113 2.03166 6.19835C2.27444 5.95502 2.56944 5.83335 2.91666 5.83335H5.41666C6.04166 5.83335 6.58 5.6353 7.03166 5.23919C7.48277 4.84363 7.76389 4.34724 7.875 3.75002H9.54166C9.45833 4.58335 9.15278 5.31946 8.625 5.95835C8.09722 6.59724 7.44444 7.04169 6.66666 7.29169V9.16669H1.66666ZM15.8333 14.1667C15.375 14.1667 14.9825 14.0036 14.6558 13.6775C14.3297 13.3509 14.1667 12.9584 14.1667 12.5C14.1667 12.0417 14.3297 11.6492 14.6558 11.3225C14.9825 10.9964 15.375 10.8334 15.8333 10.8334C16.2917 10.8334 16.6842 10.9964 17.0108 11.3225C17.3369 11.6492 17.5 12.0417 17.5 12.5C17.5 12.9584 17.3369 13.3509 17.0108 13.6775C16.6842 14.0036 16.2917 14.1667 15.8333 14.1667ZM13.3333 18.3334V16.4584C12.5556 16.2084 11.9028 15.7639 11.375 15.125C10.8472 14.4861 10.5417 13.75 10.4583 12.9167H12.125C12.2361 13.5139 12.5172 14.0106 12.9683 14.4067C13.42 14.8022 13.9583 15 14.5833 15H17.0833C17.4306 15 17.7256 15.1217 17.9683 15.365C18.2117 15.6078 18.3333 15.9028 18.3333 16.25V18.3334H13.3333Z" fill="currentColor"/>
</svg>
