<svg width="20" height="20" viewBox="0 0 20 20" fill="none" xmlns="http://www.w3.org/2000/svg">
<path d="M12.125 13.854L9.125 10.854V6.62499H10.875V10.125L13.354 12.604L12.125 13.854ZM9.125 5.10399V3.35399H10.875V5.10399H9.125ZM14.896 10.875V9.12499H16.646V10.875H14.896ZM9.125 16.646V14.896H10.875V16.646H9.125ZM3.354 10.875V9.12499H5.104V10.875H3.354ZM10 18.333C8.84733 18.333 7.764 18.1143 6.75 17.677C5.736 17.2397 4.854 16.646 4.104 15.896C3.354 15.146 2.76033 14.264 2.323 13.25C1.88567 12.236 1.667 11.1527 1.667 9.99999C1.667 8.84733 1.88567 7.76399 2.323 6.74999C2.76033 5.73599 3.354 4.85399 4.104 4.10399C4.854 3.35399 5.736 2.76033 6.75 2.32299C7.764 1.88566 8.84733 1.66699 10 1.66699C11.1527 1.66699 12.236 1.88566 13.25 2.32299C14.264 2.76033 15.146 3.35399 15.896 4.10399C16.646 4.85399 17.2397 5.73599 17.677 6.74999C18.1143 7.76399 18.333 8.84733 18.333 9.99999C18.333 11.1527 18.1143 12.236 17.677 13.25C17.2397 14.264 16.646 15.146 15.896 15.896C15.146 16.646 14.264 17.2397 13.25 17.677C12.236 18.1143 11.1527 18.333 10 18.333ZM10 16.583C11.8333 16.583 13.389 15.9443 14.667 14.667C15.9443 13.389 16.583 11.8333 16.583 9.99999C16.583 8.16666 15.9443 6.61099 14.667 5.33299C13.389 4.05566 11.8333 3.41699 10 3.41699C8.16667 3.41699 6.611 4.05566 5.333 5.33299C4.05567 6.61099 3.417 8.16666 3.417 9.99999C3.417 11.8333 4.05567 13.389 5.333 14.667C6.611 15.9443 8.16667 16.583 10 16.583Z" fill="currentColor"/>
</svg>
