<svg width="20" height="20" viewBox="0 0 20 20" fill="none" xmlns="http://www.w3.org/2000/svg">
<path d="M7.75 14.833C7.264 14.833 6.85067 14.663 6.51 14.323C6.17 13.9823 6 13.569 6 13.083V3.41699C6 2.93099 6.17 2.51766 6.51 2.17699C6.85067 1.83699 7.264 1.66699 7.75 1.66699H14.917C15.403 1.66699 15.816 1.83699 16.156 2.17699C16.4967 2.51766 16.667 2.93099 16.667 3.41699V13.083C16.667 13.569 16.4967 13.9823 16.156 14.323C15.816 14.663 15.403 14.833 14.917 14.833H7.75ZM7.75 13.083H14.917V3.41699H7.75V13.083ZM4.25 18.333C3.764 18.333 3.35067 18.163 3.01 17.823C2.67 17.4823 2.5 17.069 2.5 16.583V5.06199H4.25V16.583H13.271V18.333H4.25Z" fill="currentColor"/>
</svg>
