<svg width="20" height="20" viewBox="0 0 20 20" fill="none" xmlns="http://www.w3.org/2000/svg">
<path d="M0.833 16.667V14.271C0.833 13.785 0.958 13.3473 1.208 12.958C1.458 12.5693 1.78467 12.2777 2.188 12.083C3.02133 11.6663 3.896 11.354 4.812 11.146C5.72933 10.9373 6.646 10.833 7.562 10.833C8.47933 10.833 9.396 10.9407 10.312 11.156C11.2293 11.3713 12.1047 11.6803 12.938 12.083C13.3407 12.2777 13.667 12.5693 13.917 12.958C14.167 13.3473 14.292 13.785 14.292 14.271V16.667H0.833ZM14.042 10.917C14.778 11.0003 15.4513 11.1427 16.062 11.344C16.6733 11.5453 17.2567 11.7917 17.812 12.083C18.326 12.361 18.6803 12.6737 18.875 13.021C19.0697 13.3683 19.167 13.785 19.167 14.271V16.667H15.917V14.083C15.917 13.5277 15.7607 12.9617 15.448 12.385C15.1353 11.809 14.6667 11.3197 14.042 10.917ZM7.562 9.97901C6.618 9.97901 5.82667 9.65968 5.188 9.02101C4.54867 8.38168 4.229 7.59001 4.229 6.64601C4.229 5.70134 4.54867 4.90968 5.188 4.27101C5.82667 3.63168 6.618 3.31201 7.562 3.31201C8.50667 3.31201 9.29867 3.63168 9.938 4.27101C10.5767 4.90968 10.896 5.70134 10.896 6.64601C10.896 7.59001 10.5767 8.38168 9.938 9.02101C9.29867 9.65968 8.50667 9.97901 7.562 9.97901ZM15.896 6.64601C15.896 7.59001 15.5767 8.38168 14.938 9.02101C14.2987 9.65968 13.5067 9.97901 12.562 9.97901C12.4093 9.97901 12.1977 9.95834 11.927 9.91701C11.6563 9.87501 11.4447 9.83334 11.292 9.79201C11.6527 9.34734 11.9337 8.85768 12.135 8.32301C12.337 7.78834 12.438 7.22934 12.438 6.64601C12.438 6.07668 12.337 5.52468 12.135 4.99001C11.9337 4.45534 11.6527 3.96568 11.292 3.52101C11.5 3.45168 11.7153 3.39968 11.938 3.36501C12.16 3.32968 12.368 3.31201 12.562 3.31201C13.5067 3.31201 14.2987 3.63168 14.938 4.27101C15.5767 4.90968 15.896 5.70134 15.896 6.64601ZM2.583 14.917H12.542V14.271C12.542 14.1183 12.5073 13.9897 12.438 13.885C12.368 13.781 12.2777 13.7083 12.167 13.667C11.4443 13.3337 10.6837 13.0697 9.885 12.875C9.087 12.6803 8.31267 12.583 7.562 12.583C6.81267 12.583 6.03867 12.677 5.24 12.865C4.44133 13.0523 3.68067 13.3197 2.958 13.667C2.84733 13.7083 2.75733 13.781 2.688 13.885C2.618 13.9897 2.583 14.1183 2.583 14.271V14.917ZM7.562 8.22901C8.02067 8.22901 8.39933 8.07968 8.698 7.78101C8.99667 7.48234 9.146 7.10401 9.146 6.64601C9.146 6.18734 8.99667 5.80868 8.698 5.51001C8.39933 5.21135 8.02067 5.06201 7.562 5.06201C7.104 5.06201 6.72567 5.21135 6.427 5.51001C6.12833 5.80868 5.979 6.18734 5.979 6.64601C5.979 7.10401 6.12833 7.48234 6.427 7.78101C6.72567 8.07968 7.104 8.22901 7.562 8.22901Z" fill="currentColor"/>
</svg>
