<svg width="20" height="20" viewBox="0 0 20 20" fill="none" xmlns="http://www.w3.org/2000/svg">
<path d="M2.5 16C2.09722 16 1.74653 15.853 1.44792 15.5591C1.14931 15.2652 1 14.9119 1 14.4992V5.4941C1 5.08137 1.14931 4.72917 1.44792 4.4375C1.74653 4.14583 2.09722 4 2.5 4H15.5C15.9028 4 16.2535 4.14687 16.5521 4.44062C16.8507 4.73437 17 5.0875 17 5.5V10H2.5V14.5H11V16H2.5ZM2.5 7H15.5V5.5H2.5V7Z" fill="currentColor"/>
<path d="M15.75 15.8107L17.5178 17.5784L18.5784 16.5178L16.8107 14.75L18.5784 12.9822L17.5178 11.9216L15.75 13.6893L13.9822 11.9216L12.9216 12.9822L14.6893 14.75L12.9216 16.5178L13.9822 17.5784L15.75 15.8107Z" fill="currentColor"/>
</svg>
