<svg width="20" height="20" viewBox="0 0 20 20" fill="none" xmlns="http://www.w3.org/2000/svg">
<path d="M7.542 16.667C7.06933 16.667 6.66633 16.5003 6.333 16.167C5.99967 15.8337 5.833 15.4307 5.833 14.958C5.833 14.486 5.99967 14.0833 6.333 13.75C6.66633 13.4167 7.06933 13.25 7.542 13.25C8.014 13.25 8.41667 13.4167 8.75 13.75C9.08333 14.0833 9.25 14.486 9.25 14.958C9.25 15.4307 9.08333 15.8337 8.75 16.167C8.41667 16.5003 8.014 16.667 7.542 16.667ZM7.542 11.708C7.06933 11.708 6.66633 11.5413 6.333 11.208C5.99967 10.8747 5.833 10.472 5.833 10C5.833 9.52801 5.99967 9.12534 6.333 8.79201C6.66633 8.45867 7.06933 8.29201 7.542 8.29201C8.014 8.29201 8.41667 8.45867 8.75 8.79201C9.08333 9.12534 9.25 9.52801 9.25 10C9.25 10.472 9.08333 10.8747 8.75 11.208C8.41667 11.5413 8.014 11.708 7.542 11.708ZM7.542 6.75001C7.06933 6.75001 6.66633 6.58334 6.333 6.25001C5.99967 5.91667 5.833 5.51401 5.833 5.04201C5.833 4.56934 5.99967 4.16634 6.333 3.83301C6.66633 3.49967 7.06933 3.33301 7.542 3.33301C8.014 3.33301 8.41667 3.49967 8.75 3.83301C9.08333 4.16634 9.25 4.56934 9.25 5.04201C9.25 5.51401 9.08333 5.91667 8.75 6.25001C8.41667 6.58334 8.014 6.75001 7.542 6.75001ZM12.458 6.75001C11.986 6.75001 11.5833 6.58334 11.25 6.25001C10.9167 5.91667 10.75 5.51401 10.75 5.04201C10.75 4.56934 10.9167 4.16634 11.25 3.83301C11.5833 3.49967 11.986 3.33301 12.458 3.33301C12.9307 3.33301 13.3337 3.49967 13.667 3.83301C14.0003 4.16634 14.167 4.56934 14.167 5.04201C14.167 5.51401 14.0003 5.91667 13.667 6.25001C13.3337 6.58334 12.9307 6.75001 12.458 6.75001ZM12.458 11.708C11.986 11.708 11.5833 11.5413 11.25 11.208C10.9167 10.8747 10.75 10.472 10.75 10C10.75 9.52801 10.9167 9.12534 11.25 8.79201C11.5833 8.45867 11.986 8.29201 12.458 8.29201C12.9307 8.29201 13.3337 8.45867 13.667 8.79201C14.0003 9.12534 14.167 9.52801 14.167 10C14.167 10.472 14.0003 10.8747 13.667 11.208C13.3337 11.5413 12.9307 11.708 12.458 11.708ZM12.458 16.667C11.986 16.667 11.5833 16.5003 11.25 16.167C10.9167 15.8337 10.75 15.4307 10.75 14.958C10.75 14.486 10.9167 14.0833 11.25 13.75C11.5833 13.4167 11.986 13.25 12.458 13.25C12.9307 13.25 13.3337 13.4167 13.667 13.75C14.0003 14.0833 14.167 14.486 14.167 14.958C14.167 15.4307 14.0003 15.8337 13.667 16.167C13.3337 16.5003 12.9307 16.667 12.458 16.667Z" fill="currentColor"/>
</svg>
