<svg width="300" height="147" viewBox="0 0 300 147" fill="none" xmlns="http://www.w3.org/2000/svg">
  <path d="M297.887 76.755C302.497 83.3023 302.46 103.738 266.995 107.428C249.155 109.283 261.166 133.37 239.078 143.251C214.943 154.049 171.785 133.61 148.048 133.61C115.156 133.61 51.4743 160.253 29.394 136.209C16.8034 122.497 36.1389 105.948 18.9051 100.077C4.8576 95.2925 -5.11447 84.0712 2.79849 76.1124L288.288 73.4424L297.887 76.755Z" fill="url(#paint0_linear_3234_5687)"/>
  <path d="M286.468 75.464C293.578 80.6881 291.971 100.001 258.981 103.189C242.384 104.793 253.557 125.606 233.011 134.145C210.559 143.476 170.411 125.814 148.33 125.814C117.732 125.814 58.4917 148.837 37.9522 128.06C26.2386 116.211 44.2265 101.91 28.1957 96.837C15.1267 92.7033 7.4411 82.3405 14.8014 75.4623H286.468V75.464Z" fill="url(#paint1_linear_3234_5687)"/>
  <path d="M276.427 75.4623C282.946 79.9301 281.474 96.4478 251.22 99.1743C236.001 100.545 246.248 118.347 227.407 125.651C206.819 133.633 170.003 118.526 149.754 118.526C121.696 118.526 67.3723 138.219 48.5373 120.448C37.7966 110.314 54.2919 98.083 39.5893 93.7438C27.6049 90.2074 20.5575 81.3447 27.3078 75.4623H276.427Z" fill="url(#paint2_linear_3234_5687)"/>
  <path d="M95.6171 37.0091C103.454 37.0091 109.806 30.6457 109.806 22.7973C109.806 14.9489 103.453 8.58551 95.6171 8.58551C87.7816 8.58551 81.4286 14.9489 81.4286 22.7973C81.4286 30.6457 87.7816 37.0091 95.6171 37.0091Z" fill="url(#paint3_linear_3234_5687)"/>
  <path d="M71.0372 47.103C71.0372 48.1226 55.6226 70.325 57.123 74.0367C81.262 80.0301 113.2 77.5868 136.872 78.4465C140.018 78.5596 147.16 78.8844 150.593 79.0072C163.01 79.458 221.705 79.1332 221.705 79.1332L145.747 9.68695C145.747 9.68695 80.1279 45.8991 71.0372 47.103Z" fill="#F4FCCD"/>
  <path d="M66.0708 48.3666C63.2783 64.2008 80.5691 77.5901 80.5691 77.5901L154.867 77.9957C154.867 77.9957 156.55 68.8141 140.845 63.047C131.572 59.7878 157.273 38.4676 143.365 33.363C132.442 28.7771 145.744 9.68695 145.744 9.68695L66.0724 48.3666H66.0708Z" fill="url(#paint4_linear_3234_5687)"/>
  <path d="M20.8454 84.5804C12.7679 83.5236 2.94641 75.8707 2.94641 75.8707L297.892 76.7385L287.654 78.4707C287.654 78.4707 257.496 85.9798 238.113 86.1995C220.208 86.4015 189.772 83.9744 168.425 83.2941C153.793 82.8272 118.023 79.8717 93.0093 80.1997C68.7283 80.5197 35.8083 86.534 20.8486 84.5788L20.8454 84.5804Z" fill="url(#paint5_linear_3234_5687)"/>
  <path opacity="0.5" d="M43.5957 20.6677C44.1667 20.4996 44.7507 20.3041 45.2105 19.9325C45.9897 19.3023 46.2333 18.239 45.901 17.4246C45.5671 16.6102 44.7282 16.0543 43.7876 15.8588C43.5957 15.8184 43.3892 15.7893 43.2472 15.6697C43.0697 15.5194 43.0488 15.269 43.0165 15.0395C42.8132 13.5513 41.7872 12.2456 40.3321 11.6251C38.8769 11.0046 37.0249 11.0806 35.4826 11.8255C35.523 10.3518 33.4806 8.92498 32.2835 8.6729C31.1462 8.43537 28.4698 8.65674 27.8632 9.65052C26.5162 8.53878 24.1415 8.89105 22.5653 10.0286C20.9892 11.1662 20.0648 12.8872 19.4001 14.579C17.1609 14.1928 14.5297 15.8685 14.0603 17.9788C13.0197 17.4197 10.0965 19.6367 13.8812 19.989C35.7004 22.0267 42.5309 20.9812 43.5973 20.6661L43.5957 20.6677Z" fill="#1EC6CE"/>
  <path d="M185.291 76.8564C182.96 69.8063 241.46 21.63 241.46 21.63C241.46 21.63 268.923 63.4542 297.893 76.7385C297.896 76.7352 190.01 77.2426 185.291 76.8564Z" fill="#F4FCCD"/>
  <path d="M177.29 76.8306C184.977 67.5052 241.453 21.63 241.453 21.63C241.453 21.63 238.475 35.1647 244.872 41.7802C249.652 47.2936 233.284 51.4723 230.525 56.3604C228.089 60.6813 249.239 69.7788 243.002 76.8306C240.965 76.8306 181.989 77.2168 177.288 76.8306H177.29Z" fill="url(#paint6_linear_3234_5687)"/>
  <path opacity="0.5" d="M267.232 24.041C266.818 23.8745 266.395 23.6871 266.085 23.351C265.559 22.7822 265.48 21.8579 265.814 21.1679C266.148 20.4812 266.837 20.032 267.568 19.8978C267.716 19.8704 267.876 19.8526 267.994 19.7556C268.142 19.6312 268.184 19.4179 268.231 19.224C268.532 17.9507 269.437 16.8664 270.599 16.3849C271.761 15.9033 273.153 16.0375 274.245 16.7339C274.361 15.4654 276.045 14.3101 276.978 14.1372C277.862 13.9723 279.861 14.2616 280.222 15.1406C281.353 14.2341 283.11 14.6219 284.187 15.6577C285.267 16.6935 285.794 18.2076 286.128 19.6862C287.858 19.4341 289.679 20.9708 289.826 22.8064C290.668 22.3621 292.657 24.3755 289.761 24.5419C273.069 25.5018 268.008 24.3545 267.234 24.0426L267.232 24.041Z" fill="#1EC6CE"/>
  <path d="M175.675 62.9017L174.16 74.5168H177.19L175.675 62.9017Z" fill="#D4ED84"/>
  <path d="M175.62 66.4874L175.793 76.8646" stroke="black" stroke-width="0.714286" stroke-miterlimit="10" stroke-linecap="round"/>
  <path d="M175.721 72.4695L176.529 71.3949" stroke="black" stroke-width="0.714286" stroke-miterlimit="10" stroke-linecap="round"/>
  <path d="M175.677 70.0246L175.017 68.7981" stroke="black" stroke-width="0.714286" stroke-miterlimit="10" stroke-linecap="round"/>
  <path d="M175.647 68.2148L176.013 67.436" stroke="black" stroke-width="0.714286" stroke-miterlimit="10" stroke-linecap="round"/>
  <path d="M175.741 73.9351L174.91 72.7054" stroke="black" stroke-width="0.714286" stroke-miterlimit="10" stroke-linecap="round"/>
  <path d="M168.084 61.1905L166.225 75.4346H169.94L168.084 61.1905Z" fill="#537C09"/>
  <path d="M168.013 65.5858L168.226 78.3142" stroke="black" stroke-width="0.714286" stroke-miterlimit="10" stroke-linecap="round"/>
  <path d="M168.134 72.9219L169.126 71.6049" stroke="black" stroke-width="0.714286" stroke-miterlimit="10" stroke-linecap="round"/>
  <path d="M168.088 69.926L167.276 68.4249" stroke="black" stroke-width="0.714286" stroke-miterlimit="10" stroke-linecap="round"/>
  <path d="M168.047 67.7042L168.495 66.7509" stroke="black" stroke-width="0.714286" stroke-miterlimit="10" stroke-linecap="round"/>
  <path d="M168.162 74.7221L167.142 73.2128" stroke="black" stroke-width="0.714286" stroke-miterlimit="10" stroke-linecap="round"/>
  <path d="M171.079 57.97L168.884 74.798H173.273L171.079 57.97Z" fill="#D4ED84"/>
  <path d="M170.993 63.1619L171.243 78.1994" stroke="black" stroke-width="0.714286" stroke-miterlimit="10" stroke-linecap="round"/>
  <path d="M171.14 71.8296L172.311 70.2735" stroke="black" stroke-width="0.714286" stroke-miterlimit="10" stroke-linecap="round"/>
  <path d="M171.079 68.2891L170.122 66.5148" stroke="black" stroke-width="0.714286" stroke-miterlimit="10" stroke-linecap="round"/>
  <path d="M171.033 65.6649L171.562 64.5402" stroke="black" stroke-width="0.714286" stroke-miterlimit="10" stroke-linecap="round"/>
  <path d="M171.172 73.956L169.968 72.1737" stroke="black" stroke-width="0.714286" stroke-miterlimit="10" stroke-linecap="round"/>
  <path d="M257.42 58.2074L255.153 75.5831H259.687L257.42 58.2074Z" fill="#537C09"/>
  <path d="M257.336 63.5689L257.593 79.096" stroke="black" stroke-width="0.714286" stroke-miterlimit="10" stroke-linecap="round"/>
  <path d="M257.484 72.5177L258.694 70.9131" stroke="black" stroke-width="0.714286" stroke-miterlimit="10" stroke-linecap="round"/>
  <path d="M257.425 68.8642L256.439 67.0302" stroke="black" stroke-width="0.714286" stroke-miterlimit="10" stroke-linecap="round"/>
  <path d="M257.377 66.156L257.925 64.9926" stroke="black" stroke-width="0.714286" stroke-miterlimit="10" stroke-linecap="round"/>
  <path d="M257.521 74.7137L256.278 72.8732" stroke="black" stroke-width="0.714286" stroke-miterlimit="10" stroke-linecap="round"/>
  <path d="M252.378 63.4897L250.653 76.7158H254.102L252.378 63.4897Z" fill="#537C09"/>
  <path d="M252.314 67.5715L252.509 79.3901" stroke="black" stroke-width="0.714286" stroke-miterlimit="10" stroke-linecap="round"/>
  <path d="M252.421 74.3842L253.342 73.1609" stroke="black" stroke-width="0.714286" stroke-miterlimit="10" stroke-linecap="round"/>
  <path d="M252.374 71.6015L251.624 70.207" stroke="black" stroke-width="0.714286" stroke-miterlimit="10" stroke-linecap="round"/>
  <path d="M252.348 69.538L252.764 68.6525" stroke="black" stroke-width="0.714286" stroke-miterlimit="10" stroke-linecap="round"/>
  <path d="M252.452 76.0549L251.504 74.6539" stroke="black" stroke-width="0.714286" stroke-miterlimit="10" stroke-linecap="round"/>
  <path d="M22.8589 76.1423C21.0085 68.5864 25.9741 58.1719 36.8651 56.1731C39.8803 44.5322 64.4146 21.6317 64.4146 21.6317C64.4146 21.6317 103.344 70.3315 111.041 76.1843C111.044 76.1811 22.8589 76.1439 22.8589 76.1439V76.1423Z" fill="#F4FCCD"/>
  <path d="M2.90625 76.1422L64.4195 21.63C64.4195 21.63 55.5627 38.1008 62.1222 41.2033C67.3362 43.9407 76.5543 50.6305 71.1435 59.5906C66.5393 67.2192 61.1849 70.3121 68.8801 76.1616C68.8833 76.1616 2.90625 76.1406 2.90625 76.1406L2.90625 76.1422Z" fill="url(#paint7_linear_3234_5687)"/>
  <path opacity="0.16" d="M85.5876 102.971C85.5876 102.971 71.0974 108.673 61.5405 111.534C63.8071 113.513 93.8346 121.045 140.307 121.045C167.962 121.045 206.349 124.157 230.399 122.819C234.55 122.588 234.55 116.596 234.55 116.596C234.55 116.596 233.563 112.851 232.311 112.653C214.525 109.843 196.381 110.771 178.422 109.489C163.053 108.394 147.84 105.681 132.483 104.409C117.023 103.136 85.5876 102.973 85.5876 102.973V102.971Z" fill="black" stroke="black" stroke-width="2.85714" stroke-miterlimit="10"/>
  <path d="M79.9037 85.6647C94.3052 85.5387 119.628 89.0145 154.141 91.9247C197.924 98.6969 227.553 103.546 241.669 107.321C230.27 109.048 219.53 105.455 208.551 103.47C197.571 101.486 191.666 100.699 181.895 100.319C159.008 99.4305 136.063 98.5353 113.416 95.1031C100.639 93.1673 87.8344 90.3831 79.9021 85.6631L79.9037 85.6647Z" fill="#BD5B00"/>
  <path d="M113.915 80.0607C116.199 80.901 118.484 81.738 120.768 82.5783C121.826 82.9677 122.894 83.3572 124.011 83.5042C126.713 83.8613 129.412 82.7561 131.706 81.2791C132.677 81.7801 133.818 81.7607 134.9 81.8964C136.213 82.0628 137.483 82.4765 138.782 82.7302C142.716 83.4994 146.803 82.7884 150.775 83.3459C151.87 83.501 152.973 83.7579 153.937 84.3057C156.594 85.8182 157.097 89.0564 156.974 92.3238C156.945 93.1026 156.432 98.0295 155.966 99.1735C155.966 99.1735 142.647 98.3203 134.521 97.6352C124.64 96.8014 108.68 94.1562 108.68 94.1562C108.503 93.8492 108.922 88.9449 108.964 88.5878C109.199 86.5793 109.451 84.5045 110.453 82.7447C111.455 80.985 113.286 79.8248 113.917 80.0591L113.915 80.0607Z" fill="#284A7D" stroke="#284A7D" stroke-width="2.85714" stroke-miterlimit="10"/>
  <path d="M113.913 80.0608C116.198 80.9011 118.482 81.7381 120.766 82.5784C121.825 82.9678 122.893 83.3573 124.009 83.5043C126.711 83.8614 129.41 82.7562 131.704 81.2792C132.742 81.8141 134.924 84.0473 142.71 84.7033C152.217 85.5048 148.006 98.3059 148.431 98.6711C148.431 98.6711 142.645 98.3204 134.521 97.6353C124.64 96.8015 108.68 94.1563 108.68 94.1563C108.503 93.8493 108.922 88.945 108.962 88.5895C109.198 86.581 109.45 84.5062 110.451 82.7465C111.453 80.9867 113.281 79.8265 113.912 80.0608H113.913Z" fill="#3D5C9B" stroke="#3D5C9B" stroke-width="2.85714" stroke-miterlimit="10"/>
  <path d="M79.9016 85.6647C79.1998 92.5516 81.7762 100.046 87.1467 104.406C116.889 106.426 234.394 116.916 234.394 116.916C239.788 114.334 240.101 112.01 241.531 107.547C238.263 107.935 186.132 99.3497 162.132 97.325C126.4 94.3113 79.9 85.6647 79.9 85.6647H79.9016Z" fill="#F9AA00" stroke="#F9AA00" stroke-width="2.85714" stroke-miterlimit="10"/>
  <path d="M130.835 56.7306C132.076 56.1796 134.647 57.2525 135.464 58.0572C138.827 61.3698 145.346 69.9696 145.663 70.4592C151.08 66.7912 159.541 62.3507 161.737 59.2401C161.887 59.03 162.298 59.0252 162.439 59.2401C162.505 59.3338 162.513 59.2837 162.503 59.4017C162.447 59.9785 162.271 60.7186 162.013 61.2341C162.416 60.8317 163.132 60.9352 163.566 61.302C164.002 61.6688 164.228 62.2246 164.439 62.753C164.644 63.2669 164.846 63.8017 164.815 64.3512C164.749 65.4451 163.657 66.2611 162.594 66.5084C159.143 67.3099 150.231 74.9046 144.99 77.1474C139.671 79.4242 135.988 67.2533 133.789 65.1381C133.337 64.7002 130.959 58.2043 130.835 56.7322V56.7306Z" fill="#BA8A65" stroke="#BA8A65" stroke-width="2.85714" stroke-miterlimit="10"/>
  <path opacity="0.1" d="M130.835 56.7306C132.076 56.1796 134.647 57.2525 135.464 58.0572C138.827 61.3698 145.346 69.9696 145.663 70.4592L144.99 77.1458C139.671 79.4226 135.988 67.2517 133.789 65.1365C133.337 64.6986 130.959 58.2027 130.835 56.7306Z" fill="black" stroke="black" stroke-width="2.85714" stroke-miterlimit="10"/>
  <path d="M121.271 57.7227C122.003 55.2149 123.389 51.7876 123.621 49.1892C124.768 49.4381 124.902 50.8827 125.917 51.4789C127.133 52.1932 128.387 52.9316 129.782 53.1191C129.91 53.1368 130.057 53.1611 130.124 53.2693C130.17 53.3404 130.166 53.4325 130.163 53.5166C130.061 55.5962 129.957 57.6937 129.418 59.7071C129.123 60.8075 128.693 61.9014 128.735 63.0374C128.743 63.2152 128.735 63.4366 128.577 63.5157C128.516 63.548 128.442 63.5497 128.371 63.5464C126.201 63.5044 124.06 62.6124 122.499 61.1113C121.965 60.5958 121.479 60.0028 120.824 59.6586C120.876 58.7892 121.043 57.9264 121.272 57.7195L121.271 57.7227Z" fill="#BA8A65"/>
  <path d="M113.263 80.321C118.59 84.0989 127.346 84.49 130.983 81.89C131.845 81.2743 131.314 79.8992 131.48 78.6146C131.935 75.0871 133.064 74.0965 134.166 70.7129C134.166 70.7129 135.405 64.8229 134.476 62.2747C133.547 59.7296 132.009 56.6497 130.125 56.6497C129.761 58.529 129.98 60.7444 127.473 60.9367C125.531 61.0837 121.652 60.1158 121.257 57.3946C119.565 57.6112 119.084 57.7372 117.277 57.818C118.684 59.547 118.928 60.2564 118.74 62.4815C118.524 65.0475 114.912 67.1175 114.912 67.1175C115.812 71.8553 112.286 79.845 113.262 80.3242L113.263 80.321Z" fill="white" stroke="white" stroke-width="1.42857" stroke-miterlimit="10"/>
  <path d="M96.8863 109.287L94.9891 108.924L161.712 63.4559L162.486 64.5094L96.8863 109.287Z" fill="#202024" stroke="#202024" stroke-width="2.85714" stroke-miterlimit="10"/>
  <path d="M109.975 60.1772C111.343 58.4935 113.709 57.797 117.278 57.8196C117.278 57.8196 118.933 59.8993 118.839 61.9725C118.783 63.2523 116.937 65.5969 116.161 66.253C110.649 70.9164 106.921 74.0157 107.434 75.9144C107.884 77.5901 113.508 84.5804 115.15 85.9814C117.212 87.7476 123.171 92.2382 120.438 93.8815C118.13 95.2712 114.029 90.6271 112.491 89.5041C109.005 86.9623 100.068 77.9181 99.6627 76.2247C98.8754 72.925 106.067 64.9829 109.973 60.1756L109.975 60.1772Z" fill="#BA8A65" stroke="#BA8A65" stroke-width="2.85714" stroke-miterlimit="10"/>
  <path opacity="0.1" d="M107.434 75.9144C107.884 77.5885 113.508 84.5804 115.151 85.9814C117.212 87.7476 123.172 92.2382 120.439 93.8815C118.13 95.2712 114.028 90.6271 112.492 89.5041C109.004 86.9623 100.068 77.9181 99.6633 76.2246L107.434 75.9128V75.9144Z" fill="black" stroke="black" stroke-width="2.85714" stroke-miterlimit="10"/>
  <path opacity="0.1" d="M123.355 50.8778C124.034 55.2084 128.022 56.9665 128.918 56.9633C130.145 56.9633 129.997 56.2539 130.049 55.6447C130.134 54.6299 130.121 54.1209 130.102 54.0789C130.071 54.003 129.986 53.969 129.91 53.9448C129.189 53.6911 128.469 53.4422 127.748 53.1885C127.206 52.9979 126.664 52.8088 126.149 52.5567C125.72 52.3467 125.312 52.093 124.904 51.8409C124.339 51.4854 123.749 50.8843 123.355 50.8778Z" fill="black"/>
  <path d="M122.688 41.8644C120.654 43.4592 121.557 45.9946 121.51 46.0269C121.436 46.0802 121.067 46.119 120.96 46.2402C120.662 46.5698 120.586 46.9189 120.744 47.4505C120.902 47.9821 121.15 48.3328 121.693 48.441C121.976 48.4976 122.296 48.4362 122.417 48.1728C122.82 49.1876 124.25 52.4048 124.742 52.93C125.288 53.5133 129.157 54.5023 129.762 54.4635C130.572 54.4134 131.635 53.8284 131.941 53.0803C132.661 51.3335 132.684 46.363 132.655 45.8718C132.567 44.3173 130.862 42.8355 130.22 42.2085C128.468 40.4908 123.698 41.0693 122.689 41.8627L122.688 41.8644Z" fill="#BA8A65"/>
  <path d="M132.383 49.2037C132.193 47.814 130.673 49.4008 129.803 49.4557C128.492 49.5414 127.54 50.7388 126.741 49.9567C124.802 48.0531 124.451 47.2678 123.96 45.7424C123.521 44.3689 123.741 42.9469 125.125 42.6076C126.509 42.2731 128.214 43.3719 129.694 43.4963C131.173 43.6207 131.091 42.9695 130.282 42.2085C128.493 40.5279 123.757 41.0725 122.747 41.8659C120.713 43.4608 121.445 45.8248 121.46 45.8781C121.46 45.8781 122.086 45.8232 122.423 46.8735C122.763 47.9319 122.489 48.3634 122.489 48.3634C122.712 49.3701 124.309 52.4047 124.801 52.9315C125.348 53.5149 129.216 54.5038 129.821 54.4666C130.631 54.4165 131.692 53.8316 132.001 53.0834C132.004 53.0834 132.612 50.8616 132.383 49.202V49.2037Z" fill="#202024" stroke="#202024" stroke-width="2.85714" stroke-miterlimit="10"/>
  <path d="M129.689 45.6342C129.901 46.2951 130.656 47.3098 130.92 47.7817C130.494 48.0742 129.938 48.4668 129.489 48.6171" stroke="#202024" stroke-width="1.42857" stroke-miterlimit="10"/>
  <path d="M128.59 50.9828C128.288 50.2055 131.828 49.0938 131.817 50.1974C131.936 50.5594 131.073 50.5853 130.36 50.784C129.39 51.0555 128.806 51.6291 128.59 50.9828Z" fill="white"/>
  <path d="M120.327 44.9055C121.706 45.1252 134.039 41.8999 135.088 41.3925C135.917 40.9918 135.33 40.3648 134.661 40.3163C133.631 40.2436 131.282 40.7122 130.25 40.7962C129.91 39.9576 129.521 39.0979 128.846 38.5453C126.301 36.464 120.299 39.3322 119.861 43.1118C119.794 43.6839 119.959 44.3124 120.327 44.9071V44.9055Z" fill="#1EC6CE"/>
  <path d="M133.002 64.7841L129.188 65.3335C129.448 66.2756 130.286 68.1258 131.572 68.003C132.858 67.8786 133.061 65.8054 133.002 64.7841Z" fill="#F2F3FA" stroke="#DADCE7" stroke-width="1.42857"/>
  <path d="M197.987 101.804C197.987 101.804 196.74 63.27 200.829 52.2238C204.92 41.1775 219.861 34.2292 228.398 32.8039C236.935 31.3787 244.406 30.4884 250.275 29.7758C256.144 29.0631 257.746 21.9371 249.386 23.1845C241.027 24.432 239.604 29.7758 236.58 29.2425C233.557 28.7077 235.158 25.6795 232.489 25.5017C229.821 25.324 226.264 31.7375 223.595 29.7774C220.927 27.8173 223.773 24.6114 230.71 19.4437C237.647 14.2777 234.059 9.83885 227.864 11.0702C215.324 13.5651 205.453 30.49 203.318 30.6677C201.184 30.8455 203.141 26.1255 200.828 25.5906C198.516 25.0557 197.448 30.8455 196.025 30.8455C194.602 30.8455 195.668 18.1963 196.025 13.9206C196.381 9.64494 188.911 8.75458 186.42 13.3857C183.929 18.0185 181.974 28.1728 178.416 29.598C174.859 31.0232 172.902 25.3224 171.836 23.7194C170.768 22.1164 168.813 22.829 168.99 25.6795C169.168 28.5299 168.146 31.0022 166.144 26.9269C163.299 21.1372 157.784 15.8807 153.516 16.5933C149.247 17.3059 156.539 21.4038 155.828 23.1845C155.116 24.9669 150.08 21.9904 146.134 23.2734C139.285 25.5001 137.151 31.2899 143.199 30.3995C143.199 30.3995 154.752 25.9768 173.081 34.5863C190.275 42.6625 192.41 60.4778 192.765 70.8114C193.121 81.145 193.887 101.229 193.887 101.229L197.985 101.804H197.987Z" fill="#67C9FC"/>
  <path d="M165.588 58.9346C167.193 58.9346 168.493 58.0042 168.493 56.8565C168.493 55.7089 167.193 54.7785 165.588 54.7785C163.983 54.7785 162.682 55.7089 162.682 56.8565C162.682 58.0042 163.983 58.9346 165.588 58.9346Z" fill="#67C9FC"/>
  <path d="M226.374 54.2848C227.054 53.3613 226.558 51.839 225.267 50.8848C223.976 49.9306 222.378 49.9057 221.698 50.8292C221.017 51.7527 221.513 53.2749 222.804 54.2291C224.095 55.1834 225.693 55.2083 226.374 54.2848Z" fill="#67C9FC"/>
  <path d="M245.952 17.0247C247.561 16.222 248.402 14.6374 247.829 13.4854C247.256 12.3334 245.487 12.0503 243.878 12.853C242.268 13.6557 241.428 15.2403 242.001 16.3923C242.573 17.5443 244.342 17.8274 245.952 17.0247Z" fill="#67C9FC"/>
  <path d="M158.689 43.4431C160.042 43.4431 161.138 42.5127 161.138 41.365C161.138 40.2174 160.042 39.287 158.689 39.287C157.337 39.287 156.24 40.2174 156.24 41.365C156.24 42.5127 157.337 43.4431 158.689 43.4431Z" fill="#67C9FC"/>
  <path d="M230.42 42.1532C231.068 41.2061 230.687 39.818 229.571 39.0529C228.455 38.2877 227.026 38.4352 226.379 39.3822C225.732 40.3293 226.112 41.7173 227.228 42.4825C228.344 43.2477 229.773 43.1002 230.42 42.1532Z" fill="#67C9FC"/>
  <path d="M241.101 4.82575C242.272 4.1484 242.757 2.79356 242.184 1.79965C241.612 0.805739 240.198 0.549126 239.026 1.22648C237.855 1.90384 237.37 3.25867 237.943 4.25258C238.516 5.24649 239.93 5.50311 241.101 4.82575Z" fill="#67C9FC"/>
  <path d="M158.012 4.80052C158.99 4.80052 159.783 4.00616 159.783 3.02627C159.783 2.04637 158.99 1.25201 158.012 1.25201C157.033 1.25201 156.24 2.04637 156.24 3.02627C156.24 4.00616 157.033 4.80052 158.012 4.80052Z" fill="#67C9FC"/>
  <path d="M170.144 46.4486C170.633 46.4486 171.03 46.0514 171.03 45.5615C171.03 45.0716 170.633 44.6744 170.144 44.6744C169.655 44.6744 169.258 45.0716 169.258 45.5615C169.258 46.0514 169.655 46.4486 170.144 46.4486Z" fill="#67C9FC"/>
  <path d="M208.928 54.3309C209.172 54.3309 209.37 54.1327 209.37 53.8882C209.37 53.6437 209.172 53.4454 208.928 53.4454C208.684 53.4454 208.486 53.6437 208.486 53.8882C208.486 54.1327 208.684 54.3309 208.928 54.3309Z" fill="#67C9FC"/>
  <path d="M259.975 16.5901C260.219 16.5901 260.417 16.3919 260.417 16.1473C260.417 15.9028 260.219 15.7046 259.975 15.7046C259.731 15.7046 259.533 15.9028 259.533 16.1473C259.533 16.3919 259.731 16.5901 259.975 16.5901Z" fill="#67C9FC"/>
  <path d="M178.173 54.3309C178.662 54.3309 179.059 53.9337 179.059 53.4438C179.059 52.9538 178.662 52.5566 178.173 52.5566C177.684 52.5566 177.287 52.9538 177.287 53.4438C177.287 53.9337 177.684 54.3309 178.173 54.3309Z" fill="#67C9FC"/>
  <path d="M217.374 46.4486C217.863 46.4486 218.26 46.0514 218.26 45.5615C218.26 45.0716 217.863 44.6744 217.374 44.6744C216.885 44.6744 216.488 45.0716 216.488 45.5615C216.488 46.0514 216.885 46.4486 217.374 46.4486Z" fill="#67C9FC"/>
  <path d="M251.968 8.83864C252.457 8.83864 252.853 8.44146 252.853 7.95152C252.853 7.46157 252.457 7.06439 251.968 7.06439C251.478 7.06439 251.082 7.46157 251.082 7.95152C251.082 8.44146 251.478 8.83864 251.968 8.83864Z" fill="#67C9FC"/>
  <path d="M141.315 39.0466C142.184 38.2977 142.425 37.1529 141.855 36.4894C141.284 35.826 140.118 35.8952 139.25 36.6441C138.382 37.3929 138.14 38.5378 138.71 39.2012C139.281 39.8647 140.447 39.7954 141.315 39.0466Z" fill="#67C9FC"/>
  <path d="M140.556 9.67915C142.011 8.42369 142.416 6.50409 141.46 5.39161C140.504 4.27913 138.548 4.39504 137.093 5.6505C135.637 6.90596 135.232 8.82555 136.188 9.93803C137.145 11.0505 139.1 10.9346 140.556 9.67915Z" fill="#67C9FC"/>
  <path d="M127.514 45.9369C127.75 45.9369 127.942 45.7447 127.942 45.5076C127.942 45.2705 127.75 45.0783 127.514 45.0783C127.277 45.0783 127.085 45.2705 127.085 45.5076C127.085 45.7447 127.277 45.9369 127.514 45.9369Z" fill="#202024"/>
  <path d="M130.942 45.1079C131.179 45.1079 131.371 44.9158 131.371 44.6787C131.371 44.4416 131.179 44.2494 130.942 44.2494C130.706 44.2494 130.514 44.4416 130.514 44.6787C130.514 44.9158 130.706 45.1079 130.942 45.1079Z" fill="#202024"/>
  <path d="M30.3785 50.9942L27.2939 74.638H33.463L30.3785 50.9942Z" fill="#537C09"/>
  <path d="M30.2605 58.29L30.609 79.4178" stroke="black" stroke-width="0.714286" stroke-miterlimit="10" stroke-linecap="round"/>
  <path d="M30.4613 70.4673L32.1068 68.2842" stroke="black" stroke-width="0.714286" stroke-miterlimit="10" stroke-linecap="round"/>
  <path d="M30.3773 65.4952L29.035 62.9987" stroke="black" stroke-width="0.714286" stroke-miterlimit="10" stroke-linecap="round"/>
  <path d="M30.3141 61.8093L31.061 60.2258" stroke="black" stroke-width="0.714286" stroke-miterlimit="10" stroke-linecap="round"/>
  <path d="M30.5114 73.4551L28.8207 70.9505" stroke="black" stroke-width="0.714286" stroke-miterlimit="10" stroke-linecap="round"/>
  <path d="M19.1754 49.4187L16.0908 73.0657H22.2599L19.1754 49.4187Z" fill="#537C09"/>
  <path d="M19.0574 56.7177L19.4058 77.8423" stroke="black" stroke-width="0.714286" stroke-miterlimit="10" stroke-linecap="round"/>
  <path d="M19.2649 68.895L20.9104 66.7087" stroke="black" stroke-width="0.714286" stroke-miterlimit="10" stroke-linecap="round"/>
  <path d="M19.1808 63.9213L17.8386 61.428" stroke="black" stroke-width="0.714286" stroke-miterlimit="10" stroke-linecap="round"/>
  <path d="M19.1176 60.2338L19.8645 58.6503" stroke="black" stroke-width="0.714286" stroke-miterlimit="10" stroke-linecap="round"/>
  <path d="M19.3082 71.8829L17.6176 69.3783" stroke="black" stroke-width="0.714286" stroke-miterlimit="10" stroke-linecap="round"/>
  <path d="M25.1026 57.377L22.9747 73.6959H27.2321L25.1042 57.377H25.1026Z" fill="#D4ED84"/>
  <path d="M25.0238 62.4137L25.2658 76.9955" stroke="black" stroke-width="0.714286" stroke-miterlimit="10" stroke-linecap="round"/>
  <path d="M25.1644 70.8196L26.3002 69.3104" stroke="black" stroke-width="0.714286" stroke-miterlimit="10" stroke-linecap="round"/>
  <path d="M25.1077 67.3859L24.1801 65.6633" stroke="black" stroke-width="0.714286" stroke-miterlimit="10" stroke-linecap="round"/>
  <path d="M25.0641 64.8424L25.5771 63.7484" stroke="black" stroke-width="0.714286" stroke-miterlimit="10" stroke-linecap="round"/>
  <path d="M25.2024 72.8799L24.0328 71.1509" stroke="black" stroke-width="0.714286" stroke-miterlimit="10" stroke-linecap="round"/>
  <path d="M84.9258 58.6728L82.714 75.6251H87.1375L84.9258 58.6728Z" fill="#D4ED84"/>
  <path d="M84.8434 63.9051L85.0934 79.0525" stroke="black" stroke-width="0.714286" stroke-miterlimit="10" stroke-linecap="round"/>
  <path d="M84.9907 72.6358L86.1716 71.07" stroke="black" stroke-width="0.714286" stroke-miterlimit="10" stroke-linecap="round"/>
  <path d="M84.9293 69.0711L83.9662 67.2823" stroke="black" stroke-width="0.714286" stroke-miterlimit="10" stroke-linecap="round"/>
  <path d="M84.8835 66.4275L85.4192 65.2916" stroke="black" stroke-width="0.714286" stroke-miterlimit="10" stroke-linecap="round"/>
  <path d="M85.0253 74.7769L83.8121 72.9816" stroke="black" stroke-width="0.714286" stroke-miterlimit="10" stroke-linecap="round"/>
  <path d="M77.4525 56.2538L75.2407 73.2078H79.6643L77.4525 56.2538Z" fill="#537C09"/>
  <path d="M77.3702 61.4861L77.6203 76.6319" stroke="black" stroke-width="0.714286" stroke-miterlimit="10" stroke-linecap="round"/>
  <path d="M77.5175 70.2169L78.6984 68.6495" stroke="black" stroke-width="0.714286" stroke-miterlimit="10" stroke-linecap="round"/>
  <path d="M77.4544 66.6505L76.4929 64.8633" stroke="black" stroke-width="0.714286" stroke-miterlimit="10" stroke-linecap="round"/>
  <path d="M77.5454 72.3595L76.3323 70.5642" stroke="black" stroke-width="0.714286" stroke-miterlimit="10" stroke-linecap="round"/>
  <path d="M81.7022 62.6254L80.176 74.3261H83.2283L81.7022 62.6254Z" fill="#537C09"/>
  <path d="M81.6492 66.2369L81.8218 76.6917" stroke="black" stroke-width="0.714286" stroke-miterlimit="10" stroke-linecap="round"/>
  <path d="M81.7496 72.2626L82.5627 71.1799" stroke="black" stroke-width="0.714286" stroke-miterlimit="10" stroke-linecap="round"/>
  <path d="M81.7045 69.8015L81.0398 68.567" stroke="black" stroke-width="0.714286" stroke-miterlimit="10" stroke-linecap="round"/>
  <path d="M81.676 67.9772L82.0438 67.1918" stroke="black" stroke-width="0.714286" stroke-miterlimit="10" stroke-linecap="round"/>
  <path d="M81.7716 73.7411L80.9327 72.5017" stroke="black" stroke-width="0.714286" stroke-miterlimit="10" stroke-linecap="round"/>
  <path d="M88.2857 56.1068L86.0756 73.0608H90.4975L88.2857 56.1068Z" fill="#537C09"/>
  <path d="M88.205 61.3407L88.4566 76.4865" stroke="black" stroke-width="0.714286" stroke-miterlimit="10" stroke-linecap="round"/>
  <path d="M88.3523 70.0681L89.5348 68.5023" stroke="black" stroke-width="0.714286" stroke-miterlimit="10" stroke-linecap="round"/>
  <path d="M88.2909 66.5051L87.3278 64.718" stroke="black" stroke-width="0.714286" stroke-miterlimit="10" stroke-linecap="round"/>
  <path d="M88.2452 63.8615L88.7776 62.7255" stroke="black" stroke-width="0.714286" stroke-miterlimit="10" stroke-linecap="round"/>
  <path d="M88.3869 72.2109L87.1737 70.4156" stroke="black" stroke-width="0.714286" stroke-miterlimit="10" stroke-linecap="round"/>
  <path d="M91.0434 62.509L89.4237 74.9272H92.6615L91.0434 62.509Z" fill="#D4ED84"/>
  <path d="M90.984 66.3434L91.1695 77.4382" stroke="black" stroke-width="0.714286" stroke-miterlimit="10" stroke-linecap="round"/>
  <path d="M91.0912 72.736L91.9575 71.5887" stroke="black" stroke-width="0.714286" stroke-miterlimit="10" stroke-linecap="round"/>
  <path d="M91.0459 70.1263L90.3409 68.8174" stroke="black" stroke-width="0.714286" stroke-miterlimit="10" stroke-linecap="round"/>
  <path d="M91.0109 68.1889L91.4013 67.3567" stroke="black" stroke-width="0.714286" stroke-miterlimit="10" stroke-linecap="round"/>
  <path d="M91.1162 74.3065L90.2273 72.9912" stroke="black" stroke-width="0.714286" stroke-miterlimit="10" stroke-linecap="round"/>
  <defs>
    <linearGradient id="paint0_linear_3234_5687" x1="150.838" y1="75.3425" x2="150.831" y2="135.642" gradientUnits="userSpaceOnUse">
      <stop offset="0.553117" stop-color="#CCF3FE"/>
      <stop offset="1" stop-color="#67C9FC"/>
    </linearGradient>
    <linearGradient id="paint1_linear_3234_5687" x1="168.473" y1="140.716" x2="169.3" y2="90.2858" gradientUnits="userSpaceOnUse">
      <stop stop-color="#67C9FC"/>
      <stop offset="1" stop-color="#CCF3FE"/>
    </linearGradient>
    <linearGradient id="paint2_linear_3234_5687" x1="152.13" y1="75.4623" x2="152.13" y2="116.139" gradientUnits="userSpaceOnUse">
      <stop stop-color="#CCF3FE"/>
      <stop offset="1" stop-color="#67C9FC"/>
    </linearGradient>
    <linearGradient id="paint3_linear_3234_5687" x1="95.622" y1="20.6369" x2="95.5864" y2="37.0091" gradientUnits="userSpaceOnUse">
      <stop stop-color="#FFE795"/>
      <stop offset="1" stop-color="#FFF9DB"/>
    </linearGradient>
    <linearGradient id="paint4_linear_3234_5687" x1="139.791" y1="47.5603" x2="94.2474" y2="63.6207" gradientUnits="userSpaceOnUse">
      <stop stop-color="#D4ED84"/>
      <stop offset="1" stop-color="#8ABA1A"/>
    </linearGradient>
    <linearGradient id="paint5_linear_3234_5687" x1="33.2932" y1="77.4705" x2="281.231" y2="83.9484" gradientUnits="userSpaceOnUse">
      <stop stop-color="#F9AA00"/>
      <stop offset="1" stop-color="#FFE795"/>
    </linearGradient>
    <linearGradient id="paint6_linear_3234_5687" x1="212.844" y1="39.6472" x2="210.599" y2="77.4523" gradientUnits="userSpaceOnUse">
      <stop stop-color="#8ABA1A"/>
      <stop offset="1" stop-color="#537C09"/>
    </linearGradient>
    <linearGradient id="paint7_linear_3234_5687" x1="31.3495" y1="43.4575" x2="47.6092" y2="81.5039" gradientUnits="userSpaceOnUse">
      <stop stop-color="#8ABA1A"/>
      <stop offset="1" stop-color="#537C09"/>
    </linearGradient>
  </defs>
</svg>
