<svg width="20" height="20" viewBox="0 0 20 20" fill="none" xmlns="http://www.w3.org/2000/svg">
<path d="M3.417 14.146V15.75H16.583V14.146H3.417ZM3.417 4.99999H5.021C4.96567 4.87466 4.92733 4.75299 4.906 4.63499C4.88533 4.51699 4.875 4.38166 4.875 4.22899C4.875 3.52099 5.12833 2.91699 5.635 2.41699C6.14233 1.91699 6.75 1.66699 7.458 1.66699C7.88867 1.66699 8.281 1.78133 8.635 2.00999C8.98967 2.23933 9.30567 2.51366 9.583 2.83299L10 3.33299L10.417 2.83299C10.6943 2.51366 11.0137 2.23933 11.375 2.00999C11.7363 1.78133 12.132 1.66699 12.562 1.66699C13.2707 1.66699 13.875 1.91699 14.375 2.41699C14.875 2.91699 15.125 3.52099 15.125 4.22899C15.125 4.38166 15.118 4.51699 15.104 4.63499C15.09 4.75299 15.0553 4.87466 15 4.99999H16.583C17.069 4.99999 17.4823 5.16999 17.823 5.50999C18.163 5.85066 18.333 6.26399 18.333 6.74999V15.75C18.333 16.236 18.163 16.6493 17.823 16.99C17.4823 17.33 17.069 17.5 16.583 17.5H3.417C2.931 17.5 2.51767 17.33 2.177 16.99C1.837 16.6493 1.667 16.236 1.667 15.75V6.74999C1.667 6.26399 1.837 5.85066 2.177 5.50999C2.51767 5.16999 2.931 4.99999 3.417 4.99999ZM3.417 11.625H16.583V6.74999H12.583L14.25 9.04199L12.833 10.083L10 6.24999L7.167 10.083L5.75 9.04199L7.417 6.74999H3.417V11.625ZM7.438 5.04199C7.674 5.04199 7.86833 4.96566 8.021 4.81299C8.17367 4.65966 8.25 4.46499 8.25 4.22899C8.25 3.99299 8.17367 3.79866 8.021 3.64599C7.86833 3.49333 7.674 3.41699 7.438 3.41699C7.20133 3.41699 7.00667 3.49333 6.854 3.64599C6.70133 3.79866 6.625 3.99299 6.625 4.22899C6.625 4.46499 6.70133 4.65966 6.854 4.81299C7.00667 4.96566 7.20133 5.04199 7.438 5.04199ZM12.542 5.04199C12.778 5.04199 12.9723 4.96566 13.125 4.81299C13.2777 4.65966 13.354 4.46499 13.354 4.22899C13.354 3.99299 13.2777 3.79866 13.125 3.64599C12.9723 3.49333 12.778 3.41699 12.542 3.41699C12.306 3.41699 12.1113 3.49333 11.958 3.64599C11.8053 3.79866 11.729 3.99299 11.729 4.22899C11.729 4.46499 11.8053 4.65966 11.958 4.81299C12.1113 4.96566 12.306 5.04199 12.542 5.04199Z" fill="currentColor"/>
</svg>
