<svg width="15" height="16" viewBox="0 0 15 16" fill="none" xmlns="http://www.w3.org/2000/svg">
  <path d="M5.625 2.97674C5.2125 2.97674 4.85938 2.83101 4.56563 2.53954C4.27188 2.24806 4.125 1.89767 4.125 1.48837C4.125 1.07907 4.27188 0.728682 4.56563 0.437209C4.85938 0.145736 5.2125 0 5.625 0C6.0375 0 6.39063 0.145736 6.68438 0.437209C6.97813 0.728682 7.125 1.07907 7.125 1.48837C7.125 1.89767 6.97813 2.24806 6.68438 2.53954C6.39063 2.83101 6.0375 2.97674 5.625 2.97674ZM0.75 16L2.8125 5.50698L1.5 6.06512V8.55814H0V5.06047L3.9375 3.46047C4.275 3.32403 4.61875 3.30853 4.96875 3.41395C5.31875 3.51938 5.5875 3.73333 5.775 4.05581L6.4875 5.24651C6.825 5.79225 7.27813 6.23256 7.84688 6.56744C8.41563 6.90233 9.05 7.06977 9.75 7.06977V8.55814C8.925 8.55814 8.15938 8.3845 7.45312 8.03721C6.74687 7.68992 6.15 7.21861 5.6625 6.62326L5.2125 8.85581L6.75 10.3814V16H5.25V11.5349L3.6375 10.0465L2.325 16H0.75ZM11.0625 16V5.5814H8.25V0.372093H15V5.5814H12.1875V16H11.0625ZM12.0187 4.8186L13.875 2.97674L12.0187 1.13488L11.2125 1.93488L11.7 2.4186H9.375V3.53488H11.7L11.2125 4.0186L12.0187 4.8186Z" fill="#656A81"/>
</svg>
