<svg width="20" height="20" viewBox="0 0 20 20" fill="none" xmlns="http://www.w3.org/2000/svg">
<path d="M9.95801 15.021C10.264 15.021 10.521 14.9167 10.729 14.708C10.9377 14.5 11.042 14.2433 11.042 13.938C11.042 13.632 10.9377 13.375 10.729 13.167C10.521 12.9583 10.264 12.854 9.95801 12.854C9.65267 12.854 9.39601 12.9583 9.18801 13.167C8.97934 13.375 8.87501 13.632 8.87501 13.938C8.87501 14.2433 8.97934 14.5 9.18801 14.708C9.39601 14.9167 9.65267 15.021 9.95801 15.021ZM9.16701 11.771H10.792C10.792 11.2983 10.844 10.9337 10.948 10.677C11.052 10.4203 11.347 10.0557 11.833 9.58299C12.1803 9.23566 12.4583 8.89899 12.667 8.57299C12.875 8.24633 12.979 7.85399 12.979 7.39599C12.979 6.61799 12.6977 6.02066 12.135 5.60399C11.573 5.18733 10.896 4.97899 10.104 4.97899C9.29867 4.97899 8.64234 5.18733 8.13501 5.60399C7.62834 6.02066 7.27767 6.52766 7.08301 7.12499L8.54201 7.70799C8.61134 7.47199 8.75701 7.20466 8.97901 6.90599C9.20101 6.60733 9.56201 6.45799 10.062 6.45799C10.4927 6.45799 10.8193 6.57266 11.042 6.80199C11.264 7.03133 11.375 7.28466 11.375 7.56199C11.375 7.82599 11.2883 8.08299 11.115 8.33299C10.941 8.58299 10.736 8.80533 10.5 8.99999C9.87467 9.54133 9.49634 9.95099 9.36501 10.229C9.23301 10.507 9.16701 11.021 9.16701 11.771ZM10 18.333C8.86134 18.333 7.78501 18.1143 6.77101 17.677C5.75701 17.2397 4.87167 16.646 4.11501 15.896C3.35767 15.146 2.76034 14.264 2.32301 13.25C1.88567 12.236 1.66701 11.1527 1.66701 9.99999C1.66701 8.84733 1.88567 7.76399 2.32301 6.74999C2.76034 5.73599 3.35767 4.85399 4.11501 4.10399C4.87167 3.35399 5.75701 2.76033 6.77101 2.32299C7.78501 1.88566 8.86134 1.66699 10 1.66699C11.1667 1.66699 12.257 1.88566 13.271 2.32299C14.285 2.76033 15.167 3.35399 15.917 4.10399C16.667 4.85399 17.2573 5.73599 17.688 6.74999C18.118 7.76399 18.333 8.84733 18.333 9.99999C18.333 11.1527 18.118 12.236 17.688 13.25C17.2573 14.264 16.667 15.146 15.917 15.896C15.167 16.646 14.285 17.2397 13.271 17.677C12.257 18.1143 11.1667 18.333 10 18.333ZM10 16.583C11.8473 16.583 13.4063 15.9407 14.677 14.656C15.9477 13.3713 16.583 11.8193 16.583 9.99999C16.583 8.18066 15.9477 6.62866 14.677 5.34399C13.4063 4.05933 11.8473 3.41699 10 3.41699C8.19467 3.41699 6.64601 4.05933 5.35401 5.34399C4.06267 6.62866 3.41701 8.18066 3.41701 9.99999C3.41701 11.8193 4.06267 13.3713 5.35401 14.656C6.64601 15.9407 8.19467 16.583 10 16.583Z" fill="currentColor"/>
</svg>
