<svg width="18" height="18" viewBox="0 0 18 18" fill="none" xmlns="http://www.w3.org/2000/svg">
<path d="M6.646 17.333L6.333 14.708C6.19433 14.6247 6.04167 14.5347 5.875 14.438C5.70833 14.3407 5.55567 14.2503 5.417 14.167L2.979 15.188L0.625 11.125L2.708 9.54199C2.708 9.45866 2.708 9.36833 2.708 9.27099C2.708 9.17366 2.708 9.08333 2.708 8.99999C2.708 8.91666 2.708 8.82633 2.708 8.72899C2.708 8.63166 2.708 8.54133 2.708 8.45799L0.625 6.87499L2.979 2.81199L5.417 3.83299C5.55567 3.74966 5.70833 3.65966 5.875 3.56299C6.04167 3.46566 6.19433 3.37533 6.333 3.29199L6.646 0.666992H11.354L11.667 3.29199C11.8057 3.37533 11.9583 3.46566 12.125 3.56299C12.2917 3.65966 12.4443 3.74966 12.583 3.83299L15.021 2.81199L17.375 6.87499L15.312 8.45799C15.312 8.54133 15.312 8.63166 15.312 8.72899C15.312 8.82633 15.312 8.91666 15.312 8.99999C15.312 9.08333 15.312 9.17366 15.312 9.27099C15.312 9.36833 15.312 9.45866 15.312 9.54199L17.375 11.125L15.021 15.188L12.583 14.167C12.4443 14.2503 12.2917 14.3407 12.125 14.438C11.9583 14.5347 11.8057 14.6247 11.667 14.708L11.354 17.333H6.646ZM9 11.979C9.81933 11.979 10.5207 11.6873 11.104 11.104C11.6873 10.5207 11.979 9.81933 11.979 8.99999C11.979 8.18066 11.6873 7.47933 11.104 6.89599C10.5207 6.31266 9.81933 6.02099 9 6.02099C8.18067 6.02099 7.47933 6.31266 6.896 6.89599C6.31267 7.47933 6.021 8.18066 6.021 8.99999C6.021 9.81933 6.31267 10.5207 6.896 11.104C7.47933 11.6873 8.18067 11.979 9 11.979ZM9 10.229C8.66667 10.229 8.37833 10.1077 8.135 9.86499C7.89233 9.62166 7.771 9.33333 7.771 8.99999C7.771 8.66666 7.89233 8.37833 8.135 8.13499C8.37833 7.89233 8.66667 7.77099 9 7.77099C9.33333 7.77099 9.62167 7.89233 9.865 8.13499C10.1077 8.37833 10.229 8.66666 10.229 8.99999C10.229 9.33333 10.1077 9.62166 9.865 9.86499C9.62167 10.1077 9.33333 10.229 9 10.229ZM8.167 15.583H9.833L10.083 13.417C10.4863 13.3057 10.8753 13.139 11.25 12.917C11.6247 12.6943 11.965 12.4303 12.271 12.125L14.292 12.979L15.125 11.604L13.354 10.25C13.4233 10.0553 13.472 9.85399 13.5 9.64599C13.528 9.43733 13.542 9.22199 13.542 8.99999C13.542 8.80533 13.528 8.60733 13.5 8.40599C13.472 8.20466 13.4303 7.99299 13.375 7.77099L15.146 6.39599L14.312 5.02099L12.292 5.89599C11.972 5.57666 11.628 5.30933 11.26 5.09399C10.892 4.87866 10.5067 4.71533 10.104 4.60399L9.833 2.41699H8.167L7.896 4.60399C7.49333 4.71533 7.108 4.87866 6.74 5.09399C6.372 5.30933 6.035 5.56966 5.729 5.87499L3.708 5.02099L2.875 6.39599L4.625 7.74999C4.56967 7.97199 4.528 8.18733 4.5 8.39599C4.472 8.60399 4.458 8.80533 4.458 8.99999C4.458 9.19466 4.472 9.39266 4.5 9.59399C4.528 9.79533 4.56967 10.007 4.625 10.229L2.875 11.604L3.708 12.979L5.729 12.125C6.035 12.4303 6.372 12.6907 6.74 12.906C7.108 13.1213 7.49333 13.2847 7.896 13.396L8.167 15.583Z" fill="currentColor"/>
</svg>
