<svg width="20" height="20" viewBox="0 0 20 20" fill="none" xmlns="http://www.w3.org/2000/svg">
  <path d="M9.49996 16C9.36129 16 9.24329 15.9513 9.14596 15.854C9.04863 15.7567 8.99996 15.6387 8.99996 15.5V10.771L4.10396 4.812C3.97929 4.64533 3.96196 4.46833 4.05196 4.281C4.14263 4.09367 4.29196 4 4.49996 4H15.5C15.708 4 15.8573 4.09367 15.948 4.281C16.038 4.46833 16.0206 4.64533 15.896 4.812L11 10.771V15.5C11 15.6387 10.9513 15.7567 10.854 15.854C10.7566 15.9513 10.6386 16 10.5 16H9.49996ZM9.99996 9.625L13.375 5.5H6.60396L9.99996 9.625Z" fill="currentColor"/>
</svg>
