<svg width="20" height="17" viewBox="0 0 20 17" fill="none" xmlns="http://www.w3.org/2000/svg">
<path d="M18.7812 14.2812L11.2812 1.25C10.7188 0.28125 9.25 0.25 8.6875 1.25L1.1875 14.2812C0.625 15.25 1.34375 16.5 2.5 16.5H17.4688C18.625 16.5 19.3438 15.2812 18.7812 14.2812ZM10 11.5625C10.7812 11.5625 11.4375 12.2188 11.4375 13C11.4375 13.8125 10.7812 14.4375 10 14.4375C9.1875 14.4375 8.5625 13.8125 8.5625 13C8.5625 12.2188 9.1875 11.5625 10 11.5625ZM8.625 6.40625C8.59375 6.1875 8.78125 6 9 6H10.9688C11.1875 6 11.375 6.1875 11.3438 6.40625L11.125 10.6562C11.0938 10.875 10.9375 11 10.75 11H9.21875C9.03125 11 8.875 10.875 8.84375 10.6562L8.625 6.40625Z" fill="#C71F1F"/>
</svg>
