<svg width="20" height="20" viewBox="0 0 20 20" fill="none" xmlns="http://www.w3.org/2000/svg">
<path d="M10 18.3334C8.84727 18.3334 7.76394 18.1145 6.75005 17.6767C5.73616 17.2395 4.85422 16.6459 4.10422 15.8959C3.35422 15.1459 2.76061 14.264 2.32338 13.2501C1.88561 12.2362 1.66672 11.1529 1.66672 10.0001C1.66672 8.8473 1.88561 7.76397 2.32338 6.75008C2.76061 5.73619 3.35422 4.85425 4.10422 4.10425C4.85422 3.35425 5.73616 2.76036 6.75005 2.32258C7.76394 1.88536 8.84727 1.66675 10 1.66675C11.1528 1.66675 12.2362 1.88536 13.25 2.32258C14.2639 2.76036 15.1459 3.35425 15.8959 4.10425C16.6459 4.85425 17.2395 5.73619 17.6767 6.75008C18.1145 7.76397 18.3334 8.8473 18.3334 10.0001C18.3334 11.1529 18.1145 12.2362 17.6767 13.2501C17.2395 14.264 16.6459 15.1459 15.8959 15.8959C15.1459 16.6459 14.2639 17.2395 13.25 17.6767C12.2362 18.1145 11.1528 18.3334 10 18.3334ZM5.83338 11.2501C6.18061 11.2501 6.47561 11.1284 6.71838 10.8851C6.96172 10.6423 7.08338 10.3473 7.08338 10.0001C7.08338 9.65286 6.96172 9.35786 6.71838 9.11508C6.47561 8.87175 6.18061 8.75008 5.83338 8.75008C5.48616 8.75008 5.19116 8.87175 4.94838 9.11508C4.70505 9.35786 4.58338 9.65286 4.58338 10.0001C4.58338 10.3473 4.70505 10.6423 4.94838 10.8851C5.19116 11.1284 5.48616 11.2501 5.83338 11.2501ZM10 11.2501C10.3473 11.2501 10.6423 11.1284 10.885 10.8851C11.1284 10.6423 11.25 10.3473 11.25 10.0001C11.25 9.65286 11.1284 9.35786 10.885 9.11508C10.6423 8.87175 10.3473 8.75008 10 8.75008C9.65283 8.75008 9.35783 8.87175 9.11505 9.11508C8.87172 9.35786 8.75005 9.65286 8.75005 10.0001C8.75005 10.3473 8.87172 10.6423 9.11505 10.8851C9.35783 11.1284 9.65283 11.2501 10 11.2501ZM14.1667 11.2501C14.5139 11.2501 14.8089 11.1284 15.0517 10.8851C15.295 10.6423 15.4167 10.3473 15.4167 10.0001C15.4167 9.65286 15.295 9.35786 15.0517 9.11508C14.8089 8.87175 14.5139 8.75008 14.1667 8.75008C13.8195 8.75008 13.5245 8.87175 13.2817 9.11508C13.0384 9.35786 12.9167 9.65286 12.9167 10.0001C12.9167 10.3473 13.0384 10.6423 13.2817 10.8851C13.5245 11.1284 13.8195 11.2501 14.1667 11.2501Z" fill="currentColor"/>
</svg>
