<svg width="20" height="20" viewBox="0 0 20 20" fill="none" xmlns="http://www.w3.org/2000/svg">
<path d="M9.125 14.167H5.833C4.68033 14.167 3.69767 13.7607 2.885 12.948C2.073 12.1353 1.667 11.1527 1.667 10C1.667 8.84734 2.073 7.86467 2.885 7.05201C3.69767 6.23934 4.68033 5.83301 5.833 5.83301H9.125V7.58301H5.833C5.139 7.58301 4.56267 7.81234 4.104 8.27101C3.646 8.72901 3.417 9.30534 3.417 10C3.417 10.6947 3.646 11.271 4.104 11.729C4.56267 12.1877 5.139 12.417 5.833 12.417H9.125V14.167ZM6.667 10.875V9.12501H13.333V10.875H6.667ZM18.333 10H16.583C16.583 9.30534 16.354 8.72901 15.896 8.27101C15.4373 7.81234 14.861 7.58301 14.167 7.58301H10.875V5.83301H14.167C15.3197 5.83301 16.3023 6.23934 17.115 7.05201C17.927 7.86467 18.333 8.84734 18.333 10ZM14.083 16.667V14.208H11.625V12.458H14.083V10H15.833V12.458H18.292V14.208H15.833V16.667H14.083Z" fill="currentColor"/>
</svg>
