<svg width="20" height="20" viewBox="0 0 20 20" fill="none" xmlns="http://www.w3.org/2000/svg">
<path d="M4.25 19.167C3.764 19.167 3.35067 18.9967 3.01 18.656C2.67 18.316 2.5 17.903 2.5 17.417V2.58301C2.5 2.09701 2.67 1.68401 3.01 1.34401C3.35067 1.00334 3.764 0.833008 4.25 0.833008H15.75C16.236 0.833008 16.6493 1.00334 16.99 1.34401C17.33 1.68401 17.5 2.09701 17.5 2.58301V17.417C17.5 17.903 17.33 18.316 16.99 18.656C16.6493 18.9967 16.236 19.167 15.75 19.167H4.25ZM4.25 13.042H15.75V5.20801H4.25V13.042ZM4.25 14.792V17.417H15.75V14.792H4.25ZM4.25 3.45801H15.75V2.58301H4.25V3.45801ZM10.021 16.979C10.257 16.979 10.4617 16.8923 10.635 16.719C10.809 16.545 10.896 16.34 10.896 16.104C10.896 15.868 10.809 15.6633 10.635 15.49C10.4617 15.316 10.257 15.229 10.021 15.229C9.785 15.229 9.58 15.316 9.406 15.49C9.23267 15.6633 9.146 15.868 9.146 16.104C9.146 16.34 9.23267 16.545 9.406 16.719C9.58 16.8923 9.785 16.979 10.021 16.979Z" fill="currentColor"/>
</svg>
