<svg width="20" height="20" viewBox="0 0 20 20" fill="none" xmlns="http://www.w3.org/2000/svg">
<path d="M9.188 16.542V14.938C8.72933 14.938 8.34033 14.778 8.021 14.458C7.70167 14.1387 7.542 13.75 7.542 13.292V12.458L3.583 8.49999C3.52767 8.74999 3.486 8.99999 3.458 9.24999C3.43067 9.49999 3.417 9.74999 3.417 9.99999C3.417 11.6667 3.96533 13.1217 5.062 14.365C6.15933 15.6077 7.53467 16.3333 9.188 16.542ZM14.854 14.438C15.4233 13.8267 15.854 13.1423 16.146 12.385C16.4373 11.6283 16.583 10.8333 16.583 9.99999C16.583 8.65266 16.2117 7.42366 15.469 6.31299C14.7257 5.20166 13.729 4.40299 12.479 3.91699V4.22899C12.479 4.68766 12.3193 5.07666 12 5.39599C11.6807 5.71533 11.2917 5.87499 10.833 5.87499H9.188V7.52099C9.188 7.75699 9.108 7.95499 8.948 8.11499C8.788 8.27433 8.59 8.35399 8.354 8.35399H6.708V9.99999H11.646C11.882 9.99999 12.08 10.0763 12.24 10.229C12.3993 10.3817 12.479 10.576 12.479 10.812V13.292H13.292C13.6527 13.292 13.9753 13.396 14.26 13.604C14.5453 13.8127 14.7433 14.0907 14.854 14.438ZM10 18.333C8.84733 18.333 7.764 18.1143 6.75 17.677C5.736 17.2397 4.854 16.646 4.104 15.896C3.354 15.146 2.76033 14.264 2.323 13.25C1.88567 12.236 1.667 11.1527 1.667 9.99999C1.667 8.84733 1.88567 7.76399 2.323 6.74999C2.76033 5.73599 3.354 4.85399 4.104 4.10399C4.854 3.35399 5.736 2.76033 6.75 2.32299C7.764 1.88566 8.84733 1.66699 10 1.66699C11.1527 1.66699 12.236 1.88566 13.25 2.32299C14.264 2.76033 15.146 3.35399 15.896 4.10399C16.646 4.85399 17.2397 5.73599 17.677 6.74999C18.1143 7.76399 18.333 8.84733 18.333 9.99999C18.333 11.1527 18.1143 12.236 17.677 13.25C17.2397 14.264 16.646 15.146 15.896 15.896C15.146 16.646 14.264 17.2397 13.25 17.677C12.236 18.1143 11.1527 18.333 10 18.333Z" fill="currentColor"/>
</svg>
