<svg width="20" height="20" viewBox="0 0 20 20" fill="none" xmlns="http://www.w3.org/2000/svg">
<mask id="mask0_5289_88463" style="mask-type:alpha" maskUnits="userSpaceOnUse" x="0" y="0" width="20" height="20">
<rect width="20" height="20" fill="#D9D9D9"/>
</mask>
<g mask="url(#mask0_5289_88463)">
<path d="M16.583 17.5H4.25C3.764 17.5 3.35067 17.33 3.01 16.99C2.67 16.6493 2.5 16.236 2.5 15.75V4.25C2.5 3.764 2.67 3.35067 3.01 3.01C3.35067 2.67 3.764 2.5 4.25 2.5H16.583C17.069 2.5 17.4823 2.67 17.823 3.01C18.163 3.35067 18.333 3.764 18.333 4.25V15.75C18.333 16.236 18.163 16.6493 17.823 16.99C17.4823 17.33 17.069 17.5 16.583 17.5ZM4.25 6.646H16.583V4.25H4.25V6.646ZM6.667 8.396H4.25V15.75H6.667V8.396ZM14.167 8.396V15.75H16.583V8.396H14.167ZM12.417 8.396H8.417V15.75H12.417V8.396Z" fill="currentColor"/>
</g>
</svg>
