<svg width="20" height="20" viewBox="0 0 20 20" fill="none" xmlns="http://www.w3.org/2000/svg">
<path d="M9.771 15.021C8.42367 14.9517 7.28833 14.4343 6.365 13.469C5.441 12.5037 4.979 11.3473 4.979 9.99999C4.979 8.61133 5.46867 7.42733 6.448 6.44799C7.42733 5.46866 8.61133 4.97899 10 4.97899C11.3473 4.97899 12.5037 5.44099 13.469 6.36499C14.4343 7.28833 14.9517 8.42366 15.021 9.77099L13.167 9.20799C12.9723 8.49999 12.5867 7.90999 12.01 7.43799C11.434 6.96533 10.764 6.72899 10 6.72899C9.09733 6.72899 8.32633 7.04866 7.687 7.68799C7.04833 8.32666 6.729 9.09733 6.729 9.99999C6.729 10.764 6.965 11.434 7.437 12.01C7.90967 12.5867 8.5 12.9723 9.208 13.167L9.771 15.021ZM10 18.333C8.84733 18.333 7.764 18.1143 6.75 17.677C5.736 17.2397 4.854 16.646 4.104 15.896C3.354 15.146 2.76033 14.264 2.323 13.25C1.88567 12.236 1.667 11.1527 1.667 9.99999C1.667 8.84733 1.88567 7.76399 2.323 6.74999C2.76033 5.73599 3.354 4.85399 4.104 4.10399C4.854 3.35399 5.736 2.76033 6.75 2.32299C7.764 1.88566 8.84733 1.66699 10 1.66699C11.1527 1.66699 12.236 1.88566 13.25 2.32299C14.264 2.76033 15.146 3.35399 15.896 4.10399C16.646 4.85399 17.2397 5.73599 17.677 6.74999C18.1143 7.76399 18.333 8.84733 18.333 9.99999C18.333 10.1253 18.3297 10.2503 18.323 10.375C18.3157 10.4997 18.3053 10.6247 18.292 10.75L16.583 10.229V9.99999C16.583 8.16666 15.9443 6.61099 14.667 5.33299C13.389 4.05566 11.8333 3.41699 10 3.41699C8.16667 3.41699 6.611 4.05566 5.333 5.33299C4.05567 6.61099 3.417 8.16666 3.417 9.99999C3.417 11.8333 4.05567 13.389 5.333 14.667C6.611 15.9443 8.16667 16.583 10 16.583H10.229L10.75 18.292C10.6247 18.3053 10.4997 18.3157 10.375 18.323C10.2503 18.3297 10.1253 18.333 10 18.333ZM17.104 18.75L13.542 15.188L12.5 18.333L10 9.99999L18.333 12.5L15.188 13.542L18.75 17.104L17.104 18.75Z" fill="currentColor"/>
</svg>
