<svg width="20" height="20" viewBox="0 0 20 20" fill="none" xmlns="http://www.w3.org/2000/svg">
<path d="M10 9.97901C9.05533 9.97901 8.26367 9.65968 7.625 9.02101C6.98633 8.38168 6.667 7.59001 6.667 6.64601C6.667 5.70134 6.98633 4.90968 7.625 4.27101C8.26367 3.63168 9.05533 3.31201 10 3.31201C10.9447 3.31201 11.7363 3.63168 12.375 4.27101C13.0137 4.90968 13.333 5.70134 13.333 6.64601C13.333 7.59001 13.0137 8.38168 12.375 9.02101C11.7363 9.65968 10.9447 9.97901 10 9.97901ZM10 8.22901C10.4587 8.22901 10.837 8.07968 11.135 7.78101C11.4337 7.48234 11.583 7.10401 11.583 6.64601C11.583 6.18734 11.4337 5.80868 11.135 5.51001C10.837 5.21135 10.4587 5.06201 10 5.06201C9.54133 5.06201 9.163 5.21135 8.865 5.51001C8.56633 5.80868 8.417 6.18734 8.417 6.64601C8.417 7.10401 8.56633 7.48234 8.865 7.78101C9.163 8.07968 9.54133 8.22901 10 8.22901Z" fill="currentColor"/>
<path d="M3.271 14.271V16.667H11.2087L9.23458 14.917H5.021V14.271C5.021 14.1184 5.05566 13.9934 5.125 13.896C5.19433 13.7987 5.28466 13.7224 5.396 13.667C6.118 13.3337 6.875 13.0697 7.667 12.875C8.45833 12.6804 9.236 12.583 10 12.583C10.764 12.583 11.5417 12.677 12.333 12.865L12.75 11.156C11.8333 10.9407 10.9167 10.833 10 10.833C9.08333 10.833 8.17 10.9407 7.26 11.156C6.35066 11.3714 5.47233 11.6804 4.625 12.083C4.22233 12.2777 3.896 12.5694 3.646 12.958C3.396 13.3474 3.271 13.785 3.271 14.271Z" fill="currentColor"/>
<path d="M12.292 18.408L13.146 15.867L11 14.367H13.604L14.375 11.7L15.125 14.367H17.708L15.604 15.867L16.416 18.408L14.354 16.825L12.292 18.408Z" fill="currentColor"/>
</svg>
