<svg width="20" height="20" viewBox="0 0 20 20" fill="none" xmlns="http://www.w3.org/2000/svg">
<path d="M7.938 11.479L8.792 8.93799L6.646 7.43799H9.25L10.021 4.77099L10.771 7.43799H13.354L11.25 8.93799L12.062 11.479L10 9.89599L7.938 11.479ZM4.958 19.167V12.667C4.43067 12.0697 4.028 11.403 3.75 10.667C3.472 9.93033 3.333 9.15233 3.333 8.33299C3.333 6.48566 3.98233 4.91299 5.281 3.61499C6.57967 2.31633 8.15267 1.66699 10 1.66699C11.8473 1.66699 13.4203 2.31633 14.719 3.61499C16.0177 4.91299 16.667 6.48566 16.667 8.33299C16.667 9.15233 16.528 9.93033 16.25 10.667C15.972 11.403 15.5693 12.0697 15.042 12.667V19.167L10 17.479L4.958 19.167ZM10 13.25C11.3747 13.25 12.538 12.7743 13.49 11.823C14.4413 10.8717 14.917 9.70833 14.917 8.33299C14.917 6.95833 14.4413 5.79533 13.49 4.84399C12.538 3.89266 11.3747 3.41699 10 3.41699C8.62533 3.41699 7.462 3.89266 6.51 4.84399C5.55867 5.79533 5.083 6.95833 5.083 8.33299C5.083 9.70833 5.55867 10.8717 6.51 11.823C7.462 12.7743 8.62533 13.25 10 13.25ZM6.708 16.729L10 15.729L13.292 16.729V14.125C12.778 14.403 12.2467 14.6183 11.698 14.771C11.1493 14.9237 10.5833 15 10 15C9.41667 15 8.84733 14.9237 8.292 14.771C7.736 14.6183 7.208 14.403 6.708 14.125V16.729Z" fill="currentColor"/>
</svg>
