<svg width="20" height="20" viewBox="0 0 20 20" fill="none" xmlns="http://www.w3.org/2000/svg">
<path d="M5 11.667H11.708V9.91699H5V11.667ZM5 9.20799H15V7.45799H5V9.20799ZM5 6.74999H15V4.99999H5V6.74999ZM1.667 18.333V3.41699C1.667 2.93099 1.837 2.51766 2.177 2.17699C2.51767 1.83699 2.931 1.66699 3.417 1.66699H16.583C17.069 1.66699 17.4823 1.83699 17.823 2.17699C18.163 2.51766 18.333 2.93099 18.333 3.41699V13.25C18.333 13.736 18.163 14.1493 17.823 14.49C17.4823 14.83 17.069 15 16.583 15H5L1.667 18.333ZM3.417 14.104L4.271 13.25H16.583V3.41699H3.417V14.104Z" fill="currentColor"/>
</svg>
