<svg width="20" height="20" viewBox="0 0 20 20" fill="none" xmlns="http://www.w3.org/2000/svg">
<path d="M10.021 16.979C10.257 16.979 10.4617 16.8923 10.635 16.719C10.809 16.545 10.896 16.34 10.896 16.104C10.896 15.868 10.809 15.6633 10.635 15.49C10.4617 15.316 10.257 15.229 10.021 15.229C9.785 15.229 9.58 15.316 9.406 15.49C9.23267 15.6633 9.146 15.868 9.146 16.104C9.146 16.34 9.23267 16.545 9.406 16.719C9.58 16.8923 9.785 16.979 10.021 16.979ZM5.917 13.042H14.083V5.20801H5.917V13.042ZM5.917 19.167C5.431 19.167 5.01767 18.9967 4.677 18.656C4.337 18.316 4.167 17.903 4.167 17.417V2.58301C4.167 2.09701 4.337 1.68401 4.677 1.34401C5.01767 1.00334 5.431 0.833008 5.917 0.833008H14.083C14.569 0.833008 14.9823 1.00334 15.323 1.34401C15.663 1.68401 15.833 2.09701 15.833 2.58301V17.417C15.833 17.903 15.663 18.316 15.323 18.656C14.9823 18.9967 14.569 19.167 14.083 19.167H5.917ZM5.917 3.45801H14.083V2.58301H5.917V3.45801ZM5.917 2.58301V3.45801V2.58301ZM5.917 14.792V17.417H14.083V14.792H5.917ZM5.917 17.417V14.792V17.417Z" fill="currentColor"/>
</svg>
