<svg width="20" height="20" viewBox="0 0 20 20" fill="none" xmlns="http://www.w3.org/2000/svg">
<path d="M15.792 7.66701L14.708 5.31201L12.396 4.25001L14.708 3.18801L15.792 0.833008L16.875 3.18801L19.188 4.25001L16.875 5.31201L15.792 7.66701ZM15.792 19.167L14.708 16.833L12.396 15.771L14.708 14.708L15.792 12.354L16.875 14.708L19.188 15.771L16.875 16.833L15.792 19.167ZM7.625 16.833L5.521 12.146L0.833 10L5.521 7.87501L7.625 3.18801L9.75 7.87501L14.417 10L9.75 12.146L7.625 16.833ZM7.625 12.562L8.438 10.833L10.146 10L8.438 9.18801L7.625 7.45801L6.833 9.18801L5.104 10L6.833 10.833L7.625 12.562Z" fill="currentColor"/>
</svg>
