<svg width="20" height="20" viewBox="0 0 20 20" fill="none" xmlns="http://www.w3.org/2000/svg">
<path d="M10 18.3334C8.84727 18.3334 7.76394 18.1145 6.75005 17.6767C5.73616 17.2395 4.85422 16.6459 4.10422 15.8959C3.35422 15.1459 2.76061 14.264 2.32338 13.2501C1.88561 12.2362 1.66672 11.1529 1.66672 10.0001C1.66672 8.8473 1.88561 7.76397 2.32338 6.75008C2.76061 5.73619 3.35422 4.85425 4.10422 4.10425C4.85422 3.35425 5.73616 2.76036 6.75005 2.32258C7.76394 1.88536 8.84727 1.66675 10 1.66675C11.1528 1.66675 12.2362 1.88536 13.25 2.32258C14.2639 2.76036 15.1459 3.35425 15.8959 4.10425C16.6459 4.85425 17.2395 5.73619 17.6767 6.75008C18.1145 7.76397 18.3334 8.8473 18.3334 10.0001C18.3334 11.1529 18.1145 12.2362 17.6767 13.2501C17.2395 14.264 16.6459 15.1459 15.8959 15.8959C15.1459 16.6459 14.2639 17.2395 13.25 17.6767C12.2362 18.1145 11.1528 18.3334 10 18.3334ZM5.83338 10.8334H14.1667V9.16675H5.83338V10.8334Z" fill="currentColor"/>
</svg>
