<svg width="20" height="20" viewBox="0 0 20 20" fill="none" xmlns="http://www.w3.org/2000/svg">
<path d="M5.833 14.167H7.708L12.542 9.33301L10.667 7.45801L5.833 12.292V14.167ZM13.167 8.72901L14.042 7.79201C14.1253 7.69467 14.167 7.59401 14.167 7.49001C14.167 7.38534 14.1253 7.29134 14.042 7.20801L12.771 5.95801C12.7017 5.87467 12.6113 5.83301 12.5 5.83301C12.3887 5.83301 12.2913 5.87467 12.208 5.95801L11.271 6.83301L13.167 8.72901ZM4.25 17.5C3.764 17.5 3.35067 17.33 3.01 16.99C2.67 16.6493 2.5 16.236 2.5 15.75V4.25001C2.5 3.76401 2.67 3.35067 3.01 3.01001C3.35067 2.67001 3.764 2.50001 4.25 2.50001H7.667C7.83367 2.00001 8.132 1.59734 8.562 1.29201C8.99267 0.986008 9.472 0.833008 10 0.833008C10.528 0.833008 11.0073 0.986008 11.438 1.29201C11.868 1.59734 12.1663 2.00001 12.333 2.50001H15.75C16.236 2.50001 16.6493 2.67001 16.99 3.01001C17.33 3.35067 17.5 3.76401 17.5 4.25001V15.75C17.5 16.236 17.33 16.6493 16.99 16.99C16.6493 17.33 16.236 17.5 15.75 17.5H4.25ZM10 3.62501C10.1667 3.62501 10.3127 3.56267 10.438 3.43801C10.5627 3.31267 10.625 3.16667 10.625 3.00001C10.625 2.83334 10.5627 2.68734 10.438 2.56201C10.3127 2.43734 10.1667 2.37501 10 2.37501C9.83333 2.37501 9.68733 2.43734 9.562 2.56201C9.43733 2.68734 9.375 2.83334 9.375 3.00001C9.375 3.16667 9.43733 3.31267 9.562 3.43801C9.68733 3.56267 9.83333 3.62501 10 3.62501ZM4.25 15.75H15.75V4.25001H4.25V15.75ZM4.25 4.22901V15.75V4.22901Z" fill="currentColor"/>
</svg>
