<svg width="20" height="20" viewBox="0 0 20 20" fill="none" xmlns="http://www.w3.org/2000/svg">
<path d="M9.146 17.5V15.75C8.368 15.5553 7.72567 15.2047 7.219 14.698C6.71167 14.1913 6.34 13.535 6.104 12.729L7.708 12.062C7.93067 12.7707 8.24333 13.2917 8.646 13.625C9.04867 13.9583 9.56267 14.125 10.188 14.125C10.7987 14.125 11.2777 13.9897 11.625 13.719C11.9723 13.4477 12.146 13.069 12.146 12.583C12.146 12.069 11.9757 11.6697 11.635 11.385C11.295 11.1003 10.625 10.7983 9.625 10.479C8.50033 10.1183 7.70167 9.688 7.229 9.188C6.757 8.688 6.521 8.028 6.521 7.208C6.521 6.444 6.771 5.77733 7.271 5.208C7.771 4.63867 8.396 4.30533 9.146 4.208V2.5H10.896V4.208C11.5207 4.31933 12.0657 4.56933 12.531 4.958C12.9963 5.34733 13.347 5.85433 13.583 6.479L11.958 7.188C11.778 6.72933 11.5387 6.389 11.24 6.167C10.9413 5.94433 10.5487 5.833 10.062 5.833C9.52067 5.833 9.08667 5.958 8.76 6.208C8.434 6.458 8.271 6.79133 8.271 7.208C8.271 7.62467 8.45833 7.96167 8.833 8.219C9.20833 8.47567 9.93067 8.76367 11 9.083C11.972 9.361 12.6977 9.78467 13.177 10.354C13.6563 10.9233 13.896 11.6527 13.896 12.542C13.896 13.4167 13.6357 14.1387 13.115 14.708C12.5937 15.2773 11.854 15.6387 10.896 15.792V17.5H9.146Z" fill="currentColor"/>
</svg>
