<svg width="20" height="20" viewBox="0 0 20 20" fill="none" xmlns="http://www.w3.org/2000/svg">
<path d="M15.0003 15.666H4.33366C3.93366 15.666 3.66699 15.3993 3.66699 14.9993V4.33269C3.66699 3.93269 3.93366 3.66602 4.33366 3.66602H15.0003C15.4003 3.66602 15.667 3.93269 15.667 4.33269V14.9993C15.667 15.3993 15.4003 15.666 15.0003 15.666Z" fill="#FFF200"/>
<path fill-rule="evenodd" clip-rule="evenodd" d="M4.33333 4.33334V15H15V4.33334H4.33333ZM3.37859 3.3786C3.63711 3.12008 3.98183 3 4.33333 3H15C15.3515 3 15.6962 3.12008 15.9547 3.3786C16.2133 3.63712 16.3333 3.98184 16.3333 4.33334V15C16.3333 15.3515 16.2133 15.6962 15.9547 15.9547C15.6962 16.2132 15.3515 16.3333 15 16.3333H4.33333C3.98183 16.3333 3.63711 16.2132 3.37859 15.9547C3.12007 15.6962 3 15.3515 3 15V4.33334C3 3.98184 3.12007 3.63712 3.37859 3.3786Z" fill="#FFF400"/>
<path d="M6.33366 13.6653C6.70185 13.6653 7.00032 13.3669 7.00032 12.9987C7.00032 12.6305 6.70185 12.332 6.33366 12.332C5.96547 12.332 5.66699 12.6305 5.66699 12.9987C5.66699 13.3669 5.96547 13.6653 6.33366 13.6653Z" fill="#151515"/>
<path d="M8.55631 13.6653C8.9245 13.6653 9.22298 13.3669 9.22298 12.9987C9.22298 12.6305 8.9245 12.332 8.55631 12.332C8.18812 12.332 7.88965 12.6305 7.88965 12.9987C7.88965 13.3669 8.18812 13.6653 8.55631 13.6653Z" fill="#151515"/>
<path d="M10.778 13.6653C11.1462 13.6653 11.4447 13.3669 11.4447 12.9987C11.4447 12.6305 11.1462 12.332 10.778 12.332C10.4098 12.332 10.1113 12.6305 10.1113 12.9987C10.1113 13.3669 10.4098 13.6653 10.778 13.6653Z" fill="#151515"/>
<path d="M13.0007 13.6653C13.3688 13.6653 13.6673 13.3669 13.6673 12.9987C13.6673 12.6305 13.3688 12.332 13.0007 12.332C12.6325 12.332 12.334 12.6305 12.334 12.9987C12.334 13.3669 12.6325 13.6653 13.0007 13.6653Z" fill="#151515"/>
</svg>
