<svg width="20" height="20" viewBox="0 0 20 20" fill="none" xmlns="http://www.w3.org/2000/svg">
<path d="M9.97512 7.09243C10.3712 7.50549 10.8553 7.71202 11.4273 7.71202C11.9992 7.71202 12.483 7.50549 12.8785 7.09243C13.2741 6.67877 13.4718 6.17328 13.4718 5.57596C13.4718 4.97865 13.2741 4.47346 12.8785 4.0604C12.483 3.64735 11.9992 3.44082 11.4273 3.44082C10.8553 3.44082 10.3712 3.64735 9.97512 4.0604C9.57959 4.47346 9.38183 4.97865 9.38183 5.57596C9.38183 6.17328 9.57959 6.67877 9.97512 7.09243Z" fill="currentColor"/>
<path fill-rule="evenodd" clip-rule="evenodd" d="M5.46623 9.51312C5.77646 9.83771 6.13226 10 6.53364 10H16.4664C16.8677 10 17.2235 9.83771 17.5338 9.51312C17.8446 9.18914 18 8.81757 18 8.39841V2.60159C18 2.18243 17.8446 1.81086 17.5338 1.48688C17.2235 1.16229 16.8677 1 16.4664 1H6.53364C6.13226 1 5.77646 1.16229 5.46623 1.48688C5.15541 1.81086 5 2.18243 5 2.60159V8.39841C5 8.81757 5.15541 9.18914 5.46623 9.51312ZM15.0055 8.39841H7.99454C7.99454 7.97865 7.8514 7.61959 7.56512 7.32123C7.27943 7.02227 6.9356 6.87279 6.53364 6.87279V4.12721C6.9356 4.12721 7.27943 3.97773 7.56512 3.67877C7.8514 3.38042 7.99454 3.02135 7.99454 2.60159H15.0055C15.0055 3.02135 15.1486 3.38042 15.4349 3.67877C15.7206 3.97773 16.0644 4.12721 16.4664 4.12721V6.87279C16.0644 6.87279 15.7206 7.02227 15.4349 7.32123C15.1486 7.61959 15.0055 7.97865 15.0055 8.39841Z" fill="currentColor"/>
<path fill-rule="evenodd" clip-rule="evenodd" d="M6.1168 17.6955L10.6672 19L16 17.2835V16.5451C16 15.9501 15.7973 15.4521 15.392 15.0511C14.9861 14.6506 14.4944 14.4503 13.9168 14.4503H12.7C12.7 14.0499 12.5861 13.6722 12.3584 13.3173C12.1307 12.9624 11.828 12.7108 11.4504 12.5624L7.3672 11H2V18.7083H6.1168V17.6955ZM4.7168 17.2662H3.4V12.4421H4.7168V17.2662ZM14.5336 16.2361L10.6336 17.5068L6.1168 16.2361V12.4421H7.1168L10.9504 13.8842C11.0501 13.9183 11.1363 13.9897 11.2088 14.0985C11.2808 14.2073 11.3168 14.3245 11.3168 14.4503C10.8277 14.4503 10.4779 14.4391 10.2672 14.4166C10.056 14.3935 9.8616 14.3534 9.684 14.2963L8.2504 13.7985L7.8168 15.1887L9.1832 15.6691C9.37253 15.7378 9.59493 15.7922 9.8504 15.8323C10.1059 15.8724 10.4003 15.8925 10.7336 15.8925H13.9168C14.0501 15.8925 14.1725 15.924 14.284 15.9872C14.3949 16.0499 14.4781 16.1328 14.5336 16.2361Z" fill="currentColor"/>
</svg>
