<svg width="20" height="20" viewBox="0 0 20 20" fill="none" xmlns="http://www.w3.org/2000/svg">
<path d="M10.8444 14.5729L13.7611 11.6563C13.9138 11.5035 14.0355 11.3229 14.1261 11.1146C14.2161 10.9063 14.2611 10.684 14.2611 10.4479C14.2611 9.9757 14.0944 9.57292 13.7611 9.23958C13.4277 8.90625 13.025 8.73958 12.5527 8.73958C12.2888 8.73958 12.0286 8.81597 11.7719 8.96875C11.5147 9.12153 11.2055 9.37847 10.8444 9.73958C10.4277 9.35069 10.1013 9.08681 9.86523 8.94792C9.62912 8.80903 9.38607 8.73958 9.13607 8.73958C8.66385 8.73958 8.26107 8.90625 7.92773 9.23958C7.5944 9.57292 7.42773 9.9757 7.42773 10.4479C7.42773 10.684 7.47273 10.9063 7.56273 11.1146C7.65329 11.3229 7.77496 11.5035 7.92773 11.6563L10.8444 14.5729ZM10.7194 18.3229C10.4833 18.3229 10.2611 18.2776 10.0527 18.1871C9.8444 18.0971 9.66385 17.9757 9.51107 17.8229L2.17773 10.4896C2.02496 10.3368 1.90357 10.1563 1.81357 9.94792C1.72301 9.73958 1.67773 9.51736 1.67773 9.28125V3.32292C1.67773 2.86458 1.84107 2.47208 2.16773 2.14542C2.49385 1.81931 2.88607 1.65625 3.3444 1.65625H9.30273C9.53885 1.65625 9.76107 1.70125 9.9694 1.79125C10.1777 1.88181 10.3583 2.00347 10.5111 2.15625L17.8444 9.51042C18.1638 9.82986 18.3236 10.2221 18.3236 10.6871C18.3236 11.1526 18.1638 11.5451 17.8444 11.8646L11.8861 17.8229C11.7333 17.9757 11.5563 18.0971 11.3552 18.1871C11.1536 18.2776 10.9416 18.3229 10.7194 18.3229ZM10.6986 16.6563L16.6569 10.6979L9.30273 3.32292H3.3444V9.28125L10.6986 16.6563ZM5.42773 6.65625C5.77496 6.65625 6.06996 6.53458 6.31273 6.29125C6.55607 6.04847 6.67773 5.75347 6.67773 5.40625C6.67773 5.05903 6.55607 4.76403 6.31273 4.52125C6.06996 4.27792 5.77496 4.15625 5.42773 4.15625C5.08051 4.15625 4.78551 4.27792 4.54273 4.52125C4.2994 4.76403 4.17773 5.05903 4.17773 5.40625C4.17773 5.75347 4.2994 6.04847 4.54273 6.29125C4.78551 6.53458 5.08051 6.65625 5.42773 6.65625Z" fill="currentColor"/>
</svg>
