<svg width="20" height="20" viewBox="0 0 20 20" fill="none" xmlns="http://www.w3.org/2000/svg">
<path d="M1.667 18.333L5.917 6.5L13.5 14.083L1.667 18.333ZM4.562 15.438L10.333 13.396L6.604 9.688L4.562 15.438ZM12.25 10.417L11.333 9.5L15.938 4.896C16.382 4.45133 16.913 4.23266 17.531 4.24C18.149 4.24666 18.6803 4.47233 19.125 4.917L19.625 5.417L18.729 6.312L18.208 5.792C18.014 5.59733 17.7883 5.50333 17.531 5.51C17.2743 5.51733 17.0487 5.618 16.854 5.812L12.25 10.417ZM8.917 7.062L8 6.146L8.5 5.646C8.68067 5.46533 8.771 5.257 8.771 5.021C8.771 4.785 8.68067 4.57666 8.5 4.396L7.958 3.854L8.854 2.958L9.375 3.479C9.81967 3.90966 10.0487 4.42 10.062 5.01C10.076 5.60066 9.861 6.118 9.417 6.562L8.917 7.062ZM10.562 8.729L9.646 7.812L12.625 4.833C12.8197 4.639 12.917 4.41333 12.917 4.156C12.917 3.89933 12.8197 3.67366 12.625 3.479L11.312 2.167L12.208 1.271L13.521 2.583C13.9657 3.02766 14.188 3.559 14.188 4.177C14.188 4.795 13.9657 5.32633 13.521 5.771L10.562 8.729ZM13.917 12.062L13 11.146L14.396 9.75C14.84 9.30533 15.3607 9.07966 15.958 9.073C16.5553 9.06566 17.0763 9.28433 17.521 9.729L18.938 11.146L18.021 12.062L16.625 10.667C16.4443 10.4863 16.2257 10.396 15.969 10.396C15.7117 10.396 15.4927 10.4863 15.312 10.667L13.917 12.062Z" fill="currentColor"/>
</svg>
