<svg width="20" height="20" viewBox="0 0 20 20" fill="none" xmlns="http://www.w3.org/2000/svg">
<path d="M2.5 9.125V2.5H9.125V9.125H2.5ZM4.25 7.375H7.375V4.25H4.25V7.375ZM2.5 17.5V10.875H9.125V17.5H2.5ZM4.25 15.75H7.417V12.625H4.25V15.75ZM10.875 9.125V2.5H17.5V9.125H10.875ZM12.625 7.375H15.75V4.25H12.625V7.375ZM15.854 17.5V15.833H17.5V17.5H15.854ZM10.875 12.521V10.875H12.542V12.521H10.875ZM12.542 14.167V12.521H14.208V14.167H12.542ZM10.875 15.833V14.167H12.542V15.833H10.875ZM12.542 17.5V15.833H14.208V17.5H12.542ZM14.208 15.833V14.167H15.854V15.833H14.208ZM14.208 12.521V10.875H15.854V12.521H14.208ZM15.854 14.167V12.521H17.5V14.167H15.854Z" fill="currentColor"/>
</svg>
