<svg width="20" height="20" viewBox="0 0 20 20" fill="none" xmlns="http://www.w3.org/2000/svg">
<path d="M4.20799 6.50001L7.58299 9.87501L6.35399 11.104L5.08299 9.83301V10C5.08299 11.3473 5.56566 12.5037 6.53099 13.469C7.49633 14.4343 8.65266 14.917 9.99999 14.917C10.3613 14.917 10.726 14.8753 11.094 14.792C11.462 14.7087 11.8057 14.5837 12.125 14.417L13.438 15.729C12.91 16.0483 12.3507 16.2847 11.76 16.438C11.17 16.5907 10.5833 16.667 9.99999 16.667C8.15266 16.667 6.57966 16.0177 5.28099 14.719C3.98233 13.4203 3.33299 11.8473 3.33299 10V9.83301L2.06199 11.104L0.832993 9.87501L4.20799 6.50001ZM15.792 13.479L12.417 10.104L13.646 8.87501L14.917 10.146V10C14.917 8.65267 14.4343 7.49634 13.469 6.53101C12.5037 5.56567 11.3473 5.08301 9.99999 5.08301C9.63866 5.08301 9.27766 5.12467 8.91699 5.20801C8.55566 5.29134 8.21533 5.40934 7.89599 5.56201L6.58299 4.25001C7.11099 3.94467 7.66666 3.71567 8.24999 3.56301C8.83333 3.40967 9.41666 3.33301 9.99999 3.33301C11.8473 3.33301 13.4203 3.98234 14.719 5.28101C16.0177 6.57967 16.667 8.15267 16.667 10V10.146L17.938 8.87501L19.167 10.104L15.792 13.479Z" fill="currentColor"/>
</svg>
