<svg width="20" height="20" viewBox="0 0 20 20" fill="none" xmlns="http://www.w3.org/2000/svg">
<path d="M9.312 15.5V14.5C9.02067 14.4307 8.61467 14.2433 8.094 13.938C7.57267 13.632 7.18733 13.0417 6.938 12.167L8.25 11.625C8.278 11.7083 8.417 12.0033 8.667 12.51C8.917 13.0174 9.403 13.271 10.125 13.271C10.4863 13.271 10.837 13.1703 11.177 12.969C11.5177 12.7677 11.688 12.4447 11.688 12C11.688 11.6253 11.5453 11.3233 11.26 11.094C10.9753 10.8647 10.5207 10.639 9.896 10.417C9.46533 10.2643 8.92 10.0177 8.26 9.67702C7.60067 9.33702 7.271 8.71535 7.271 7.81202C7.271 7.77068 7.36133 7.43068 7.542 6.79202C7.722 6.15268 8.319 5.72202 9.333 5.50002V4.50002H10.708V5.47902C11.444 5.60435 11.9613 5.88235 12.26 6.31302C12.5587 6.74302 12.736 7.04835 12.792 7.22902L11.562 7.75002C11.5207 7.61135 11.389 7.40302 11.167 7.12502C10.9443 6.84702 10.576 6.70802 10.062 6.70802C9.78467 6.70802 9.47933 6.78802 9.146 6.94802C8.81267 7.10802 8.646 7.38935 8.646 7.79202C8.646 8.16668 8.816 8.45135 9.156 8.64602C9.49667 8.84068 10.021 9.05602 10.729 9.29202C11.6597 9.61135 12.2813 10.0037 12.594 10.469C12.906 10.9343 13.062 11.4447 13.062 12C13.062 12.514 12.958 12.9307 12.75 13.25C12.542 13.5693 12.3023 13.8227 12.031 14.01C11.7603 14.198 11.4967 14.3267 11.24 14.396C10.9827 14.4653 10.7987 14.507 10.688 14.521V15.5H9.312Z" fill="currentColor"/>
<path d="M10 2.6C14.0869 2.6 17.4 5.91309 17.4 10C17.4 14.0869 14.0869 17.4 10 17.4C6.25224 17.4 3.1552 14.614 2.667 11H1.05493C1.55238 15.5 5.36745 19 10 19C14.9706 19 19 14.9706 19 10C19 5.02944 14.9706 1 10 1C6.93334 1 4.22492 2.53378 2.6 4.87608V2.79998H1V7.59998H5.8V5.99998H3.7732C5.08983 3.95462 7.38672 2.6 10 2.6Z" fill="currentColor"/>
</svg>
