<svg width="20" height="20" viewBox="0 0 20 20" fill="none" xmlns="http://www.w3.org/2000/svg">
<path d="M5.30591 9.14258L9.55591 2.14258L13.8059 9.14258H5.30591ZM14.0559 18.1426C13.0837 18.1426 12.2573 17.8023 11.5767 17.1217C10.8962 16.4412 10.5559 15.6148 10.5559 14.6426C10.5559 13.6704 10.8962 12.844 11.5767 12.1634C12.2573 11.4829 13.0837 11.1426 14.0559 11.1426C15.0281 11.1426 15.8545 11.4829 16.5351 12.1634C17.2156 12.844 17.5559 13.6704 17.5559 14.6426C17.5559 15.6148 17.2156 16.4412 16.5351 17.1217C15.8545 17.8023 15.0281 18.1426 14.0559 18.1426ZM2.55591 17.6426V11.6426H8.55591V17.6426H2.55591ZM14.0512 16.6426C14.6099 16.6426 15.0837 16.4497 15.4726 16.0639C15.8615 15.6782 16.0559 15.206 16.0559 14.6473C16.0559 14.0886 15.863 13.6148 15.4773 13.2259C15.0915 12.837 14.6193 12.6426 14.0606 12.6426C13.5019 12.6426 13.0281 12.8355 12.6392 13.2212C12.2504 13.607 12.0559 14.0792 12.0559 14.6379C12.0559 15.1966 12.2488 15.6704 12.6346 16.0592C13.0203 16.4481 13.4925 16.6426 14.0512 16.6426ZM4.05591 16.1426H7.05591V13.1426H4.05591V16.1426ZM7.97258 7.64258H11.1392L9.55591 5.03841L7.97258 7.64258Z" fill="#656A81"/>
</svg>
