<svg width="20" height="20" viewBox="0 0 20 20" fill="none" xmlns="http://www.w3.org/2000/svg">
<path d="M4.20801 17.5C3.95801 17.5 3.73234 17.427 3.53101 17.281C3.32967 17.135 3.19434 16.944 3.12501 16.708L0.812007 8.29199C0.756674 8.09732 0.795007 7.91666 0.927007 7.74999C1.05901 7.58332 1.22934 7.49999 1.43801 7.49999H5.62501L9.27101 2.08299C9.35434 1.97232 9.45501 1.87866 9.57301 1.80199C9.69101 1.72599 9.82634 1.68799 9.97901 1.68799C10.1317 1.68799 10.2707 1.72266 10.396 1.79199C10.5207 1.86132 10.618 1.95832 10.688 2.08299L14.333 7.49999H18.542C18.764 7.49999 18.941 7.58332 19.073 7.74999C19.205 7.91666 19.2433 8.09732 19.188 8.29199L16.854 16.708C16.7847 16.944 16.6527 17.135 16.458 17.281C16.264 17.427 16.0487 17.5 15.812 17.5H4.20801ZM7.72901 7.49999H12.208L9.97901 4.16699L7.72901 7.49999ZM10 14.167C10.4587 14.167 10.851 14.0037 11.177 13.677C11.5037 13.351 11.667 12.9587 11.667 12.5C11.667 12.0413 11.5037 11.649 11.177 11.323C10.851 10.9963 10.4587 10.833 10 10.833C9.54134 10.833 9.14901 10.9963 8.82301 11.323C8.49634 11.649 8.33301 12.0413 8.33301 12.5C8.33301 12.9587 8.49634 13.351 8.82301 13.677C9.14901 14.0037 9.54134 14.167 10 14.167ZM4.66701 15.75H15.312L17.125 9.24999H2.87501L4.66701 15.75Z" fill="currentColor"/>
</svg>
