<svg width="27" height="28" viewBox="0 0 27 28" fill="none" xmlns="http://www.w3.org/2000/svg">
<path fill-rule="evenodd" clip-rule="evenodd" d="M4.41853 1.97081e-07H22.0246C23.1966 -0.000359773 24.3209 0.49241 25.1498 1.36987C25.9787 2.24733 26.4444 3.43757 26.4444 4.67867V23.3199C26.4444 25.9047 24.4655 28 22.0246 28H4.41853C1.97803 27.9992 0 25.9042 0 23.3199V4.67867C0 2.09471 1.97823 1.97081e-07 4.41853 1.97081e-07ZM20.2451 22.9097C21.0153 22.9097 21.6397 22.2485 21.6397 21.433L21.6359 6.56833C21.6359 5.75278 21.0115 5.09165 20.2412 5.09165H6.2044C5.83431 5.09165 5.4794 5.24742 5.21783 5.52464C4.95626 5.80187 4.80949 6.17782 4.80982 6.56969V21.433C4.80982 22.2485 5.43419 22.9097 6.2044 22.9097H20.2451Z" fill="currentColor"/>
<path d="M10.2762 17.9971C9.81571 17.9932 9.44433 17.5968 9.44435 17.109V10.8924C9.44328 10.6561 9.53115 10.4291 9.68854 10.2616C9.84593 10.0941 10.0598 10 10.283 10H16.1613C16.3843 10.0004 16.598 10.0946 16.7554 10.262C16.9126 10.4294 17.0006 10.6562 16.9999 10.8924V17.1076C17.0006 17.3437 16.9126 17.5705 16.7554 17.7379C16.598 17.9053 16.3843 17.9996 16.1613 18L10.2762 17.9971Z" fill="currentColor"/>
</svg>
