<svg width="20" height="20" viewBox="0 0 20 20" fill="none" xmlns="http://www.w3.org/2000/svg">
<path d="M10.0001 18.3332C8.8473 18.3332 7.76397 18.1143 6.75008 17.6765C5.73619 17.2393 4.85425 16.6457 4.10425 15.8957C3.35425 15.1457 2.76064 14.2637 2.32341 13.2498C1.88564 12.2359 1.66675 11.1526 1.66675 9.99984C1.66675 8.84706 1.88564 7.76373 2.32341 6.74984C2.76064 5.73595 3.35425 4.854 4.10425 4.104C4.85425 3.354 5.73619 2.76011 6.75008 2.32234C7.76397 1.88511 8.8473 1.6665 10.0001 1.6665C11.1529 1.6665 12.2362 1.88511 13.2501 2.32234C14.264 2.76011 15.1459 3.354 15.8959 4.104C16.6459 4.854 17.2395 5.73595 17.6767 6.74984C18.1145 7.76373 18.3334 8.84706 18.3334 9.99984C18.3334 11.1526 18.1145 12.2359 17.6767 13.2498C17.2395 14.2637 16.6459 15.1457 15.8959 15.8957C15.1459 16.6457 14.264 17.2393 13.2501 17.6765C12.2362 18.1143 11.1529 18.3332 10.0001 18.3332ZM9.16675 10.8332H10.8334V5.83317H9.16675V10.8332ZM10.0001 14.1665C10.2362 14.1665 10.4342 14.0865 10.5942 13.9265C10.7537 13.7671 10.8334 13.5693 10.8334 13.3332C10.8334 13.0971 10.7537 12.899 10.5942 12.739C10.4342 12.5796 10.2362 12.4998 10.0001 12.4998C9.76397 12.4998 9.56619 12.5796 9.40675 12.739C9.24675 12.899 9.16675 13.0971 9.16675 13.3332C9.16675 13.5693 9.24675 13.7671 9.40675 13.9265C9.56619 14.0865 9.76397 14.1665 10.0001 14.1665Z" fill="#E5243C"/>
</svg>
