<svg width="20" height="20" viewBox="0 0 20 20" fill="none" xmlns="http://www.w3.org/2000/svg">
<path d="M10.0001 18.3334C8.8473 18.3334 7.76397 18.1145 6.75008 17.6767C5.73619 17.2395 4.85425 16.6459 4.10425 15.8959C3.35425 15.1459 2.76064 14.264 2.32341 13.2501C1.88564 12.2362 1.66675 11.1529 1.66675 10.0001C1.66675 8.8473 1.88564 7.76397 2.32341 6.75008C2.76064 5.73619 3.35425 4.85425 4.10425 4.10425C4.85425 3.35425 5.73619 2.76036 6.75008 2.32258C7.76397 1.88536 8.8473 1.66675 10.0001 1.66675C11.1529 1.66675 12.2362 1.88536 13.2501 2.32258C14.264 2.76036 15.1459 3.35425 15.8959 4.10425C16.6459 4.85425 17.2395 5.73619 17.6767 6.75008C18.1145 7.76397 18.3334 8.8473 18.3334 10.0001C18.3334 11.1529 18.1145 12.2362 17.6767 13.2501C17.2395 14.264 16.6459 15.1459 15.8959 15.8959C15.1459 16.6459 14.264 17.2395 13.2501 17.6767C12.2362 18.1145 11.1529 18.3334 10.0001 18.3334ZM5.83341 11.2501C6.18064 11.2501 6.47564 11.1284 6.71841 10.8851C6.96175 10.6423 7.08341 10.3473 7.08341 10.0001C7.08341 9.65286 6.96175 9.35786 6.71841 9.11508C6.47564 8.87175 6.18064 8.75008 5.83341 8.75008C5.48619 8.75008 5.19119 8.87175 4.94841 9.11508C4.70508 9.35786 4.58341 9.65286 4.58341 10.0001C4.58341 10.3473 4.70508 10.6423 4.94841 10.8851C5.19119 11.1284 5.48619 11.2501 5.83341 11.2501ZM10.0001 11.2501C10.3473 11.2501 10.6423 11.1284 10.8851 10.8851C11.1284 10.6423 11.2501 10.3473 11.2501 10.0001C11.2501 9.65286 11.1284 9.35786 10.8851 9.11508C10.6423 8.87175 10.3473 8.75008 10.0001 8.75008C9.65286 8.75008 9.35786 8.87175 9.11508 9.11508C8.87175 9.35786 8.75008 9.65286 8.75008 10.0001C8.75008 10.3473 8.87175 10.6423 9.11508 10.8851C9.35786 11.1284 9.65286 11.2501 10.0001 11.2501ZM14.1667 11.2501C14.514 11.2501 14.809 11.1284 15.0517 10.8851C15.2951 10.6423 15.4167 10.3473 15.4167 10.0001C15.4167 9.65286 15.2951 9.35786 15.0517 9.11508C14.809 8.87175 14.514 8.75008 14.1667 8.75008C13.8195 8.75008 13.5245 8.87175 13.2817 9.11508C13.0384 9.35786 12.9167 9.65286 12.9167 10.0001C12.9167 10.3473 13.0384 10.6423 13.2817 10.8851C13.5245 11.1284 13.8195 11.2501 14.1667 11.2501Z" fill="#41B658"/>
</svg>
