<svg width="20" height="20" viewBox="0 0 20 20" fill="none" xmlns="http://www.w3.org/2000/svg">
<path d="M10.0001 18.3334C8.8473 18.3334 7.76397 18.1145 6.75008 17.6767C5.73619 17.2395 4.85425 16.6459 4.10425 15.8959C3.35425 15.1459 2.76064 14.264 2.32341 13.2501C1.88564 12.2362 1.66675 11.1529 1.66675 10.0001C1.66675 8.8473 1.88564 7.76397 2.32341 6.75008C2.76064 5.73619 3.35425 4.85425 4.10425 4.10425C4.85425 3.35425 5.73619 2.76036 6.75008 2.32258C7.76397 1.88536 8.8473 1.66675 10.0001 1.66675C11.1529 1.66675 12.2362 1.88536 13.2501 2.32258C14.264 2.76036 15.1459 3.35425 15.8959 4.10425C16.6459 4.85425 17.2395 5.73619 17.6767 6.75008C18.1145 7.76397 18.3334 8.8473 18.3334 10.0001C18.3334 11.1529 18.1145 12.2362 17.6767 13.2501C17.2395 14.264 16.6459 15.1459 15.8959 15.8959C15.1459 16.6459 14.264 17.2395 13.2501 17.6767C12.2362 18.1145 11.1529 18.3334 10.0001 18.3334ZM8.83341 13.8334L14.7084 7.95841L13.5417 6.79175L8.83341 11.5001L6.45841 9.12508L5.29175 10.2917L8.83341 13.8334Z" fill="#9CA1B9"/>
</svg>
