<svg width="14" height="13" viewBox="0 0 14 13" fill="none" xmlns="http://www.w3.org/2000/svg">
<path d="M8.70801 12.833H2.85401V11.083H8.70801C9.56934 11.083 10.3193 10.8193 10.958 10.292C11.5973 9.76401 11.917 9.09034 11.917 8.27101C11.917 7.45167 11.5973 6.77467 10.958 6.24001C10.3193 5.70534 9.56934 5.43801 8.70801 5.43801H3.66701L5.79201 7.56201L4.56201 8.79201L0.333008 4.56201L4.56201 0.333008L5.79201 1.56201L3.66701 3.68801H8.70801C10.0553 3.68801 11.2187 4.12201 12.198 4.99001C13.1773 5.85801 13.667 6.94467 13.667 8.25001C13.667 9.55534 13.1773 10.6457 12.198 11.521C11.2187 12.3957 10.0553 12.833 8.70801 12.833Z" fill="#656A81"/>
</svg>
