<svg width="20" height="20" viewBox="0 0 20 20" fill="none" xmlns="http://www.w3.org/2000/svg">
<path d="M3.417 16.667C2.931 16.667 2.51767 16.4967 2.177 16.156C1.837 15.816 1.667 15.403 1.667 14.917V11.562C2.111 11.59 2.49633 11.4477 2.823 11.135C3.149 10.823 3.312 10.4447 3.312 10C3.312 9.55534 3.149 9.18034 2.823 8.87501C2.49633 8.56967 2.111 8.43067 1.667 8.45801V5.08301C1.667 4.59701 1.837 4.18401 2.177 3.84401C2.51767 3.50334 2.931 3.33301 3.417 3.33301H16.583C17.069 3.33301 17.4823 3.50334 17.823 3.84401C18.163 4.18401 18.333 4.59701 18.333 5.08301V8.45801C17.889 8.43067 17.5037 8.56967 17.177 8.87501C16.851 9.18034 16.688 9.55534 16.688 10C16.688 10.4447 16.851 10.823 17.177 11.135C17.5037 11.4477 17.889 11.59 18.333 11.562V14.917C18.333 15.403 18.163 15.816 17.823 16.156C17.4823 16.4967 17.069 16.667 16.583 16.667H3.417ZM3.417 14.917H16.583V12.833C16.069 12.5417 15.6663 12.1423 15.375 11.635C15.0837 11.1283 14.938 10.5833 14.938 10C14.938 9.41667 15.087 8.87167 15.385 8.36501C15.6837 7.85767 16.083 7.45834 16.583 7.16701V5.08301H3.417V7.16701C3.931 7.45834 4.33367 7.85767 4.625 8.36501C4.91633 8.87167 5.062 9.41667 5.062 10C5.062 10.5833 4.91633 11.1283 4.625 11.635C4.33367 12.1423 3.931 12.5417 3.417 12.833V14.917ZM7.646 13.521L10 11.729L12.354 13.521L11.479 10.646L13.812 8.79201H10.938L10 5.91701L9.062 8.79201H6.188L8.521 10.646L7.646 13.521Z" fill="currentColor"/>
</svg>
