<svg width="20" height="20" viewBox="0 0 20 20" fill="none" xmlns="http://www.w3.org/2000/svg">
<path fill-rule="evenodd" clip-rule="evenodd" d="M6.6875 16.6667C6.35417 16.6667 6.0625 16.5417 5.8125 16.2917C5.5625 16.0417 5.4375 15.75 5.4375 15.4167V13.3333H8.02083V9.74048L9.27083 8.5V13.3333H14.375V14.4792C14.375 14.7569 14.4618 14.9826 14.6354 15.1562C14.809 15.3299 15.0347 15.4167 15.3125 15.4167C15.5903 15.4167 15.816 15.3299 15.9896 15.1562C16.1632 14.9826 16.25 14.7569 16.25 14.4792V4.58333H13.2235L14.4844 3.33333H17.5V14.4792C17.5 15.0903 17.2882 15.6076 16.8646 16.0312C16.441 16.4549 15.9236 16.6667 15.3125 16.6667H6.6875ZM13.4167 15.4167H6.6875V15.0729V14.5833H13.125C13.125 14.7639 13.1528 14.9271 13.2083 15.0729C13.2639 15.2187 13.3333 15.3333 13.4167 15.4167Z" fill="currentColor"/>
<path d="M12.5 3.18333L11.325 2L5.83333 7.49167L3.675 5.34167L2.5 6.51667L5.83333 9.85L12.5 3.18333Z" fill="currentColor"/>
</svg>
