<svg width="20" height="20" viewBox="0 0 20 20" fill="none" xmlns="http://www.w3.org/2000/svg">
<path d="M6.6875 16.6667C6.35417 16.6667 6.0625 16.5417 5.8125 16.2917C5.5625 16.0417 5.4375 15.75 5.4375 15.4167V13.3334H8.02083V10.6875C7.49306 10.7292 6.96528 10.6563 6.4375 10.4688C5.90972 10.2813 5.4375 9.98615 5.02083 9.58337V8.37504H3.97917L1.25 5.64587C1.75 5.17365 2.34722 4.78823 3.04167 4.48962C3.73611 4.19101 4.44444 4.04171 5.16667 4.04171C5.58333 4.04171 6.05903 4.10768 6.59375 4.23962C7.12847 4.37157 7.60417 4.58337 8.02083 4.87504V3.33337H17.5V14.4792C17.5 15.0903 17.2882 15.6077 16.8646 16.0313C16.441 16.4549 15.9236 16.6667 15.3125 16.6667H6.6875ZM9.27083 13.3334H14.375V14.4792C14.375 14.757 14.4618 14.9827 14.6354 15.1563C14.809 15.3299 15.0347 15.4167 15.3125 15.4167C15.5903 15.4167 15.816 15.3299 15.9896 15.1563C16.1632 14.9827 16.25 14.757 16.25 14.4792V4.58337H9.27083V5.77087L14.2917 10.7917V11.6875H13.3958L10.7708 9.06254L10.4167 9.47921C10.2361 9.68754 10.0556 9.84726 9.875 9.95837C9.69444 10.0695 9.49306 10.1737 9.27083 10.2709V13.3334ZM4.54167 7.12504H6.27083V8.97921C6.50694 9.13198 6.73958 9.24657 6.96875 9.32296C7.19792 9.39935 7.43056 9.43754 7.66667 9.43754C8.01389 9.43754 8.36806 9.34379 8.72917 9.15629C9.09028 8.96879 9.35417 8.77782 9.52083 8.58337L9.875 8.16671L8.4375 6.72921C7.99306 6.28476 7.49306 5.93407 6.9375 5.67712C6.38194 5.42018 5.79167 5.29171 5.16667 5.29171C4.79167 5.29171 4.45139 5.33685 4.14583 5.42712C3.84028 5.5174 3.52778 5.63893 3.20833 5.79171L4.54167 7.12504ZM6.6875 15.4167H13.4167C13.3333 15.3334 13.2639 15.2188 13.2083 15.073C13.1528 14.9271 13.125 14.7639 13.125 14.5834H6.6875V15.4167ZM6.6875 15.4167V14.5834C6.6875 14.7639 6.6875 14.9271 6.6875 15.073C6.6875 15.2188 6.6875 15.3334 6.6875 15.4167Z" fill="currentColor"/>
</svg>
